  0
SECTION
  2
HEADER
  9
$ANGBASE
  50
0.0
  9
$ANGDIR
  70
  1
  9
$MEASUREMENT
  70
0
  0
ENDSEC
  0
SECTION
  2
TABLES
  0
TABLE
  2
LTYPE
  70
1
  0
LTYPE
  2
CONTINUOUS
  70
0
  3
Solid line
  72
65
  73
0
  40
0.0
  0
ENDTAB
  0
TABLE
  2
STYLE
  70
4
  0
STYLE
  2
KICAD
  70
0
  40
0
  41
1
  42
1
  50
0
  71
0
  3
isocp.shx
  0
STYLE
  2
KICADB
  70
0
  40
0
  41
1
  42
1
  50
0
  71
0
  3
isocp.shx
  0
STYLE
  2
KICADI
  70
0
  40
0
  41
1
  42
1
  50
15
  71
0
  3
isocp.shx
  0
STYLE
  2
KICADBI
  70
0
  40
0
  41
1
  42
1
  50
15
  71
0
  3
isocp.shx
  0
ENDTAB
  0
TABLE
  2
LAYER
  70
30
  0
LAYER
  2
BLACK
  70
0
  62
7
  6
CONTINUOUS
  0
LAYER
  2
GRAY1
  70
0
  62
251
  6
CONTINUOUS
  0
LAYER
  2
GRAY2
  70
0
  62
8
  6
CONTINUOUS
  0
LAYER
  2
GRAY3
  70
0
  62
9
  6
CONTINUOUS
  0
LAYER
  2
WHITE
  70
0
  62
7
  6
CONTINUOUS
  0
LAYER
  2
LYELLOW
  70
0
  62
51
  6
CONTINUOUS
  0
LAYER
  2
BLUE1
  70
0
  62
178
  6
CONTINUOUS
  0
LAYER
  2
GREEN1
  70
0
  62
98
  6
CONTINUOUS
  0
LAYER
  2
CYAN1
  70
0
  62
138
  6
CONTINUOUS
  0
LAYER
  2
RED1
  70
0
  62
18
  6
CONTINUOUS
  0
LAYER
  2
MAGENTA1
  70
0
  62
228
  6
CONTINUOUS
  0
LAYER
  2
BROWN1
  70
0
  62
58
  6
CONTINUOUS
  0
LAYER
  2
BLUE2
  70
0
  62
5
  6
CONTINUOUS
  0
LAYER
  2
GREEN2
  70
0
  62
3
  6
CONTINUOUS
  0
LAYER
  2
CYAN2
  70
0
  62
4
  6
CONTINUOUS
  0
LAYER
  2
RED2
  70
0
  62
1
  6
CONTINUOUS
  0
LAYER
  2
MAGENTA2
  70
0
  62
6
  6
CONTINUOUS
  0
LAYER
  2
BROWN2
  70
0
  62
54
  6
CONTINUOUS
  0
LAYER
  2
BLUE3
  70
0
  62
171
  6
CONTINUOUS
  0
LAYER
  2
GREEN3
  70
0
  62
91
  6
CONTINUOUS
  0
LAYER
  2
CYAN3
  70
0
  62
131
  6
CONTINUOUS
  0
LAYER
  2
RED3
  70
0
  62
11
  6
CONTINUOUS
  0
LAYER
  2
MAGENTA3
  70
0
  62
221
  6
CONTINUOUS
  0
LAYER
  2
YELLOW3
  70
0
  62
2
  6
CONTINUOUS
  0
LAYER
  2
BLUE4
  70
0
  62
5
  6
CONTINUOUS
  0
LAYER
  2
GREEN4
  70
0
  62
3
  6
CONTINUOUS
  0
LAYER
  2
CYAN4
  70
0
  62
4
  6
CONTINUOUS
  0
LAYER
  2
RED4
  70
0
  62
1
  6
CONTINUOUS
  0
LAYER
  2
MAGENTA4
  70
0
  62
6
  6
CONTINUOUS
  0
LAYER
  2
YELLOW4
  70
0
  62
2
  6
CONTINUOUS
  0
ENDTAB
  0
ENDSEC
  0
SECTION
  2
ENTITIES
0
LINE
8
Black
10
118.588
20
-156.537
11
119.687
21
-156.653
0
LINE
8
Black
10
118.589
20
-156.527
11
119.688
21
-156.643
0
ARC
8
Black
10
119.688
20
-156.648
40
0.005
50
263.961
51
443.961
0
ARC
8
Black
10
118.588
20
-156.532
40
0.005
50
83.9613
51
263.961
0
LINE
8
Black
10
119.686
20
-156.653
11
120.621
21
-156.935
0
LINE
8
Black
10
119.689
20
-156.644
11
120.624
21
-156.925
0
ARC
8
Black
10
120.622
20
-156.93
40
0.005
50
253.226
51
433.226
0
ARC
8
Black
10
119.688
20
-156.648
40
0.005
50
73.226
51
253.226
0
LINE
8
Black
10
120.62
20
-156.935
11
121.386
21
-157.28
0
LINE
8
Black
10
120.624
20
-156.926
11
121.391
21
-157.271
0
ARC
8
Black
10
121.389
20
-157.275
40
0.005
50
245.749
51
425.749
0
ARC
8
Black
10
120.622
20
-156.93
40
0.005
50
65.7488
51
245.749
0
LINE
8
Black
10
121.386
20
-157.28
11
122
21
-157.609
0
LINE
8
Black
10
121.391
20
-157.271
11
122.005
21
-157.6
0
ARC
8
Black
10
122.002
20
-157.604
40
0.005
50
241.802
51
421.802
0
ARC
8
Black
10
121.389
20
-157.275
40
0.005
50
61.8022
51
241.802
0
LINE
8
Black
10
122
20
-157.609
11
122.488
21
-157.87
0
LINE
8
Black
10
122.005
20
-157.6
11
122.493
21
-157.861
0
ARC
8
Black
10
122.491
20
-157.865
40
0.005
50
241.892
51
421.892
0
ARC
8
Black
10
122.002
20
-157.604
40
0.005
50
61.8917
51
241.892
0
LINE
8
Black
10
122.489
20
-157.87
11
122.802
21
-158.007
0
LINE
8
Black
10
122.493
20
-157.861
11
122.806
21
-157.998
0
ARC
8
Black
10
122.804
20
-158.002
40
0.005
50
246.331
51
426.331
0
ARC
8
Black
10
122.491
20
-157.865
40
0.005
50
66.3313
51
246.331
0
LINE
8
Black
10
122.802
20
-158.007
11
122.914
21
-158.037
0
LINE
8
Black
10
122.805
20
-157.998
11
122.916
21
-158.027
0
ARC
8
Black
10
122.915
20
-158.032
40
0.005
50
255.085
51
435.085
0
ARC
8
Black
10
122.804
20
-158.002
40
0.005
50
75.0851
51
255.085
0
LINE
8
Black
10
86.2625
20
-158.037
11
86.3201
21
-158.024
0
LINE
8
Black
10
86.2604
20
-158.027
11
86.3179
21
-158.014
0
ARC
8
Black
10
86.319
20
-158.019
40
0.005
50
282.501
51
462.501
0
ARC
8
Black
10
86.2615
20
-158.032
40
0.005
50
102.501
51
282.501
0
LINE
8
Black
10
86.3207
20
-158.024
11
86.4843
21
-157.965
0
LINE
8
Black
10
86.3173
20
-158.015
11
86.4809
21
-157.955
0
ARC
8
Black
10
86.4826
20
-157.96
40
0.005
50
289.974
51
469.974
0
ARC
8
Black
10
86.319
20
-158.019
40
0.005
50
109.974
51
289.974
0
LINE
8
Black
10
86.4848
20
-157.964
11
86.7457
21
-157.84
0
LINE
8
Black
10
86.4805
20
-157.955
11
86.7414
21
-157.831
0
ARC
8
Black
10
86.7436
20
-157.836
40
0.005
50
295.389
51
475.389
0
ARC
8
Black
10
86.4826
20
-157.96
40
0.005
50
115.389
51
295.389
0
LINE
8
Black
10
86.7459
20
-157.84
11
87.1642
21
-157.616
0
LINE
8
Black
10
86.7412
20
-157.832
11
87.1594
21
-157.607
0
ARC
8
Black
10
87.1618
20
-157.611
40
0.005
50
298.261
51
478.261
0
ARC
8
Black
10
86.7436
20
-157.836
40
0.005
50
118.261
51
298.261
0
LINE
8
Black
10
87.1642
20
-157.616
11
87.6936
21
-157.329
0
LINE
8
Black
10
87.1594
20
-157.607
11
87.6888
21
-157.321
0
ARC
8
Black
10
87.6912
20
-157.325
40
0.005
50
298.389
51
478.389
0
ARC
8
Black
10
87.1618
20
-157.611
40
0.005
50
118.389
51
298.389
0
LINE
8
Black
10
87.6934
20
-157.33
11
88.2644
21
-157.055
0
LINE
8
Black
10
87.6891
20
-157.32
11
88.2601
21
-157.046
0
ARC
8
Black
10
88.2622
20
-157.05
40
0.005
50
295.681
51
475.681
0
ARC
8
Black
10
87.6912
20
-157.325
40
0.005
50
115.681
51
295.681
0
LINE
8
Black
10
88.264
20
-157.055
11
88.9341
21
-156.801
0
LINE
8
Black
10
88.2605
20
-157.046
11
88.9306
21
-156.791
0
ARC
8
Black
10
88.9324
20
-156.796
40
0.005
50
290.778
51
470.778
0
ARC
8
Black
10
88.2622
20
-157.05
40
0.005
50
110.778
51
290.778
0
LINE
8
Black
10
88.9335
20
-156.801
11
89.7161
21
-156.611
0
LINE
8
Black
10
88.9312
20
-156.791
11
89.7137
21
-156.601
0
ARC
8
Black
10
89.7149
20
-156.606
40
0.005
50
283.668
51
463.668
0
ARC
8
Black
10
88.9324
20
-156.796
40
0.005
50
103.668
51
283.668
0
LINE
8
Black
10
89.7153
20
-156.611
11
90.5887
21
-156.537
0
LINE
8
Black
10
89.7144
20
-156.601
11
90.5878
21
-156.527
0
ARC
8
Black
10
90.5883
20
-156.532
40
0.005
50
274.833
51
454.833
0
ARC
8
Black
10
89.7149
20
-156.606
40
0.005
50
94.8326
51
274.833
0
LINE
8
Black
10
81.5833
20
-145.031
11
81.4849
21
-145.892
0
LINE
8
Black
10
81.5932
20
-145.033
11
81.4948
21
-145.893
0
ARC
8
Black
10
81.4899
20
-145.892
40
0.005
50
533.476
51
713.476
0
ARC
8
Black
10
81.5883
20
-145.032
40
0.005
50
353.476
51
533.476
0
LINE
8
Black
10
81.4852
20
-145.89
11
81.2132
21
-146.563
0
LINE
8
Black
10
81.4945
20
-145.894
11
81.2225
21
-146.567
0
ARC
8
Black
10
81.2179
20
-146.565
40
0.005
50
517.993
51
697.993
0
ARC
8
Black
10
81.4899
20
-145.892
40
0.005
50
337.993
51
517.993
0
LINE
8
Black
10
81.2139
20
-146.562
11
80.8031
21
-147.089
0
LINE
8
Black
10
81.2218
20
-146.568
11
80.8109
21
-147.095
0
ARC
8
Black
10
80.807
20
-147.092
40
0.005
50
502.045
51
682.045
0
ARC
8
Black
10
81.2179
20
-146.565
40
0.005
50
322.045
51
502.045
0
LINE
8
Black
10
80.8038
20
-147.088
11
80.2888
21
-147.51
0
LINE
8
Black
10
80.8102
20
-147.096
11
80.2951
21
-147.518
0
ARC
8
Black
10
80.292
20
-147.514
40
0.005
50
489.305
51
669.305
0
ARC
8
Black
10
80.807
20
-147.092
40
0.005
50
309.305
51
489.305
0
LINE
8
Black
10
80.2893
20
-147.509
11
79.7049
21
-147.867
0
LINE
8
Black
10
80.2946
20
-147.518
11
79.7101
21
-147.876
0
ARC
8
Black
10
79.7075
20
-147.871
40
0.005
50
481.458
51
661.458
0
ARC
8
Black
10
80.292
20
-147.514
40
0.005
50
301.458
51
481.458
0
LINE
8
Black
10
79.7051
20
-147.867
11
79.0859
21
-148.201
0
LINE
8
Black
10
79.7098
20
-147.876
11
79.0906
21
-148.21
0
ARC
8
Black
10
79.0883
20
-148.206
40
0.005
50
478.387
51
658.387
0
ARC
8
Black
10
79.7075
20
-147.871
40
0.005
50
298.387
51
478.387
0
LINE
8
Black
10
79.0858
20
-148.202
11
78.4666
21
-148.554
0
LINE
8
Black
10
79.0907
20
-148.21
11
78.4715
21
-148.563
0
ARC
8
Black
10
78.469
20
-148.559
40
0.005
50
479.669
51
659.669
0
ARC
8
Black
10
79.0883
20
-148.206
40
0.005
50
299.669
51
479.669
0
LINE
8
Black
10
78.4662
20
-148.555
11
77.8817
21
-148.966
0
LINE
8
Black
10
78.4719
20
-148.563
11
77.8874
21
-148.975
0
ARC
8
Black
10
77.8845
20
-148.971
40
0.005
50
485.176
51
665.176
0
ARC
8
Black
10
78.469
20
-148.559
40
0.005
50
305.176
51
485.176
0
LINE
8
Black
10
77.881
20
-148.967
11
77.366
21
-149.479
0
LINE
8
Black
10
77.8881
20
-148.974
11
77.373
21
-149.486
0
ARC
8
Black
10
77.3695
20
-149.483
40
0.005
50
494.843
51
674.843
0
ARC
8
Black
10
77.8845
20
-148.971
40
0.005
50
314.843
51
494.843
0
LINE
8
Black
10
77.3654
20
-149.48
11
77.0455
21
-149.955
0
LINE
8
Black
10
77.3736
20
-149.486
11
77.0538
21
-149.96
0
ARC
8
Black
10
77.0497
20
-149.958
40
0.005
50
506.03
51
686.03
0
ARC
8
Black
10
77.3695
20
-149.483
40
0.005
50
326.03
51
506.03
0
LINE
8
Black
10
77.0451
20
-149.956
11
76.7985
21
-150.527
0
LINE
8
Black
10
77.0543
20
-149.959
11
76.8077
21
-150.531
0
ARC
8
Black
10
76.8031
20
-150.529
40
0.005
50
516.663
51
696.663
0
ARC
8
Black
10
77.0497
20
-149.958
40
0.005
50
336.663
51
516.663
0
LINE
8
Black
10
76.7982
20
-150.528
11
76.6395
21
-151.214
0
LINE
8
Black
10
76.808
20
-150.53
11
76.6493
21
-151.216
0
ARC
8
Black
10
76.6444
20
-151.215
40
0.005
50
526.97
51
706.97
0
ARC
8
Black
10
76.8031
20
-150.529
40
0.005
50
346.97
51
526.97
0
LINE
8
Black
10
76.6394
20
-151.214
11
76.5833
21
-152.032
0
LINE
8
Black
10
76.6494
20
-151.215
11
76.5932
21
-152.032
0
ARC
8
Black
10
76.5883
20
-152.032
40
0.005
50
536.069
51
716.069
0
ARC
8
Black
10
76.6444
20
-151.215
40
0.005
50
356.069
51
536.069
0
LINE
8
Black
10
76.2449
20
-101.086
11
77.5294
21
-101.152
0
LINE
8
Black
10
76.2454
20
-101.076
11
77.5299
21
-101.142
0
ARC
8
Black
10
77.5296
20
-101.147
40
0.005
50
267.06
51
447.06
0
ARC
8
Black
10
76.2451
20
-101.081
40
0.005
50
87.0596
51
267.06
0
LINE
8
Black
10
77.5288
20
-101.151
11
78.5899
21
-101.336
0
LINE
8
Black
10
77.5305
20
-101.142
11
78.5916
21
-101.327
0
ARC
8
Black
10
78.5908
20
-101.331
40
0.005
50
260.113
51
440.113
0
ARC
8
Black
10
77.5296
20
-101.147
40
0.005
50
80.1129
51
260.113
0
LINE
8
Black
10
78.5892
20
-101.336
11
79.4481
21
-101.621
0
LINE
8
Black
10
78.5923
20
-101.327
11
79.4512
21
-101.611
0
ARC
8
Black
10
79.4497
20
-101.616
40
0.005
50
251.678
51
431.678
0
ARC
8
Black
10
78.5908
20
-101.331
40
0.005
50
71.6783
51
251.678
0
LINE
8
Black
10
79.4473
20
-101.62
11
80.1252
21
-101.985
0
LINE
8
Black
10
79.452
20
-101.612
11
80.1299
21
-101.976
0
ARC
8
Black
10
80.1276
20
-101.98
40
0.005
50
241.741
51
421.741
0
ARC
8
Black
10
79.4497
20
-101.616
40
0.005
50
61.7409
51
241.741
0
LINE
8
Black
10
80.1244
20
-101.984
11
80.6426
21
-102.409
0
LINE
8
Black
10
80.1308
20
-101.976
11
80.6489
21
-102.401
0
ARC
8
Black
10
80.6457
20
-102.405
40
0.005
50
230.648
51
410.648
0
ARC
8
Black
10
80.1276
20
-101.98
40
0.005
50
50.6481
51
230.648
0
LINE
8
Black
10
80.6419
20
-102.408
11
81.0215
21
-102.874
0
LINE
8
Black
10
80.6496
20
-102.402
11
81.0292
21
-102.868
0
ARC
8
Black
10
81.0253
20
-102.871
40
0.005
50
219.173
51
399.173
0
ARC
8
Black
10
80.6457
20
-102.405
40
0.005
50
39.1731
51
219.173
0
LINE
8
Black
10
81.0208
20
-102.873
11
81.3884
21
-103.641
0
LINE
8
Black
10
81.0298
20
-102.869
11
81.3975
21
-103.637
0
ARC
8
Black
10
81.393
20
-103.639
40
0.005
50
205.577
51
385.577
0
ARC
8
Black
10
81.0253
20
-102.871
40
0.005
50
25.5772
51
205.577
0
LINE
8
Black
10
81.3881
20
-103.64
11
81.5483
21
-104.386
0
LINE
8
Black
10
81.3978
20
-103.638
11
81.558
21
-104.384
0
ARC
8
Black
10
81.5531
20
-104.385
40
0.005
50
192.127
51
372.127
0
ARC
8
Black
10
81.393
20
-103.639
40
0.005
50
12.1271
51
192.127
0
LINE
8
Black
10
81.5482
20
-104.385
11
81.5833
21
-105.032
0
LINE
8
Black
10
81.5581
20
-104.384
11
81.5932
21
-105.032
0
ARC
8
Black
10
81.5883
20
-105.032
40
0.005
50
183.104
51
363.104
0
ARC
8
Black
10
81.5531
20
-104.385
40
0.005
50
3.10392
51
183.104
0
LINE
8
Black
10
104.588
20
-61.027
11
101.577
21
-61.1072
0
LINE
8
Black
10
104.588
20
-61.037
11
101.578
21
-61.1172
0
ARC
8
Black
10
101.577
20
-61.1122
40
0.005
50
451.525
51
631.525
0
ARC
8
Black
10
104.588
20
-61.032
40
0.005
50
271.525
51
451.525
0
LINE
8
Black
10
101.577
20
-61.1072
11
98.7376
21
-61.3419
0
LINE
8
Black
10
101.578
20
-61.1172
11
98.7384
21
-61.3519
0
ARC
8
Black
10
98.738
20
-61.3469
40
0.005
50
454.726
51
634.726
0
ARC
8
Black
10
101.577
20
-61.1122
40
0.005
50
274.726
51
454.726
0
LINE
8
Black
10
98.7373
20
-61.342
11
96.0647
21
-61.7227
0
LINE
8
Black
10
98.7387
20
-61.3519
11
96.0661
21
-61.7326
0
ARC
8
Black
10
96.0654
20
-61.7277
40
0.005
50
458.109
51
638.109
0
ARC
8
Black
10
98.738
20
-61.3469
40
0.005
50
278.109
51
458.109
0
LINE
8
Black
10
96.0644
20
-61.7228
11
93.5537
21
-62.2411
0
LINE
8
Black
10
96.0664
20
-61.7326
11
93.5558
21
-62.2509
0
ARC
8
Black
10
93.5547
20
-62.246
40
0.005
50
461.664
51
641.664
0
ARC
8
Black
10
96.0654
20
-61.7277
40
0.005
50
281.664
51
461.664
0
LINE
8
Black
10
93.5534
20
-62.2412
11
91.2001
21
-62.8884
0
LINE
8
Black
10
93.5561
20
-62.2508
11
91.2027
21
-62.898
0
ARC
8
Black
10
91.2014
20
-62.8932
40
0.005
50
465.378
51
645.378
0
ARC
8
Black
10
93.5547
20
-62.246
40
0.005
50
285.378
51
465.378
0
LINE
8
Black
10
91.1997
20
-62.8885
11
89.0369
21
-63.6414
0
LINE
8
Black
10
91.203
20
-62.8979
11
89.0402
21
-63.6509
0
ARC
8
Black
10
89.0385
20
-63.6462
40
0.005
50
469.194
51
649.194
0
ARC
8
Black
10
91.2014
20
-62.8932
40
0.005
50
289.194
51
469.194
0
LINE
8
Black
10
89.0366
20
-63.6416
11
87.0164
21
-64.5025
0
LINE
8
Black
10
89.0405
20
-63.6507
11
87.0203
21
-64.5117
0
ARC
8
Black
10
87.0184
20
-64.5071
40
0.005
50
473.083
51
653.083
0
ARC
8
Black
10
89.0385
20
-63.6462
40
0.005
50
293.083
51
473.083
0
LINE
8
Black
10
87.0161
20
-64.5027
11
85.1341
21
-65.4636
0
LINE
8
Black
10
87.0206
20
-64.5116
11
85.1386
21
-65.4725
0
ARC
8
Black
10
85.1363
20
-65.468
40
0.005
50
477.048
51
657.048
0
ARC
8
Black
10
87.0184
20
-64.5071
40
0.005
50
297.048
51
477.048
0
LINE
8
Black
10
85.1338
20
-65.4638
11
83.3854
21
-66.5165
0
LINE
8
Black
10
85.1389
20
-65.4723
11
83.3906
21
-66.5251
0
ARC
8
Black
10
83.388
20
-66.5208
40
0.005
50
481.054
51
661.054
0
ARC
8
Black
10
85.1363
20
-65.468
40
0.005
50
301.054
51
481.054
0
LINE
8
Black
10
83.3851
20
-66.5168
11
81.1105
21
-68.164
0
LINE
8
Black
10
83.3909
20
-66.5249
11
81.1163
21
-68.1721
0
ARC
8
Black
10
81.1134
20
-68.168
40
0.005
50
485.911
51
665.911
0
ARC
8
Black
10
83.388
20
-66.5208
40
0.005
50
305.911
51
485.911
0
LINE
8
Black
10
81.1101
20
-68.1643
11
79.0861
21
-69.9588
0
LINE
8
Black
10
81.1167
20
-68.1718
11
79.0927
21
-69.9663
0
ARC
8
Black
10
79.0894
20
-69.9625
40
0.005
50
491.561
51
671.561
0
ARC
8
Black
10
81.1134
20
-68.168
40
0.005
50
311.561
51
491.561
0
LINE
8
Black
10
79.0857
20
-69.9591
11
77.2992
21
-71.8773
0
LINE
8
Black
10
79.093
20
-69.9659
11
77.3065
21
-71.8842
0
ARC
8
Black
10
77.3029
20
-71.8808
40
0.005
50
497.036
51
677.036
0
ARC
8
Black
10
79.0894
20
-69.9625
40
0.005
50
317.036
51
497.036
0
LINE
8
Black
10
77.2989
20
-71.8777
11
75.7369
21
-73.896
0
LINE
8
Black
10
77.3068
20
-71.8838
11
75.7448
21
-73.9021
0
ARC
8
Black
10
75.7408
20
-73.8991
40
0.005
50
502.262
51
682.262
0
ARC
8
Black
10
77.3029
20
-71.8808
40
0.005
50
322.262
51
502.262
0
LINE
8
Black
10
75.7366
20
-73.8963
11
74.386
21
-75.9911
0
LINE
8
Black
10
75.745
20
-73.9018
11
74.3944
21
-75.9965
0
ARC
8
Black
10
74.3902
20
-75.9938
40
0.005
50
507.187
51
687.187
0
ARC
8
Black
10
75.7408
20
-73.8991
40
0.005
50
327.187
51
507.187
0
LINE
8
Black
10
74.3857
20
-75.9915
11
73.1119
21
-78.3908
0
LINE
8
Black
10
74.3946
20
-75.9962
11
73.1207
21
-78.3955
0
ARC
8
Black
10
73.1163
20
-78.3931
40
0.005
50
512.034
51
692.034
0
ARC
8
Black
10
74.3902
20
-75.9938
40
0.005
50
332.034
51
512.034
0
LINE
8
Black
10
73.1117
20
-78.3911
11
72.0666
21
-80.8234
0
LINE
8
Black
10
73.1209
20
-78.3951
11
72.0758
21
-80.8274
0
ARC
8
Black
10
72.0712
20
-80.8254
40
0.005
50
516.749
51
696.749
0
ARC
8
Black
10
73.1163
20
-78.3931
40
0.005
50
336.749
51
516.749
0
LINE
8
Black
10
72.0665
20
-80.8238
11
71.2321
21
-83.2563
0
LINE
8
Black
10
72.0759
20
-80.827
11
71.2415
21
-83.2595
0
ARC
8
Black
10
71.2368
20
-83.2579
40
0.005
50
521.067
51
701.067
0
ARC
8
Black
10
72.0712
20
-80.8254
40
0.005
50
341.067
51
521.067
0
LINE
8
Black
10
71.232
20
-83.2566
11
70.59
21
-85.6565
0
LINE
8
Black
10
71.2416
20
-83.2592
11
70.5997
21
-85.6591
0
ARC
8
Black
10
70.5948
20
-85.6578
40
0.005
50
525.025
51
705.025
0
ARC
8
Black
10
71.2368
20
-83.2579
40
0.005
50
345.025
51
525.025
0
LINE
8
Black
10
70.5899
20
-85.6568
11
70.1223
21
-87.9913
0
LINE
8
Black
10
70.5997
20
-85.6588
11
70.1321
21
-87.9933
0
ARC
8
Black
10
70.1272
20
-87.9923
40
0.005
50
528.672
51
708.672
0
ARC
8
Black
10
70.5948
20
-85.6578
40
0.005
50
348.672
51
528.672
0
LINE
8
Black
10
70.1222
20
-87.9916
11
69.8107
21
-90.2278
0
LINE
8
Black
10
70.1321
20
-87.993
11
69.8206
21
-90.2292
0
ARC
8
Black
10
69.8157
20
-90.2285
40
0.005
50
532.069
51
712.069
0
ARC
8
Black
10
70.1272
20
-87.9923
40
0.005
50
352.069
51
532.069
0
LINE
8
Black
10
69.8107
20
-90.2281
11
69.6371
21
-92.3332
0
LINE
8
Black
10
69.8206
20
-90.2289
11
69.6471
21
-92.334
0
ARC
8
Black
10
69.6421
20
-92.3336
40
0.005
50
535.286
51
715.286
0
ARC
8
Black
10
69.8157
20
-90.2285
40
0.005
50
355.286
51
535.286
0
LINE
8
Black
10
69.6371
20
-92.3335
11
69.5833
21
-94.2747
0
LINE
8
Black
10
69.6471
20
-92.3337
11
69.5932
21
-94.2749
0
ARC
8
Black
10
69.5883
20
-94.2748
40
0.005
50
538.412
51
718.412
0
ARC
8
Black
10
69.6421
20
-92.3336
40
0.005
50
358.412
51
538.412
0
LINE
8
Black
10
139.593
20
-94.2746
11
139.523
21
-92.0471
0
LINE
8
Black
10
139.583
20
-94.275
11
139.513
21
-92.0474
0
ARC
8
Black
10
139.518
20
-92.0472
40
0.005
50
361.814
51
541.814
0
ARC
8
Black
10
139.588
20
-94.2748
40
0.005
50
181.814
51
361.814
0
LINE
8
Black
10
139.523
20
-92.0468
11
139.293
21
-89.6121
0
LINE
8
Black
10
139.513
20
-92.0477
11
139.283
21
-89.613
0
ARC
8
Black
10
139.288
20
-89.6125
40
0.005
50
365.387
51
545.387
0
ARC
8
Black
10
139.518
20
-92.0472
40
0.005
50
185.387
51
365.387
0
LINE
8
Black
10
139.293
20
-89.6117
11
138.877
21
-87.0185
0
LINE
8
Black
10
139.283
20
-89.6133
11
138.868
21
-87.0201
0
ARC
8
Black
10
138.872
20
-87.0193
40
0.005
50
369.106
51
549.106
0
ARC
8
Black
10
139.288
20
-89.6125
40
0.005
50
189.106
51
369.106
0
LINE
8
Black
10
138.877
20
-87.0182
11
138.249
21
-84.3152
0
LINE
8
Black
10
138.868
20
-87.0205
11
138.239
21
-84.3175
0
ARC
8
Black
10
138.244
20
-84.3163
40
0.005
50
373.092
51
553.092
0
ARC
8
Black
10
138.872
20
-87.0193
40
0.005
50
193.092
51
373.092
0
LINE
8
Black
10
138.249
20
-84.3148
11
137.38
21
-81.5507
0
LINE
8
Black
10
138.239
20
-84.3178
11
137.371
21
-81.5537
0
ARC
8
Black
10
137.375
20
-81.5522
40
0.005
50
377.444
51
557.444
0
ARC
8
Black
10
138.244
20
-84.3163
40
0.005
50
197.444
51
377.444
0
LINE
8
Black
10
137.38
20
-81.5504
11
136.512
21
-79.3674
0
LINE
8
Black
10
137.371
20
-81.5541
11
136.502
21
-79.3711
0
ARC
8
Black
10
136.507
20
-79.3692
40
0.005
50
381.69
51
561.69
0
ARC
8
Black
10
137.375
20
-81.5522
40
0.005
50
201.69
51
381.69
0
LINE
8
Black
10
136.512
20
-79.367
11
135.465
21
-77.2
0
LINE
8
Black
10
136.503
20
-79.3714
11
135.456
21
-77.2043
0
ARC
8
Black
10
135.461
20
-77.2021
40
0.005
50
385.768
51
565.768
0
ARC
8
Black
10
136.507
20
-79.3692
40
0.005
50
205.768
51
385.768
0
LINE
8
Black
10
135.465
20
-77.1996
11
134.228
21
-75.0721
0
LINE
8
Black
10
135.457
20
-77.2047
11
134.22
21
-75.0771
0
ARC
8
Black
10
134.224
20
-75.0746
40
0.005
50
390.176
51
570.176
0
ARC
8
Black
10
135.461
20
-77.2021
40
0.005
50
210.176
51
390.176
0
LINE
8
Black
10
134.228
20
-75.0717
11
132.787
21
-73.0073
0
LINE
8
Black
10
134.22
20
-75.0775
11
132.779
21
-73.013
0
ARC
8
Black
10
132.783
20
-73.0102
40
0.005
50
394.916
51
574.916
0
ARC
8
Black
10
134.224
20
-75.0746
40
0.005
50
214.916
51
394.916
0
LINE
8
Black
10
132.787
20
-73.007
11
131.129
21
-71.0293
0
LINE
8
Black
10
132.779
20
-73.0134
11
131.121
21
-71.0357
0
ARC
8
Black
10
131.125
20
-71.0325
40
0.005
50
399.977
51
579.977
0
ARC
8
Black
10
132.783
20
-73.0102
40
0.005
50
219.977
51
399.977
0
LINE
8
Black
10
131.128
20
-71.029
11
129.571
21
-69.4642
0
LINE
8
Black
10
131.121
20
-71.036
11
129.564
21
-69.4713
0
ARC
8
Black
10
129.568
20
-69.4678
40
0.005
50
404.857
51
584.857
0
ARC
8
Black
10
131.125
20
-71.0325
40
0.005
50
224.857
51
404.857
0
LINE
8
Black
10
129.571
20
-69.464
11
127.847
21
-67.9895
0
LINE
8
Black
10
129.565
20
-69.4716
11
127.84
21
-67.9971
0
ARC
8
Black
10
127.843
20
-67.9933
40
0.005
50
409.467
51
589.467
0
ARC
8
Black
10
129.568
20
-69.4678
40
0.005
50
229.467
51
409.467
0
LINE
8
Black
10
127.846
20
-67.9893
11
125.947
21
-66.6188
0
LINE
8
Black
10
127.84
20
-67.9974
11
125.941
21
-66.6269
0
ARC
8
Black
10
125.944
20
-66.6228
40
0.005
50
414.187
51
594.187
0
ARC
8
Black
10
127.843
20
-67.9933
40
0.005
50
234.187
51
414.187
0
LINE
8
Black
10
125.947
20
-66.6185
11
123.865
21
-65.3657
0
LINE
8
Black
10
125.941
20
-66.6271
11
123.86
21
-65.3743
0
ARC
8
Black
10
123.862
20
-65.37
40
0.005
50
418.96
51
598.96
0
ARC
8
Black
10
125.944
20
-66.6228
40
0.005
50
238.96
51
418.96
0
LINE
8
Black
10
123.864
20
-65.3655
11
121.593
21
-64.2439
0
LINE
8
Black
10
123.86
20
-65.3744
11
121.588
21
-64.2529
0
ARC
8
Black
10
121.59
20
-64.2484
40
0.005
50
423.726
51
603.726
0
ARC
8
Black
10
123.862
20
-65.37
40
0.005
50
243.726
51
423.726
0
LINE
8
Black
10
121.592
20
-64.2437
11
119.123
21
-63.2671
0
LINE
8
Black
10
121.588
20
-64.253
11
119.119
21
-63.2764
0
ARC
8
Black
10
119.121
20
-63.2718
40
0.005
50
428.423
51
608.423
0
ARC
8
Black
10
121.59
20
-64.2484
40
0.005
50
248.423
51
428.423
0
LINE
8
Black
10
119.122
20
-63.267
11
116.606
21
-62.4912
0
LINE
8
Black
10
119.119
20
-63.2766
11
116.603
21
-62.5008
0
ARC
8
Black
10
116.604
20
-62.496
40
0.005
50
432.865
51
612.865
0
ARC
8
Black
10
119.121
20
-63.2718
40
0.005
50
252.865
51
432.865
0
LINE
8
Black
10
116.606
20
-62.4911
11
113.901
21
-61.8678
0
LINE
8
Black
10
116.603
20
-62.5009
11
113.898
21
-61.8776
0
ARC
8
Black
10
113.899
20
-61.8727
40
0.005
50
437.024
51
617.024
0
ARC
8
Black
10
116.604
20
-62.496
40
0.005
50
257.024
51
437.024
0
LINE
8
Black
10
113.9
20
-61.8678
11
111
21
-61.4084
0
LINE
8
Black
10
113.899
20
-61.8776
11
110.999
21
-61.4182
0
ARC
8
Black
10
110.999
20
-61.4133
40
0.005
50
440.999
51
620.999
0
ARC
8
Black
10
113.899
20
-61.8727
40
0.005
50
260.999
51
440.999
0
LINE
8
Black
10
111
20
-61.4083
11
107.898
21
-61.1243
0
LINE
8
Black
10
110.999
20
-61.4183
11
107.897
21
-61.1342
0
ARC
8
Black
10
107.898
20
-61.1292
40
0.005
50
444.768
51
624.768
0
ARC
8
Black
10
110.999
20
-61.4133
40
0.005
50
264.768
51
444.768
0
LINE
8
Black
10
107.898
20
-61.1242
11
104.588
21
-61.027
0
LINE
8
Black
10
107.898
20
-61.1342
11
104.588
21
-61.037
0
ARC
8
Black
10
104.588
20
-61.032
40
0.005
50
448.317
51
628.317
0
ARC
8
Black
10
107.898
20
-61.1292
40
0.005
50
268.317
51
448.317
0
LINE
8
Black
10
127.593
20
-105.032
11
127.612
21
-104.55
0
LINE
8
Black
10
127.583
20
-105.032
11
127.602
21
-104.549
0
ARC
8
Black
10
127.607
20
-104.549
40
0.005
50
357.796
51
537.796
0
ARC
8
Black
10
127.588
20
-105.032
40
0.005
50
177.796
51
357.796
0
LINE
8
Black
10
127.612
20
-104.55
11
127.692
21
-104
0
LINE
8
Black
10
127.602
20
-104.549
11
127.682
21
-103.998
0
ARC
8
Black
10
127.687
20
-103.999
40
0.005
50
351.711
51
531.711
0
ARC
8
Black
10
127.607
20
-104.549
40
0.005
50
171.711
51
351.711
0
LINE
8
Black
10
127.692
20
-104
11
127.87
21
-103.416
0
LINE
8
Black
10
127.682
20
-103.998
11
127.861
21
-103.413
0
ARC
8
Black
10
127.865
20
-103.415
40
0.005
50
343.019
51
523.019
0
ARC
8
Black
10
127.687
20
-103.999
40
0.005
50
163.019
51
343.019
0
LINE
8
Black
10
127.87
20
-103.417
11
128.183
21
-102.832
0
LINE
8
Black
10
127.861
20
-103.412
11
128.174
21
-102.828
0
ARC
8
Black
10
128.179
20
-102.83
40
0.005
50
331.809
51
511.809
0
ARC
8
Black
10
127.865
20
-103.415
40
0.005
50
151.809
51
331.809
0
LINE
8
Black
10
128.183
20
-102.833
11
128.667
21
-102.282
0
LINE
8
Black
10
128.175
20
-102.827
11
128.66
21
-102.275
0
ARC
8
Black
10
128.664
20
-102.279
40
0.005
50
318.662
51
498.662
0
ARC
8
Black
10
128.179
20
-102.83
40
0.005
50
138.662
51
318.662
0
LINE
8
Black
10
128.667
20
-102.283
11
129.192
21
-101.895
0
LINE
8
Black
10
128.661
20
-102.275
11
129.186
21
-101.887
0
ARC
8
Black
10
129.189
20
-101.891
40
0.005
50
306.436
51
486.436
0
ARC
8
Black
10
128.664
20
-102.279
40
0.005
50
126.436
51
306.436
0
LINE
8
Black
10
129.191
20
-101.895
11
129.863
21
-101.565
0
LINE
8
Black
10
129.187
20
-101.886
11
129.858
21
-101.556
0
ARC
8
Black
10
129.861
20
-101.561
40
0.005
50
296.171
51
476.171
0
ARC
8
Black
10
129.189
20
-101.891
40
0.005
50
116.171
51
296.171
0
LINE
8
Black
10
129.862
20
-101.566
11
130.698
21
-101.31
0
LINE
8
Black
10
129.859
20
-101.556
11
130.695
21
-101.3
0
ARC
8
Black
10
130.696
20
-101.305
40
0.005
50
287.029
51
467.029
0
ARC
8
Black
10
129.861
20
-101.561
40
0.005
50
107.029
51
287.029
0
LINE
8
Black
10
130.697
20
-101.31
11
131.715
21
-101.144
0
LINE
8
Black
10
130.696
20
-101.3
11
131.713
21
-101.134
0
ARC
8
Black
10
131.714
20
-101.139
40
0.005
50
279.241
51
459.241
0
ARC
8
Black
10
130.696
20
-101.305
40
0.005
50
99.2408
51
279.241
0
LINE
8
Black
10
131.714
20
-101.144
11
132.932
21
-101.086
0
LINE
8
Black
10
131.714
20
-101.134
11
132.931
21
-101.076
0
ARC
8
Black
10
132.931
20
-101.081
40
0.005
50
272.766
51
452.766
0
ARC
8
Black
10
131.714
20
-101.139
40
0.005
50
92.7662
51
272.766
0
LINE
8
Black
10
132.593
20
-152.032
11
132.537
21
-151.214
0
LINE
8
Black
10
132.583
20
-152.032
11
132.527
21
-151.215
0
ARC
8
Black
10
132.532
20
-151.215
40
0.005
50
363.931
51
543.931
0
ARC
8
Black
10
132.588
20
-152.032
40
0.005
50
183.931
51
363.931
0
LINE
8
Black
10
132.537
20
-151.214
11
132.378
21
-150.528
0
LINE
8
Black
10
132.527
20
-151.216
11
132.369
21
-150.53
0
ARC
8
Black
10
132.373
20
-150.529
40
0.005
50
373.03
51
553.03
0
ARC
8
Black
10
132.532
20
-151.215
40
0.005
50
193.03
51
373.03
0
LINE
8
Black
10
132.378
20
-150.527
11
132.131
21
-149.956
0
LINE
8
Black
10
132.369
20
-150.531
11
132.122
21
-149.959
0
ARC
8
Black
10
132.127
20
-149.958
40
0.005
50
383.337
51
563.337
0
ARC
8
Black
10
132.373
20
-150.529
40
0.005
50
203.337
51
383.337
0
LINE
8
Black
10
132.131
20
-149.955
11
131.811
21
-149.48
0
LINE
8
Black
10
132.123
20
-149.96
11
131.803
21
-149.486
0
ARC
8
Black
10
131.807
20
-149.483
40
0.005
50
393.97
51
573.97
0
ARC
8
Black
10
132.127
20
-149.958
40
0.005
50
213.97
51
393.97
0
LINE
8
Black
10
131.811
20
-149.479
11
131.295
21
-148.967
0
LINE
8
Black
10
131.803
20
-149.486
11
131.288
21
-148.974
0
ARC
8
Black
10
131.292
20
-148.971
40
0.005
50
405.157
51
585.157
0
ARC
8
Black
10
131.807
20
-149.483
40
0.005
50
225.157
51
405.157
0
LINE
8
Black
10
131.295
20
-148.966
11
130.71
21
-148.555
0
LINE
8
Black
10
131.289
20
-148.975
11
130.705
21
-148.563
0
ARC
8
Black
10
130.707
20
-148.559
40
0.005
50
414.824
51
594.824
0
ARC
8
Black
10
131.292
20
-148.971
40
0.005
50
234.824
51
414.824
0
LINE
8
Black
10
130.71
20
-148.554
11
130.091
21
-148.202
0
LINE
8
Black
10
130.705
20
-148.563
11
130.086
21
-148.21
0
ARC
8
Black
10
130.088
20
-148.206
40
0.005
50
420.331
51
600.331
0
ARC
8
Black
10
130.707
20
-148.559
40
0.005
50
240.331
51
420.331
0
LINE
8
Black
10
130.091
20
-148.201
11
129.471
21
-147.867
0
LINE
8
Black
10
130.086
20
-148.21
11
129.467
21
-147.876
0
ARC
8
Black
10
129.469
20
-147.871
40
0.005
50
421.613
51
601.613
0
ARC
8
Black
10
130.088
20
-148.206
40
0.005
50
241.613
51
421.613
0
LINE
8
Black
10
129.472
20
-147.867
11
128.887
21
-147.509
0
LINE
8
Black
10
129.466
20
-147.876
11
128.882
21
-147.518
0
ARC
8
Black
10
128.885
20
-147.514
40
0.005
50
418.542
51
598.542
0
ARC
8
Black
10
129.469
20
-147.871
40
0.005
50
238.542
51
418.542
0
LINE
8
Black
10
128.888
20
-147.51
11
128.373
21
-147.088
0
LINE
8
Black
10
128.881
20
-147.518
11
128.366
21
-147.096
0
ARC
8
Black
10
128.37
20
-147.092
40
0.005
50
410.695
51
590.695
0
ARC
8
Black
10
128.885
20
-147.514
40
0.005
50
230.695
51
410.695
0
LINE
8
Black
10
128.373
20
-147.089
11
127.963
21
-146.562
0
LINE
8
Black
10
128.366
20
-147.095
11
127.955
21
-146.568
0
ARC
8
Black
10
127.959
20
-146.565
40
0.005
50
397.955
51
577.955
0
ARC
8
Black
10
128.37
20
-147.092
40
0.005
50
217.955
51
397.955
0
LINE
8
Black
10
127.963
20
-146.563
11
127.691
21
-145.89
0
LINE
8
Black
10
127.954
20
-146.567
11
127.682
21
-145.894
0
ARC
8
Black
10
127.687
20
-145.892
40
0.005
50
382.007
51
562.007
0
ARC
8
Black
10
127.959
20
-146.565
40
0.005
50
202.007
51
382.007
0
LINE
8
Black
10
127.692
20
-145.892
11
127.593
21
-145.031
0
LINE
8
Black
10
127.682
20
-145.893
11
127.583
21
-145.033
0
ARC
8
Black
10
127.588
20
-145.032
40
0.005
50
366.524
51
546.524
0
ARC
8
Black
10
127.687
20
-145.892
40
0.005
50
186.524
51
366.524
0
LINE
8
Black
10
95.8888
20
-69.5286
11
93.5879
21
-69.8283
0
LINE
8
Black
10
95.8901
20
-69.5385
11
93.5892
21
-69.8382
0
ARC
8
Black
10
93.5886
20
-69.8333
40
0.005
50
457.421
51
637.421
0
ARC
8
Black
10
95.8895
20
-69.5336
40
0.005
50
277.421
51
457.421
0
LINE
8
Black
10
93.5876
20
-69.8283
11
91.5203
21
-70.2109
0
LINE
8
Black
10
93.5895
20
-69.8382
11
91.5221
21
-70.2208
0
ARC
8
Black
10
91.5212
20
-70.2159
40
0.005
50
460.485
51
640.485
0
ARC
8
Black
10
93.5886
20
-69.8333
40
0.005
50
280.485
51
460.485
0
LINE
8
Black
10
91.52
20
-70.211
11
89.6745
21
-70.683
0
LINE
8
Black
10
91.5225
20
-70.2207
11
89.677
21
-70.6927
0
ARC
8
Black
10
89.6757
20
-70.6878
40
0.005
50
464.345
51
644.345
0
ARC
8
Black
10
91.5212
20
-70.2159
40
0.005
50
284.345
51
464.345
0
LINE
8
Black
10
89.6741
20
-70.6831
11
88.0387
21
-71.2509
0
LINE
8
Black
10
89.6774
20
-70.6925
11
88.042
21
-71.2604
0
ARC
8
Black
10
88.0404
20
-71.2557
40
0.005
50
469.148
51
649.148
0
ARC
8
Black
10
89.6757
20
-70.6878
40
0.005
50
289.148
51
469.148
0
LINE
8
Black
10
88.0383
20
-71.2511
11
86.6013
21
-71.9213
0
LINE
8
Black
10
88.0425
20
-71.2602
11
86.6056
21
-71.9304
0
ARC
8
Black
10
86.6035
20
-71.9258
40
0.005
50
475.004
51
655.004
0
ARC
8
Black
10
88.0404
20
-71.2557
40
0.005
50
295.004
51
475.004
0
LINE
8
Black
10
86.6008
20
-71.9216
11
85.3714
21
-72.6857
0
LINE
8
Black
10
86.6061
20
-71.9301
11
85.3766
21
-72.6942
0
ARC
8
Black
10
85.374
20
-72.6899
40
0.005
50
481.86
51
661.86
0
ARC
8
Black
10
86.6035
20
-71.9258
40
0.005
50
301.86
51
481.86
0
LINE
8
Black
10
85.3708
20
-72.6861
11
84.3103
21
-73.5613
0
LINE
8
Black
10
85.3772
20
-72.6938
11
84.3167
21
-73.569
0
ARC
8
Black
10
84.3135
20
-73.5651
40
0.005
50
489.533
51
669.533
0
ARC
8
Black
10
85.374
20
-72.6899
40
0.005
50
309.533
51
489.533
0
LINE
8
Black
10
84.3098
20
-73.5617
11
83.4073
21
-74.5542
0
LINE
8
Black
10
84.3172
20
-73.5685
11
83.4147
21
-74.5609
0
ARC
8
Black
10
83.411
20
-74.5576
40
0.005
50
497.715
51
677.715
0
ARC
8
Black
10
84.3135
20
-73.5651
40
0.005
50
317.715
51
497.715
0
LINE
8
Black
10
83.4068
20
-74.5547
11
82.651
21
-75.6706
0
LINE
8
Black
10
83.4151
20
-74.5604
11
82.6593
21
-75.6762
0
ARC
8
Black
10
82.6552
20
-75.6734
40
0.005
50
505.889
51
685.889
0
ARC
8
Black
10
83.411
20
-74.5576
40
0.005
50
325.889
51
505.889
0
LINE
8
Black
10
82.6507
20
-75.6712
11
81.927
21
-77.169
0
LINE
8
Black
10
82.6597
20
-75.6756
11
81.936
21
-77.1733
0
ARC
8
Black
10
81.9315
20
-77.1711
40
0.005
50
514.21
51
694.21
0
ARC
8
Black
10
82.6552
20
-75.6734
40
0.005
50
334.21
51
514.21
0
LINE
8
Black
10
81.9267
20
-77.1696
11
81.3766
21
-78.8613
0
LINE
8
Black
10
81.9362
20
-77.1727
11
81.3861
21
-78.8644
0
ARC
8
Black
10
81.3813
20
-78.8628
40
0.005
50
521.985
51
701.985
0
ARC
8
Black
10
81.9315
20
-77.1711
40
0.005
50
341.985
51
521.985
0
LINE
8
Black
10
81.3764
20
-78.8618
11
80.9811
21
-80.7578
0
LINE
8
Black
10
81.3862
20
-78.8639
11
80.9909
21
-80.7598
0
ARC
8
Black
10
80.986
20
-80.7588
40
0.005
50
528.223
51
708.223
0
ARC
8
Black
10
81.3813
20
-78.8628
40
0.005
50
348.223
51
528.223
0
LINE
8
Black
10
80.9811
20
-80.7582
11
80.7219
21
-82.8688
0
LINE
8
Black
10
80.991
20
-80.7594
11
80.7318
21
-82.87
0
ARC
8
Black
10
80.7269
20
-82.8694
40
0.005
50
533
51
713
0
ARC
8
Black
10
80.986
20
-80.7588
40
0.005
50
353
51
533
0
LINE
8
Black
10
80.7219
20
-82.8691
11
80.5801
21
-85.2048
0
LINE
8
Black
10
80.7319
20
-82.8697
11
80.5901
21
-85.2054
0
ARC
8
Black
10
80.5851
20
-85.2051
40
0.005
50
536.527
51
716.527
0
ARC
8
Black
10
80.7269
20
-82.8694
40
0.005
50
356.527
51
536.527
0
LINE
8
Black
10
80.5801
20
-85.205
11
80.537
21
-87.776
0
LINE
8
Black
10
80.5901
20
-85.2052
11
80.547
21
-87.7761
0
ARC
8
Black
10
80.542
20
-87.7761
40
0.005
50
539.04
51
719.04
0
ARC
8
Black
10
80.5851
20
-85.2051
40
0.005
50
359.04
51
539.04
0
LINE
8
Black
10
128.639
20
-87.776
11
128.6
21
-85.3167
0
LINE
8
Black
10
128.629
20
-87.7761
11
128.59
21
-85.3168
0
ARC
8
Black
10
128.595
20
-85.3167
40
0.005
50
360.912
51
540.912
0
ARC
8
Black
10
128.634
20
-87.7761
40
0.005
50
180.912
51
360.912
0
LINE
8
Black
10
128.6
20
-85.3165
11
128.472
21
-83.072
0
LINE
8
Black
10
128.59
20
-85.317
11
128.462
21
-83.0726
0
ARC
8
Black
10
128.467
20
-83.0723
40
0.005
50
363.271
51
543.271
0
ARC
8
Black
10
128.595
20
-85.3167
40
0.005
50
183.271
51
363.271
0
LINE
8
Black
10
128.472
20
-83.0717
11
128.238
21
-81.0332
0
LINE
8
Black
10
128.462
20
-83.0729
11
128.228
21
-81.0343
0
ARC
8
Black
10
128.233
20
-81.0338
40
0.005
50
366.539
51
546.539
0
ARC
8
Black
10
128.467
20
-83.0723
40
0.005
50
186.539
51
366.539
0
LINE
8
Black
10
128.238
20
-81.0328
11
127.883
21
-79.1911
0
LINE
8
Black
10
128.229
20
-81.0347
11
127.873
21
-79.193
0
ARC
8
Black
10
127.878
20
-79.1921
40
0.005
50
370.922
51
550.922
0
ARC
8
Black
10
128.233
20
-81.0338
40
0.005
50
190.922
51
370.922
0
LINE
8
Black
10
127.883
20
-79.1906
11
127.389
21
-77.5368
0
LINE
8
Black
10
127.873
20
-79.1935
11
127.38
21
-77.5396
0
ARC
8
Black
10
127.385
20
-77.5382
40
0.005
50
376.611
51
556.611
0
ARC
8
Black
10
127.878
20
-79.1921
40
0.005
50
196.611
51
376.611
0
LINE
8
Black
10
127.389
20
-77.5362
11
126.742
21
-76.0612
0
LINE
8
Black
10
127.38
20
-77.5402
11
126.732
21
-76.0652
0
ARC
8
Black
10
126.737
20
-76.0632
40
0.005
50
383.706
51
563.706
0
ARC
8
Black
10
127.385
20
-77.5382
40
0.005
50
203.706
51
383.706
0
LINE
8
Black
10
126.741
20
-76.0606
11
125.923
21
-74.7554
0
LINE
8
Black
10
126.733
20
-76.0659
11
125.915
21
-74.7607
0
ARC
8
Black
10
125.919
20
-74.7581
40
0.005
50
392.085
51
572.085
0
ARC
8
Black
10
126.737
20
-76.0632
40
0.005
50
212.085
51
392.085
0
LINE
8
Black
10
125.923
20
-74.7548
11
124.917
21
-73.6104
0
LINE
8
Black
10
125.915
20
-74.7614
11
124.91
21
-73.617
0
ARC
8
Black
10
124.914
20
-73.6137
40
0.005
50
401.294
51
581.294
0
ARC
8
Black
10
125.919
20
-74.7581
40
0.005
50
221.294
51
401.294
0
LINE
8
Black
10
124.917
20
-73.6099
11
123.842
21
-72.712
0
LINE
8
Black
10
124.91
20
-73.6176
11
123.835
21
-72.7196
0
ARC
8
Black
10
123.838
20
-72.7158
40
0.005
50
410.133
51
590.133
0
ARC
8
Black
10
124.914
20
-73.6137
40
0.005
50
230.133
51
410.133
0
LINE
8
Black
10
123.841
20
-72.7115
11
122.59
21
-71.9295
0
LINE
8
Black
10
123.836
20
-72.72
11
122.585
21
-71.938
0
ARC
8
Black
10
122.588
20
-71.9337
40
0.005
50
417.984
51
597.984
0
ARC
8
Black
10
123.838
20
-72.7158
40
0.005
50
237.984
51
417.984
0
LINE
8
Black
10
122.59
20
-71.9292
11
121.152
21
-71.2565
0
LINE
8
Black
10
122.586
20
-71.9383
11
121.147
21
-71.2656
0
ARC
8
Black
10
121.15
20
-71.2611
40
0.005
50
424.933
51
604.933
0
ARC
8
Black
10
122.588
20
-71.9337
40
0.005
50
244.933
51
424.933
0
LINE
8
Black
10
121.151
20
-71.2563
11
119.514
21
-70.6865
0
LINE
8
Black
10
121.148
20
-71.2658
11
119.511
21
-70.696
0
ARC
8
Black
10
119.512
20
-70.6912
40
0.005
50
430.811
51
610.811
0
ARC
8
Black
10
121.15
20
-71.2611
40
0.005
50
250.811
51
430.811
0
LINE
8
Black
10
119.513
20
-70.6864
11
117.665
21
-70.2129
0
LINE
8
Black
10
119.511
20
-70.6961
11
117.663
21
-70.2226
0
ARC
8
Black
10
117.664
20
-70.2177
40
0.005
50
435.631
51
615.631
0
ARC
8
Black
10
119.512
20
-70.6912
40
0.005
50
255.631
51
435.631
0
LINE
8
Black
10
117.665
20
-70.2128
11
115.594
21
-69.8291
0
LINE
8
Black
10
117.663
20
-70.2226
11
115.592
21
-69.8389
0
ARC
8
Black
10
115.593
20
-69.834
40
0.005
50
439.504
51
619.504
0
ARC
8
Black
10
117.664
20
-70.2177
40
0.005
50
259.504
51
439.504
0
LINE
8
Black
10
115.593
20
-69.829
11
113.288
21
-69.5286
0
LINE
8
Black
10
115.592
20
-69.839
11
113.286
21
-69.5385
0
ARC
8
Black
10
113.287
20
-69.5336
40
0.005
50
442.576
51
622.576
0
ARC
8
Black
10
115.593
20
-69.834
40
0.005
50
262.576
51
442.576
0
LINE
8
Black
10
113.288
20
-69.5286
11
112.629
21
-69.4315
0
LINE
8
Black
10
113.286
20
-69.5385
11
112.628
21
-69.4414
0
ARC
8
Black
10
112.629
20
-69.4365
40
0.005
50
441.613
51
621.613
0
ARC
8
Black
10
113.287
20
-69.5336
40
0.005
50
261.613
51
441.613
0
LINE
8
Black
10
112.629
20
-69.4315
11
112.153
21
-69.3888
0
LINE
8
Black
10
112.628
20
-69.4415
11
112.152
21
-69.3988
0
ARC
8
Black
10
112.153
20
-69.3938
40
0.005
50
444.877
51
624.877
0
ARC
8
Black
10
112.629
20
-69.4365
40
0.005
50
264.877
51
444.877
0
LINE
8
Black
10
112.153
20
-69.3888
11
111.801
21
-69.3918
0
LINE
8
Black
10
112.153
20
-69.3988
11
111.801
21
-69.4018
0
ARC
8
Black
10
111.801
20
-69.3968
40
0.005
50
450.485
51
630.485
0
ARC
8
Black
10
112.153
20
-69.3938
40
0.005
50
270.485
51
450.485
0
LINE
8
Black
10
111.8
20
-69.3919
11
111.377
21
-69.4628
0
LINE
8
Black
10
111.802
20
-69.4017
11
111.379
21
-69.4726
0
ARC
8
Black
10
111.378
20
-69.4677
40
0.005
50
459.519
51
639.519
0
ARC
8
Black
10
111.801
20
-69.3968
40
0.005
50
279.519
51
459.519
0
LINE
8
Black
10
111.377
20
-69.4629
11
110.905
21
-69.5872
0
LINE
8
Black
10
111.379
20
-69.4725
11
110.908
21
-69.5968
0
ARC
8
Black
10
110.906
20
-69.592
40
0.005
50
464.759
51
644.759
0
ARC
8
Black
10
111.378
20
-69.4677
40
0.005
50
284.759
51
464.759
0
LINE
8
Black
10
110.905
20
-69.5871
11
110.589
21
-69.6601
0
LINE
8
Black
10
110.907
20
-69.5969
11
110.592
21
-69.6698
0
ARC
8
Black
10
110.59
20
-69.6649
40
0.005
50
463.004
51
643.004
0
ARC
8
Black
10
110.906
20
-69.592
40
0.005
50
283.004
51
463.004
0
LINE
8
Black
10
110.589
20
-69.66
11
110.187
21
-69.7352
0
LINE
8
Black
10
110.591
20
-69.6699
11
110.189
21
-69.7451
0
ARC
8
Black
10
110.188
20
-69.7402
40
0.005
50
460.596
51
640.596
0
ARC
8
Black
10
110.59
20
-69.6649
40
0.005
50
280.596
51
460.596
0
LINE
8
Black
10
110.188
20
-69.7352
11
109.675
21
-69.809
0
LINE
8
Black
10
110.189
20
-69.7451
11
109.676
21
-69.8189
0
ARC
8
Black
10
109.676
20
-69.8139
40
0.005
50
458.188
51
638.188
0
ARC
8
Black
10
110.188
20
-69.7402
40
0.005
50
278.188
51
458.188
0
LINE
8
Black
10
109.675
20
-69.809
11
109.027
21
-69.8776
0
LINE
8
Black
10
109.676
20
-69.8189
11
109.028
21
-69.8876
0
ARC
8
Black
10
109.027
20
-69.8826
40
0.005
50
456.046
51
636.046
0
ARC
8
Black
10
109.676
20
-69.8139
40
0.005
50
276.046
51
456.046
0
LINE
8
Black
10
109.027
20
-69.8776
11
108.219
21
-69.9374
0
LINE
8
Black
10
109.028
20
-69.8876
11
108.22
21
-69.9474
0
ARC
8
Black
10
108.219
20
-69.9424
40
0.005
50
454.234
51
634.234
0
ARC
8
Black
10
109.027
20
-69.8826
40
0.005
50
274.234
51
454.234
0
LINE
8
Black
10
108.219
20
-69.9374
11
107.226
21
-69.9847
0
LINE
8
Black
10
108.219
20
-69.9474
11
107.227
21
-69.9947
0
ARC
8
Black
10
107.226
20
-69.9897
40
0.005
50
452.728
51
632.728
0
ARC
8
Black
10
108.219
20
-69.9424
40
0.005
50
272.728
51
452.728
0
LINE
8
Black
10
107.226
20
-69.9847
11
106.024
21
-70.0158
0
LINE
8
Black
10
107.226
20
-69.9947
11
106.024
21
-70.0258
0
ARC
8
Black
10
106.024
20
-70.0208
40
0.005
50
451.482
51
631.482
0
ARC
8
Black
10
107.226
20
-69.9897
40
0.005
50
271.482
51
451.482
0
LINE
8
Black
10
106.024
20
-70.0158
11
104.588
21
-70.027
0
LINE
8
Black
10
106.024
20
-70.0258
11
104.588
21
-70.037
0
ARC
8
Black
10
104.588
20
-70.032
40
0.005
50
450.446
51
630.446
0
ARC
8
Black
10
106.024
20
-70.0208
40
0.005
50
270.446
51
450.446
0
LINE
8
Black
10
104.588
20
-70.027
11
103.152
21
-70.0158
0
LINE
8
Black
10
104.588
20
-70.037
11
103.152
21
-70.0258
0
ARC
8
Black
10
103.152
20
-70.0208
40
0.005
50
449.554
51
629.554
0
ARC
8
Black
10
104.588
20
-70.032
40
0.005
50
269.554
51
449.554
0
LINE
8
Black
10
103.152
20
-70.0158
11
101.95
21
-69.9847
0
LINE
8
Black
10
103.152
20
-70.0258
11
101.95
21
-69.9947
0
ARC
8
Black
10
101.95
20
-69.9897
40
0.005
50
448.518
51
628.518
0
ARC
8
Black
10
103.152
20
-70.0208
40
0.005
50
268.518
51
448.518
0
LINE
8
Black
10
101.95
20
-69.9847
11
100.958
21
-69.9374
0
LINE
8
Black
10
101.95
20
-69.9947
11
100.957
21
-69.9474
0
ARC
8
Black
10
100.957
20
-69.9424
40
0.005
50
447.272
51
627.272
0
ARC
8
Black
10
101.95
20
-69.9897
40
0.005
50
267.272
51
447.272
0
LINE
8
Black
10
100.958
20
-69.9374
11
100.149
21
-69.8776
0
LINE
8
Black
10
100.957
20
-69.9474
11
100.149
21
-69.8876
0
ARC
8
Black
10
100.149
20
-69.8826
40
0.005
50
445.766
51
625.766
0
ARC
8
Black
10
100.957
20
-69.9424
40
0.005
50
265.766
51
445.766
0
LINE
8
Black
10
100.15
20
-69.8776
11
99.5015
21
-69.809
0
LINE
8
Black
10
100.149
20
-69.8876
11
99.5004
21
-69.8189
0
ARC
8
Black
10
99.5009
20
-69.8139
40
0.005
50
443.954
51
623.954
0
ARC
8
Black
10
100.149
20
-69.8826
40
0.005
50
263.954
51
443.954
0
LINE
8
Black
10
99.5016
20
-69.809
11
98.9889
21
-69.7352
0
LINE
8
Black
10
99.5002
20
-69.8189
11
98.9874
21
-69.7451
0
ARC
8
Black
10
98.9881
20
-69.7402
40
0.005
50
441.812
51
621.812
0
ARC
8
Black
10
99.5009
20
-69.8139
40
0.005
50
261.812
51
441.812
0
LINE
8
Black
10
98.9891
20
-69.7352
11
98.587
21
-69.66
0
LINE
8
Black
10
98.9872
20
-69.7451
11
98.5852
21
-69.6699
0
ARC
8
Black
10
98.5861
20
-69.6649
40
0.005
50
439.404
51
619.404
0
ARC
8
Black
10
98.9881
20
-69.7402
40
0.005
50
259.404
51
439.404
0
LINE
8
Black
10
98.5872
20
-69.6601
11
98.2714
21
-69.5871
0
LINE
8
Black
10
98.585
20
-69.6698
11
98.2691
21
-69.5969
0
ARC
8
Black
10
98.2702
20
-69.592
40
0.005
50
436.996
51
616.996
0
ARC
8
Black
10
98.5861
20
-69.6649
40
0.005
50
256.996
51
436.996
0
LINE
8
Black
10
98.2715
20
-69.5872
11
97.7997
21
-69.4629
0
LINE
8
Black
10
98.269
20
-69.5968
11
97.7971
21
-69.4725
0
ARC
8
Black
10
97.7984
20
-69.4677
40
0.005
50
435.241
51
615.241
0
ARC
8
Black
10
98.2702
20
-69.592
40
0.005
50
255.241
51
435.241
0
LINE
8
Black
10
97.7992
20
-69.4628
11
97.3765
21
-69.3919
0
LINE
8
Black
10
97.7976
20
-69.4726
11
97.3748
21
-69.4017
0
ARC
8
Black
10
97.3757
20
-69.3968
40
0.005
50
440.481
51
620.481
0
ARC
8
Black
10
97.7984
20
-69.4677
40
0.005
50
260.481
51
440.481
0
LINE
8
Black
10
97.3757
20
-69.3918
11
97.0239
21
-69.3888
0
LINE
8
Black
10
97.3756
20
-69.4018
11
97.0238
21
-69.3988
0
ARC
8
Black
10
97.0238
20
-69.3938
40
0.005
50
449.515
51
629.515
0
ARC
8
Black
10
97.3757
20
-69.3968
40
0.005
50
269.515
51
449.515
0
LINE
8
Black
10
97.0234
20
-69.3888
11
96.5474
21
-69.4315
0
LINE
8
Black
10
97.0243
20
-69.3988
11
96.5483
21
-69.4415
0
ARC
8
Black
10
96.5479
20
-69.4365
40
0.005
50
455.123
51
635.123
0
ARC
8
Black
10
97.0238
20
-69.3938
40
0.005
50
275.123
51
455.123
0
LINE
8
Black
10
96.5472
20
-69.4315
11
95.8887
21
-69.5286
0
LINE
8
Black
10
96.5486
20
-69.4414
11
95.8902
21
-69.5385
0
ARC
8
Black
10
95.8895
20
-69.5336
40
0.005
50
458.387
51
638.387
0
ARC
8
Black
10
96.5479
20
-69.4365
40
0.005
50
278.387
51
458.387
0
LINE
8
Black
10
83.0933
20
-115.032
11
83.0933
21
-111.032
0
LINE
8
Black
10
83.0833
20
-115.032
11
83.0833
21
-111.032
0
ARC
8
Black
10
83.0883
20
-111.032
40
0.005
50
360
51
540
0
ARC
8
Black
10
83.0883
20
-115.032
40
0.005
50
180
51
360
0
LINE
8
Black
10
84.5933
20
-115.032
11
84.5933
21
-111.032
0
LINE
8
Black
10
84.5833
20
-115.032
11
84.5833
21
-111.032
0
ARC
8
Black
10
84.5883
20
-111.032
40
0.005
50
360
51
540
0
ARC
8
Black
10
84.5883
20
-115.032
40
0.005
50
180
51
360
0
LINE
8
Black
10
84.5933
20
-129.558
11
84.5933
21
-120.506
0
LINE
8
Black
10
84.5833
20
-129.558
11
84.5833
21
-120.506
0
ARC
8
Black
10
84.5883
20
-120.506
40
0.005
50
360
51
540
0
ARC
8
Black
10
84.5883
20
-129.558
40
0.005
50
180
51
360
0
LINE
8
Black
10
84.5883
20
-129.563
11
86.8416
21
-129.56
0
LINE
8
Black
10
84.5882
20
-129.553
11
86.8416
21
-129.55
0
ARC
8
Black
10
86.8416
20
-129.555
40
0.005
50
270.085
51
450.085
0
ARC
8
Black
10
84.5883
20
-129.558
40
0.005
50
90.085
51
270.085
0
LINE
8
Black
10
87.3374
20
-130.054
11
87.3377
21
-130.254
0
LINE
8
Black
10
87.3474
20
-130.054
11
87.3477
21
-130.254
0
ARC
8
Black
10
87.3427
20
-130.254
40
0.005
50
180.085
51
360.085
0
ARC
8
Black
10
87.3424
20
-130.054
40
0.005
50
0.0850842
51
180.085
0
LINE
8
Black
10
87.8434
20
-130.758
11
96.8434
21
-130.745
0
LINE
8
Black
10
87.8434
20
-130.748
11
96.8434
21
-130.735
0
ARC
8
Black
10
96.8434
20
-130.74
40
0.005
50
270.085
51
450.085
0
ARC
8
Black
10
87.8434
20
-130.753
40
0.005
50
90.085
51
270.085
0
LINE
8
Black
10
97.3321
20
-130.277
11
97.3324
21
-130.077
0
LINE
8
Black
10
97.3221
20
-130.277
11
97.3224
21
-130.077
0
ARC
8
Black
10
97.3274
20
-130.077
40
0.005
50
359.915
51
539.915
0
ARC
8
Black
10
97.3271
20
-130.277
40
0.005
50
179.915
51
359.915
0
LINE
8
Black
10
97.8282
20
-129.583
11
100.082
21
-129.586
0
LINE
8
Black
10
97.8282
20
-129.573
11
100.082
21
-129.576
0
ARC
8
Black
10
100.082
20
-129.581
40
0.005
50
269.915
51
449.915
0
ARC
8
Black
10
97.8282
20
-129.578
40
0.005
50
89.915
51
269.915
0
LINE
8
Black
10
102.089
20
-127.584
11
102.097
21
-122.532
0
LINE
8
Black
10
102.079
20
-127.584
11
102.087
21
-122.532
0
ARC
8
Black
10
102.092
20
-122.532
40
0.005
50
359.915
51
539.915
0
ARC
8
Black
10
102.084
20
-127.584
40
0.005
50
179.915
51
359.915
0
LINE
8
Black
10
100.095
20
-120.524
11
97.8416
21
-120.521
0
LINE
8
Black
10
100.095
20
-120.534
11
97.8416
21
-120.531
0
ARC
8
Black
10
97.8416
20
-120.526
40
0.005
50
449.915
51
629.915
0
ARC
8
Black
10
100.095
20
-120.529
40
0.005
50
269.915
51
449.915
0
LINE
8
Black
10
97.3473
20
-120.025
11
97.3476
21
-119.825
0
LINE
8
Black
10
97.3373
20
-120.025
11
97.3376
21
-119.825
0
ARC
8
Black
10
97.3426
20
-119.825
40
0.005
50
359.915
51
539.915
0
ARC
8
Black
10
97.3423
20
-120.025
40
0.005
50
179.915
51
359.915
0
LINE
8
Black
10
96.8434
20
-119.319
11
87.8434
21
-119.306
0
LINE
8
Black
10
96.8434
20
-119.329
11
87.8434
21
-119.316
0
ARC
8
Black
10
87.8434
20
-119.311
40
0.005
50
449.915
51
629.915
0
ARC
8
Black
10
96.8434
20
-119.324
40
0.005
50
269.915
51
449.915
0
LINE
8
Black
10
87.3377
20
-119.81
11
87.3374
21
-120.01
0
LINE
8
Black
10
87.3477
20
-119.81
11
87.3474
21
-120.01
0
ARC
8
Black
10
87.3424
20
-120.01
40
0.005
50
539.915
51
719.915
0
ARC
8
Black
10
87.3427
20
-119.81
40
0.005
50
359.915
51
539.915
0
LINE
8
Black
10
86.8416
20
-120.504
11
84.5883
21
-120.501
0
LINE
8
Black
10
86.8416
20
-120.514
11
84.5882
21
-120.511
0
ARC
8
Black
10
84.5883
20
-120.506
40
0.005
50
449.915
51
629.915
0
ARC
8
Black
10
86.8416
20
-120.509
40
0.005
50
269.915
51
449.915
0
LINE
8
Black
10
122.342
20
-120.511
11
124.595
21
-120.511
0
LINE
8
Black
10
122.342
20
-120.501
11
124.595
21
-120.501
0
ARC
8
Black
10
124.595
20
-120.506
40
0.005
50
270
51
450
0
ARC
8
Black
10
122.342
20
-120.506
40
0.005
50
90
51
270
0
LINE
8
Black
10
121.847
20
-120.006
11
121.847
21
-119.806
0
LINE
8
Black
10
121.837
20
-120.006
11
121.837
21
-119.806
0
ARC
8
Black
10
121.842
20
-119.806
40
0.005
50
360
51
540
0
ARC
8
Black
10
121.842
20
-120.006
40
0.005
50
180
51
360
0
LINE
8
Black
10
112.342
20
-119.311
11
121.342
21
-119.311
0
LINE
8
Black
10
112.342
20
-119.301
11
121.342
21
-119.301
0
ARC
8
Black
10
121.342
20
-119.306
40
0.005
50
270
51
450
0
ARC
8
Black
10
112.342
20
-119.306
40
0.005
50
90
51
270
0
LINE
8
Black
10
111.847
20
-120.006
11
111.847
21
-119.806
0
LINE
8
Black
10
111.837
20
-120.006
11
111.837
21
-119.806
0
ARC
8
Black
10
111.842
20
-119.806
40
0.005
50
360
51
540
0
ARC
8
Black
10
111.842
20
-120.006
40
0.005
50
180
51
360
0
LINE
8
Black
10
109.088
20
-120.511
11
111.342
21
-120.511
0
LINE
8
Black
10
109.088
20
-120.501
11
111.342
21
-120.501
0
ARC
8
Black
10
111.342
20
-120.506
40
0.005
50
270
51
450
0
ARC
8
Black
10
109.088
20
-120.506
40
0.005
50
90
51
270
0
LINE
8
Black
10
107.093
20
-127.558
11
107.093
21
-122.506
0
LINE
8
Black
10
107.083
20
-127.558
11
107.083
21
-122.506
0
ARC
8
Black
10
107.088
20
-122.506
40
0.005
50
360
51
540
0
ARC
8
Black
10
107.088
20
-127.558
40
0.005
50
180
51
360
0
LINE
8
Black
10
109.088
20
-129.563
11
111.342
21
-129.563
0
LINE
8
Black
10
109.088
20
-129.553
11
111.342
21
-129.553
0
ARC
8
Black
10
111.342
20
-129.558
40
0.005
50
270
51
450
0
ARC
8
Black
10
109.088
20
-129.558
40
0.005
50
90
51
270
0
LINE
8
Black
10
111.847
20
-130.258
11
111.847
21
-130.058
0
LINE
8
Black
10
111.837
20
-130.258
11
111.837
21
-130.058
0
ARC
8
Black
10
111.842
20
-130.058
40
0.005
50
360
51
540
0
ARC
8
Black
10
111.842
20
-130.258
40
0.005
50
180
51
360
0
LINE
8
Black
10
112.342
20
-130.763
11
121.342
21
-130.763
0
LINE
8
Black
10
112.342
20
-130.753
11
121.342
21
-130.753
0
ARC
8
Black
10
121.342
20
-130.758
40
0.005
50
270
51
450
0
ARC
8
Black
10
112.342
20
-130.758
40
0.005
50
90
51
270
0
LINE
8
Black
10
121.839
20
-130.254
11
121.839
21
-130.054
0
LINE
8
Black
10
121.829
20
-130.254
11
121.829
21
-130.054
0
ARC
8
Black
10
121.834
20
-130.054
40
0.005
50
359.915
51
539.915
0
ARC
8
Black
10
121.834
20
-130.254
40
0.005
50
179.915
51
359.915
0
LINE
8
Black
10
122.335
20
-129.56
11
124.588
21
-129.563
0
LINE
8
Black
10
122.335
20
-129.55
11
124.588
21
-129.553
0
ARC
8
Black
10
124.588
20
-129.558
40
0.005
50
269.915
51
449.915
0
ARC
8
Black
10
122.335
20
-129.555
40
0.005
50
89.915
51
269.915
0
LINE
8
Black
10
124.593
20
-129.558
11
124.593
21
-125.032
0
LINE
8
Black
10
124.583
20
-129.558
11
124.583
21
-125.032
0
ARC
8
Black
10
124.588
20
-125.032
40
0.005
50
360
51
540
0
ARC
8
Black
10
124.588
20
-129.558
40
0.005
50
180
51
360
0
LINE
8
Black
10
124.593
20
-125.032
11
124.6
21
-120.506
0
LINE
8
Black
10
124.583
20
-125.032
11
124.59
21
-120.506
0
ARC
8
Black
10
124.595
20
-120.506
40
0.005
50
359.915
51
539.915
0
ARC
8
Black
10
124.588
20
-125.032
40
0.005
50
179.915
51
359.915
0
LINE
8
Black
10
132.593
20
-154.032
11
132.593
21
-152.032
0
LINE
8
Black
10
132.583
20
-154.032
11
132.583
21
-152.032
0
ARC
8
Black
10
132.588
20
-152.032
40
0.005
50
360
51
540
0
ARC
8
Black
10
132.588
20
-154.032
40
0.005
50
180
51
360
0
LINE
8
Black
10
122.915
20
-158.037
11
128.588
21
-158.037
0
LINE
8
Black
10
122.915
20
-158.027
11
128.588
21
-158.027
0
ARC
8
Black
10
128.588
20
-158.032
40
0.005
50
270
51
450
0
ARC
8
Black
10
122.915
20
-158.032
40
0.005
50
90
51
270
0
LINE
8
Black
10
90.5883
20
-156.537
11
118.588
21
-156.537
0
LINE
8
Black
10
90.5883
20
-156.527
11
118.588
21
-156.527
0
ARC
8
Black
10
118.588
20
-156.532
40
0.005
50
270
51
450
0
ARC
8
Black
10
90.5883
20
-156.532
40
0.005
50
90
51
270
0
LINE
8
Black
10
80.5883
20
-158.037
11
86.2615
21
-158.037
0
LINE
8
Black
10
80.5883
20
-158.027
11
86.2615
21
-158.027
0
ARC
8
Black
10
86.2615
20
-158.032
40
0.005
50
270
51
450
0
ARC
8
Black
10
80.5883
20
-158.032
40
0.005
50
90
51
270
0
LINE
8
Black
10
76.5933
20
-154.032
11
76.5933
21
-152.032
0
LINE
8
Black
10
76.5833
20
-154.032
11
76.5833
21
-152.032
0
ARC
8
Black
10
76.5883
20
-152.032
40
0.005
50
360
51
540
0
ARC
8
Black
10
76.5883
20
-154.032
40
0.005
50
180
51
360
0
LINE
8
Black
10
81.5933
20
-145.032
11
81.5933
21
-105.032
0
LINE
8
Black
10
81.5833
20
-145.032
11
81.5833
21
-105.032
0
ARC
8
Black
10
81.5883
20
-105.032
40
0.005
50
360
51
540
0
ARC
8
Black
10
81.5883
20
-145.032
40
0.005
50
180
51
360
0
LINE
8
Black
10
70.752
20
-97.293
11
73.3717
21
-99.9127
0
LINE
8
Black
10
70.759
20
-97.2859
11
73.3788
21
-99.9057
0
ARC
8
Black
10
73.3752
20
-99.9092
40
0.005
50
225
51
405
0
ARC
8
Black
10
70.7555
20
-97.2895
40
0.005
50
45
51
225
0
LINE
8
Black
10
135.805
20
-99.9127
11
138.425
21
-97.293
0
LINE
8
Black
10
135.798
20
-99.9057
11
138.417
21
-97.2859
0
ARC
8
Black
10
138.421
20
-97.2895
40
0.005
50
315
51
495
0
ARC
8
Black
10
135.801
20
-99.9092
40
0.005
50
135
51
315
0
LINE
8
Black
10
127.593
20
-145.032
11
127.593
21
-105.032
0
LINE
8
Black
10
127.583
20
-145.032
11
127.583
21
-105.032
0
ARC
8
Black
10
127.588
20
-105.032
40
0.005
50
360
51
540
0
ARC
8
Black
10
127.588
20
-145.032
40
0.005
50
180
51
360
0
LINE
8
Black
10
124.593
20
-115.032
11
124.593
21
-111.032
0
LINE
8
Black
10
124.583
20
-115.032
11
124.583
21
-111.032
0
ARC
8
Black
10
124.588
20
-111.032
40
0.005
50
360
51
540
0
ARC
8
Black
10
124.588
20
-115.032
40
0.005
50
180
51
360
0
LINE
8
Black
10
126.093
20
-115.032
11
126.093
21
-111.032
0
LINE
8
Black
10
126.083
20
-115.032
11
126.083
21
-111.032
0
ARC
8
Black
10
126.088
20
-111.032
40
0.005
50
360
51
540
0
ARC
8
Black
10
126.088
20
-115.032
40
0.005
50
180
51
360
0
LINE
8
Black
10
126.093
20
-139.032
11
126.093
21
-135.032
0
LINE
8
Black
10
126.083
20
-139.032
11
126.083
21
-135.032
0
ARC
8
Black
10
126.088
20
-135.032
40
0.005
50
360
51
540
0
ARC
8
Black
10
126.088
20
-139.032
40
0.005
50
180
51
360
0
LINE
8
Black
10
124.593
20
-139.032
11
124.593
21
-135.032
0
LINE
8
Black
10
124.583
20
-139.032
11
124.583
21
-135.032
0
ARC
8
Black
10
124.588
20
-135.032
40
0.005
50
360
51
540
0
ARC
8
Black
10
124.588
20
-139.032
40
0.005
50
180
51
360
0
LINE
8
Black
10
83.0933
20
-139.032
11
83.0933
21
-135.032
0
LINE
8
Black
10
83.0833
20
-139.032
11
83.0833
21
-135.032
0
ARC
8
Black
10
83.0883
20
-135.032
40
0.005
50
360
51
540
0
ARC
8
Black
10
83.0883
20
-139.032
40
0.005
50
180
51
360
0
LINE
8
Black
10
84.5933
20
-139.032
11
84.5933
21
-135.032
0
LINE
8
Black
10
84.5833
20
-139.032
11
84.5833
21
-135.032
0
ARC
8
Black
10
84.5883
20
-135.032
40
0.005
50
360
51
540
0
ARC
8
Black
10
84.5883
20
-139.032
40
0.005
50
180
51
360
0
LINE
8
Black
10
80.547
20
-88.5614
11
80.547
21
-87.7761
0
LINE
8
Black
10
80.537
20
-88.5614
11
80.537
21
-87.7761
0
ARC
8
Black
10
80.542
20
-87.7761
40
0.005
50
360
51
540
0
ARC
8
Black
10
80.542
20
-88.5614
40
0.005
50
180
51
360
0
LINE
8
Black
10
81.4085
20
-91.3835
11
83.6908
21
-94.7264
0
LINE
8
Black
10
81.4167
20
-91.3778
11
83.6991
21
-94.7208
0
ARC
8
Black
10
83.6949
20
-94.7236
40
0.005
50
214.322
51
394.322
0
ARC
8
Black
10
81.4126
20
-91.3806
40
0.005
50
34.3224
51
214.322
0
LINE
8
Black
10
86.1726
20
-96.037
11
96.0105
21
-96.037
0
LINE
8
Black
10
86.1726
20
-96.027
11
96.0105
21
-96.027
0
ARC
8
Black
10
96.0105
20
-96.032
40
0.005
50
270
51
450
0
ARC
8
Black
10
86.1726
20
-96.032
40
0.005
50
90
51
270
0
LINE
8
Black
10
97.1265
20
-95.8221
11
101.054
21
-94.2512
0
LINE
8
Black
10
97.1228
20
-95.8128
11
101.05
21
-94.242
0
ARC
8
Black
10
101.052
20
-94.2466
40
0.005
50
291.801
51
471.801
0
ARC
8
Black
10
97.1247
20
-95.8175
40
0.005
50
111.801
51
291.801
0
LINE
8
Black
10
102.166
20
-94.037
11
107.011
21
-94.037
0
LINE
8
Black
10
102.166
20
-94.027
11
107.011
21
-94.027
0
ARC
8
Black
10
107.011
20
-94.032
40
0.005
50
270
51
450
0
ARC
8
Black
10
102.166
20
-94.032
40
0.005
50
90
51
270
0
LINE
8
Black
10
108.123
20
-94.2512
11
112.05
21
-95.8221
0
LINE
8
Black
10
108.127
20
-94.242
11
112.054
21
-95.8128
0
ARC
8
Black
10
112.052
20
-95.8175
40
0.005
50
248.199
51
428.199
0
ARC
8
Black
10
108.125
20
-94.2466
40
0.005
50
68.1986
51
248.199
0
LINE
8
Black
10
113.166
20
-96.037
11
123.004
21
-96.037
0
LINE
8
Black
10
113.166
20
-96.027
11
123.004
21
-96.027
0
ARC
8
Black
10
123.004
20
-96.032
40
0.005
50
270
51
450
0
ARC
8
Black
10
113.166
20
-96.032
40
0.005
50
90
51
270
0
LINE
8
Black
10
125.486
20
-94.7264
11
127.768
21
-91.3835
0
LINE
8
Black
10
125.477
20
-94.7208
11
127.76
21
-91.3778
0
ARC
8
Black
10
127.764
20
-91.3806
40
0.005
50
325.678
51
505.678
0
ARC
8
Black
10
125.482
20
-94.7236
40
0.005
50
145.678
51
325.678
0
LINE
8
Black
10
128.639
20
-88.5614
11
128.639
21
-87.7761
0
LINE
8
Black
10
128.629
20
-88.5614
11
128.629
21
-87.7761
0
ARC
8
Black
10
128.634
20
-87.7761
40
0.005
50
360
51
540
0
ARC
8
Black
10
128.634
20
-88.5614
40
0.005
50
180
51
360
0
ARC
8
Black
10
83.8383
20
-115.031
40
0.75
50
-179.954
51
-0.0543162
0
ARC
8
Black
10
83.8383
20
-111.033
40
0.75
50
0.0456838
51
179.946
0
ARC
8
Black
10
86.8424
20
-130.055
40
0.500001
50
0.0849123
51
89.9849
0
ARC
8
Black
10
87.8427
20
-130.253
40
0.500073
50
-179.907
51
-90.0069
0
ARC
8
Black
10
96.8284
20
-130.24
40
0.500079
50
-88.2862
51
-4.28618
0
ARC
8
Black
10
97.8274
20
-130.078
40
0.500001
50
89.915
51
179.915
0
ARC
8
Black
10
100.084
20
-127.581
40
2
50
-90.085
51
-0.0849697
0
ARC
8
Black
10
100.092
20
-122.529
40
2
50
-0.084941
51
89.8151
0
ARC
8
Black
10
97.8424
20
-120.026
40
0.500072
50
179.923
51
269.823
0
ARC
8
Black
10
96.8426
20
-119.824
40
0.500001
50
-0.0850269
51
89.915
0
ARC
8
Black
10
87.8427
20
-119.811
40
0.500072
50
89.9231
51
179.823
0
ARC
8
Black
10
86.8424
20
-120.009
40
0.5
50
-90.0849
51
-0.0849125
0
ARC
8
Black
10
122.342
20
-120.006
40
0.500072
50
-179.992
51
-90.0919
0
ARC
8
Black
10
121.342
20
-119.806
40
0.5
50
-0
51
89.9
0
ARC
8
Black
10
112.342
20
-119.806
40
0.500072
50
90.0082
51
179.908
0
ARC
8
Black
10
111.342
20
-120.006
40
0.500072
50
-89.9918
51
-0.0917506
0
ARC
8
Black
10
109.088
20
-122.506
40
2
50
90
51
179.9
0
ARC
8
Black
10
109.088
20
-127.558
40
2
50
180
51
269.9
0
ARC
8
Black
10
111.342
20
-130.058
40
0.5
50
-0
51
89.9
0
ARC
8
Black
10
112.342
20
-130.258
40
0.500072
50
-179.992
51
-90.0918
0
ARC
8
Black
10
121.334
20
-130.258
40
0.500076
50
-89.1061
51
0.393944
0
ARC
8
Black
10
122.334
20
-130.055
40
0.5
50
89.9149
51
179.915
0
ARC
8
Black
10
128.588
20
-154.032
40
4
50
-90
51
-0.0999857
0
ARC
8
Black
10
80.5883
20
-154.032
40
4
50
180
51
269.9
0
ARC
8
Black
10
76.2037
20
-97.0807
40
4.00007
50
-135
51
-89.4996
0
ARC
8
Black
10
73.5839
20
-94.461
40
4.00002
50
177.331
51
224.931
0
ARC
8
Black
10
135.593
20
-94.461
40
4.00002
50
-44.9999
51
2.60007
0
ARC
8
Black
10
132.973
20
-97.0807
40
4.00008
50
-90.5936
51
-45.0936
0
ARC
8
Black
10
125.338
20
-115.032
40
0.75
50
180
51
359.9
0
ARC
8
Black
10
125.338
20
-111.032
40
0.75
50
-0
51
179.9
0
ARC
8
Black
10
125.338
20
-135.032
40
0.75
50
-0
51
179.9
0
ARC
8
Black
10
125.338
20
-139.032
40
0.75
50
180
51
359.9
0
ARC
8
Black
10
83.8383
20
-139.031
40
0.75
50
-179.954
51
-0.0543162
0
ARC
8
Black
10
83.8383
20
-135.033
40
0.75
50
0.0456838
51
179.946
0
ARC
8
Black
10
85.5421
20
-88.5614
40
5.00009
50
-180
51
-145.7
0
ARC
8
Black
10
86.1726
20
-93.032
40
3.00005
50
-145.677
51
-90.0771
0
ARC
8
Black
10
96.0105
20
-93.0319
40
3.00009
50
-89.9997
51
-68.2997
0
ARC
8
Black
10
102.166
20
-97.0321
40
3.00009
50
90.0004
51
111.7
0
ARC
8
Black
10
107.01
20
-97.0321
40
3.00009
50
68.1989
51
89.8989
0
ARC
8
Black
10
113.166
20
-93.0319
40
3.00009
50
-111.801
51
-90.101
0
ARC
8
Black
10
123.004
20
-93.032
40
3.00004
50
-89.9996
51
-34.3996
0
ARC
8
Black
10
123.634
20
-88.5614
40
5.0001
50
-34.322
51
-0.0220171
  0
ENDSEC
  0
EOF
