  0
SECTION
  2
HEADER
  9
$ANGBASE
  50
0.0
  9
$ANGDIR
  70
  1
  9
$MEASUREMENT
  70
0
  0
ENDSEC
  0
SECTION
  2
TABLES
  0
TABLE
  2
LTYPE
  70
1
  0
LTYPE
  2
CONTINUOUS
  70
0
  3
Solid line
  72
65
  73
0
  40
0.0
  0
ENDTAB
  0
TABLE
  2
STYLE
  70
4
  0
STYLE
  2
KICAD
  70
0
  40
0
  41
1
  42
1
  50
0
  71
0
  3
isocp.shx
  0
STYLE
  2
KICADB
  70
0
  40
0
  41
1
  42
1
  50
0
  71
0
  3
isocp.shx
  0
STYLE
  2
KICADI
  70
0
  40
0
  41
1
  42
1
  50
15
  71
0
  3
isocp.shx
  0
STYLE
  2
KICADBI
  70
0
  40
0
  41
1
  42
1
  50
15
  71
0
  3
isocp.shx
  0
ENDTAB
  0
TABLE
  2
LAYER
  70
30
  0
LAYER
  2
BLACK
  70
0
  62
7
  6
CONTINUOUS
  0
LAYER
  2
GRAY1
  70
0
  62
251
  6
CONTINUOUS
  0
LAYER
  2
GRAY2
  70
0
  62
8
  6
CONTINUOUS
  0
LAYER
  2
GRAY3
  70
0
  62
9
  6
CONTINUOUS
  0
LAYER
  2
WHITE
  70
0
  62
7
  6
CONTINUOUS
  0
LAYER
  2
LYELLOW
  70
0
  62
51
  6
CONTINUOUS
  0
LAYER
  2
BLUE1
  70
0
  62
178
  6
CONTINUOUS
  0
LAYER
  2
GREEN1
  70
0
  62
98
  6
CONTINUOUS
  0
LAYER
  2
CYAN1
  70
0
  62
138
  6
CONTINUOUS
  0
LAYER
  2
RED1
  70
0
  62
18
  6
CONTINUOUS
  0
LAYER
  2
MAGENTA1
  70
0
  62
228
  6
CONTINUOUS
  0
LAYER
  2
BROWN1
  70
0
  62
58
  6
CONTINUOUS
  0
LAYER
  2
BLUE2
  70
0
  62
5
  6
CONTINUOUS
  0
LAYER
  2
GREEN2
  70
0
  62
3
  6
CONTINUOUS
  0
LAYER
  2
CYAN2
  70
0
  62
4
  6
CONTINUOUS
  0
LAYER
  2
RED2
  70
0
  62
1
  6
CONTINUOUS
  0
LAYER
  2
MAGENTA2
  70
0
  62
6
  6
CONTINUOUS
  0
LAYER
  2
BROWN2
  70
0
  62
54
  6
CONTINUOUS
  0
LAYER
  2
BLUE3
  70
0
  62
171
  6
CONTINUOUS
  0
LAYER
  2
GREEN3
  70
0
  62
91
  6
CONTINUOUS
  0
LAYER
  2
CYAN3
  70
0
  62
131
  6
CONTINUOUS
  0
LAYER
  2
RED3
  70
0
  62
11
  6
CONTINUOUS
  0
LAYER
  2
MAGENTA3
  70
0
  62
221
  6
CONTINUOUS
  0
LAYER
  2
YELLOW3
  70
0
  62
2
  6
CONTINUOUS
  0
LAYER
  2
BLUE4
  70
0
  62
5
  6
CONTINUOUS
  0
LAYER
  2
GREEN4
  70
0
  62
3
  6
CONTINUOUS
  0
LAYER
  2
CYAN4
  70
0
  62
4
  6
CONTINUOUS
  0
LAYER
  2
RED4
  70
0
  62
1
  6
CONTINUOUS
  0
LAYER
  2
MAGENTA4
  70
0
  62
6
  6
CONTINUOUS
  0
LAYER
  2
YELLOW4
  70
0
  62
2
  6
CONTINUOUS
  0
ENDTAB
  0
ENDSEC
  0
SECTION
  2
ENTITIES
0
LINE
8
Black
10
150.167
20
-108.257
11
151.437
21
-106.987
0
LINE
8
Black
10
150.061
20
-108.151
11
151.331
21
-106.881
0
ARC
8
Black
10
151.384
20
-106.934
40
0.075
50
315
51
495
0
ARC
8
Black
10
150.114
20
-108.204
40
0.075
50
135
51
315
0
LINE
8
Black
10
150.061
20
-86.921
11
151.331
21
-88.191
0
LINE
8
Black
10
150.167
20
-86.815
11
151.437
21
-88.085
0
ARC
8
Black
10
151.384
20
-88.138
40
0.075
50
225
51
405
0
ARC
8
Black
10
150.114
20
-86.868
40
0.075
50
45
51
225
0
LINE
8
Black
10
139.118
20
-108.151
11
137.848
21
-106.881
0
LINE
8
Black
10
139.012
20
-108.257
11
137.742
21
-106.987
0
ARC
8
Black
10
137.795
20
-106.934
40
0.075
50
405
51
585
0
ARC
8
Black
10
139.065
20
-108.204
40
0.075
50
225
51
405
0
LINE
8
Black
10
139.012
20
-86.815
11
137.742
21
-88.085
0
LINE
8
Black
10
139.118
20
-86.921
11
137.848
21
-88.191
0
ARC
8
Black
10
137.795
20
-88.138
40
0.075
50
495
51
675
0
ARC
8
Black
10
139.065
20
-86.868
40
0.075
50
315
51
495
0
LINE
8
Black
10
130.758
20
-102.87
11
130.758
21
-92.202
0
LINE
8
Black
10
130.608
20
-102.87
11
130.608
21
-92.202
0
ARC
8
Black
10
130.683
20
-92.202
40
0.075
50
360
51
540
0
ARC
8
Black
10
130.683
20
-102.87
40
0.075
50
180
51
360
0
LINE
8
Black
10
137.87
20
-108.204
11
137.87
21
-102.87
0
LINE
8
Black
10
137.72
20
-108.204
11
137.72
21
-102.87
0
ARC
8
Black
10
137.795
20
-102.87
40
0.075
50
360
51
540
0
ARC
8
Black
10
137.795
20
-108.204
40
0.075
50
180
51
360
0
LINE
8
Black
10
130.683
20
-102.945
11
137.795
21
-102.945
0
LINE
8
Black
10
130.683
20
-102.795
11
137.795
21
-102.795
0
ARC
8
Black
10
137.795
20
-102.87
40
0.075
50
270
51
450
0
ARC
8
Black
10
130.683
20
-102.87
40
0.075
50
90
51
270
0
LINE
8
Black
10
137.87
20
-92.202
11
137.87
21
-86.868
0
LINE
8
Black
10
137.72
20
-92.202
11
137.72
21
-86.868
0
ARC
8
Black
10
137.795
20
-86.868
40
0.075
50
360
51
540
0
ARC
8
Black
10
137.795
20
-92.202
40
0.075
50
180
51
360
0
LINE
8
Black
10
130.683
20
-92.277
11
137.795
21
-92.277
0
LINE
8
Black
10
130.683
20
-92.127
11
137.795
21
-92.127
0
ARC
8
Black
10
137.795
20
-92.202
40
0.075
50
270
51
450
0
ARC
8
Black
10
130.683
20
-92.202
40
0.075
50
90
51
270
0
LINE
8
Black
10
137.795
20
-86.943
11
151.384
21
-86.943
0
LINE
8
Black
10
137.795
20
-86.793
11
151.384
21
-86.793
0
ARC
8
Black
10
151.384
20
-86.868
40
0.075
50
270
51
450
0
ARC
8
Black
10
137.795
20
-86.868
40
0.075
50
90
51
270
0
LINE
8
Black
10
137.795
20
-108.279
11
151.384
21
-108.279
0
LINE
8
Black
10
137.795
20
-108.129
11
151.384
21
-108.129
0
ARC
8
Black
10
151.384
20
-108.204
40
0.075
50
270
51
450
0
ARC
8
Black
10
137.795
20
-108.204
40
0.075
50
90
51
270
0
LINE
8
Black
10
151.459
20
-108.204
11
151.459
21
-86.868
0
LINE
8
Black
10
151.309
20
-108.204
11
151.309
21
-86.868
0
ARC
8
Black
10
151.384
20
-86.868
40
0.075
50
360
51
540
0
ARC
8
Black
10
151.384
20
-108.204
40
0.075
50
180
51
360
  0
ENDSEC
  0
EOF
