<?xml version="1.0" standalone="no"?>
 <!DOCTYPE svg PUBLIC "-//W3C//DTD SVG 1.1//EN" 
 "http://www.w3.org/Graphics/SVG/1.1/DTD/svg11.dtd"> 
<svg xmlns="http://www.w3.org/2000/svg" version="1.1" 
    width="29.7002cm" height="21.0007cm" viewBox="0 0 116930 82680 ">
<title>SVG Picture created as Zhonx3_carteBT-brd.svg date 2014/12/16 21:28:02 </title>
  <desc>Picture generated by PCBNEW </desc>
<g style="fill:#000000; fill-opacity:1;stroke:#000000; stroke-opacity:1;
stroke-linecap:round; stroke-linejoin:round; "
 transform="translate(0 0) scale(1 1)">
</g>
<g style="fill:#000000; fill-opacity:0.0; 
stroke:#000000; stroke-width:39.3701; stroke-opacity:1; 
stroke-linecap:round; stroke-linejoin:round;">
</g>
<g style="fill:#000000; fill-opacity:0.0; 
stroke:#000000; stroke-width:59.0551; stroke-opacity:1; 
stroke-linecap:round; stroke-linejoin:round;">
<rect x="69685.9" y="65357.2" width="42519.7" height="12598.4" rx="0" />
</g>
<g style="fill:#000000; fill-opacity:0.0; 
stroke:#000000; stroke-width:39.3701; stroke-opacity:1; 
stroke-linecap:round; stroke-linejoin:round;">
</g>
<g style="fill:#000000; fill-opacity:0.0; 
stroke:#000000; stroke-width:59.0551; stroke-opacity:1; 
stroke-linecap:round; stroke-linejoin:round;">
<rect x="3937.01" y="3937.01" width="109056" height="74806" rx="0" />
</g>
<g style="fill:#000000; fill-opacity:0.0; 
stroke:#000000; stroke-width:39.3701; stroke-opacity:1; 
stroke-linecap:round; stroke-linejoin:round;">
</g>
<g style="fill:#000000; fill-opacity:0.0; 
stroke:#000000; stroke-width:59.0551; stroke-opacity:1; 
stroke-linecap:round; stroke-linejoin:round;">
<rect x="4724.41" y="4724.41" width="107481" height="73231.2" rx="0" />
</g>
<g style="fill:#000000; fill-opacity:0.0; 
stroke:#000000; stroke-width:39.3701; stroke-opacity:1; 
stroke-linecap:round; stroke-linejoin:round;">
</g>
<g style="fill:#000000; fill-opacity:0.0; 
stroke:#000000; stroke-width:59.0551; stroke-opacity:1; 
stroke-linecap:round; stroke-linejoin:round;">
<path d="M23622 4724
L23622 3937
" />
</g>
<g style="fill:#000000; fill-opacity:0.0; 
stroke:#000000; stroke-width:39.3701; stroke-opacity:1; 
stroke-linecap:round; stroke-linejoin:round;">
</g>
<g style="fill:#000000; fill-opacity:0.0; 
stroke:#000000; stroke-width:59.0551; stroke-opacity:1; 
stroke-linecap:round; stroke-linejoin:round;">
<path d="M43307 4724
L43307 3937
" />
</g>
<g style="fill:#000000; fill-opacity:0.0; 
stroke:#000000; stroke-width:39.3701; stroke-opacity:1; 
stroke-linecap:round; stroke-linejoin:round;">
</g>
<g style="fill:#000000; fill-opacity:0.0; 
stroke:#000000; stroke-width:59.0551; stroke-opacity:1; 
stroke-linecap:round; stroke-linejoin:round;">
<path d="M62992 4724
L62992 3937
" />
</g>
<g style="fill:#000000; fill-opacity:0.0; 
stroke:#000000; stroke-width:39.3701; stroke-opacity:1; 
stroke-linecap:round; stroke-linejoin:round;">
</g>
<g style="fill:#000000; fill-opacity:0.0; 
stroke:#000000; stroke-width:59.0551; stroke-opacity:1; 
stroke-linecap:round; stroke-linejoin:round;">
<path d="M82677 4724
L82677 3937
" />
</g>
<g style="fill:#000000; fill-opacity:0.0; 
stroke:#000000; stroke-width:39.3701; stroke-opacity:1; 
stroke-linecap:round; stroke-linejoin:round;">
</g>
<g style="fill:#000000; fill-opacity:0.0; 
stroke:#000000; stroke-width:59.0551; stroke-opacity:1; 
stroke-linecap:round; stroke-linejoin:round;">
<path d="M102362 4724
L102362 3937
" />
</g>
<g style="fill:#000000; fill-opacity:0.0; 
stroke:#000000; stroke-width:39.3701; stroke-opacity:1; 
stroke-linecap:round; stroke-linejoin:round;">
</g>
<g style="fill:#000000; fill-opacity:0.0; 
stroke:#000000; stroke-width:59.0551; stroke-opacity:1; 
stroke-linecap:round; stroke-linejoin:round;">
<path d="M14169 4562
L13877 4562
" />
<path d="M14023 4562
L14023 4050
L13974 4123
L13925 4172
L13877 4196
" />
</g>
<g style="fill:#000000; fill-opacity:0.0; 
stroke:#000000; stroke-width:39.3701; stroke-opacity:1; 
stroke-linecap:round; stroke-linejoin:round;">
</g>
<g style="fill:#000000; fill-opacity:0.0; 
stroke:#000000; stroke-width:59.0551; stroke-opacity:1; 
stroke-linecap:round; stroke-linejoin:round;">
<path d="M33562 4099
L33586 4074
L33635 4050
L33757 4050
L33805 4074
L33830 4099
L33854 4147
L33854 4196
L33830 4269
L33537 4562
L33854 4562
" />
</g>
<g style="fill:#000000; fill-opacity:0.0; 
stroke:#000000; stroke-width:39.3701; stroke-opacity:1; 
stroke-linecap:round; stroke-linejoin:round;">
</g>
<g style="fill:#000000; fill-opacity:0.0; 
stroke:#000000; stroke-width:59.0551; stroke-opacity:1; 
stroke-linecap:round; stroke-linejoin:round;">
<path d="M53222 4050
L53539 4050
L53368 4245
L53442 4245
L53490 4269
L53515 4294
L53539 4342
L53539 4464
L53515 4513
L53490 4537
L53442 4562
L53295 4562
L53247 4537
L53222 4513
" />
</g>
<g style="fill:#000000; fill-opacity:0.0; 
stroke:#000000; stroke-width:39.3701; stroke-opacity:1; 
stroke-linecap:round; stroke-linejoin:round;">
</g>
<g style="fill:#000000; fill-opacity:0.0; 
stroke:#000000; stroke-width:59.0551; stroke-opacity:1; 
stroke-linecap:round; stroke-linejoin:round;">
<path d="M73175 4221
L73175 4562
" />
<path d="M73053 4026
L72932 4391
L73248 4391
" />
</g>
<g style="fill:#000000; fill-opacity:0.0; 
stroke:#000000; stroke-width:39.3701; stroke-opacity:1; 
stroke-linecap:round; stroke-linejoin:round;">
</g>
<g style="fill:#000000; fill-opacity:0.0; 
stroke:#000000; stroke-width:59.0551; stroke-opacity:1; 
stroke-linecap:round; stroke-linejoin:round;">
<path d="M92885 4050
L92641 4050
L92617 4294
L92641 4269
L92690 4245
L92812 4245
L92860 4269
L92885 4294
L92909 4342
L92909 4464
L92885 4513
L92860 4537
L92812 4562
L92690 4562
L92641 4537
L92617 4513
" />
</g>
<g style="fill:#000000; fill-opacity:0.0; 
stroke:#000000; stroke-width:39.3701; stroke-opacity:1; 
stroke-linecap:round; stroke-linejoin:round;">
</g>
<g style="fill:#000000; fill-opacity:0.0; 
stroke:#000000; stroke-width:59.0551; stroke-opacity:1; 
stroke-linecap:round; stroke-linejoin:round;">
<path d="M112545 4050
L112448 4050
L112399 4074
L112375 4099
L112326 4172
L112302 4269
L112302 4464
L112326 4513
L112350 4537
L112399 4562
L112497 4562
L112545 4537
L112570 4513
L112594 4464
L112594 4342
L112570 4294
L112545 4269
L112497 4245
L112399 4245
L112350 4269
L112326 4294
L112302 4342
" />
</g>
<g style="fill:#000000; fill-opacity:0.0; 
stroke:#000000; stroke-width:39.3701; stroke-opacity:1; 
stroke-linecap:round; stroke-linejoin:round;">
</g>
<g style="fill:#000000; fill-opacity:0.0; 
stroke:#000000; stroke-width:59.0551; stroke-opacity:1; 
stroke-linecap:round; stroke-linejoin:round;">
<path d="M23622 77955
L23622 78742
" />
</g>
<g style="fill:#000000; fill-opacity:0.0; 
stroke:#000000; stroke-width:39.3701; stroke-opacity:1; 
stroke-linecap:round; stroke-linejoin:round;">
</g>
<g style="fill:#000000; fill-opacity:0.0; 
stroke:#000000; stroke-width:59.0551; stroke-opacity:1; 
stroke-linecap:round; stroke-linejoin:round;">
<path d="M43307 77955
L43307 78742
" />
</g>
<g style="fill:#000000; fill-opacity:0.0; 
stroke:#000000; stroke-width:39.3701; stroke-opacity:1; 
stroke-linecap:round; stroke-linejoin:round;">
</g>
<g style="fill:#000000; fill-opacity:0.0; 
stroke:#000000; stroke-width:59.0551; stroke-opacity:1; 
stroke-linecap:round; stroke-linejoin:round;">
<path d="M62992 77955
L62992 78742
" />
</g>
<g style="fill:#000000; fill-opacity:0.0; 
stroke:#000000; stroke-width:39.3701; stroke-opacity:1; 
stroke-linecap:round; stroke-linejoin:round;">
</g>
<g style="fill:#000000; fill-opacity:0.0; 
stroke:#000000; stroke-width:59.0551; stroke-opacity:1; 
stroke-linecap:round; stroke-linejoin:round;">
<path d="M82677 77955
L82677 78742
" />
</g>
<g style="fill:#000000; fill-opacity:0.0; 
stroke:#000000; stroke-width:39.3701; stroke-opacity:1; 
stroke-linecap:round; stroke-linejoin:round;">
</g>
<g style="fill:#000000; fill-opacity:0.0; 
stroke:#000000; stroke-width:59.0551; stroke-opacity:1; 
stroke-linecap:round; stroke-linejoin:round;">
<path d="M102362 77955
L102362 78742
" />
</g>
<g style="fill:#000000; fill-opacity:0.0; 
stroke:#000000; stroke-width:39.3701; stroke-opacity:1; 
stroke-linecap:round; stroke-linejoin:round;">
</g>
<g style="fill:#000000; fill-opacity:0.0; 
stroke:#000000; stroke-width:59.0551; stroke-opacity:1; 
stroke-linecap:round; stroke-linejoin:round;">
<path d="M14169 78580
L13877 78580
" />
<path d="M14023 78580
L14023 78069
L13974 78142
L13925 78190
L13877 78215
" />
</g>
<g style="fill:#000000; fill-opacity:0.0; 
stroke:#000000; stroke-width:39.3701; stroke-opacity:1; 
stroke-linecap:round; stroke-linejoin:round;">
</g>
<g style="fill:#000000; fill-opacity:0.0; 
stroke:#000000; stroke-width:59.0551; stroke-opacity:1; 
stroke-linecap:round; stroke-linejoin:round;">
<path d="M33562 78117
L33586 78093
L33635 78069
L33757 78069
L33805 78093
L33830 78117
L33854 78166
L33854 78215
L33830 78288
L33537 78580
L33854 78580
" />
</g>
<g style="fill:#000000; fill-opacity:0.0; 
stroke:#000000; stroke-width:39.3701; stroke-opacity:1; 
stroke-linecap:round; stroke-linejoin:round;">
</g>
<g style="fill:#000000; fill-opacity:0.0; 
stroke:#000000; stroke-width:59.0551; stroke-opacity:1; 
stroke-linecap:round; stroke-linejoin:round;">
<path d="M53222 78069
L53539 78069
L53368 78263
L53442 78263
L53490 78288
L53515 78312
L53539 78361
L53539 78483
L53515 78532
L53490 78556
L53442 78580
L53295 78580
L53247 78556
L53222 78532
" />
</g>
<g style="fill:#000000; fill-opacity:0.0; 
stroke:#000000; stroke-width:39.3701; stroke-opacity:1; 
stroke-linecap:round; stroke-linejoin:round;">
</g>
<g style="fill:#000000; fill-opacity:0.0; 
stroke:#000000; stroke-width:59.0551; stroke-opacity:1; 
stroke-linecap:round; stroke-linejoin:round;">
<path d="M73175 78239
L73175 78580
" />
<path d="M73053 78044
L72932 78410
L73248 78410
" />
</g>
<g style="fill:#000000; fill-opacity:0.0; 
stroke:#000000; stroke-width:39.3701; stroke-opacity:1; 
stroke-linecap:round; stroke-linejoin:round;">
</g>
<g style="fill:#000000; fill-opacity:0.0; 
stroke:#000000; stroke-width:59.0551; stroke-opacity:1; 
stroke-linecap:round; stroke-linejoin:round;">
<path d="M92885 78069
L92641 78069
L92617 78312
L92641 78288
L92690 78263
L92812 78263
L92860 78288
L92885 78312
L92909 78361
L92909 78483
L92885 78532
L92860 78556
L92812 78580
L92690 78580
L92641 78556
L92617 78532
" />
</g>
<g style="fill:#000000; fill-opacity:0.0; 
stroke:#000000; stroke-width:39.3701; stroke-opacity:1; 
stroke-linecap:round; stroke-linejoin:round;">
</g>
<g style="fill:#000000; fill-opacity:0.0; 
stroke:#000000; stroke-width:59.0551; stroke-opacity:1; 
stroke-linecap:round; stroke-linejoin:round;">
<path d="M112545 78069
L112448 78069
L112399 78093
L112375 78117
L112326 78190
L112302 78288
L112302 78483
L112326 78532
L112350 78556
L112399 78580
L112497 78580
L112545 78556
L112570 78532
L112594 78483
L112594 78361
L112570 78312
L112545 78288
L112497 78263
L112399 78263
L112350 78288
L112326 78312
L112302 78361
" />
</g>
<g style="fill:#000000; fill-opacity:0.0; 
stroke:#000000; stroke-width:39.3701; stroke-opacity:1; 
stroke-linecap:round; stroke-linejoin:round;">
</g>
<g style="fill:#000000; fill-opacity:0.0; 
stroke:#000000; stroke-width:59.0551; stroke-opacity:1; 
stroke-linecap:round; stroke-linejoin:round;">
<path d="M3937 23622
L4724 23622
" />
</g>
<g style="fill:#000000; fill-opacity:0.0; 
stroke:#000000; stroke-width:39.3701; stroke-opacity:1; 
stroke-linecap:round; stroke-linejoin:round;">
</g>
<g style="fill:#000000; fill-opacity:0.0; 
stroke:#000000; stroke-width:59.0551; stroke-opacity:1; 
stroke-linecap:round; stroke-linejoin:round;">
<path d="M3937 43307
L4724 43307
" />
</g>
<g style="fill:#000000; fill-opacity:0.0; 
stroke:#000000; stroke-width:39.3701; stroke-opacity:1; 
stroke-linecap:round; stroke-linejoin:round;">
</g>
<g style="fill:#000000; fill-opacity:0.0; 
stroke:#000000; stroke-width:59.0551; stroke-opacity:1; 
stroke-linecap:round; stroke-linejoin:round;">
<path d="M3937 62992
L4724 62992
" />
</g>
<g style="fill:#000000; fill-opacity:0.0; 
stroke:#000000; stroke-width:39.3701; stroke-opacity:1; 
stroke-linecap:round; stroke-linejoin:round;">
</g>
<g style="fill:#000000; fill-opacity:0.0; 
stroke:#000000; stroke-width:59.0551; stroke-opacity:1; 
stroke-linecap:round; stroke-linejoin:round;">
<path d="M4208 13864
L4452 13864
" />
<path d="M4160 14011
L4330 13499
L4501 14011
" />
</g>
<g style="fill:#000000; fill-opacity:0.0; 
stroke:#000000; stroke-width:39.3701; stroke-opacity:1; 
stroke-linecap:round; stroke-linejoin:round;">
</g>
<g style="fill:#000000; fill-opacity:0.0; 
stroke:#000000; stroke-width:59.0551; stroke-opacity:1; 
stroke-linecap:round; stroke-linejoin:round;">
<path d="M4367 33428
L4440 33452
L4464 33476
L4489 33525
L4489 33598
L4464 33647
L4440 33671
L4391 33696
L4196 33696
L4196 33184
L4367 33184
L4416 33208
L4440 33233
L4464 33281
L4464 33330
L4440 33379
L4416 33403
L4367 33428
L4196 33428
" />
</g>
<g style="fill:#000000; fill-opacity:0.0; 
stroke:#000000; stroke-width:39.3701; stroke-opacity:1; 
stroke-linecap:round; stroke-linejoin:round;">
</g>
<g style="fill:#000000; fill-opacity:0.0; 
stroke:#000000; stroke-width:59.0551; stroke-opacity:1; 
stroke-linecap:round; stroke-linejoin:round;">
<path d="M4489 53332
L4464 53356
L4391 53381
L4342 53381
L4269 53356
L4221 53308
L4196 53259
L4172 53161
L4172 53088
L4196 52991
L4221 52942
L4269 52893
L4342 52869
L4391 52869
L4464 52893
L4489 52918
" />
</g>
<g style="fill:#000000; fill-opacity:0.0; 
stroke:#000000; stroke-width:39.3701; stroke-opacity:1; 
stroke-linecap:round; stroke-linejoin:round;">
</g>
<g style="fill:#000000; fill-opacity:0.0; 
stroke:#000000; stroke-width:59.0551; stroke-opacity:1; 
stroke-linecap:round; stroke-linejoin:round;">
<path d="M4196 73066
L4196 72554
L4318 72554
L4391 72578
L4440 72627
L4464 72676
L4489 72773
L4489 72846
L4464 72944
L4440 72993
L4391 73041
L4318 73066
L4196 73066
" />
</g>
<g style="fill:#000000; fill-opacity:0.0; 
stroke:#000000; stroke-width:39.3701; stroke-opacity:1; 
stroke-linecap:round; stroke-linejoin:round;">
</g>
<g style="fill:#000000; fill-opacity:0.0; 
stroke:#000000; stroke-width:59.0551; stroke-opacity:1; 
stroke-linecap:round; stroke-linejoin:round;">
<path d="M112992 23622
L112205 23622
" />
</g>
<g style="fill:#000000; fill-opacity:0.0; 
stroke:#000000; stroke-width:39.3701; stroke-opacity:1; 
stroke-linecap:round; stroke-linejoin:round;">
</g>
<g style="fill:#000000; fill-opacity:0.0; 
stroke:#000000; stroke-width:59.0551; stroke-opacity:1; 
stroke-linecap:round; stroke-linejoin:round;">
<path d="M112992 43307
L112205 43307
" />
</g>
<g style="fill:#000000; fill-opacity:0.0; 
stroke:#000000; stroke-width:39.3701; stroke-opacity:1; 
stroke-linecap:round; stroke-linejoin:round;">
</g>
<g style="fill:#000000; fill-opacity:0.0; 
stroke:#000000; stroke-width:59.0551; stroke-opacity:1; 
stroke-linecap:round; stroke-linejoin:round;">
<path d="M112992 62992
L112205 62992
" />
</g>
<g style="fill:#000000; fill-opacity:0.0; 
stroke:#000000; stroke-width:39.3701; stroke-opacity:1; 
stroke-linecap:round; stroke-linejoin:round;">
</g>
<g style="fill:#000000; fill-opacity:0.0; 
stroke:#000000; stroke-width:59.0551; stroke-opacity:1; 
stroke-linecap:round; stroke-linejoin:round;">
<path d="M112477 13864
L112721 13864
" />
<path d="M112428 14011
L112599 13499
L112769 14011
" />
</g>
<g style="fill:#000000; fill-opacity:0.0; 
stroke:#000000; stroke-width:39.3701; stroke-opacity:1; 
stroke-linecap:round; stroke-linejoin:round;">
</g>
<g style="fill:#000000; fill-opacity:0.0; 
stroke:#000000; stroke-width:59.0551; stroke-opacity:1; 
stroke-linecap:round; stroke-linejoin:round;">
<path d="M112635 33428
L112708 33452
L112733 33476
L112757 33525
L112757 33598
L112733 33647
L112708 33671
L112660 33696
L112465 33696
L112465 33184
L112635 33184
L112684 33208
L112708 33233
L112733 33281
L112733 33330
L112708 33379
L112684 33403
L112635 33428
L112465 33428
" />
</g>
<g style="fill:#000000; fill-opacity:0.0; 
stroke:#000000; stroke-width:39.3701; stroke-opacity:1; 
stroke-linecap:round; stroke-linejoin:round;">
</g>
<g style="fill:#000000; fill-opacity:0.0; 
stroke:#000000; stroke-width:59.0551; stroke-opacity:1; 
stroke-linecap:round; stroke-linejoin:round;">
<path d="M112757 53332
L112733 53356
L112660 53381
L112611 53381
L112538 53356
L112489 53308
L112465 53259
L112440 53161
L112440 53088
L112465 52991
L112489 52942
L112538 52893
L112611 52869
L112660 52869
L112733 52893
L112757 52918
" />
</g>
<g style="fill:#000000; fill-opacity:0.0; 
stroke:#000000; stroke-width:39.3701; stroke-opacity:1; 
stroke-linecap:round; stroke-linejoin:round;">
</g>
<g style="fill:#000000; fill-opacity:0.0; 
stroke:#000000; stroke-width:59.0551; stroke-opacity:1; 
stroke-linecap:round; stroke-linejoin:round;">
<path d="M112465 73066
L112465 72554
L112587 72554
L112660 72578
L112708 72627
L112733 72676
L112757 72773
L112757 72846
L112733 72944
L112708 72993
L112660 73041
L112587 73066
L112465 73066
" />
</g>
<g style="fill:#000000; fill-opacity:0.0; 
stroke:#000000; stroke-width:39.3701; stroke-opacity:1; 
stroke-linecap:round; stroke-linejoin:round;">
</g>
<g style="fill:#000000; fill-opacity:0.0; 
stroke:#000000; stroke-width:59.0551; stroke-opacity:1; 
stroke-linecap:round; stroke-linejoin:round;">
<path d="M78881 76293
L78881 75703
L79022 75703
L79106 75731
L79162 75787
L79190 75843
L79219 75956
L79219 76040
L79190 76153
L79162 76209
L79106 76265
L79022 76293
L78881 76293
" />
<path d="M79725 76293
L79725 75984
L79697 75928
L79640 75899
L79528 75899
L79472 75928
" />
<path d="M79725 76265
L79669 76293
L79528 76293
L79472 76265
L79444 76209
L79444 76153
L79472 76096
L79528 76068
L79669 76068
L79725 76040
" />
<path d="M79922 75899
L80147 75899
" />
<path d="M80006 75703
L80006 76209
L80034 76265
L80090 76293
L80147 76293
" />
<path d="M80568 76265
L80512 76293
L80400 76293
L80343 76265
L80315 76209
L80315 75984
L80343 75928
L80400 75899
L80512 75899
L80568 75928
L80597 75984
L80597 76040
L80315 76096
" />
<path d="M80850 76237
L80878 76265
L80850 76293
L80822 76265
L80850 76237
L80850 76293
" />
<path d="M80850 75928
L80878 75956
L80850 75984
L80822 75956
L80850 75928
L80850 75984
" />
</g>
<g style="fill:#000000; fill-opacity:0.0; 
stroke:#000000; stroke-width:39.3701; stroke-opacity:1; 
stroke-linecap:round; stroke-linejoin:round;">
</g>
<g style="fill:#000000; fill-opacity:0.0; 
stroke:#000000; stroke-width:59.0551; stroke-opacity:1; 
stroke-linecap:round; stroke-linejoin:round;">
<path d="M69685 76577
L112205 76577
" />
</g>
<g style="fill:#000000; fill-opacity:0.0; 
stroke:#000000; stroke-width:39.3701; stroke-opacity:1; 
stroke-linecap:round; stroke-linejoin:round;">
</g>
<g style="fill:#000000; fill-opacity:0.0; 
stroke:#000000; stroke-width:59.0551; stroke-opacity:1; 
stroke-linecap:round; stroke-linejoin:round;">
<path d="M70220 77395
L70220 76805
" />
<path d="M70557 77395
L70304 77058
" />
<path d="M70557 76805
L70220 77142
" />
<path d="M70810 77395
L70810 77002
" />
<path d="M70810 76805
L70782 76833
L70810 76861
L70838 76833
L70810 76805
L70810 76861
" />
<path d="M71429 77339
L71401 77367
L71316 77395
L71260 77395
L71176 77367
L71120 77311
L71091 77255
L71063 77142
L71063 77058
L71091 76946
L71120 76889
L71176 76833
L71260 76805
L71316 76805
L71401 76833
L71429 76861
" />
<path d="M71935 77395
L71935 77086
L71907 77030
L71851 77002
L71738 77002
L71682 77030
" />
<path d="M71935 77367
L71879 77395
L71738 77395
L71682 77367
L71654 77311
L71654 77255
L71682 77199
L71738 77171
L71879 77171
L71935 77142
" />
<path d="M72469 77395
L72469 76805
" />
<path d="M72469 77367
L72413 77395
L72301 77395
L72244 77367
L72216 77339
L72188 77283
L72188 77114
L72216 77058
L72244 77030
L72301 77002
L72413 77002
L72469 77030
" />
<path d="M73201 77086
L73397 77086
" />
<path d="M73482 77395
L73201 77395
L73201 76805
L73482 76805
" />
<path d="M73735 77339
L73763 77367
L73735 77395
L73707 77367
L73735 77339
L73735 77395
" />
<path d="M74016 77395
L74016 76805
L74157 76805
L74241 76833
L74297 76889
L74325 76946
L74354 77058
L74354 77142
L74325 77255
L74297 77311
L74241 77367
L74157 77395
L74016 77395
" />
<path d="M74607 77339
L74635 77367
L74607 77395
L74579 77367
L74607 77339
L74607 77395
" />
<path d="M74860 77227
L75141 77227
" />
<path d="M74804 77395
L75000 76805
L75197 77395
" />
<path d="M75394 77339
L75422 77367
L75394 77395
L75366 77367
L75394 77339
L75394 77395
" />
<path d="M76575 77395
L76575 76805
" />
<path d="M76631 77171
L76800 77395
" />
<path d="M76800 77002
L76575 77227
" />
<path d="M77053 77395
L77053 77002
" />
<path d="M77053 76805
L77025 76833
L77053 76861
L77081 76833
L77053 76805
L77053 76861
" />
<path d="M77588 77367
L77531 77395
L77419 77395
L77363 77367
L77334 77339
L77306 77283
L77306 77114
L77334 77058
L77363 77030
L77419 77002
L77531 77002
L77588 77030
" />
<path d="M78094 77395
L78094 77086
L78066 77030
L78009 77002
L77897 77002
L77841 77030
" />
<path d="M78094 77367
L78037 77395
L77897 77395
L77841 77367
L77813 77311
L77813 77255
L77841 77199
L77897 77171
L78037 77171
L78094 77142
" />
<path d="M78628 77395
L78628 76805
" />
<path d="M78628 77367
L78572 77395
L78459 77395
L78403 77367
L78375 77339
L78347 77283
L78347 77114
L78375 77058
L78403 77030
L78459 77002
L78572 77002
L78628 77030
" />
<path d="M79528 77620
L79500 77592
L79444 77508
L79415 77452
L79387 77367
L79359 77227
L79359 77114
L79387 76974
L79415 76889
L79444 76833
L79500 76749
L79528 76721
" />
<path d="M79725 76861
L79753 76833
L79809 76805
L79950 76805
L80006 76833
L80034 76861
L80062 76917
L80062 76974
L80034 77058
L79697 77395
L80062 77395
" />
<path d="M80428 76805
L80484 76805
L80540 76833
L80568 76861
L80597 76917
L80625 77030
L80625 77171
L80597 77283
L80568 77339
L80540 77367
L80484 77395
L80428 77395
L80372 77367
L80343 77339
L80315 77283
L80287 77171
L80287 77030
L80315 76917
L80343 76861
L80372 76833
L80428 76805
" />
<path d="M81187 77395
L80850 77395
" />
<path d="M81018 77395
L81018 76805
L80962 76889
L80906 76946
L80850 76974
" />
<path d="M81693 77002
L81693 77395
" />
<path d="M81553 76777
L81412 77199
L81778 77199
" />
<path d="M82003 77171
L82453 77171
" />
<path d="M83043 77395
L82706 77395
" />
<path d="M82874 77395
L82874 76805
L82818 76889
L82762 76946
L82706 76974
" />
<path d="M83409 76805
L83465 76805
L83521 76833
L83549 76861
L83577 76917
L83606 77030
L83606 77171
L83577 77283
L83549 77339
L83521 77367
L83465 77395
L83409 77395
L83352 77367
L83324 77339
L83296 77283
L83268 77171
L83268 77030
L83296 76917
L83324 76861
L83352 76833
L83409 76805
" />
<path d="M83859 77171
L84309 77171
" />
<path d="M84562 76861
L84590 76833
L84646 76805
L84787 76805
L84843 76833
L84871 76861
L84899 76917
L84899 76974
L84871 77058
L84534 77395
L84899 77395
" />
<path d="M85096 76805
L85462 76805
L85265 77030
L85349 77030
L85405 77058
L85433 77086
L85462 77142
L85462 77283
L85433 77339
L85405 77367
L85349 77395
L85180 77395
L85124 77367
L85096 77339
" />
<path d="M86361 77086
L86446 77114
L86474 77142
L86502 77199
L86502 77283
L86474 77339
L86446 77367
L86390 77395
L86165 77395
L86165 76805
L86361 76805
L86418 76833
L86446 76861
L86474 76917
L86474 76974
L86446 77030
L86418 77058
L86361 77086
L86165 77086
" />
<path d="M86699 76805
L87093 76805
L86699 77395
L87093 77395
" />
<path d="M87655 77395
L87458 77114
" />
<path d="M87318 77395
L87318 76805
L87543 76805
L87599 76833
L87627 76861
L87655 76917
L87655 77002
L87627 77058
L87599 77086
L87543 77114
L87318 77114
" />
<path d="M88611 77002
L88611 77395
" />
<path d="M88471 76777
L88330 77199
L88696 77199
" />
<path d="M89005 77058
L88949 77030
L88921 77002
L88892 76946
L88892 76917
L88921 76861
L88949 76833
L89005 76805
L89117 76805
L89174 76833
L89202 76861
L89230 76917
L89230 76946
L89202 77002
L89174 77030
L89117 77058
L89005 77058
L88949 77086
L88921 77114
L88892 77171
L88892 77283
L88921 77339
L88949 77367
L89005 77395
L89117 77395
L89174 77367
L89202 77339
L89230 77283
L89230 77171
L89202 77114
L89174 77086
L89117 77058
" />
<path d="M89595 76805
L89652 76805
L89708 76833
L89736 76861
L89764 76917
L89792 77030
L89792 77171
L89764 77283
L89736 77339
L89708 77367
L89652 77395
L89595 77395
L89539 77367
L89511 77339
L89483 77283
L89455 77171
L89455 77030
L89483 76917
L89511 76861
L89539 76833
L89595 76805
" />
<path d="M90298 77002
L90298 77395
" />
<path d="M90158 76777
L90017 77199
L90383 77199
" />
<path d="M90552 77620
L90580 77592
L90636 77508
L90664 77452
L90692 77367
L90720 77227
L90720 77114
L90692 76974
L90664 76889
L90636 76833
L90580 76749
L90552 76721
" />
<path d="M91001 77171
L91451 77171
" />
<path d="M91733 77002
L91733 77592
" />
<path d="M91733 77030
L91789 77002
L91901 77002
L91958 77030
L91986 77058
L92014 77114
L92014 77283
L91986 77339
L91958 77367
L91901 77395
L91789 77395
L91733 77367
" />
<path d="M92267 77395
L92267 77002
" />
<path d="M92267 77114
L92295 77058
L92323 77030
L92379 77002
L92436 77002
" />
<path d="M92717 77395
L92661 77367
L92633 77339
L92604 77283
L92604 77114
L92633 77058
L92661 77030
L92717 77002
L92801 77002
L92858 77030
L92886 77058
L92914 77114
L92914 77283
L92886 77339
L92858 77367
L92801 77395
L92717 77395
" />
<path d="M93420 77395
L93420 76805
" />
<path d="M93420 77367
L93364 77395
L93251 77395
L93195 77367
L93167 77339
L93139 77283
L93139 77114
L93167 77058
L93195 77030
L93251 77002
L93364 77002
L93420 77030
" />
<path d="M93954 77002
L93954 77395
" />
<path d="M93701 77002
L93701 77311
L93729 77367
L93786 77395
L93870 77395
L93926 77367
L93954 77339
" />
<path d="M94489 77367
L94432 77395
L94320 77395
L94264 77367
L94235 77339
L94207 77283
L94207 77114
L94235 77058
L94264 77030
L94320 77002
L94432 77002
L94489 77030
" />
<path d="M94657 77002
L94882 77002
" />
<path d="M94742 76805
L94742 77311
L94770 77367
L94826 77395
L94882 77395
" />
</g>
<g style="fill:#000000; fill-opacity:0.0; 
stroke:#000000; stroke-width:39.3701; stroke-opacity:1; 
stroke-linecap:round; stroke-linejoin:round;">
</g>
<g style="fill:#000000; fill-opacity:0.0; 
stroke:#000000; stroke-width:59.0551; stroke-opacity:1; 
stroke-linecap:round; stroke-linejoin:round;">
<path d="M69685 75396
L112205 75396
" />
</g>
<g style="fill:#000000; fill-opacity:0.0; 
stroke:#000000; stroke-width:39.3701; stroke-opacity:1; 
stroke-linecap:round; stroke-linejoin:round;">
</g>
<g style="fill:#000000; fill-opacity:0.0; 
stroke:#000000; stroke-width:118.11; stroke-opacity:1; 
stroke-linecap:round; stroke-linejoin:round;">
<path d="M104022 76293
L103825 76012
" />
<path d="M103684 76293
L103684 75703
L103909 75703
L103965 75731
L103994 75759
L104022 75815
L104022 75899
L103994 75956
L103965 75984
L103909 76012
L103684 76012
" />
<path d="M104500 76265
L104444 76293
L104331 76293
L104275 76265
L104247 76209
L104247 75984
L104275 75928
L104331 75899
L104444 75899
L104500 75928
L104528 75984
L104528 76040
L104247 76096
" />
<path d="M104725 75899
L104865 76293
L105006 75899
" />
<path d="M105231 76237
L105259 76265
L105231 76293
L105203 76265
L105231 76237
L105231 76293
" />
<path d="M105231 75928
L105259 75956
L105231 75984
L105203 75956
L105231 75928
L105231 75984
" />
</g>
<g style="fill:#000000; fill-opacity:0.0; 
stroke:#000000; stroke-width:39.3701; stroke-opacity:1; 
stroke-linecap:round; stroke-linejoin:round;">
</g>
<g style="fill:#000000; fill-opacity:0.0; 
stroke:#000000; stroke-width:59.0551; stroke-opacity:1; 
stroke-linecap:round; stroke-linejoin:round;">
<path d="M70192 76265
L70276 76293
L70417 76293
L70473 76265
L70501 76237
L70529 76181
L70529 76124
L70501 76068
L70473 76040
L70417 76012
L70304 75984
L70248 75956
L70220 75928
L70192 75871
L70192 75815
L70220 75759
L70248 75731
L70304 75703
L70445 75703
L70529 75731
" />
<path d="M70782 76293
L70782 75899
" />
<path d="M70782 75703
L70754 75731
L70782 75759
L70810 75731
L70782 75703
L70782 75759
" />
<path d="M71007 75899
L71316 75899
L71007 76293
L71316 76293
" />
<path d="M71766 76265
L71710 76293
L71598 76293
L71541 76265
L71513 76209
L71513 75984
L71541 75928
L71598 75899
L71710 75899
L71766 75928
L71795 75984
L71795 76040
L71513 76096
" />
<path d="M72048 76237
L72076 76265
L72048 76293
L72019 76265
L72048 76237
L72048 76293
" />
<path d="M72048 75928
L72076 75956
L72048 75984
L72019 75956
L72048 75928
L72048 75984
" />
<path d="M72751 76124
L73032 76124
" />
<path d="M72694 76293
L72891 75703
L73088 76293
" />
<path d="M73538 75899
L73538 76293
" />
<path d="M73397 75674
L73257 76096
L73622 76096
" />
</g>
<g style="fill:#000000; fill-opacity:0.0; 
stroke:#000000; stroke-width:39.3701; stroke-opacity:1; 
stroke-linecap:round; stroke-linejoin:round;">
</g>
<g style="fill:#000000; fill-opacity:0.0; 
stroke:#000000; stroke-width:59.0551; stroke-opacity:1; 
stroke-linecap:round; stroke-linejoin:round;">
<path d="M103684 77395
L103684 76805
" />
<path d="M104219 77395
L104219 76805
" />
<path d="M104219 77367
L104162 77395
L104050 77395
L103994 77367
L103965 77339
L103937 77283
L103937 77114
L103965 77058
L103994 77030
L104050 77002
L104162 77002
L104219 77030
" />
<path d="M104500 77339
L104528 77367
L104500 77395
L104472 77367
L104500 77339
L104500 77395
" />
<path d="M104500 77030
L104528 77058
L104500 77086
L104472 77058
L104500 77030
L104500 77086
" />
<path d="M105540 77395
L105203 77395
" />
<path d="M105372 77395
L105372 76805
L105315 76889
L105259 76946
L105203 76974
" />
<path d="M106215 76777
L105709 77536
" />
<path d="M106721 77395
L106384 77395
" />
<path d="M106553 77395
L106553 76805
L106496 76889
L106440 76946
L106384 76974
" />
</g>
<g style="fill:#000000; fill-opacity:0.0; 
stroke:#000000; stroke-width:39.3701; stroke-opacity:1; 
stroke-linecap:round; stroke-linejoin:round;">
</g>
<g style="fill:#000000; fill-opacity:0.0; 
stroke:#000000; stroke-width:59.0551; stroke-opacity:1; 
stroke-linecap:round; stroke-linejoin:round;">
<path d="M69685 73821
L112205 73821
" />
</g>
<g style="fill:#000000; fill-opacity:0.0; 
stroke:#000000; stroke-width:39.3701; stroke-opacity:1; 
stroke-linecap:round; stroke-linejoin:round;">
</g>
<g style="fill:#000000; fill-opacity:0.0; 
stroke:#000000; stroke-width:157.48; stroke-opacity:1; 
stroke-linecap:round; stroke-linejoin:round;">
<path d="M70257 74099
L70707 74099
" />
<path d="M70384 74886
L70482 74099
" />
<path d="M70871 74886
L70937 74361
" />
<path d="M70970 74099
L70927 74136
L70960 74174
L71002 74136
L70970 74099
L70960 74174
" />
<path d="M71199 74361
L71499 74361
" />
<path d="M71345 74099
L71260 74774
L71288 74849
L71359 74886
L71434 74886
" />
<path d="M71809 74886
L71738 74849
L71710 74774
L71795 74099
" />
<path d="M72413 74849
L72334 74886
L72184 74886
L72113 74849
L72085 74774
L72123 74474
L72169 74399
L72249 74361
L72399 74361
L72469 74399
L72498 74474
L72488 74549
L72104 74624
" />
<path d="M72793 74811
L72826 74849
L72783 74886
L72751 74849
L72793 74811
L72783 74886
" />
<path d="M72844 74399
L72877 74436
L72835 74474
L72802 74436
L72844 74399
L72835 74474
" />
</g>
<g style="fill:#000000; fill-opacity:0.0; 
stroke:#000000; stroke-width:39.3701; stroke-opacity:1; 
stroke-linecap:round; stroke-linejoin:round;">
</g>
<g style="fill:#000000; fill-opacity:0.0; 
stroke:#000000; stroke-width:59.0551; stroke-opacity:1; 
stroke-linecap:round; stroke-linejoin:round;">
<path d="M70417 73070
L70220 73070
" />
<path d="M70220 73380
L70220 72789
L70501 72789
" />
<path d="M70726 73380
L70726 72986
" />
<path d="M70726 72789
L70698 72817
L70726 72845
L70754 72817
L70726 72789
L70726 72845
" />
<path d="M71091 73380
L71035 73352
L71007 73295
L71007 72789
" />
<path d="M71541 73352
L71485 73380
L71373 73380
L71316 73352
L71288 73295
L71288 73070
L71316 73014
L71373 72986
L71485 72986
L71541 73014
L71570 73070
L71570 73127
L71288 73183
" />
<path d="M71823 73323
L71851 73352
L71823 73380
L71795 73352
L71823 73323
L71823 73380
" />
<path d="M71823 73014
L71851 73042
L71823 73070
L71795 73042
L71823 73014
L71823 73070
" />
<path d="M72498 72789
L72891 72789
L72498 73380
L72891 73380
" />
<path d="M73116 73380
L73116 72789
" />
<path d="M73369 73380
L73369 73070
L73341 73014
L73285 72986
L73201 72986
L73144 73014
L73116 73042
" />
<path d="M73735 73380
L73679 73352
L73651 73323
L73622 73267
L73622 73099
L73651 73042
L73679 73014
L73735 72986
L73819 72986
L73876 73014
L73904 73042
L73932 73099
L73932 73267
L73904 73323
L73876 73352
L73819 73380
L73735 73380
" />
<path d="M74185 72986
L74185 73380
" />
<path d="M74185 73042
L74213 73014
L74269 72986
L74354 72986
L74410 73014
L74438 73070
L74438 73380
" />
<path d="M74663 73380
L74972 72986
" />
<path d="M74663 72986
L74972 73380
" />
<path d="M75141 72789
L75507 72789
L75310 73014
L75394 73014
L75450 73042
L75478 73070
L75507 73127
L75507 73267
L75478 73323
L75450 73352
L75394 73380
L75225 73380
L75169 73352
L75141 73323
" />
<path d="M75619 73436
L76069 73436
" />
<path d="M76463 73352
L76406 73380
L76294 73380
L76238 73352
L76210 73323
L76181 73267
L76181 73099
L76210 73042
L76238 73014
L76294 72986
L76406 72986
L76463 73014
" />
<path d="M76969 73380
L76969 73070
L76941 73014
L76885 72986
L76772 72986
L76716 73014
" />
<path d="M76969 73352
L76913 73380
L76772 73380
L76716 73352
L76688 73295
L76688 73239
L76716 73183
L76772 73155
L76913 73155
L76969 73127
" />
<path d="M77250 73380
L77250 72986
" />
<path d="M77250 73099
L77278 73042
L77306 73014
L77363 72986
L77419 72986
" />
<path d="M77531 72986
L77756 72986
" />
<path d="M77616 72789
L77616 73295
L77644 73352
L77700 73380
L77756 73380
" />
<path d="M78178 73352
L78122 73380
L78009 73380
L77953 73352
L77925 73295
L77925 73070
L77953 73014
L78009 72986
L78122 72986
L78178 73014
L78206 73070
L78206 73127
L77925 73183
" />
<path d="M78656 73070
L78741 73099
L78769 73127
L78797 73183
L78797 73267
L78769 73323
L78741 73352
L78684 73380
L78459 73380
L78459 72789
L78656 72789
L78712 72817
L78741 72845
L78769 72902
L78769 72958
L78741 73014
L78712 73042
L78656 73070
L78459 73070
" />
<path d="M78965 72789
L79303 72789
" />
<path d="M79134 73380
L79134 72789
" />
<path d="M79500 73323
L79528 73352
L79500 73380
L79472 73352
L79500 73323
L79500 73380
" />
<path d="M79781 73380
L79781 72789
" />
<path d="M79837 73155
L80006 73380
" />
<path d="M80006 72986
L79781 73211
" />
<path d="M80259 73380
L80259 72986
" />
<path d="M80259 72789
L80231 72817
L80259 72845
L80287 72817
L80259 72789
L80259 72845
" />
<path d="M80793 73352
L80737 73380
L80625 73380
L80568 73352
L80540 73323
L80512 73267
L80512 73099
L80540 73042
L80568 73014
L80625 72986
L80737 72986
L80793 73014
" />
<path d="M81300 73380
L81300 73070
L81271 73014
L81215 72986
L81103 72986
L81046 73014
" />
<path d="M81300 73352
L81243 73380
L81103 73380
L81046 73352
L81018 73295
L81018 73239
L81046 73183
L81103 73155
L81243 73155
L81300 73127
" />
<path d="M81834 73380
L81834 72789
" />
<path d="M81834 73352
L81778 73380
L81665 73380
L81609 73352
L81581 73323
L81553 73267
L81553 73099
L81581 73042
L81609 73014
L81665 72986
L81778 72986
L81834 73014
" />
<path d="M81974 73436
L82424 73436
" />
<path d="M82565 72986
L82565 73577
" />
<path d="M82565 73014
L82621 72986
L82734 72986
L82790 73014
L82818 73042
L82846 73099
L82846 73267
L82818 73323
L82790 73352
L82734 73380
L82621 73380
L82565 73352
" />
<path d="M83352 73352
L83296 73380
L83184 73380
L83127 73352
L83099 73323
L83071 73267
L83071 73099
L83099 73042
L83127 73014
L83184 72986
L83296 72986
L83352 73014
" />
<path d="M83606 73380
L83606 72789
" />
<path d="M83606 73014
L83662 72986
L83774 72986
L83831 73014
L83859 73042
L83887 73099
L83887 73267
L83859 73323
L83831 73352
L83774 73380
L83662 73380
L83606 73352
" />
</g>
<g style="fill:#000000; fill-opacity:0.0; 
stroke:#000000; stroke-width:39.3701; stroke-opacity:1; 
stroke-linecap:round; stroke-linejoin:round;">
</g>
<g style="fill:#000000; fill-opacity:0.0; 
stroke:#000000; stroke-width:59.0551; stroke-opacity:1; 
stroke-linecap:round; stroke-linejoin:round;">
<path d="M69685 71459
L112205 71459
" />
</g>
<g style="fill:#000000; fill-opacity:0.0; 
stroke:#000000; stroke-width:39.3701; stroke-opacity:1; 
stroke-linecap:round; stroke-linejoin:round;">
</g>
<g style="fill:#000000; fill-opacity:0.0; 
stroke:#000000; stroke-width:59.0551; stroke-opacity:1; 
stroke-linecap:round; stroke-linejoin:round;">
<path d="M70192 72289
L70276 72317
L70417 72317
L70473 72289
L70501 72260
L70529 72204
L70529 72148
L70501 72092
L70473 72064
L70417 72036
L70304 72007
L70248 71979
L70220 71951
L70192 71895
L70192 71839
L70220 71782
L70248 71754
L70304 71726
L70445 71726
L70529 71754
" />
<path d="M70782 72317
L70782 71726
" />
<path d="M71035 72317
L71035 72007
L71007 71951
L70951 71923
L70867 71923
L70810 71951
L70782 71979
" />
<path d="M71541 72289
L71485 72317
L71373 72317
L71316 72289
L71288 72232
L71288 72007
L71316 71951
L71373 71923
L71485 71923
L71541 71951
L71570 72007
L71570 72064
L71288 72120
" />
<path d="M72048 72289
L71991 72317
L71879 72317
L71823 72289
L71795 72232
L71795 72007
L71823 71951
L71879 71923
L71991 71923
L72048 71951
L72076 72007
L72076 72064
L71795 72120
" />
<path d="M72244 71923
L72469 71923
" />
<path d="M72329 71726
L72329 72232
L72357 72289
L72413 72317
L72469 72317
" />
<path d="M72666 72260
L72694 72289
L72666 72317
L72638 72289
L72666 72260
L72666 72317
" />
<path d="M72666 71951
L72694 71979
L72666 72007
L72638 71979
L72666 71951
L72666 72007
" />
</g>
<g style="fill:#000000; fill-opacity:0.0; 
stroke:#000000; stroke-width:39.3701; stroke-opacity:1; 
stroke-linecap:round; stroke-linejoin:round;">
</g>
<g style="fill:#000000; fill-opacity:0.0; 
stroke:#000000; stroke-width:59.0551; stroke-opacity:1; 
stroke-linecap:round; stroke-linejoin:round;">
<path d="M77559 75396
L77559 76577
" />
</g>
<g style="fill:#000000; fill-opacity:0.0; 
stroke:#000000; stroke-width:39.3701; stroke-opacity:1; 
stroke-linecap:round; stroke-linejoin:round;">
</g>
<g style="fill:#000000; fill-opacity:0.0; 
stroke:#000000; stroke-width:59.0551; stroke-opacity:1; 
stroke-linecap:round; stroke-linejoin:round;">
<path d="M102756 75396
L102756 77955
" />
</g>
<g style="fill:#000000; fill-opacity:0.0; 
stroke:#000000; stroke-width:39.3701; stroke-opacity:1; 
stroke-linecap:round; stroke-linejoin:round;">
</g>
<g style="fill:#000000; fill-opacity:1.0; 
stroke:#000000; stroke-width:39.3701; stroke-opacity:1; 
stroke-linecap:round; stroke-linejoin:round;">
<polyline style="fill-rule:evenodd;"
points="54967,42237
54967,41962
55242,41962
55242,42237
54967,42237
" /> 
<polyline style="fill-rule:evenodd;"
points="55557,42237
55557,41962
55832,41962
55832,42237
55557,42237
" /> 
<polyline style="fill-rule:evenodd;"
points="56767,42237
56767,41962
57042,41962
57042,42237
56767,42237
" /> 
<polyline style="fill-rule:evenodd;"
points="57357,42237
57357,41962
57632,41962
57632,42237
57357,42237
" /> 
<polyline style="fill-rule:evenodd;"
points="51719,36579
52480,36579
52480,37220
51719,37220
51719,36579
" /> 
</g>
<g style="fill:#000000; fill-opacity:1.0; 
stroke:#000000; stroke-width:680; stroke-opacity:1; 
stroke-linecap:round; stroke-linejoin:round;">
</g>
<g style="fill:#000000; fill-opacity:0.0; 
stroke:#000000; stroke-width:680; stroke-opacity:1; 
stroke-linecap:round; stroke-linejoin:round;">
<path d="M52160 37900
L52040 37900
" />
<path d="M52160 38900
L52040 38900
" />
<path d="M52160 39900
L52040 39900
" />
</g>
<g style="fill:#000000; fill-opacity:0.0; 
stroke:#000000; stroke-width:39.3701; stroke-opacity:1; 
stroke-linecap:round; stroke-linejoin:round;">
</g>
<g style="fill:#000000; fill-opacity:1.0; 
stroke:#000000; stroke-width:39.3701; stroke-opacity:1; 
stroke-linecap:round; stroke-linejoin:round;">
<polyline style="fill-rule:evenodd;"
points="53544,39430
53544,39169
53705,39169
53705,39430
53544,39430
" /> 
<polyline style="fill-rule:evenodd;"
points="54294,39430
54294,39169
54455,39169
54455,39430
54294,39430
" /> 
<polyline style="fill-rule:evenodd;"
points="53544,38430
53544,38169
53705,38169
53705,38430
53544,38430
" /> 
<polyline style="fill-rule:evenodd;"
points="53919,39430
53919,39169
54080,39169
54080,39430
53919,39430
" /> 
<polyline style="fill-rule:evenodd;"
points="54294,38430
54294,38169
54455,38169
54455,38430
54294,38430
" /> 
<polyline style="fill-rule:evenodd;"
points="57464,34898
57464,34701
57581,34701
57581,34898
57464,34898
" /> 
<polyline style="fill-rule:evenodd;"
points="57818,34898
57818,34701
57935,34701
57935,34898
57818,34898
" /> 
<polyline style="fill-rule:evenodd;"
points="56664,35198
56664,35001
56781,35001
56781,35198
56664,35198
" /> 
<polyline style="fill-rule:evenodd;"
points="57018,35198
57018,35001
57135,35001
57135,35198
57018,35198
" /> 
<polyline style="fill-rule:evenodd;"
points="53914,39948
53914,39751
54031,39751
54031,39948
53914,39948
" /> 
<polyline style="fill-rule:evenodd;"
points="54268,39948
54268,39751
54385,39751
54385,39948
54268,39948
" /> 
<polyline style="fill-rule:evenodd;"
points="54301,37364
54498,37364
54498,37481
54301,37481
54301,37364
" /> 
<polyline style="fill-rule:evenodd;"
points="54301,37718
54498,37718
54498,37835
54301,37835
54301,37718
" /> 
<polyline style="fill-rule:evenodd;"
points="53551,37364
53748,37364
53748,37481
53551,37481
53551,37364
" /> 
<polyline style="fill-rule:evenodd;"
points="53551,37718
53748,37718
53748,37835
53551,37835
53551,37718
" /> 
<polyline style="fill-rule:evenodd;"
points="52951,37364
53148,37364
53148,37481
52951,37481
52951,37364
" /> 
<polyline style="fill-rule:evenodd;"
points="52951,37718
53148,37718
53148,37835
52951,37835
52951,37718
" /> 
<polyline style="fill-rule:evenodd;"
points="55485,41451
55485,41648
55368,41648
55368,41451
55485,41451
" /> 
<polyline style="fill-rule:evenodd;"
points="55131,41451
55131,41648
55014,41648
55014,41451
55131,41451
" /> 
<polyline style="fill-rule:evenodd;"
points="57285,41451
57285,41648
57168,41648
57168,41451
57285,41451
" /> 
<polyline style="fill-rule:evenodd;"
points="56931,41451
56931,41648
56814,41648
56814,41451
56931,41451
" /> 
<polyline style="fill-rule:evenodd;"
points="57135,34501
57135,34698
57018,34698
57018,34501
57135,34501
" /> 
<polyline style="fill-rule:evenodd;"
points="56781,34501
56781,34698
56664,34698
56664,34501
56781,34501
" /> 
<polyline style="fill-rule:evenodd;"
points="55238,41086
55238,40535
55671,40535
55671,41086
55238,41086
" /> 
<polyline style="fill-rule:evenodd;"
points="55828,41086
55828,40535
56261,40535
56261,41086
55828,41086
" /> 
<polyline style="fill-rule:evenodd;"
points="56419,41086
56419,40535
56852,40535
56852,41086
56419,41086
" /> 
<polyline style="fill-rule:evenodd;"
points="57009,41086
57009,40535
57442,40535
57442,41086
57009,41086
" /> 
<polyline style="fill-rule:evenodd;"
points="57600,41086
57600,40535
58033,40535
58033,41086
57600,41086
" /> 
<polyline style="fill-rule:evenodd;"
points="58190,41086
58190,40535
58624,40535
58624,41086
58190,41086
" /> 
<polyline style="fill-rule:evenodd;"
points="58781,41086
58781,40535
59214,40535
59214,41086
58781,41086
" /> 
<polyline style="fill-rule:evenodd;"
points="58781,36070
58781,35519
59214,35519
59214,36070
58781,36070
" /> 
<polyline style="fill-rule:evenodd;"
points="58190,36070
58190,35519
58624,35519
58624,36070
58190,36070
" /> 
<polyline style="fill-rule:evenodd;"
points="57600,36070
57600,35519
58033,35519
58033,36070
57600,36070
" /> 
<polyline style="fill-rule:evenodd;"
points="57009,36070
57009,35519
57442,35519
57442,36070
57009,36070
" /> 
<polyline style="fill-rule:evenodd;"
points="56419,36070
56419,35519
56852,35519
56852,36070
56419,36070
" /> 
<polyline style="fill-rule:evenodd;"
points="55828,36070
55828,35519
56261,35519
56261,36070
55828,36070
" /> 
<polyline style="fill-rule:evenodd;"
points="55238,36070
55238,35519
55671,35519
55671,36070
55238,36070
" /> 
<polyline style="fill-rule:evenodd;"
points="54824,39314
54824,38881
55375,38881
55375,39314
54824,39314
" /> 
<polyline style="fill-rule:evenodd;"
points="54824,39964
54824,39531
55375,39531
55375,39964
54824,39964
" /> 
<polyline style="fill-rule:evenodd;"
points="55001,38586
55001,38311
55435,38311
55435,38586
55001,38586
" /> 
<polyline style="fill-rule:evenodd;"
points="55001,38206
55001,37931
55435,37931
55435,38206
55001,38206
" /> 
<polyline style="fill-rule:evenodd;"
points="55001,37826
55001,37551
55435,37551
55435,37826
55001,37826
" /> 
<polyline style="fill-rule:evenodd;"
points="55001,37446
55001,37171
55435,37171
55435,37446
55001,37446
" /> 
<polyline style="fill-rule:evenodd;"
points="55001,37066
55001,36791
55435,36791
55435,37066
55001,37066
" /> 
<polyline style="fill-rule:evenodd;"
points="55001,36687
55001,36411
55435,36411
55435,36687
55001,36687
" /> 
<circle cx="53650" cy="38700" r="98.4252" /> 
<circle cx="57550" cy="34450" r="98.4252" /> 
<circle cx="54400" cy="37050" r="98.4252" /> 
<circle cx="56350" cy="35100" r="98.4252" /> 
<circle cx="57950" cy="35200" r="98.4252" /> 
<circle cx="56325" cy="42100" r="98.4252" /> 
<circle cx="57929.1" cy="42100" r="98.4252" /> 
</g>
<g style="fill:#000000; fill-opacity:1.0; 
stroke:#000000; stroke-width:100; stroke-opacity:1; 
stroke-linecap:round; stroke-linejoin:round;">
</g>
<g style="fill:#000000; fill-opacity:0.0; 
stroke:#000000; stroke-width:100; stroke-opacity:1; 
stroke-linecap:round; stroke-linejoin:round;">
<path d="M57523 34800
L57523 34881
" />
<path d="M53625 38295
L53625 38300
" />
<path d="M53050 37777
L53625 37777
" />
<path d="M53625 38295
L53625 37999
" />
<path d="M53625 37777
L53650 37777
" />
<path d="M53625 37777
L53625 37999
" />
<path d="M53625 38300
L53625 38675
" />
<path d="M53625 38675
L53650 38700
" />
<path d="M58998 35795
L58998 35400
" />
<path d="M58998 35400
L58048 34450
" />
<path d="M58048 34450
L57717 34450
" />
<path d="M57717 34450
L57550 34450
" />
<path d="M57523 34477
L57550 34450
" />
<path d="M57523 34800
L57523 34477
" />
<path d="M57431 34331
L57550 34450
" />
<path d="M56768 34331
L57431 34331
" />
<path d="M56723 34377
L56768 34331
" />
<path d="M56723 34600
L56723 34377
" />
<path d="M54000 37422
L54400 37422
" />
<path d="M53650 37422
L54000 37422
" />
<path d="M54000 37422
L54000 38999
" />
<path d="M53050 37422
L52961 37422
" />
<path d="M53650 37422
L53050 37422
" />
<path d="M54000 39300
L54000 39600
" />
<path d="M53972 39850
L53972 39627
" />
<path d="M53972 39627
L54000 39600
" />
<path d="M54000 39300
L54000 38999
" />
<path d="M58998 41701
L58998 40811
" />
<path d="M58600 42100
L58998 41701
" />
<path d="M54400 37423
L54400 37050
" />
<path d="M56723 35100
L56350 35100
" />
<path d="M57877 35127
L57950 35200
" />
<path d="M57877 34800
L57877 35127
" />
<path d="M55695 42100
L56325 42100
" />
<path d="M57495 42100
L57929 42100
" />
<path d="M57929 42100
L58600 42100
" />
<path d="M57816 35658
L57816 35795
" />
<path d="M57077 35100
L57077 34600
" />
<path d="M57255 35100
L57077 35100
" />
<path d="M57516 35100
L57255 35100
" />
<path d="M57816 35400
L57516 35100
" />
<path d="M57816 35795
L57816 35400
" />
<path d="M54327 39850
L54327 40118
" />
<path d="M54327 39715
L54327 39850
" />
<path d="M54327 39715
L54327 39581
" />
<path d="M54327 39581
L54375 39533
" />
<path d="M54375 39533
L54375 39300
" />
<path d="M52760 39300
L53625 39300
" />
<path d="M52160 39900
L52760 39300
" />
<path d="M52100 39900
L52160 39900
" />
<path d="M53625 39300
L53625 40025
" />
<path d="M53625 40025
L53850 40250
" />
<path d="M54195 40250
L54327 40118
" />
<path d="M53850 40250
L54195 40250
" />
<path d="M54400 37777
L54400 38005
" />
<path d="M54400 38005
L54375 38030
" />
<path d="M54375 38030
L54375 38300
" />
<path d="M55073 42068
L55105 42100
" />
<path d="M55073 41550
L55073 42068
" />
<path d="M56873 42068
L56905 42100
" />
<path d="M56873 41550
L56873 42068
" />
<path d="M56045 35795
L56045 35400
" />
<path d="M56045 35400
L55945 35300
" />
<path d="M55945 35300
L54825 35300
" />
<path d="M54825 35300
L54450 35675
" />
<path d="M54450 36225
L53775 36900
" />
<path d="M54450 35675
L54450 36225
" />
<path d="M53775 36900
L52100 36900
" />
<path d="M54678 35946
L54829 35795
" />
<path d="M54829 35795
L55454 35795
" />
<path d="M53850 37125
L54678 36296
" />
<path d="M54678 36296
L54678 35946
" />
<path d="M52100 37900
L52600 37900
" />
<path d="M52875 37125
L53850 37125
" />
<path d="M52600 37900
L52749 37750
" />
<path d="M52749 37750
L52749 37250
" />
<path d="M52749 37250
L52875 37125
" />
<path d="M55427 40838
L55454 40811
" />
<path d="M55427 41550
L55427 40838
" />
<path d="M57226 40811
L57226 41256
" />
<path d="M57227 41550
L57227 41257
" />
<path d="M57227 41257
L57226 41256
" />
<path d="M56635 35795
L57226 35795
" />
</g>
<g style="fill:#000000; fill-opacity:1.0; 
stroke:#000000; stroke-width:59.0551; stroke-opacity:1; 
stroke-linecap:round; stroke-linejoin:round;">
<polyline style="fill-rule:evenodd;"
points="57539,35376
57521,35384
57488,35370
57436,35370
56964,35370
56931,35384
56897,35370
56846,35370
56702,35370
56702,35315
56702,35120
56702,35079
56702,34884
56670,34852
56618,34852
56571,34872
56534,34908
56514,34956
56514,35007
56514,35047
56547,35079
56702,35079
56702,35120
56547,35120
56514,35152
56514,35192
56514,35243
56534,35291
56571,35327
56618,35347
56670,35347
56702,35315
56702,35370
56373,35370
56340,35384
56307,35370
56255,35370
56218,35370
56211,35331
56172,35273
56072,35173
56013,35134
55945,35120
54825,35120
54756,35134
54698,35173
54698,35173
54399,35471
54399,34766
54811,34354
56548,34354
56543,34377
56543,34399
56534,34408
56514,34456
56514,34507
56514,34743
56534,34791
56571,34827
56618,34847
56670,34847
56827,34847
56874,34827
56897,34805
56897,34894
56874,34872
56827,34852
56775,34852
56743,34884
56743,35079
56751,35079
56751,35120
56743,35120
56743,35315
56775,35347
56827,35347
56874,35327
56900,35302
56925,35327
56972,35347
57024,35347
57181,35347
57228,35327
57265,35291
57270,35279
57442,35279
57539,35376
" /> 
<polyline style="fill-rule:evenodd;"
points="58075,35370
58027,35370
57990,35370
57985,35342
57982,35331
57982,35331
57943,35273
57686,35015
57700,35002
57725,35027
57772,35047
57824,35047
57856,35015
57856,34820
57848,34820
57848,34779
57856,34779
57856,34771
57897,34771
57897,34779
57905,34779
57905,34820
57897,34820
57897,35015
57929,35047
57981,35047
58028,35027
58065,34991
58075,34967
58075,35370
" /> 
<polyline style="fill-rule:evenodd;"
points="58075,42455
57781,42455
57781,42282
57781,42231
57781,42152
57781,42047
57781,41968
57781,41917
57761,41869
57725,41833
57677,41813
57547,41813
57515,41845
57515,42079
57749,42079
57781,42047
57781,42152
57749,42120
57515,42120
57515,42354
57547,42386
57677,42386
57725,42366
57761,42330
57781,42282
57781,42455
57474,42455
57474,42354
57474,42120
57474,42079
57474,41845
57442,41813
57312,41813
57264,41833
57228,41869
57208,41917
57208,41968
57208,42047
57240,42079
57474,42079
57474,42120
57240,42120
57208,42152
57208,42231
57208,42282
57228,42330
57264,42366
57312,42386
57442,42386
57474,42354
57474,42455
55981,42455
55981,42282
55981,42231
55981,42152
55981,42047
55981,41968
55981,41917
55961,41869
55925,41833
55877,41813
55747,41813
55715,41845
55715,42079
55949,42079
55981,42047
55981,42152
55949,42120
55715,42120
55715,42354
55747,42386
55877,42386
55925,42366
55961,42330
55981,42282
55981,42455
55674,42455
55674,42354
55674,42120
55674,42079
55674,41845
55642,41813
55512,41813
55464,41833
55428,41869
55408,41917
55408,41968
55408,42047
55440,42079
55674,42079
55674,42120
55440,42120
55408,42152
55408,42231
55408,42282
55428,42330
55464,42366
55512,42386
55642,42386
55674,42354
55674,42455
54811,42455
54647,42291
54647,37881
54647,37829
54647,37672
54627,37625
54602,37600
54627,37574
54647,37527
54647,37475
54647,37370
54647,37318
54627,37271
54591,37234
54543,37214
54492,37214
54452,37214
54420,37247
54420,37402
54615,37402
54647,37370
54647,37475
54615,37443
54420,37443
54420,37451
54379,37451
54379,37443
54379,37402
54379,37247
54347,37214
54307,37214
54256,37214
54208,37234
54172,37271
54152,37318
54152,37370
54184,37402
54379,37402
54379,37443
54184,37443
54152,37475
54152,37527
54172,37574
54197,37600
54172,37625
54152,37672
54152,37724
54152,37881
54172,37928
54208,37965
54195,38030
54195,38046
54165,38076
54145,38124
54145,38175
54145,38475
54165,38523
54201,38559
54249,38579
54300,38579
54500,38579
54548,38559
54584,38523
54604,38475
54604,38424
54604,38124
54584,38076
54568,38060
54579,38005
54579,38005
54579,38005
54579,37970
54591,37965
54627,37928
54647,37881
54647,42291
54399,42043
54399,40706
54396,40692
54396,40677
54381,40600
54367,40567
54358,40546
54358,40546
54315,40481
54315,40481
54273,40439
54273,40439
54243,40419
54263,40415
54263,40415
54322,40376
54453,40245
54453,40245
54453,40245
54479,40206
54492,40186
54492,40186
54506,40118
54506,40118
54506,40118
54506,40050
54515,40041
54535,39993
54535,39942
54535,39706
54515,39658
54508,39651
54527,39621
54540,39602
54540,39602
54549,39558
54584,39523
54604,39475
54604,39424
54604,39124
54584,39076
54548,39040
54500,39020
54449,39020
54249,39020
54201,39040
54187,39054
54173,39040
54125,39020
54052,39020
54020,39052
54020,39279
54028,39279
54028,39320
54020,39320
54020,39547
54052,39579
54125,39579
54149,39569
54147,39581
54147,39644
54124,39622
54077,39602
54025,39602
53993,39634
53993,39829
54001,39829
54001,39870
53993,39870
53993,39878
53952,39878
53952,39870
53944,39870
53944,39829
53952,39829
53952,39634
53920,39602
53868,39602
53821,39622
53804,39638
53804,39553
53812,39545
53826,39559
53874,39579
53947,39579
53979,39547
53979,39320
53971,39320
53971,39279
53979,39279
53979,39052
53947,39020
53874,39020
53826,39040
53812,39054
53798,39040
53750,39020
53699,39020
53499,39020
53451,39040
53415,39076
53397,39120
52760,39120
52691,39134
52633,39173
52633,39173
52620,39186
52620,38993
52620,38806
52601,38739
52506,38582
52358,38474
52180,38430
52120,38430
52120,38879
52596,38879
52620,38806
52620,38993
52596,38920
52120,38920
52120,39369
52180,39369
52358,39325
52506,39217
52601,39060
52620,38993
52620,39186
52341,39464
52170,39430
52029,39430
51849,39466
51697,39567
51599,39715
51599,39062
51693,39217
51841,39325
52019,39369
52079,39369
52079,38920
52071,38920
52071,38879
52079,38879
52079,38430
52019,38430
51841,38474
51693,38582
51599,38737
51599,38084
51697,38232
51849,38333
52029,38369
52170,38369
52350,38333
52502,38232
52604,38079
52604,38078
52668,38065
52668,38065
52726,38026
52823,37930
52858,37965
52906,37985
52957,37985
53193,37985
53241,37965
53250,37956
53445,37956
53445,37999
53445,38046
53415,38076
53395,38124
53395,38175
53395,38475
53415,38523
53445,38553
53445,38554
53440,38559
53402,38650
53402,38749
53439,38840
53509,38909
53600,38947
53699,38947
53790,38910
53859,38840
53897,38749
53897,38650
53860,38559
53829,38528
53834,38523
53854,38475
53854,38424
53854,38124
53834,38076
53804,38046
53804,37999
53804,37980
53841,37965
53877,37928
53897,37881
53897,37829
53897,37672
53877,37625
53852,37600
53877,37574
53897,37527
53897,37475
53865,37443
53670,37443
53670,37451
53629,37451
53629,37443
53434,37443
53402,37475
53402,37527
53422,37574
53444,37597
53255,37597
53277,37574
53297,37527
53297,37475
53265,37443
53070,37443
53070,37451
53029,37451
53029,37443
53021,37443
53021,37402
53029,37402
53029,37394
53070,37394
53070,37402
53265,37402
53297,37370
53297,37318
53291,37304
53408,37304
53402,37318
53402,37370
53434,37402
53629,37402
53629,37394
53670,37394
53670,37402
53865,37402
53897,37370
53897,37318
53888,37296
53918,37290
53918,37290
53976,37251
54805,36423
54805,36423
54805,36423
54844,36365
54857,36296
54857,36020
54904,35974
55088,35974
55088,36116
55108,36163
55145,36200
55192,36220
55244,36220
55716,36220
55749,36206
55783,36220
55834,36220
56307,36220
56340,36206
56373,36220
56425,36220
56897,36220
56931,36206
56964,36220
57015,36220
57488,36220
57521,36206
57554,36220
57606,36220
58075,36220
58075,40386
58027,40386
57554,40386
57521,40400
57488,40386
57436,40386
56964,40386
56931,40400
56897,40386
56846,40386
56373,40386
56340,40400
56307,40386
56255,40386
55783,40386
55750,40400
55716,40386
55665,40386
55584,40386
55584,38632
55584,38580
55584,38265
55581,38258
55584,38252
55584,38200
55584,37885
55581,37878
55584,37872
55584,37820
55584,37505
55581,37499
55584,37492
55584,37440
55584,37125
55581,37119
55584,37112
55584,37060
55584,36745
55581,36739
55584,36732
55584,36680
55584,36365
55564,36318
55528,36281
55480,36262
55428,36262
54956,36262
54908,36281
54872,36318
54852,36365
54852,36417
54852,36732
54855,36739
54852,36745
54852,36797
54852,37112
54855,37119
54852,37125
54852,37177
54852,37492
54855,37499
54852,37505
54852,37557
54852,37872
54855,37878
54852,37885
54852,37937
54852,38252
54855,38258
54852,38265
54852,38317
54852,38632
54872,38679
54908,38716
54948,38732
54779,38732
54731,38752
54695,38788
54675,38836
54675,38887
54675,39360
54695,39408
54710,39423
54695,39438
54675,39486
54675,39537
54675,40010
54695,40057
54731,40094
54779,40113
54830,40113
55421,40113
55469,40094
55505,40057
55525,40010
55525,39958
55525,39486
55505,39438
55490,39423
55505,39408
55525,39360
55525,39308
55525,38836
55505,38788
55469,38752
55429,38735
55480,38735
55528,38716
55564,38679
55584,38632
55584,40386
55192,40386
55145,40405
55108,40442
55088,40489
55088,40541
55088,41132
55108,41179
55145,41216
55192,41235
55244,41235
55247,41235
55247,41344
55224,41322
55177,41302
55125,41302
54968,41302
54921,41322
54884,41358
54864,41406
54864,41457
54864,41693
54884,41741
54893,41750
54893,41825
54874,41833
54838,41869
54818,41917
54818,41968
54818,42282
54838,42330
54874,42366
54922,42386
54973,42386
55287,42386
55335,42366
55371,42330
55391,42282
55391,42231
55391,41917
55371,41869
55335,41833
55287,41813
55252,41813
55252,41755
55275,41777
55322,41797
55374,41797
55531,41797
55578,41777
55615,41741
55635,41693
55635,41642
55635,41406
55615,41358
55606,41349
55606,41235
55716,41235
55749,41222
55783,41235
55834,41235
56307,41235
56340,41222
56373,41235
56425,41235
56897,41235
56931,41222
56964,41235
57015,41235
57046,41235
57046,41256
57047,41259
57047,41344
57024,41322
56977,41302
56925,41302
56768,41302
56721,41322
56684,41358
56664,41406
56664,41457
56664,41693
56684,41741
56693,41750
56693,41825
56674,41833
56638,41869
56618,41917
56618,41968
56618,42282
56638,42330
56674,42366
56722,42386
56773,42386
57087,42386
57135,42366
57171,42330
57191,42282
57191,42231
57191,41917
57171,41869
57135,41833
57087,41813
57052,41813
57052,41755
57075,41777
57122,41797
57174,41797
57331,41797
57378,41777
57415,41741
57435,41693
57435,41642
57435,41406
57415,41358
57406,41349
57406,41257
57406,41257
57406,41257
57405,41253
57405,41253
57405,41235
57488,41235
57521,41222
57554,41235
57606,41235
58075,41235
58075,42455
" /> 
</g>
<g style="fill:#FFFFFF; fill-opacity:1.0; 
stroke:#FFFFFF; stroke-width:39.3701; stroke-opacity:1; 
stroke-linecap:round; stroke-linejoin:round;">
<circle cx="53650" cy="38700" r="39.3701" /> 
<circle cx="57550" cy="34450" r="39.3701" /> 
<circle cx="54400" cy="37050" r="39.3701" /> 
<circle cx="56350" cy="35100" r="39.3701" /> 
<circle cx="57950" cy="35200" r="39.3701" /> 
<circle cx="56325" cy="42100" r="39.3701" /> 
<circle cx="57929.1" cy="42100" r="39.3701" /> 
<circle cx="52100" cy="36900" r="180.315" /> 
<circle cx="52100" cy="37900" r="180.315" /> 
<circle cx="52100" cy="38900" r="180.315" /> 
<circle cx="52100" cy="39900" r="180.315" /> 
</g>
<g style="fill:#000000; fill-opacity:1.0; 
stroke:#000000; stroke-width:39.3701; stroke-opacity:1; 
stroke-linecap:round; stroke-linejoin:round;">
</g>
<g style="fill:#000000; fill-opacity:0.0; 
stroke:#000000; stroke-width:39.3701; stroke-opacity:1; 
stroke-linecap:round; stroke-linejoin:round;">
<path d="M54250 36103
L54250 34705
" />
<path d="M54250 40706
L54250 42105
" />
<path d="M51450 40505
L54048 40505
" />
<path d="M51450 36305
L51450 40505
" />
<path d="M54048 36305
L51450 36305
" />
<path d="M54250 40706.6 A201.575 201.575 0.0 0 0 54048.4 40505 " />
<path d="M54048.4 36305 A201.575 201.575 0.0 0 0 54250 36103.4 " />
<path d="M59600 34705 A500 500 0.0 0 0 59100 34205 " />
<path d="M59100 42605 A500 500 0.0 0 0 59600 42105 " />
<path d="M54750 42605
L54250 42105
" />
<path d="M59100 42605
L54750 42605
" />
<path d="M59600 34705
L59600 42105
" />
<path d="M54750 34205
L59100 34205
" />
<path d="M54250 34705
L54750 34205
" />
</g> 
</svg>
