  0
SECTION
  2
HEADER
  9
$ACADVER
  1
AC1009
  9
$EXTMAX
 10
406.395202636719
 20
609.590087890625
 30
0.0
  9
$EXTMIN
 10
-406.395202636719
 20
-609.590087890625
 30
0.0
  9
$INSUNITS
 70
     1
  9
$LUNITS
 70
     2
  9
$LUPREC
 70
     4
  9
$MEASUREMENT
 70
     0
  0
ENDSEC
  0
SECTION
  2
TABLES
  0
TABLE
  2
LAYER
 70
     1
  0
LAYER
  2
0
 70
     0
 62
     7
  6
Continuous
  0
LAYER
  2
BLACK
 70
     0
 62
     7
  6
Continuous
  0
LAYER
  2
GRAY1
 70
     0
 62
   251
  6
Continuous
  0
LAYER
  2
GRAY2
 70
     0
 62
     8
  6
Continuous
  0
LAYER
  2
GRAY3
 70
     0
 62
     9
  6
Continuous
  0
LAYER
  2
WHITE
 70
     0
 62
     7
  6
Continuous
  0
LAYER
  2
LYELLOW
 70
     0
 62
    51
  6
Continuous
  0
LAYER
  2
BLUE1
 70
     0
 62
   178
  6
Continuous
  0
LAYER
  2
GREEN1
 70
     0
 62
    98
  6
Continuous
  0
LAYER
  2
CYAN1
 70
     0
 62
   138
  6
Continuous
  0
LAYER
  2
RED1
 70
     0
 62
    18
  6
Continuous
  0
LAYER
  2
MAGENTA1
 70
     0
 62
   228
  6
Continuous
  0
LAYER
  2
BROWN1
 70
     0
 62
    58
  6
Continuous
  0
LAYER
  2
BLUE2
 70
     0
 62
     5
  6
Continuous
  0
LAYER
  2
GREEN2
 70
     0
 62
     3
  6
Continuous
  0
LAYER
  2
CYAN2
 70
     0
 62
     4
  6
Continuous
  0
LAYER
  2
RED2
 70
     0
 62
     1
  6
Continuous
  0
LAYER
  2
MAGENTA2
 70
     0
 62
     6
  6
Continuous
  0
LAYER
  2
BROWN2
 70
     0
 62
    54
  6
Continuous
  0
LAYER
  2
BLUE3
 70
     0
 62
   171
  6
Continuous
  0
LAYER
  2
GREEN3
 70
     0
 62
    91
  6
Continuous
  0
LAYER
  2
CYAN3
 70
     0
 62
   131
  6
Continuous
  0
LAYER
  2
RED3
 70
     0
 62
    11
  6
Continuous
  0
LAYER
  2
MAGENTA3
 70
     0
 62
   221
  6
Continuous
  0
LAYER
  2
YELLOW3
 70
     0
 62
     2
  6
Continuous
  0
LAYER
  2
BLUE4
 70
     0
 62
     5
  6
Continuous
  0
LAYER
  2
GREEN4
 70
     0
 62
     3
  6
Continuous
  0
LAYER
  2
CYAN4
 70
     0
 62
     4
  6
Continuous
  0
LAYER
  2
RED4
 70
     0
 62
     1
  6
Continuous
  0
LAYER
  2
MAGENTA4
 70
     0
 62
     6
  6
Continuous
  0
LAYER
  2
YELLOW4
 70
     0
 62
     2
  6
Continuous
  0
LAYER
  2
Black
 70
     0
 62
    70
  6
Continuous
  0
ENDTAB
  0
TABLE
  2
APPID
 70
     1
  0
APPID
  2
ACAD
 70
     0
  0
ENDTAB
  0
ENDSEC
  0
SECTION
  2
ENTITIES
  0
CIRCLE
  8
Black
 10
-14.0001892553187
 20
18.000010015926
 30
0.0
 40
1.0
  0
CIRCLE
  8
Black
 10
-14.0001892553187
 20
-18.000010015926
 30
0.0
 40
1.0
  0
CIRCLE
  8
Black
 10
13.9997807446813
 20
22.000010015926
 30
0.0
 40
1.0
  0
CIRCLE
  8
Black
 10
13.9997807446813
 20
-22.000010015926
 30
0.0
 40
1.0
  0
LINE
  8
Black
 10
-15.5333990823133
 20
19.2831087074889
 30
0.0
 11
-15.5289511534707
 21
19.2883921588749
 31
0.0
  0
LINE
  8
Black
 10
-15.5289511534707
 20
19.2883921588749
 30
0.0
 11
-15.0032798617636
 21
19.7294237235525
 31
0.0
  0
LINE
  8
Black
 10
-15.0032798617636
 20
19.7294237235525
 30
0.0
 11
-14.9961751495272
 21
19.7334862584744
 31
0.0
  0
LINE
  8
Black
 10
-14.9961751495272
 20
19.7334862584744
 30
0.0
 11
-14.3517183948092
 21
19.9680854999651
 31
0.0
  0
LINE
  8
Black
 10
-14.3517183948092
 20
19.9680854999651
 30
0.0
 11
-14.3497280842285
 21
19.9684259885535
 31
0.0
  0
ARC
  8
Black
 10
-14.3581592553186
 20
20.017710015926
 30
0.0
 40
0.05
 50
279.707791535718
 51
285.055482648504
  0
LINE
  8
Black
 10
-14.3451715411882
 20
19.969426278688
 30
0.0
 11
-14.3430982620384
 21
19.9699839645377
 31
0.0
  0
LINE
  8
Black
 10
-14.3430982620384
 20
19.9699839645377
 30
0.0
 11
-14.004243934286
 21
19.9996455486999
 31
0.0
  0
ARC
  8
Black
 10
-14.0023592553186
 20
20.049610015926
 30
0.0
 40
0.05
 50
267.839805246335
 51
277.252246865065
  0
LINE
  8
Black
 10
-13.9960473617834
 20
20.000010015926
 30
0.0
 11
9.9976107446814
 21
20.000010015926
 31
0.0
  0
ARC
  8
Black
 10
9.9976107446814
 20
20.050010015926
 30
0.0
 40
0.05
 50
269.999999999927
 51
274.996026543225
  0
LINE
  8
Black
 10
10.001965077508
 20
20.0001999789291
 30
0.0
 11
10.340565077508
 21
20.0297999789291
 31
0.0
  0
ARC
  8
Black
 10
10.3362107446813
 20
20.079610015926
 30
0.0
 40
0.05
 50
274.996026543298
 51
290.001125421951
  0
LINE
  8
Black
 10
10.3533126747314
 20
20.0326257207992
 30
0.0
 11
10.9915126747314
 21
20.2649257207992
 31
0.0
  0
ARC
  8
Black
 10
10.9744107446813
 20
20.311910015926
 30
0.0
 40
0.05
 50
290.001125421956
 51
310.002783262073
  0
LINE
  8
Black
 10
11.0065519857381
 20
20.2736093550527
 30
0.0
 11
11.5251519857381
 21
20.7088093550527
 31
0.0
  0
ARC
  8
Black
 10
11.4930107446813
 20
20.747110015926
 30
0.0
 40
0.05
 50
310.002783262076
 51
329.995801795583
  0
LINE
  8
Black
 10
11.5363101829421
 20
20.7221068432012
 30
0.0
 11
11.8748101829421
 21
21.3083068432012
 31
0.0
  0
ARC
  8
Black
 10
11.8315107446813
 20
21.333310015926
 30
0.0
 40
0.05
 50
329.995801795566
 51
349.999279506166
  0
LINE
  8
Black
 10
11.8807510231469
 20
21.324626987846
 30
0.0
 11
11.9998510231469
 21
22.000026987846
 31
0.0
  0
LINE
  8
Black
 10
11.9998510231469
 20
22.000026987846
 30
0.0
 11
11.9998512265662
 21
22.0000281414884
 31
0.0
  0
LINE
  8
Black
 10
11.9998512265662
 20
22.0000281414884
 30
0.0
 11
12.119700379659
 21
22.6797696067896
 31
0.0
  0
LINE
  8
Black
 10
12.119700379659
 20
22.6797696067896
 30
0.0
 11
12.1216202759142
 21
22.6850775770735
 31
0.0
  0
LINE
  8
Black
 10
12.1216202759142
 20
22.6850775770735
 30
0.0
 11
12.1226179725288
 21
22.6878312197733
 31
0.0
  0
LINE
  8
Black
 10
12.1226179725288
 20
22.6878312197733
 30
0.0
 11
12.465594610331
 21
23.2819422053813
 31
0.0
  0
LINE
  8
Black
 10
12.465594610331
 20
23.2819422053813
 30
0.0
 11
12.4666104037712
 21
23.2831663665738
 31
0.0
  0
LINE
  8
Black
 10
12.4666104037712
 20
23.2831663665738
 30
0.0
 11
12.4709916890143
 21
23.2883278806964
 31
0.0
  0
LINE
  8
Black
 10
12.4709916890143
 20
23.2883278806964
 30
0.0
 11
12.9964412316318
 21
23.729247295804
 31
0.0
  0
LINE
  8
Black
 10
12.9964412316318
 20
23.729247295804
 30
0.0
 11
13.0038520253124
 21
23.733496150832
 31
0.0
  0
LINE
  8
Black
 10
13.0038520253124
 20
23.733496150832
 30
0.0
 11
13.6483000532791
 21
23.9680922155557
 31
0.0
  0
LINE
  8
Black
 10
13.6483000532791
 20
23.9680922155557
 30
0.0
 11
13.6502803054613
 21
23.968432571388
 31
0.0
  0
ARC
  8
Black
 10
13.6418107446814
 20
24.017710015926
 30
0.0
 40
0.05
 50
279.752424941621
 51
285.101098161359
  0
LINE
  8
Black
 10
13.6548368953492
 20
23.9694366340393
 30
0.0
 11
13.6568716588631
 21
23.9699856972197
 31
0.0
  0
LINE
  8
Black
 10
13.6568716588631
 20
23.9699856972197
 30
0.0
 11
13.9953266615029
 21
23.9996114734378
 31
0.0
  0
LINE
  8
Black
 10
13.9953266615029
 20
23.9996114734378
 30
0.0
 11
13.9974839573792
 21
23.9994153556026
 31
0.0
  0
ARC
  8
Black
 10
14.0020107446813
 20
24.049210015926
 30
0.0
 40
0.05
 50
264.805571092309
 51
270.000000000033
  0
LINE
  8
Black
 10
14.0020107446813
 20
23.999210015926
 30
0.0
 11
14.0041365849252
 21
23.9992100159263
 31
0.0
  0
LINE
  8
Black
 10
14.0041365849252
 20
23.9992100159263
 30
0.0
 11
14.679570335393
 21
23.8801203809752
 31
0.0
  0
LINE
  8
Black
 10
14.679570335393
 20
23.8801203809752
 30
0.0
 11
14.6848783058289
 21
23.8782004846931
 31
0.0
  0
LINE
  8
Black
 10
14.6848783058289
 20
23.8782004846931
 30
0.0
 11
14.6876319486118
 21
23.8772027880304
 31
0.0
  0
LINE
  8
Black
 10
14.6876319486118
 20
23.8772027880304
 30
0.0
 11
15.2817429340197
 21
23.534226150344
 31
0.0
  0
LINE
  8
Black
 10
15.2817429340197
 20
23.534226150344
 30
0.0
 11
15.2829670868199
 21
23.5332103640266
 31
0.0
  0
LINE
  8
Black
 10
15.2829670868199
 20
23.5332103640266
 30
0.0
 11
15.288126492369
 21
23.5288308686269
 31
0.0
  0
LINE
  8
Black
 10
15.288126492369
 20
23.5288308686269
 30
0.0
 11
15.7292625001995
 21
23.0030054435225
 31
0.0
  0
LINE
  8
Black
 10
15.7292625001995
 20
23.0030054435225
 30
0.0
 11
15.7332968795725
 21
22.9959687353361
 31
0.0
  0
LINE
  8
Black
 10
15.7332968795725
 20
22.9959687353361
 30
0.0
 11
15.9678929442645
 21
22.3515207074545
 31
0.0
  0
LINE
  8
Black
 10
15.9678929442645
 20
22.3515207074545
 30
0.0
 11
15.9682333001434
 21
22.349540455146
 31
0.0
  0
ARC
  8
Black
 10
16.0175107446813
 20
22.358010015926
 30
0.0
 40
0.05
 50
189.752424941647
 51
195.101098161374
  0
LINE
  8
Black
 10
15.9692373627946
 20
22.3449838652581
 30
0.0
 11
15.9697864259787
 21
22.3429491016991
 31
0.0
  0
LINE
  8
Black
 10
15.9697864259787
 20
22.3429491016991
 30
0.0
 11
15.9994465444899
 21
22.0041017609495
 31
0.0
  0
ARC
  8
Black
 10
16.0494107446813
 20
22.002210015926
 30
0.0
 40
0.05
 50
177.831702362419
 51
187.252246865083
  0
LINE
  8
Black
 10
15.9998107446813
 20
21.9958981223907
 30
0.0
 11
15.9998107446813
 21
-21.9953915610935
 31
0.0
  0
ARC
  8
Black
 10
16.0490107446813
 20
-22.004299984074
 30
0.0
 40
0.05
 50
169.736904101388
 51
179.996839018774
  0
LINE
  8
Black
 10
15.9990107447574
 20
-22.0042972255975
 30
0.0
 11
15.9005708973206
 21
-22.5627945092227
 31
0.0
  0
LINE
  8
Black
 10
15.9005708973206
 20
-22.5627945092227
 30
0.0
 11
15.8799221325765
 21
-22.6797687966046
 31
0.0
  0
LINE
  8
Black
 10
15.8799221325765
 20
-22.6797687966046
 30
0.0
 11
15.8769950466933
 21
-22.6878654138256
 31
0.0
  0
LINE
  8
Black
 10
15.8769950466933
 20
-22.6878654138256
 30
0.0
 11
15.5341143424883
 21
-23.2817411120702
 31
0.0
  0
LINE
  8
Black
 10
15.5341143424883
 20
-23.2817411120702
 30
0.0
 11
15.52854745979
 21
-23.2883567557085
 31
0.0
  0
LINE
  8
Black
 10
15.52854745979
 20
-23.2883567557085
 30
0.0
 11
15.0030940579686
 21
-23.7292497839197
 31
0.0
  0
LINE
  8
Black
 10
15.0030940579686
 20
-23.7292497839197
 30
0.0
 11
14.9956640348104
 21
-23.7335542440017
 31
0.0
  0
LINE
  8
Black
 10
14.9956640348104
 20
-23.7335542440017
 30
0.0
 11
14.3512150663843
 21
-23.9681111567323
 31
0.0
  0
LINE
  8
Black
 10
14.3512150663843
 20
-23.9681111567323
 30
0.0
 11
14.3491170891107
 21
-23.9684815808422
 31
0.0
  0
ARC
  8
Black
 10
14.3578107446814
 20
-24.017719984074
 30
0.0
 40
0.05
 50
100.013086832341
 51
105.10109816143
  0
LINE
  8
Black
 10
14.3447845940135
 20
-23.9694466021873
 30
0.0
 11
14.3427512206175
 21
-23.9699952902468
 31
0.0
  0
LINE
  8
Black
 10
14.3427512206175
 20
-23.9699952902468
 30
0.0
 11
14.0041830697869
 21
-23.9996114734378
 31
0.0
  0
LINE
  8
Black
 10
14.0041830697869
 20
-23.9996114734378
 30
0.0
 11
14.0019129120657
 21
-23.99941541436
 31
0.0
  0
ARC
  8
Black
 10
13.9976107446814
 20
-24.049229984074
 30
0.0
 40
0.05
 50
85.0639758899763
 51
90.000000000059
  0
LINE
  8
Black
 10
13.9976107446813
 20
-23.999229984074
 30
0.0
 11
13.995485261648
 21
-23.999229984078
 31
0.0
  0
LINE
  8
Black
 10
13.995485261648
 20
-23.999229984078
 30
0.0
 11
13.3200623018534
 21
-23.8801323770884
 31
0.0
  0
LINE
  8
Black
 10
13.3200623018534
 20
-23.8801323770884
 30
0.0
 11
13.3160563955576
 21
-23.878681457357
 31
0.0
  0
LINE
  8
Black
 10
13.3160563955576
 20
-23.878681457357
 30
0.0
 11
13.312096701041
 21
-23.8772246808597
 31
0.0
  0
LINE
  8
Black
 10
13.312096701041
 20
-23.8772246808597
 30
0.0
 11
12.7180076569032
 21
-23.5342705848846
 31
0.0
  0
LINE
  8
Black
 10
12.7180076569032
 20
-23.5342705848846
 30
0.0
 11
12.7114075812838
 21
-23.5287275138545
 31
0.0
  0
LINE
  8
Black
 10
12.7114075812838
 20
-23.5287275138545
 30
0.0
 11
12.2705918345132
 21
-23.0034212595619
 31
0.0
  0
LINE
  8
Black
 10
12.2705918345132
 20
-23.0034212595619
 30
0.0
 11
12.2663345021318
 21
-22.9959758782796
 31
0.0
  0
LINE
  8
Black
 10
12.2663345021318
 20
-22.9959758782796
 30
0.0
 11
12.0317352606457
 21
-22.3515191235743
 31
0.0
  0
LINE
  8
Black
 10
12.0317352606457
 20
-22.3515191235743
 30
0.0
 11
12.0313947720538
 21
-22.3495288129838
 31
0.0
  0
ARC
  8
Black
 10
11.9821107446813
 20
-22.357959984074
 30
0.0
 40
0.05
 50
9.7077915357618
 51
15.0554826485454
  0
LINE
  8
Black
 10
12.0303944819193
 20
-22.3449722699435
 30
0.0
 11
12.0298367960673
 21
-22.3428989907677
 31
0.0
  0
LINE
  8
Black
 10
12.0298367960673
 20
-22.3428989907677
 30
0.0
 11
11.9998204486259
 21
-21.9999918427607
 31
0.0
  0
LINE
  8
Black
 10
11.9998204486259
 20
-21.9999918427607
 30
0.0
 11
11.9700206177422
 21
-21.6592537763578
 31
0.0
  0
ARC
  8
Black
 10
11.9202107446814
 20
-21.663609984074
 30
0.0
 40
0.05
 50
4.9981832056865
 51
19.9999712789554
  0
LINE
  8
Black
 10
11.967195384293
 20
-21.64650900046
 30
0.0
 11
11.734895384293
 21
-21.00826900046
 31
0.0
  0
ARC
  8
Black
 10
11.6879107446813
 20
-21.025369984074
 30
0.0
 40
0.05
 50
19.9999712789533
 51
40.0038713371024
  0
LINE
  8
Black
 10
11.7262107951697
 20
-20.9932280156746
 30
0.0
 11
11.2910107951697
 21
-20.4746480156746
 31
0.0
  0
ARC
  8
Black
 10
11.2527107446813
 20
-20.506789984074
 30
0.0
 40
0.05
 50
40.0038713371022
 51
59.9972678083228
  0
LINE
  8
Black
 10
11.2777128095061
 20
-20.4634899060775
 30
0.0
 11
10.6915128095061
 21
-20.1250099060775
 31
0.0
  0
ARC
  8
Black
 10
10.6665107446814
 20
-20.168309984074
 30
0.0
 40
0.05
 50
59.9972678083261
 51
80.0010794665982
  0
LINE
  8
Black
 10
10.6751922258621
 20
-20.1190694328534
 30
0.0
 11
10.0040922258621
 21
-20.0007494328534
 31
0.0
  0
ARC
  8
Black
 10
9.9954107446814
 20
-20.049989984074
 30
0.0
 40
0.05
 50
80.0010794666091
 51
90.0000000000163
  0
LINE
  8
Black
 10
9.9954107446813
 20
-19.999989984074
 30
0.0
 11
-13.9958146480387
 21
-19.999989984074
 31
0.0
  0
LINE
  8
Black
 10
-13.9958146480387
 20
-19.999989984074
 30
0.0
 11
-13.9958165061285
 21
-19.9999896564299
 31
0.0
  0
ARC
  8
Black
 10
-14.0044992553186
 20
-20.049229984074
 30
0.0
 40
0.05
 50
79.9996040211
 51
89.995111458098
  0
LINE
  8
Black
 10
-14.0044949892611
 20
-19.999229984256
 30
0.0
 11
-14.6799190209835
 21
-19.8801391526291
 31
0.0
  0
LINE
  8
Black
 10
-14.6799190209835
 20
-19.8801391526291
 30
0.0
 11
-14.6839682334667
 21
-19.8786653583799
 31
0.0
  0
LINE
  8
Black
 10
-14.6839682334667
 20
-19.8786653583799
 30
0.0
 11
-14.6839174198191
 21
-19.8786838841827
 31
0.0
  0
LINE
  8
Black
 10
-14.6839174198191
 20
-19.8786838841827
 30
0.0
 11
-14.687994294727
 21
-19.8771950254543
 31
0.0
  0
LINE
  8
Black
 10
-14.687994294727
 20
-19.8771950254543
 30
0.0
 11
-15.2819715099704
 21
-19.5342712845861
 31
0.0
  0
LINE
  8
Black
 10
-15.2819715099704
 20
-19.5342712845861
 30
0.0
 11
-15.2885717804938
 21
-19.5287280498683
 31
0.0
  0
LINE
  8
Black
 10
-15.2885717804938
 20
-19.5287280498683
 30
0.0
 11
-15.7294305979047
 21
-19.0033351688953
 31
0.0
  0
LINE
  8
Black
 10
-15.7294305979047
 20
-19.0033351688953
 30
0.0
 11
-15.7337435685651
 21
-18.995870602873
 31
0.0
  0
LINE
  8
Black
 10
-15.7337435685651
 20
-18.995870602873
 30
0.0
 11
-15.9683165382997
 21
-18.3513775175651
 31
0.0
  0
LINE
  8
Black
 10
-15.9683165382997
 20
-18.3513775175651
 30
0.0
 11
-15.9686970302984
 21
-18.3492314091871
 31
0.0
  0
ARC
  8
Black
 10
-16.0179292553187
 20
-18.357959984074
 30
0.0
 40
0.0500000000001
 50
10.053722896056
 51
14.9709081581176
  0
LINE
  8
Black
 10
-15.9696263994819
 20
-18.3450435558519
 30
0.0
 11
-15.9701895893863
 21
-18.3429374255585
 31
0.0
  0
LINE
  8
Black
 10
-15.9701895893863
 20
-18.3429374255585
 30
0.0
 11
-15.9998084305222
 21
-18.0043486389194
 31
0.0
  0
LINE
  8
Black
 10
-15.9998084305222
 20
-18.0043486389194
 30
0.0
 11
-15.9996192378963
 21
-18.0021845408119
 31
0.0
  0
ARC
  8
Black
 10
-16.0494292553187
 20
-17.997829984074
 30
0.0
 40
0.05
 50
355.003715894822
 51
360.000000000024
  0
LINE
  8
Black
 10
-15.9994292553187
 20
-17.997829984074
 30
0.0
 11
-15.9994292553185
 21
-17.9956842490986
 31
0.0
  0
LINE
  8
Black
 10
-15.9994292553185
 20
-17.9956842490986
 30
0.0
 11
-15.8803389966997
 21
-17.3202634671932
 31
0.0
  0
LINE
  8
Black
 10
-15.8803389966997
 20
-17.3202634671932
 30
0.0
 11
-15.8784068694532
 21
-17.3149571585452
 31
0.0
  0
LINE
  8
Black
 10
-15.8784068694532
 20
-17.3149571585452
 30
0.0
 11
-15.878423477972
 21
-17.3150027027571
 31
0.0
  0
LINE
  8
Black
 10
-15.878423477972
 20
-17.3150027027571
 30
0.0
 11
-15.8773945335298
 21
-17.3121853548796
 31
0.0
  0
LINE
  8
Black
 10
-15.8773945335298
 20
-17.3121853548796
 30
0.0
 11
-15.5344697726084
 21
-16.7182063728051
 31
0.0
  0
LINE
  8
Black
 10
-15.5344697726084
 20
-16.7182063728051
 30
0.0
 11
-15.5333622621438
 21
-16.7168875050237
 31
0.0
  0
LINE
  8
Black
 10
-15.5333622621438
 20
-16.7168875050237
 30
0.0
 11
-15.5333591772084
 21
-16.7168838317179
 31
0.0
  0
LINE
  8
Black
 10
-15.5333591772084
 20
-16.7168838317179
 30
0.0
 11
-15.5289279010408
 21
-16.7116079203956
 31
0.0
  0
LINE
  8
Black
 10
-15.5289279010408
 20
-16.7116079203956
 30
0.0
 11
-15.0035420411662
 21
-16.2707510447347
 31
0.0
  0
LINE
  8
Black
 10
-15.0035420411662
 20
-16.2707510447347
 30
0.0
 11
-14.996079168895
 21
-16.2664430223238
 31
0.0
  0
LINE
  8
Black
 10
-14.996079168895
 20
-16.2664430223238
 30
0.0
 11
-14.3515980394563
 21
-16.0318694670686
 31
0.0
  0
LINE
  8
Black
 10
-14.3515980394563
 20
-16.0318694670686
 30
0.0
 11
-14.3494752309726
 21
-16.0314950868476
 31
0.0
  0
ARC
  8
Black
 10
-14.3581592553186
 20
-15.982254984074
 30
0.0
 40
0.05
 50
280.001879746856
 51
284.979368618813
  0
LINE
  8
Black
 10
-14.3452356946978
 20
-16.0305559321069
 30
0.0
 11
-14.3431327131121
 21
-16.0299932514327
 31
0.0
  0
LINE
  8
Black
 10
-14.3431327131121
 20
-16.0299932514327
 30
0.0
 11
-14.0001914593503
 21
-15.999989718206
 31
0.0
  0
LINE
  8
Black
 10
-14.0001914593503
 20
-15.999989718206
 30
0.0
 11
-13.6594514518187
 21
-15.9701787175471
 31
0.0
  0
ARC
  8
Black
 10
-13.6638092553186
 20
-15.920368984074
 30
0.0
 40
0.05
 50
275.000018821707
 51
289.999892008618
  0
LINE
  8
Black
 10
-13.6467083367093
 20
-15.9673536473453
 30
0.0
 11
-13.0084683367093
 21
-15.7350546473453
 31
0.0
  0
ARC
  8
Black
 10
-13.0255692553187
 20
-15.688069984074
 30
0.0
 40
0.05
 50
289.999892008625
 51
309.999981409242
  0
LINE
  8
Black
 10
-12.9934298872622
 20
-15.7263722166582
 30
0.0
 11
-12.4748498872622
 21
-15.2912322166582
 31
0.0
  0
ARC
  8
Black
 10
-12.5069892553187
 20
-15.252929984074
 30
0.0
 40
0.05
 50
309.999981409243
 51
330.000061050752
  0
LINE
  8
Black
 10
-12.463687958491
 20
-15.2779299379349
 30
0.0
 11
-12.125207958491
 21
-14.6916639379349
 31
0.0
  0
ARC
  8
Black
 10
-12.1685092553187
 20
-14.666663984074
 30
0.0
 40
0.05
 50
330.000061050753
 51
350.000261877112
  0
LINE
  8
Black
 10
-12.1192688279846
 20
-14.6753461678983
 30
0.0
 11
-12.0009488279846
 21
-14.0043021678983
 31
0.0
  0
ARC
  8
Black
 10
-12.0501892553186
 20
-13.995619984074
 30
0.0
 40
0.05
 50
350.000261877111
 51
359.999999999998
  0
LINE
  8
Black
 10
-12.0001892553187
 20
-13.995619984074
 30
0.0
 11
-12.0001892553187
 21
13.997810015926
 31
0.0
  0
ARC
  8
Black
 10
-12.0501892553187
 20
13.997810015926
 30
0.0
 40
0.05
 50
359.999999999998
 51
364.99938513467
  0
LINE
  8
Black
 10
-12.0003794736517
 20
14.0021672685337
 30
0.0
 11
-12.0299994736517
 21
14.3407672685337
 31
0.0
  0
ARC
  8
Black
 10
-12.0798092553187
 20
14.336410015926
 30
0.0
 40
0.05
 50
4.9993851346639
 51
20.0011254219423
  0
LINE
  8
Black
 10
-12.0328249601919
 20
14.3535119459761
 30
0.0
 11
-12.2651249601919
 21
14.9917119459761
 31
0.0
  0
ARC
  8
Black
 10
-12.3121092553187
 20
14.974610015926
 30
0.0
 40
0.05
 50
20.0011254219538
 51
39.9988933602617
  0
LINE
  8
Black
 10
-12.2738064124136
 20
15.0067486566158
 30
0.0
 11
-12.7089464124136
 21
15.5253486566158
 31
0.0
  0
ARC
  8
Black
 10
-12.7472492553187
 20
15.493210015926
 30
0.0
 40
0.05
 50
39.9988933602607
 51
59.9987643977858
  0
LINE
  8
Black
 10
-12.7222483215184
 20
15.536510746972
 30
0.0
 11
-13.3085183215184
 21
15.875010746972
 31
0.0
  0
ARC
  8
Black
 10
-13.3335192553187
 20
15.831710015926
 30
0.0
 40
0.05
 50
59.9987643977828
 51
79.9985540445261
  0
LINE
  8
Black
 10
-13.324835603774
 20
15.8809501844457
 30
0.0
 11
-14.000185603774
 21
16.0000501844457
 31
0.0
  0
LINE
  8
Black
 10
-14.000185603774
 20
16.0000501844457
 30
0.0
 11
-14.000187873258
 21
16.0000505846221
 31
0.0
  0
LINE
  8
Black
 10
-14.000187873258
 20
16.0000505846221
 30
0.0
 11
-14.6801077359808
 21
16.1199241818451
 31
0.0
  0
LINE
  8
Black
 10
-14.6801077359808
 20
16.1199241818451
 30
0.0
 11
-14.6840702902298
 21
16.1213324425451
 31
0.0
  0
LINE
  8
Black
 10
-14.6840702902298
 20
16.1213324425451
 30
0.0
 11
-14.6879468666502
 21
16.1227576544623
 31
0.0
  0
LINE
  8
Black
 10
-14.6879468666502
 20
16.1227576544623
 30
0.0
 11
-15.281942442527
 21
16.4657018701453
 31
0.0
  0
LINE
  8
Black
 10
-15.281942442527
 20
16.4657018701453
 30
0.0
 11
-15.2885500318482
 21
16.4712661558908
 31
0.0
  0
LINE
  8
Black
 10
-15.2885500318482
 20
16.4712661558908
 30
0.0
 11
-15.7294490551655
 21
16.99672670264
 31
0.0
  0
LINE
  8
Black
 10
-15.7294490551655
 20
16.99672670264
 30
0.0
 11
-15.7337535152434
 21
17.0041567257888
 31
0.0
  0
LINE
  8
Black
 10
-15.7337535152434
 20
17.0041567257888
 30
0.0
 11
-15.9683234786102
 21
17.6486415510519
 31
0.0
  0
LINE
  8
Black
 10
-15.9683234786102
 20
17.6486415510519
 30
0.0
 11
-15.9687040782164
 21
17.6507782505973
 31
0.0
  0
ARC
  8
Black
 10
-16.0179292553187
 20
17.642010015926
 30
0.0
 40
0.0500000000001
 50
10.0998817036338
 51
15.0162913696887
  0
LINE
  8
Black
 10
-15.9696366455615
 20
17.6549647001307
 30
0.0
 11
-15.9701913119142
 21
17.6570323912673
 31
0.0
  0
LINE
  8
Black
 10
-15.9701913119142
 20
17.6570323912673
 30
0.0
 11
-15.9998107446813
 21
17.995637690808
 31
0.0
  0
LINE
  8
Black
 10
-15.9998107446813
 20
17.995637690808
 30
0.0
 11
-15.9996146856046
 21
17.9979078485416
 31
0.0
  0
ARC
  8
Black
 10
-16.0494292553186
 20
18.002210015926
 30
0.0
 40
0.05
 50
355.063975889927
 51
360.000000000004
  0
LINE
  8
Black
 10
-15.9994292553187
 20
18.002210015926
 30
0.0
 11
-15.9994292553178
 21
18.0043354989867
 31
0.0
  0
LINE
  8
Black
 10
-15.9994292553178
 20
18.0043354989867
 30
0.0
 11
-15.880342074572
 21
18.6796993297648
 31
0.0
  0
LINE
  8
Black
 10
-15.880342074572
 20
18.6796993297648
 30
0.0
 11
-15.878423477972
 21
18.6849572972428
 31
0.0
  0
LINE
  8
Black
 10
-15.878423477972
 20
18.6849572972428
 30
0.0
 11
-15.8773941603469
 21
18.6877756669298
 31
0.0
  0
LINE
  8
Black
 10
-15.8773941603469
 20
18.6877756669298
 30
0.0
 11
-15.5344426347178
 21
19.2818602585347
 31
0.0
  0
LINE
  8
Black
 10
-15.5344426347178
 20
19.2818602585347
 30
0.0
 11
-15.5332917608849
 21
19.2832366216441
 31
0.0
  0
LINE
  8
Black
 10
-15.5332917608849
 20
19.2832366216441
 30
0.0
 11
-15.5333990823133
 21
19.2831087074889
 31
0.0
  0
ENDSEC
  0
EOF
