  0
SECTION
  2
HEADER
  9
$ACADVER
  1
AC1009
  9
$EXTMAX
 10
406.395202636719
 20
609.590087890625
 30
0.0
  9
$EXTMIN
 10
-406.395202636719
 20
-609.590087890625
 30
0.0
  9
$INSUNITS
 70
     1
  9
$LUNITS
 70
     2
  9
$LUPREC
 70
     4
  9
$MEASUREMENT
 70
     0
  0
ENDSEC
  0
SECTION
  2
TABLES
  0
TABLE
  2
LAYER
 70
     1
  0
LAYER
  2
0
 70
     0
 62
     7
  6
Continuous
  0
LAYER
  2
BLACK
 70
     0
 62
     7
  6
Continuous
  0
LAYER
  2
GRAY1
 70
     0
 62
   251
  6
Continuous
  0
LAYER
  2
GRAY2
 70
     0
 62
     8
  6
Continuous
  0
LAYER
  2
GRAY3
 70
     0
 62
     9
  6
Continuous
  0
LAYER
  2
WHITE
 70
     0
 62
     7
  6
Continuous
  0
LAYER
  2
LYELLOW
 70
     0
 62
    51
  6
Continuous
  0
LAYER
  2
BLUE1
 70
     0
 62
   178
  6
Continuous
  0
LAYER
  2
GREEN1
 70
     0
 62
    98
  6
Continuous
  0
LAYER
  2
CYAN1
 70
     0
 62
   138
  6
Continuous
  0
LAYER
  2
RED1
 70
     0
 62
    18
  6
Continuous
  0
LAYER
  2
MAGENTA1
 70
     0
 62
   228
  6
Continuous
  0
LAYER
  2
BROWN1
 70
     0
 62
    58
  6
Continuous
  0
LAYER
  2
BLUE2
 70
     0
 62
     5
  6
Continuous
  0
LAYER
  2
GREEN2
 70
     0
 62
     3
  6
Continuous
  0
LAYER
  2
CYAN2
 70
     0
 62
     4
  6
Continuous
  0
LAYER
  2
RED2
 70
     0
 62
     1
  6
Continuous
  0
LAYER
  2
MAGENTA2
 70
     0
 62
     6
  6
Continuous
  0
LAYER
  2
BROWN2
 70
     0
 62
    54
  6
Continuous
  0
LAYER
  2
BLUE3
 70
     0
 62
   171
  6
Continuous
  0
LAYER
  2
GREEN3
 70
     0
 62
    91
  6
Continuous
  0
LAYER
  2
CYAN3
 70
     0
 62
   131
  6
Continuous
  0
LAYER
  2
RED3
 70
     0
 62
    11
  6
Continuous
  0
LAYER
  2
MAGENTA3
 70
     0
 62
   221
  6
Continuous
  0
LAYER
  2
YELLOW3
 70
     0
 62
     2
  6
Continuous
  0
LAYER
  2
BLUE4
 70
     0
 62
     5
  6
Continuous
  0
LAYER
  2
GREEN4
 70
     0
 62
     3
  6
Continuous
  0
LAYER
  2
CYAN4
 70
     0
 62
     4
  6
Continuous
  0
LAYER
  2
RED4
 70
     0
 62
     1
  6
Continuous
  0
LAYER
  2
MAGENTA4
 70
     0
 62
     6
  6
Continuous
  0
LAYER
  2
YELLOW4
 70
     0
 62
     2
  6
Continuous
  0
LAYER
  2
Black
 70
     0
 62
    70
  6
Continuous
  0
ENDTAB
  0
TABLE
  2
APPID
 70
     1
  0
APPID
  2
ACAD
 70
     0
  0
ENDTAB
  0
ENDSEC
  0
SECTION
  2
ENTITIES
  0
POLYLINE
  8
Black
 66
     1
 10
0.0
 20
0.0
 30
0.0
 70
     1
  0
VERTEX
  8
Black
 10
-15.5333990823133
 20
19.2831087074889
 42
0.0
  0
VERTEX
  8
Black
 10
-15.5289511534707
 20
19.2883921588749
 42
0.0
  0
VERTEX
  8
Black
 10
-15.0032798617636
 20
19.7294237235525
 42
0.0
  0
VERTEX
  8
Black
 10
-14.9961751495272
 20
19.7334862584744
 42
0.0
  0
VERTEX
  8
Black
 10
-14.3517183948092
 20
19.9680854999651
 42
0.0
  0
VERTEX
  8
Black
 10
-14.3497280842285
 20
19.9684259885535
 42
0.0233379400168
  0
VERTEX
  8
Black
 10
-14.3451715411882
 20
19.969426278688
 42
0.0
  0
VERTEX
  8
Black
 10
-14.3430982620384
 20
19.9699839645377
 42
0.0
  0
VERTEX
  8
Black
 10
-14.004243934286
 20
19.9996455486999
 42
0.0410926305494
  0
VERTEX
  8
Black
 10
-13.9960473617834
 20
20.000010015926
 42
0.0
  0
VERTEX
  8
Black
 10
9.9976107446814
 20
20.000010015926
 42
0.0218027318985
  0
VERTEX
  8
Black
 10
10.001965077508
 20
20.0001999789291
 42
0.0
  0
VERTEX
  8
Black
 10
10.340565077508
 20
20.0297999789291
 42
0.0655658064794
  0
VERTEX
  8
Black
 10
10.3533126747314
 20
20.0326257207992
 42
0.0
  0
VERTEX
  8
Black
 10
10.9915126747314
 20
20.2649257207992
 42
0.0874959525913
  0
VERTEX
  8
Black
 10
11.0065519857381
 20
20.2736093550527
 42
0.0
  0
VERTEX
  8
Black
 10
11.5251519857381
 20
20.7088093550527
 42
0.0874579680462
  0
VERTEX
  8
Black
 10
11.5363101829421
 20
20.7221068432012
 42
0.0
  0
VERTEX
  8
Black
 10
11.8748101829421
 20
21.3083068432012
 42
0.08750395407
  0
VERTEX
  8
Black
 10
11.8807510231469
 20
21.324626987846
 42
0.0
  0
VERTEX
  8
Black
 10
11.9998510231469
 20
22.000026987846
 42
0.0
  0
VERTEX
  8
Black
 10
11.9998512265662
 20
22.0000281414884
 42
0.0
  0
VERTEX
  8
Black
 10
12.119700379659
 20
22.6797696067896
 42
0.0
  0
VERTEX
  8
Black
 10
12.1216202759142
 20
22.6850775770735
 42
0.0
  0
VERTEX
  8
Black
 10
12.1226179725288
 20
22.6878312197733
 42
0.0
  0
VERTEX
  8
Black
 10
12.465594610331
 20
23.2819422053813
 42
0.0
  0
VERTEX
  8
Black
 10
12.4666104037712
 20
23.2831663665738
 42
0.0
  0
VERTEX
  8
Black
 10
12.4709916890143
 20
23.2883278806964
 42
0.0
  0
VERTEX
  8
Black
 10
12.9964412316318
 20
23.729247295804
 42
0.0
  0
VERTEX
  8
Black
 10
13.0038520253124
 20
23.733496150832
 42
0.0
  0
VERTEX
  8
Black
 10
13.6483000532791
 20
23.9680922155557
 42
0.0
  0
VERTEX
  8
Black
 10
13.6502803054613
 20
23.968432571388
 42
0.0233422276012
  0
VERTEX
  8
Black
 10
13.6548368953492
 20
23.9694366340393
 42
0.0
  0
VERTEX
  8
Black
 10
13.6568716588631
 20
23.9699856972197
 42
0.0
  0
VERTEX
  8
Black
 10
13.9953266615029
 20
23.9996114734378
 42
0.0
  0
VERTEX
  8
Black
 10
13.9974839573792
 20
23.9994153556026
 42
0.0226688536036
  0
VERTEX
  8
Black
 10
14.0020107446813
 20
23.999210015926
 42
0.0
  0
VERTEX
  8
Black
 10
14.0041365849252
 20
23.9992100159263
 42
0.0
  0
VERTEX
  8
Black
 10
14.679570335393
 20
23.8801203809752
 42
0.0
  0
VERTEX
  8
Black
 10
14.6848783058289
 20
23.8782004846931
 42
0.0
  0
VERTEX
  8
Black
 10
14.6876319486118
 20
23.8772027880304
 42
0.0
  0
VERTEX
  8
Black
 10
15.2817429340197
 20
23.534226150344
 42
0.0
  0
VERTEX
  8
Black
 10
15.2829670868199
 20
23.5332103640266
 42
0.0
  0
VERTEX
  8
Black
 10
15.288126492369
 20
23.5288308686269
 42
0.0
  0
VERTEX
  8
Black
 10
15.7292625001995
 20
23.0030054435225
 42
0.0
  0
VERTEX
  8
Black
 10
15.7332968795725
 20
22.9959687353361
 42
0.0
  0
VERTEX
  8
Black
 10
15.9678929442645
 20
22.3515207074545
 42
0.0
  0
VERTEX
  8
Black
 10
15.9682333001434
 20
22.349540455146
 42
0.0233422276012
  0
VERTEX
  8
Black
 10
15.9692373627946
 20
22.3449838652581
 42
0.0
  0
VERTEX
  8
Black
 10
15.9697864259787
 20
22.3429491016991
 42
0.0
  0
VERTEX
  8
Black
 10
15.9994465444899
 20
22.0041017609495
 42
0.0411280458032
  0
VERTEX
  8
Black
 10
15.9998107446813
 20
21.9958981223907
 42
0.0
  0
VERTEX
  8
Black
 10
15.9998107446813
 20
-21.9953915610935
 42
0.0447973417692
  0
VERTEX
  8
Black
 10
15.9990107447574
 20
-22.0042972255975
 42
0.0
  0
VERTEX
  8
Black
 10
15.9005708973206
 20
-22.5627945092227
 42
0.0
  0
VERTEX
  8
Black
 10
15.8799221325765
 20
-22.6797687966046
 42
0.0
  0
VERTEX
  8
Black
 10
15.8769950466933
 20
-22.6878654138256
 42
0.0
  0
VERTEX
  8
Black
 10
15.5341143424883
 20
-23.2817411120702
 42
0.0
  0
VERTEX
  8
Black
 10
15.52854745979
 20
-23.2883567557085
 42
0.0
  0
VERTEX
  8
Black
 10
15.0030940579686
 20
-23.7292497839197
 42
0.0
  0
VERTEX
  8
Black
 10
14.9956640348104
 20
-23.7335542440017
 42
0.0
  0
VERTEX
  8
Black
 10
14.3512150663843
 20
-23.9681111567323
 42
0.0
  0
VERTEX
  8
Black
 10
14.3491170891107
 20
-23.9684815808422
 42
0.0222042855672
  0
VERTEX
  8
Black
 10
14.3447845940135
 20
-23.9694466021873
 42
0.0
  0
VERTEX
  8
Black
 10
14.3427512206175
 20
-23.9699952902468
 42
0.0
  0
VERTEX
  8
Black
 10
14.0041830697869
 20
-23.9996114734378
 42
0.0
  0
VERTEX
  8
Black
 10
14.0019129120657
 20
-23.99941541436
 42
0.0215407989292
  0
VERTEX
  8
Black
 10
13.9976107446813
 20
-23.999229984074
 42
0.0
  0
VERTEX
  8
Black
 10
13.995485261648
 20
-23.999229984078
 42
0.0
  0
VERTEX
  8
Black
 10
13.3200623018534
 20
-23.8801323770884
 42
0.0
  0
VERTEX
  8
Black
 10
13.3160563955576
 20
-23.878681457357
 42
0.0
  0
VERTEX
  8
Black
 10
13.312096701041
 20
-23.8772246808597
 42
0.0
  0
VERTEX
  8
Black
 10
12.7180076569032
 20
-23.5342705848846
 42
0.0
  0
VERTEX
  8
Black
 10
12.7114075812838
 20
-23.5287275138545
 42
0.0
  0
VERTEX
  8
Black
 10
12.2705918345132
 20
-23.0034212595619
 42
0.0
  0
VERTEX
  8
Black
 10
12.2663345021318
 20
-22.9959758782796
 42
0.0
  0
VERTEX
  8
Black
 10
12.0317352606457
 20
-22.3515191235743
 42
0.0
  0
VERTEX
  8
Black
 10
12.0313947720538
 20
-22.3495288129838
 42
0.0233379400168
  0
VERTEX
  8
Black
 10
12.0303944819193
 20
-22.3449722699435
 42
0.0
  0
VERTEX
  8
Black
 10
12.0298367960673
 20
-22.3428989907677
 42
0.0
  0
VERTEX
  8
Black
 10
11.9998204486259
 20
-21.9999918427607
 42
0.0
  0
VERTEX
  8
Black
 10
11.9700206177422
 20
-21.6592537763578
 42
0.0655512982774
  0
VERTEX
  8
Black
 10
11.967195384293
 20
-21.64650900046
 42
0.0
  0
VERTEX
  8
Black
 10
11.734895384293
 20
-21.00826900046
 42
0.0875058110197
  0
VERTEX
  8
Black
 10
11.7262107951697
 20
-20.9932280156746
 42
0.0
  0
VERTEX
  8
Black
 10
11.2910107951697
 20
-20.4746480156746
 42
0.0874596297243
  0
VERTEX
  8
Black
 10
11.2777128095061
 20
-20.4634899060775
 42
0.0
  0
VERTEX
  8
Black
 10
10.6915128095061
 20
-20.1250099060775
 42
0.0875054223489
  0
VERTEX
  8
Black
 10
10.6751922258621
 20
-20.1190694328534
 42
0.0
  0
VERTEX
  8
Black
 10
10.0040922258621
 20
-20.0007494328534
 42
0.0436562238692
  0
VERTEX
  8
Black
 10
9.9954107446813
 20
-19.999989984074
 42
0.0
  0
VERTEX
  8
Black
 10
-13.9958146480387
 20
-19.999989984074
 42
0.0
  0
VERTEX
  8
Black
 10
-13.9958165061285
 20
-19.9999896564299
 42
0.0436413030534
  0
VERTEX
  8
Black
 10
-14.0044949892611
 20
-19.999229984256
 42
0.0
  0
VERTEX
  8
Black
 10
-14.6799190209835
 20
-19.8801391526291
 42
0.0
  0
VERTEX
  8
Black
 10
-14.6839682334667
 20
-19.8786653583799
 42
0.0
  0
VERTEX
  8
Black
 10
-14.6839174198191
 20
-19.8786838841827
 42
0.0
  0
VERTEX
  8
Black
 10
-14.687994294727
 20
-19.8771950254543
 42
0.0
  0
VERTEX
  8
Black
 10
-15.2819715099704
 20
-19.5342712845861
 42
0.0
  0
VERTEX
  8
Black
 10
-15.2885717804938
 20
-19.5287280498683
 42
0.0
  0
VERTEX
  8
Black
 10
-15.7294305979047
 20
-19.0033351688953
 42
0.0
  0
VERTEX
  8
Black
 10
-15.7337435685651
 20
-18.995870602873
 42
0.0
  0
VERTEX
  8
Black
 10
-15.9683165382997
 20
-18.3513775175651
 42
0.0
  0
VERTEX
  8
Black
 10
-15.9686970302984
 20
-18.3492314091871
 42
0.0214585609521
  0
VERTEX
  8
Black
 10
-15.9696263994819
 20
-18.3450435558519
 42
0.0
  0
VERTEX
  8
Black
 10
-15.9701895893863
 20
-18.3429374255585
 42
0.0
  0
VERTEX
  8
Black
 10
-15.9998084305222
 20
-18.0043486389194
 42
0.0
  0
VERTEX
  8
Black
 10
-15.9996192378963
 20
-18.0021845408119
 42
0.0218038562586
  0
VERTEX
  8
Black
 10
-15.9994292553187
 20
-17.997829984074
 42
0.0
  0
VERTEX
  8
Black
 10
-15.9994292553185
 20
-17.9956842490986
 42
0.0
  0
VERTEX
  8
Black
 10
-15.8803389966997
 20
-17.3202634671932
 42
0.0
  0
VERTEX
  8
Black
 10
-15.8784068694532
 20
-17.3149571585452
 42
0.0
  0
VERTEX
  8
Black
 10
-15.878423477972
 20
-17.3150027027571
 42
0.0
  0
VERTEX
  8
Black
 10
-15.8773945335298
 20
-17.3121853548796
 42
0.0
  0
VERTEX
  8
Black
 10
-15.5344697726084
 20
-16.7182063728051
 42
0.0
  0
VERTEX
  8
Black
 10
-15.5333622621438
 20
-16.7168875050237
 42
0.0
  0
VERTEX
  8
Black
 10
-15.5333591772084
 20
-16.7168838317179
 42
0.0
  0
VERTEX
  8
Black
 10
-15.5289279010408
 20
-16.7116079203956
 42
0.0
  0
VERTEX
  8
Black
 10
-15.0035420411662
 20
-16.2707510447347
 42
0.0
  0
VERTEX
  8
Black
 10
-14.996079168895
 20
-16.2664430223238
 42
0.0
  0
VERTEX
  8
Black
 10
-14.3515980394563
 20
-16.0318694670686
 42
0.0
  0
VERTEX
  8
Black
 10
-14.3494752309726
 20
-16.0314950868476
 42
0.0217218077411
  0
VERTEX
  8
Black
 10
-14.3452356946978
 20
-16.0305559321069
 42
0.0
  0
VERTEX
  8
Black
 10
-14.3431327131121
 20
-16.0299932514327
 42
0.0
  0
VERTEX
  8
Black
 10
-14.0001914593503
 20
-15.999989718206
 42
0.0
  0
VERTEX
  8
Black
 10
-13.6594514518187
 20
-15.9701787175471
 42
0.0655429071117
  0
VERTEX
  8
Black
 10
-13.6467083367093
 20
-15.9673536473453
 42
0.0
  0
VERTEX
  8
Black
 10
-13.0084683367093
 20
-15.7350546473453
 42
0.0874890565955
  0
VERTEX
  8
Black
 10
-12.9934298872622
 20
-15.7263722166582
 42
0.0
  0
VERTEX
  8
Black
 10
-12.4748498872622
 20
-15.2912322166582
 42
0.0874890136874
  0
VERTEX
  8
Black
 10
-12.463687958491
 20
-15.2779299379349
 42
0.0
  0
VERTEX
  8
Black
 10
-12.125207958491
 20
-14.6916639379349
 42
0.0874895465035
  0
VERTEX
  8
Black
 10
-12.1192688279846
 20
-14.6753461678983
 42
0.0
  0
VERTEX
  8
Black
 10
-12.0009488279846
 20
-14.0043021678983
 42
0.0436597980759
  0
VERTEX
  8
Black
 10
-12.0001892553187
 20
-13.995619984074
 42
0.0
  0
VERTEX
  8
Black
 10
-12.0001892553187
 20
13.997810015926
 42
0.0218173934888
  0
VERTEX
  8
Black
 10
-12.0003794736517
 20
14.0021672685337
 42
0.0
  0
VERTEX
  8
Black
 10
-12.0299994736517
 20
14.3407672685337
 42
0.0655510888758
  0
VERTEX
  8
Black
 10
-12.0328249601919
 20
14.3535119459761
 42
0.0
  0
VERTEX
  8
Black
 10
-12.2651249601919
 20
14.9917119459761
 42
0.0874788497814
  0
VERTEX
  8
Black
 10
-12.2738064124136
 20
15.0067486566158
 42
0.0
  0
VERTEX
  8
Black
 10
-12.7089464124136
 20
15.5253486566158
 42
0.0874880965139
  0
VERTEX
  8
Black
 10
-12.7222483215184
 20
15.536510746972
 42
0.0
  0
VERTEX
  8
Black
 10
-13.3085183215184
 20
15.875010746972
 42
0.0874877386614
  0
VERTEX
  8
Black
 10
-13.324835603774
 20
15.8809501844457
 42
0.0
  0
VERTEX
  8
Black
 10
-14.000185603774
 20
16.0000501844457
 42
0.0
  0
VERTEX
  8
Black
 10
-14.000187873258
 20
16.0000505846221
 42
0.0
  0
VERTEX
  8
Black
 10
-14.6801077359808
 20
16.1199241818451
 42
0.0
  0
VERTEX
  8
Black
 10
-14.6840702902298
 20
16.1213324425451
 42
0.0
  0
VERTEX
  8
Black
 10
-14.6879468666502
 20
16.1227576544623
 42
0.0
  0
VERTEX
  8
Black
 10
-15.281942442527
 20
16.4657018701453
 42
0.0
  0
VERTEX
  8
Black
 10
-15.2885500318482
 20
16.4712661558908
 42
0.0
  0
VERTEX
  8
Black
 10
-15.7294490551655
 20
16.99672670264
 42
0.0
  0
VERTEX
  8
Black
 10
-15.7337535152434
 20
17.0041567257888
 42
0.0
  0
VERTEX
  8
Black
 10
-15.9683234786102
 20
17.6486415510519
 42
0.0
  0
VERTEX
  8
Black
 10
-15.9687040782164
 20
17.6507782505973
 42
0.021455175218
  0
VERTEX
  8
Black
 10
-15.9696366455615
 20
17.6549647001307
 42
0.0
  0
VERTEX
  8
Black
 10
-15.9701913119142
 20
17.6570323912673
 42
0.0
  0
VERTEX
  8
Black
 10
-15.9998107446813
 20
17.995637690808
 42
0.0
  0
VERTEX
  8
Black
 10
-15.9996146856046
 20
17.9979078485416
 42
0.0215407989292
  0
VERTEX
  8
Black
 10
-15.9994292553187
 20
18.002210015926
 42
0.0
  0
VERTEX
  8
Black
 10
-15.9994292553178
 20
18.0043354989867
 42
0.0
  0
VERTEX
  8
Black
 10
-15.880342074572
 20
18.6796993297648
 42
0.0
  0
VERTEX
  8
Black
 10
-15.878423477972
 20
18.6849572972428
 42
0.0
  0
VERTEX
  8
Black
 10
-15.8773941603469
 20
18.6877756669298
 42
0.0
  0
VERTEX
  8
Black
 10
-15.5344426347178
 20
19.2818602585347
 42
0.0
  0
VERTEX
  8
Black
 10
-15.5332917608849
 20
19.2832366216441
 42
0.0
  0
SEQEND
  0
CIRCLE
  8
Black
 10
-14.0001892553187
 20
18.000010015926
 30
0.0
 40
1.0
  0
CIRCLE
  8
Black
 10
-14.0001892553187
 20
-18.000010015926
 30
0.0
 40
1.0
  0
CIRCLE
  8
Black
 10
13.9997807446813
 20
22.000010015926
 30
0.0
 40
1.0
  0
CIRCLE
  8
Black
 10
13.9997807446813
 20
-22.000010015926
 30
0.0
 40
1.0
  0
ENDSEC
  0
EOF
