G04 (created by PCBNEW (2013-07-07 BZR 4022)-stable) date 15/06/2014 19:52:05*
%MOIN*%
G04 Gerber Fmt 3.4, Leading zero omitted, Abs format*
%FSLAX34Y34*%
G01*
G70*
G90*
G04 APERTURE LIST*
%ADD10C,0.00590551*%
%ADD11C,0.000393701*%
%ADD12O,0.011811X0.0354331*%
%ADD13O,0.0354331X0.011811*%
%ADD14R,0.0334646X0.0334646*%
%ADD15C,0.0629921*%
%ADD16C,0.0590551*%
%ADD17C,0.0472441*%
%ADD18O,0.0590551X0.0787402*%
%ADD19R,0.0669X0.0669*%
%ADD20C,0.275591*%
%ADD21R,0.0512X0.0354*%
%ADD22R,0.0480315X0.015748*%
%ADD23R,0.023622X0.0177165*%
%ADD24R,0.144X0.08*%
%ADD25R,0.04X0.08*%
%ADD26R,0.045X0.025*%
%ADD27R,0.0394X0.0315*%
%ADD28O,0.0255906X0.00984252*%
%ADD29R,0.0610236X0.0976378*%
%ADD30R,0.00984252X0.00984252*%
%ADD31R,0.0240157X0.0173228*%
%ADD32R,0.036X0.036*%
%ADD33R,0.0159843X0.0255118*%
%ADD34R,0.0236X0.0157*%
%ADD35R,0.0157X0.0236*%
%ADD36R,0.025X0.045*%
%ADD37R,0.0629921X0.0590551*%
%ADD38R,0.110236X0.0629921*%
G04 APERTURE END LIST*
G54D10*
G54D11*
X46688Y-61626D02*
X47121Y-61672D01*
X47121Y-61672D02*
X47489Y-61783D01*
X47489Y-61783D02*
X47790Y-61919D01*
X47790Y-61919D02*
X48032Y-62048D01*
X48032Y-62048D02*
X48224Y-62151D01*
X48224Y-62151D02*
X48347Y-62205D01*
X48347Y-62205D02*
X48391Y-62217D01*
X33961Y-62217D02*
X33983Y-62212D01*
X33983Y-62212D02*
X34048Y-62188D01*
X34048Y-62188D02*
X34151Y-62140D01*
X34151Y-62140D02*
X34315Y-62051D01*
X34315Y-62051D02*
X34524Y-61938D01*
X34524Y-61938D02*
X34748Y-61830D01*
X34748Y-61830D02*
X35012Y-61730D01*
X35012Y-61730D02*
X35320Y-61655D01*
X35320Y-61655D02*
X35664Y-61626D01*
X32121Y-57099D02*
X32082Y-57437D01*
X32082Y-57437D02*
X31975Y-57702D01*
X31975Y-57702D02*
X31813Y-57910D01*
X31813Y-57910D02*
X31611Y-58076D01*
X31611Y-58076D02*
X31380Y-58217D01*
X31380Y-58217D02*
X31137Y-58348D01*
X31137Y-58348D02*
X30893Y-58487D01*
X30893Y-58487D02*
X30663Y-58649D01*
X30663Y-58649D02*
X30460Y-58851D01*
X30460Y-58851D02*
X30334Y-59038D01*
X30334Y-59038D02*
X30237Y-59263D01*
X30237Y-59263D02*
X30174Y-59533D01*
X30174Y-59533D02*
X30152Y-59855D01*
X30017Y-39795D02*
X30523Y-39821D01*
X30523Y-39821D02*
X30941Y-39894D01*
X30941Y-39894D02*
X31279Y-40006D01*
X31279Y-40006D02*
X31546Y-40149D01*
X31546Y-40149D02*
X31750Y-40317D01*
X31750Y-40317D02*
X31899Y-40500D01*
X31899Y-40500D02*
X32044Y-40802D01*
X32044Y-40802D02*
X32107Y-41096D01*
X32107Y-41096D02*
X32121Y-41351D01*
X41176Y-24028D02*
X39991Y-24059D01*
X39991Y-24059D02*
X38873Y-24152D01*
X38873Y-24152D02*
X37821Y-24302D01*
X37821Y-24302D02*
X36832Y-24506D01*
X36832Y-24506D02*
X35906Y-24761D01*
X35906Y-24761D02*
X35054Y-25057D01*
X35054Y-25057D02*
X34259Y-25396D01*
X34259Y-25396D02*
X33518Y-25774D01*
X33518Y-25774D02*
X32829Y-26189D01*
X32829Y-26189D02*
X31934Y-26837D01*
X31934Y-26837D02*
X31137Y-27544D01*
X31137Y-27544D02*
X30434Y-28299D01*
X30434Y-28299D02*
X29819Y-29094D01*
X29819Y-29094D02*
X29287Y-29918D01*
X29287Y-29918D02*
X28785Y-30863D01*
X28785Y-30863D02*
X28374Y-31821D01*
X28374Y-31821D02*
X28045Y-32778D01*
X28045Y-32778D02*
X27793Y-33723D01*
X27793Y-33723D02*
X27609Y-34642D01*
X27609Y-34642D02*
X27486Y-35523D01*
X27486Y-35523D02*
X27418Y-36351D01*
X27418Y-36351D02*
X27396Y-37116D01*
X54956Y-37116D02*
X54928Y-36239D01*
X54928Y-36239D02*
X54837Y-35280D01*
X54837Y-35280D02*
X54674Y-34259D01*
X54674Y-34259D02*
X54426Y-33195D01*
X54426Y-33195D02*
X54084Y-32107D01*
X54084Y-32107D02*
X53742Y-31247D01*
X53742Y-31247D02*
X53331Y-30394D01*
X53331Y-30394D02*
X52844Y-29556D01*
X52844Y-29556D02*
X52276Y-28744D01*
X52276Y-28744D02*
X51623Y-27965D01*
X51623Y-27965D02*
X51010Y-27349D01*
X51010Y-27349D02*
X50332Y-26769D01*
X50332Y-26769D02*
X49584Y-26229D01*
X49584Y-26229D02*
X48764Y-25736D01*
X48764Y-25736D02*
X47870Y-25294D01*
X47870Y-25294D02*
X46897Y-24910D01*
X46897Y-24910D02*
X45907Y-24604D01*
X45907Y-24604D02*
X44842Y-24359D01*
X44842Y-24359D02*
X43700Y-24178D01*
X43700Y-24178D02*
X42479Y-24066D01*
X42479Y-24066D02*
X41176Y-24028D01*
X50231Y-41351D02*
X50238Y-41161D01*
X50238Y-41161D02*
X50270Y-40944D01*
X50270Y-40944D02*
X50340Y-40714D01*
X50340Y-40714D02*
X50464Y-40484D01*
X50464Y-40484D02*
X50655Y-40267D01*
X50655Y-40267D02*
X50861Y-40114D01*
X50861Y-40114D02*
X51126Y-39984D01*
X51126Y-39984D02*
X51455Y-39883D01*
X51455Y-39883D02*
X51855Y-39818D01*
X51855Y-39818D02*
X52335Y-39795D01*
X52200Y-59855D02*
X52177Y-59533D01*
X52177Y-59533D02*
X52115Y-59263D01*
X52115Y-59263D02*
X52018Y-59038D01*
X52018Y-59038D02*
X51892Y-58851D01*
X51892Y-58851D02*
X51689Y-58649D01*
X51689Y-58649D02*
X51459Y-58487D01*
X51459Y-58487D02*
X51215Y-58348D01*
X51215Y-58348D02*
X50972Y-58217D01*
X50972Y-58217D02*
X50741Y-58076D01*
X50741Y-58076D02*
X50539Y-57910D01*
X50539Y-57910D02*
X50377Y-57702D01*
X50377Y-57702D02*
X50270Y-57437D01*
X50270Y-57437D02*
X50231Y-57099D01*
X37751Y-27375D02*
X36845Y-27493D01*
X36845Y-27493D02*
X36031Y-27644D01*
X36031Y-27644D02*
X35305Y-27829D01*
X35305Y-27829D02*
X34661Y-28053D01*
X34661Y-28053D02*
X34095Y-28317D01*
X34095Y-28317D02*
X33611Y-28618D01*
X33611Y-28618D02*
X33194Y-28962D01*
X33194Y-28962D02*
X32838Y-29353D01*
X32838Y-29353D02*
X32541Y-29792D01*
X32541Y-29792D02*
X32256Y-30382D01*
X32256Y-30382D02*
X32039Y-31048D01*
X32039Y-31048D02*
X31884Y-31794D01*
X31884Y-31794D02*
X31782Y-32625D01*
X31782Y-32625D02*
X31726Y-33545D01*
X31726Y-33545D02*
X31709Y-34557D01*
X50643Y-34557D02*
X50628Y-33589D01*
X50628Y-33589D02*
X50577Y-32705D01*
X50577Y-32705D02*
X50485Y-31903D01*
X50485Y-31903D02*
X50345Y-31177D01*
X50345Y-31177D02*
X50151Y-30526D01*
X50151Y-30526D02*
X49896Y-29946D01*
X49896Y-29946D02*
X49574Y-29432D01*
X49574Y-29432D02*
X49178Y-28981D01*
X49178Y-28981D02*
X48755Y-28628D01*
X48755Y-28628D02*
X48262Y-28320D01*
X48262Y-28320D02*
X47696Y-28055D01*
X47696Y-28055D02*
X47052Y-27831D01*
X47052Y-27831D02*
X46324Y-27644D01*
X46324Y-27644D02*
X45508Y-27493D01*
X45508Y-27493D02*
X44601Y-27375D01*
X44601Y-27375D02*
X44341Y-27337D01*
X44341Y-27337D02*
X44154Y-27320D01*
X44154Y-27320D02*
X44016Y-27321D01*
X44016Y-27321D02*
X43849Y-27349D01*
X43849Y-27349D02*
X43663Y-27398D01*
X43663Y-27398D02*
X43539Y-27427D01*
X43539Y-27427D02*
X43381Y-27456D01*
X43381Y-27456D02*
X43179Y-27485D01*
X43179Y-27485D02*
X42924Y-27512D01*
X42924Y-27512D02*
X42605Y-27536D01*
X42605Y-27536D02*
X42215Y-27555D01*
X42215Y-27555D02*
X41741Y-27567D01*
X41741Y-27567D02*
X41176Y-27571D01*
X41176Y-27571D02*
X40611Y-27567D01*
X40611Y-27567D02*
X40137Y-27555D01*
X40137Y-27555D02*
X39746Y-27536D01*
X39746Y-27536D02*
X39428Y-27512D01*
X39428Y-27512D02*
X39173Y-27485D01*
X39173Y-27485D02*
X38971Y-27456D01*
X38971Y-27456D02*
X38813Y-27427D01*
X38813Y-27427D02*
X38689Y-27398D01*
X38689Y-27398D02*
X38503Y-27349D01*
X38503Y-27349D02*
X38336Y-27321D01*
X38336Y-27321D02*
X38198Y-27320D01*
X38198Y-27320D02*
X38010Y-27337D01*
X38010Y-27337D02*
X37751Y-27375D01*
X32711Y-43713D02*
X32711Y-45288D01*
X33302Y-45288D02*
X33302Y-43713D01*
X33302Y-47443D02*
X33302Y-51007D01*
X33302Y-51007D02*
X34189Y-51005D01*
X34386Y-51202D02*
X34386Y-51281D01*
X34584Y-51477D02*
X38127Y-51472D01*
X38317Y-51290D02*
X38317Y-51211D01*
X38515Y-51014D02*
X39402Y-51016D01*
X40190Y-50229D02*
X40193Y-48240D01*
X39407Y-47452D02*
X38520Y-47451D01*
X38323Y-47253D02*
X38323Y-47175D01*
X38127Y-46978D02*
X34584Y-46972D01*
X34386Y-47169D02*
X34386Y-47248D01*
X34189Y-47444D02*
X33302Y-47443D01*
X49053Y-47443D02*
X48165Y-47443D01*
X47969Y-47246D02*
X47969Y-47167D01*
X47772Y-46970D02*
X44228Y-46970D01*
X44032Y-47167D02*
X44032Y-47246D01*
X43835Y-47443D02*
X42948Y-47443D01*
X42160Y-48230D02*
X42160Y-50219D01*
X42948Y-51007D02*
X43835Y-51007D01*
X44032Y-51203D02*
X44032Y-51282D01*
X44228Y-51479D02*
X47772Y-51479D01*
X47966Y-51281D02*
X47966Y-51202D01*
X48163Y-51005D02*
X49050Y-51007D01*
X49050Y-51007D02*
X49050Y-49225D01*
X49050Y-49225D02*
X49053Y-47443D01*
X52200Y-60642D02*
X52200Y-59855D01*
X48391Y-62217D02*
X50625Y-62217D01*
X35664Y-61626D02*
X46688Y-61626D01*
X31727Y-62217D02*
X33961Y-62217D01*
X30152Y-59855D02*
X30152Y-60642D01*
X32121Y-41351D02*
X32121Y-57099D01*
X27856Y-38302D02*
X28887Y-39334D01*
X53465Y-39334D02*
X54496Y-38302D01*
X50231Y-57099D02*
X50231Y-41351D01*
X49050Y-43713D02*
X49050Y-45288D01*
X49641Y-45288D02*
X49641Y-43713D01*
X49641Y-54737D02*
X49641Y-53162D01*
X49050Y-53162D02*
X49050Y-54737D01*
X32711Y-53162D02*
X32711Y-54737D01*
X33302Y-54737D02*
X33302Y-53162D01*
X31709Y-34557D02*
X31709Y-34866D01*
X32052Y-35976D02*
X32950Y-37292D01*
X33926Y-37807D02*
X37799Y-37807D01*
X38238Y-37723D02*
X39784Y-37104D01*
X40222Y-37020D02*
X42130Y-37020D01*
X42568Y-37104D02*
X44114Y-37723D01*
X44553Y-37807D02*
X48426Y-37807D01*
X49402Y-37292D02*
X50300Y-35976D01*
X50643Y-34866D02*
X50643Y-34557D01*
X33302Y-45288D02*
G75*
G02X32711Y-45287I-295J0D01*
G74*
G01*
X32711Y-43713D02*
G75*
G02X33302Y-43713I295J0D01*
G74*
G01*
X34189Y-51005D02*
G75*
G02X34386Y-51202I0J-196D01*
G74*
G01*
X34583Y-51477D02*
G75*
G02X34386Y-51281I0J196D01*
G74*
G01*
X38317Y-51290D02*
G75*
G02X38127Y-51472I-196J14D01*
G74*
G01*
X38317Y-51211D02*
G75*
G02X38515Y-51014I196J0D01*
G74*
G01*
X40190Y-50230D02*
G75*
G02X39401Y-51016I-787J1D01*
G74*
G01*
X39409Y-47452D02*
G75*
G02X40193Y-48241I-2J-787D01*
G74*
G01*
X38519Y-47451D02*
G75*
G02X38323Y-47253I0J196D01*
G74*
G01*
X38127Y-46978D02*
G75*
G02X38323Y-47175I0J-196D01*
G74*
G01*
X34386Y-47168D02*
G75*
G02X34584Y-46972I196J0D01*
G74*
G01*
X34386Y-47248D02*
G75*
G02X34189Y-47444I-196J0D01*
G74*
G01*
X48165Y-47443D02*
G75*
G02X47969Y-47246I0J196D01*
G74*
G01*
X47772Y-46970D02*
G75*
G02X47969Y-47167I0J-196D01*
G74*
G01*
X44032Y-47167D02*
G75*
G02X44229Y-46970I196J0D01*
G74*
G01*
X44032Y-47246D02*
G75*
G02X43835Y-47443I-196J0D01*
G74*
G01*
X42160Y-48229D02*
G75*
G02X42948Y-47443I787J-1D01*
G74*
G01*
X42946Y-51007D02*
G75*
G02X42160Y-50219I1J787D01*
G74*
G01*
X43835Y-51007D02*
G75*
G02X44032Y-51203I0J-196D01*
G74*
G01*
X44228Y-51479D02*
G75*
G02X44032Y-51282I0J196D01*
G74*
G01*
X47966Y-51281D02*
G75*
G02X47772Y-51479I-196J-1D01*
G74*
G01*
X47966Y-51202D02*
G75*
G02X48163Y-51005I196J0D01*
G74*
G01*
X52200Y-60645D02*
G75*
G02X50625Y-62217I-1574J2D01*
G74*
G01*
X31724Y-62217D02*
G75*
G02X30152Y-60642I2J1574D01*
G74*
G01*
X30015Y-39795D02*
G75*
G02X28887Y-39334I-13J1574D01*
G74*
G01*
X27854Y-38301D02*
G75*
G02X27396Y-37115I1115J1111D01*
G74*
G01*
X54956Y-37117D02*
G75*
G02X54496Y-38302I-1573J-71D01*
G74*
G01*
X53463Y-39336D02*
G75*
G02X52335Y-39795I-1111J1115D01*
G74*
G01*
X49641Y-45288D02*
G75*
G02X49050Y-45288I-295J0D01*
G74*
G01*
X49050Y-43712D02*
G75*
G02X49641Y-43713I295J0D01*
G74*
G01*
X49050Y-53161D02*
G75*
G02X49641Y-53162I295J0D01*
G74*
G01*
X49641Y-54737D02*
G75*
G02X49050Y-54737I-295J0D01*
G74*
G01*
X33302Y-54737D02*
G75*
G02X32711Y-54736I-295J0D01*
G74*
G01*
X32711Y-53161D02*
G75*
G02X33302Y-53162I295J0D01*
G74*
G01*
X32051Y-35976D02*
G75*
G02X31709Y-34866I1626J1109D01*
G74*
G01*
X33924Y-37807D02*
G75*
G02X32950Y-37292I2J1181D01*
G74*
G01*
X38236Y-37724D02*
G75*
G02X37799Y-37807I-436J1097D01*
G74*
G01*
X39786Y-37104D02*
G75*
G02X40222Y-37020I436J-1097D01*
G74*
G01*
X42132Y-37020D02*
G75*
G02X42568Y-37104I-2J-1181D01*
G74*
G01*
X44551Y-37807D02*
G75*
G02X44114Y-37723I2J1181D01*
G74*
G01*
X49401Y-37294D02*
G75*
G02X48426Y-37807I-974J667D01*
G74*
G01*
X50643Y-34866D02*
G75*
G02X50301Y-35976I-1968J0D01*
G74*
G01*
G54D12*
X34527Y-41515D03*
X34724Y-41515D03*
X34921Y-41515D03*
X35118Y-41515D03*
G54D13*
X35433Y-41830D03*
X35433Y-42027D03*
X35433Y-42224D03*
X35433Y-42421D03*
G54D12*
X35118Y-42736D03*
X34921Y-42736D03*
X34724Y-42736D03*
X34527Y-42736D03*
G54D13*
X34212Y-42421D03*
X34212Y-42224D03*
X34212Y-42027D03*
X34212Y-41830D03*
G54D14*
X34657Y-42291D03*
X34988Y-41960D03*
X34657Y-41960D03*
X34988Y-42291D03*
G54D13*
X48118Y-41830D03*
X48118Y-42027D03*
X48118Y-42224D03*
X48118Y-42421D03*
G54D12*
X47803Y-42736D03*
X47606Y-42736D03*
X47409Y-42736D03*
X47212Y-42736D03*
G54D13*
X46897Y-42421D03*
X46897Y-42224D03*
X46897Y-42027D03*
X46897Y-41830D03*
G54D12*
X47212Y-41515D03*
X47409Y-41515D03*
X47606Y-41515D03*
X47803Y-41515D03*
G54D14*
X47342Y-41960D03*
X47673Y-42291D03*
X47673Y-41960D03*
X47342Y-42291D03*
G54D15*
X47257Y-44007D03*
X46757Y-45007D03*
X46257Y-44007D03*
X45757Y-45007D03*
X45257Y-44007D03*
X44757Y-45007D03*
G54D16*
X44207Y-44297D03*
G54D15*
X37602Y-44007D03*
X37102Y-45007D03*
X36602Y-44007D03*
X36102Y-45007D03*
X35602Y-44007D03*
X35102Y-45007D03*
G54D16*
X34552Y-44297D03*
G54D17*
X32509Y-59163D03*
X32509Y-59950D03*
X33297Y-59950D03*
X33297Y-59163D03*
X49045Y-59163D03*
X49045Y-59950D03*
X49832Y-59950D03*
X49832Y-59163D03*
G54D18*
X42690Y-44931D03*
X41690Y-44931D03*
X39690Y-44931D03*
X40690Y-44931D03*
G54D19*
X41681Y-53118D03*
X40681Y-53118D03*
X41681Y-54118D03*
X40681Y-54118D03*
X41681Y-55118D03*
X40681Y-55118D03*
G54D20*
X38622Y-54133D03*
X43740Y-54133D03*
G54D21*
X42077Y-25462D03*
X40265Y-25462D03*
X40265Y-24754D03*
X42077Y-24754D03*
G54D10*
G36*
X33637Y-27631D02*
X33787Y-27952D01*
X33323Y-28169D01*
X33173Y-27848D01*
X33637Y-27631D01*
X33637Y-27631D01*
G37*
G36*
X31995Y-28397D02*
X32145Y-28718D01*
X31681Y-28934D01*
X31531Y-28614D01*
X31995Y-28397D01*
X31995Y-28397D01*
G37*
G36*
X31696Y-27756D02*
X31845Y-28076D01*
X31381Y-28293D01*
X31232Y-27972D01*
X31696Y-27756D01*
X31696Y-27756D01*
G37*
G36*
X33338Y-26990D02*
X33488Y-27311D01*
X33024Y-27527D01*
X32874Y-27206D01*
X33338Y-26990D01*
X33338Y-26990D01*
G37*
G36*
X50417Y-28220D02*
X50267Y-28541D01*
X49803Y-28324D01*
X49953Y-28004D01*
X50417Y-28220D01*
X50417Y-28220D01*
G37*
G36*
X48775Y-27454D02*
X48625Y-27775D01*
X48161Y-27559D01*
X48311Y-27238D01*
X48775Y-27454D01*
X48775Y-27454D01*
G37*
G36*
X49074Y-26812D02*
X48924Y-27133D01*
X48460Y-26917D01*
X48610Y-26596D01*
X49074Y-26812D01*
X49074Y-26812D01*
G37*
G36*
X50716Y-27578D02*
X50566Y-27899D01*
X50102Y-27683D01*
X50252Y-27362D01*
X50716Y-27578D01*
X50716Y-27578D01*
G37*
G36*
X46031Y-25760D02*
X45976Y-26109D01*
X45470Y-26029D01*
X45525Y-25680D01*
X46031Y-25760D01*
X46031Y-25760D01*
G37*
G36*
X44241Y-25476D02*
X44186Y-25826D01*
X43680Y-25746D01*
X43736Y-25396D01*
X44241Y-25476D01*
X44241Y-25476D01*
G37*
G36*
X44352Y-24777D02*
X44297Y-25127D01*
X43791Y-25046D01*
X43846Y-24697D01*
X44352Y-24777D01*
X44352Y-24777D01*
G37*
G36*
X46142Y-25060D02*
X46086Y-25410D01*
X45581Y-25330D01*
X45636Y-24980D01*
X46142Y-25060D01*
X46142Y-25060D01*
G37*
G54D22*
X39031Y-59960D03*
X39031Y-59704D03*
X39031Y-59448D03*
X39031Y-59192D03*
X40062Y-59192D03*
X40062Y-59448D03*
X40062Y-59704D03*
X40062Y-59960D03*
G54D23*
X39014Y-57716D03*
X39764Y-57716D03*
G54D24*
X44734Y-60404D03*
G54D25*
X44734Y-57804D03*
X45634Y-57804D03*
X43834Y-57804D03*
G54D26*
X39625Y-41215D03*
X39625Y-40615D03*
G54D27*
X38149Y-40846D03*
X39015Y-41221D03*
X39015Y-40471D03*
G54D10*
G36*
X38606Y-25396D02*
X38661Y-25746D01*
X38156Y-25826D01*
X38100Y-25476D01*
X38606Y-25396D01*
X38606Y-25396D01*
G37*
G36*
X36816Y-25680D02*
X36872Y-26029D01*
X36366Y-26109D01*
X36311Y-25760D01*
X36816Y-25680D01*
X36816Y-25680D01*
G37*
G36*
X36706Y-24980D02*
X36761Y-25330D01*
X36255Y-25410D01*
X36200Y-25060D01*
X36706Y-24980D01*
X36706Y-24980D01*
G37*
G36*
X38495Y-24697D02*
X38551Y-25046D01*
X38045Y-25127D01*
X37990Y-24777D01*
X38495Y-24697D01*
X38495Y-24697D01*
G37*
G54D28*
X36131Y-57687D03*
X36131Y-57883D03*
X36131Y-58080D03*
X36131Y-58277D03*
X36131Y-58474D03*
X37352Y-58474D03*
X37352Y-58277D03*
X37352Y-58080D03*
X37352Y-57883D03*
X37352Y-57687D03*
G54D29*
X36742Y-58080D03*
G54D27*
X37704Y-39629D03*
X36838Y-39254D03*
X36838Y-40004D03*
G54D30*
X40974Y-57185D03*
X40974Y-57381D03*
X40974Y-57578D03*
X40442Y-57578D03*
X40442Y-57381D03*
X40442Y-57185D03*
G54D31*
X40708Y-57234D03*
X40708Y-57529D03*
G54D32*
X28222Y-37496D03*
X28922Y-37496D03*
X28572Y-36696D03*
G54D33*
X38818Y-42913D03*
X38562Y-42913D03*
X38307Y-42913D03*
X38307Y-42204D03*
X38562Y-42204D03*
X38818Y-42204D03*
G54D34*
X46724Y-43275D03*
X46724Y-42921D03*
G54D35*
X46771Y-40787D03*
X47125Y-40787D03*
G54D34*
X38582Y-58267D03*
X38582Y-58621D03*
G54D35*
X47893Y-40787D03*
X47539Y-40787D03*
G54D34*
X36318Y-39448D03*
X36318Y-39802D03*
X48740Y-41319D03*
X48740Y-41673D03*
G54D35*
X33828Y-41062D03*
X34182Y-41062D03*
X43834Y-57078D03*
X44188Y-57078D03*
G54D34*
X33503Y-41779D03*
X33503Y-42133D03*
X35901Y-42433D03*
X35901Y-42787D03*
X40147Y-41210D03*
X40147Y-40856D03*
X35929Y-39448D03*
X35929Y-39802D03*
G54D35*
X37805Y-58277D03*
X38159Y-58277D03*
G54D34*
X33744Y-42775D03*
X33744Y-42421D03*
X37706Y-40108D03*
X37706Y-40462D03*
X30405Y-38535D03*
X30405Y-38889D03*
X37913Y-42027D03*
X37913Y-42381D03*
X37913Y-42736D03*
X37913Y-43090D03*
X42972Y-41092D03*
X42972Y-40738D03*
G54D35*
X40738Y-59458D03*
X41092Y-59458D03*
G54D34*
X39015Y-58267D03*
X39015Y-58621D03*
G54D35*
X38917Y-43346D03*
X38563Y-43346D03*
G54D34*
X29952Y-38889D03*
X29952Y-38535D03*
G54D35*
X38287Y-41771D03*
X38641Y-41771D03*
X43031Y-38937D03*
X43385Y-38937D03*
G54D34*
X43740Y-39517D03*
X43740Y-39163D03*
X35590Y-58051D03*
X35590Y-57697D03*
G54D35*
X41092Y-59852D03*
X40738Y-59852D03*
X28946Y-38120D03*
X28592Y-38120D03*
G54D34*
X42509Y-40069D03*
X42509Y-40423D03*
G54D35*
X41362Y-26110D03*
X41008Y-26110D03*
G54D34*
X35728Y-25688D03*
X35728Y-25334D03*
G54D35*
X34645Y-40915D03*
X34999Y-40915D03*
X41092Y-59064D03*
X40738Y-59064D03*
G54D34*
X37303Y-40816D03*
X37303Y-40462D03*
X38454Y-59458D03*
X38454Y-59104D03*
G54D35*
X34173Y-27598D03*
X34527Y-27598D03*
X46348Y-26033D03*
X46702Y-26033D03*
G54D34*
X50698Y-28494D03*
X50698Y-28848D03*
X47076Y-26053D03*
X47076Y-26407D03*
X47470Y-26053D03*
X47470Y-26407D03*
X42972Y-40423D03*
X42972Y-40069D03*
X43435Y-40423D03*
X43435Y-40069D03*
G54D32*
X47080Y-55712D03*
X47080Y-56412D03*
X47880Y-56062D03*
G54D36*
X34719Y-43375D03*
X34119Y-43375D03*
G54D26*
X46318Y-42024D03*
X46318Y-41424D03*
G54D34*
X41870Y-42606D03*
X41870Y-42960D03*
X42509Y-41092D03*
X42509Y-40738D03*
G54D37*
X46732Y-57795D03*
X46732Y-58740D03*
G54D38*
X42433Y-57818D03*
X42433Y-58803D03*
M02*
