  0
SECTION
  2
HEADER
  9
$ANGBASE
  50
0.0
  9
$ANGDIR
  70
  1
  9
$MEASUREMENT
  70
0
  0
ENDSEC
  0
SECTION
  2
TABLES
  0
TABLE
  2
LTYPE
  70
1
  0
LTYPE
  2
CONTINUOUS
  70
0
  3
Solid line
  72
65
  73
0
  40
0.0
  0
ENDTAB
  0
TABLE
  2
STYLE
  70
4
  0
STYLE
  2
KICAD
  70
0
  40
0
  41
1
  42
1
  50
0
  71
0
  3
isocp.shx
  0
STYLE
  2
KICADB
  70
0
  40
0
  41
1
  42
1
  50
0
  71
0
  3
isocp.shx
  0
STYLE
  2
KICADI
  70
0
  40
0
  41
1
  42
1
  50
15
  71
0
  3
isocp.shx
  0
STYLE
  2
KICADBI
  70
0
  40
0
  41
1
  42
1
  50
15
  71
0
  3
isocp.shx
  0
ENDTAB
  0
TABLE
  2
LAYER
  70
30
  0
LAYER
  2
BLACK
  70
0
  62
7
  6
CONTINUOUS
  0
LAYER
  2
GRAY1
  70
0
  62
251
  6
CONTINUOUS
  0
LAYER
  2
GRAY2
  70
0
  62
8
  6
CONTINUOUS
  0
LAYER
  2
GRAY3
  70
0
  62
9
  6
CONTINUOUS
  0
LAYER
  2
WHITE
  70
0
  62
7
  6
CONTINUOUS
  0
LAYER
  2
LYELLOW
  70
0
  62
51
  6
CONTINUOUS
  0
LAYER
  2
BLUE1
  70
0
  62
178
  6
CONTINUOUS
  0
LAYER
  2
GREEN1
  70
0
  62
98
  6
CONTINUOUS
  0
LAYER
  2
CYAN1
  70
0
  62
138
  6
CONTINUOUS
  0
LAYER
  2
RED1
  70
0
  62
18
  6
CONTINUOUS
  0
LAYER
  2
MAGENTA1
  70
0
  62
228
  6
CONTINUOUS
  0
LAYER
  2
BROWN1
  70
0
  62
58
  6
CONTINUOUS
  0
LAYER
  2
BLUE2
  70
0
  62
5
  6
CONTINUOUS
  0
LAYER
  2
GREEN2
  70
0
  62
3
  6
CONTINUOUS
  0
LAYER
  2
CYAN2
  70
0
  62
4
  6
CONTINUOUS
  0
LAYER
  2
RED2
  70
0
  62
1
  6
CONTINUOUS
  0
LAYER
  2
MAGENTA2
  70
0
  62
6
  6
CONTINUOUS
  0
LAYER
  2
BROWN2
  70
0
  62
54
  6
CONTINUOUS
  0
LAYER
  2
BLUE3
  70
0
  62
171
  6
CONTINUOUS
  0
LAYER
  2
GREEN3
  70
0
  62
91
  6
CONTINUOUS
  0
LAYER
  2
CYAN3
  70
0
  62
131
  6
CONTINUOUS
  0
LAYER
  2
RED3
  70
0
  62
11
  6
CONTINUOUS
  0
LAYER
  2
MAGENTA3
  70
0
  62
221
  6
CONTINUOUS
  0
LAYER
  2
YELLOW3
  70
0
  62
2
  6
CONTINUOUS
  0
LAYER
  2
BLUE4
  70
0
  62
5
  6
CONTINUOUS
  0
LAYER
  2
GREEN4
  70
0
  62
3
  6
CONTINUOUS
  0
LAYER
  2
CYAN4
  70
0
  62
4
  6
CONTINUOUS
  0
LAYER
  2
RED4
  70
0
  62
1
  6
CONTINUOUS
  0
LAYER
  2
MAGENTA4
  70
0
  62
6
  6
CONTINUOUS
  0
LAYER
  2
YELLOW4
  70
0
  62
2
  6
CONTINUOUS
  0
ENDTAB
  0
ENDSEC
  0
SECTION
  2
ENTITIES
0
LINE
8
Black
10
87.8477
20
-140.689
11
87.8471
21
-140.691
0
LINE
8
Black
10
87.8471
20
-140.691
11
87.8471
21
-140.691
0
LINE
8
Black
10
87.8471
20
-140.691
11
87.7167
21
-140.917
0
LINE
8
Black
10
87.7167
20
-140.917
11
87.7167
21
-140.917
0
LINE
8
Black
10
87.7167
20
-140.917
11
87.7155
21
-140.918
0
LINE
8
Black
10
87.7155
20
-140.918
11
87.5158
21
-141.085
0
LINE
8
Black
10
87.5158
20
-141.085
11
87.5143
21
-141.086
0
LINE
8
Black
10
87.5143
20
-141.086
11
87.5143
21
-141.086
0
LINE
8
Black
10
87.5143
20
-141.086
11
87.2695
21
-141.175
0
LINE
8
Black
10
87.2695
20
-141.175
11
87.2695
21
-141.175
0
LINE
8
Black
10
87.2695
20
-141.175
11
87.2678
21
-141.175
0
LINE
8
Black
10
87.2678
20
-141.175
11
87.0073
21
-141.175
0
LINE
8
Black
10
87.0073
20
-141.175
11
87.0073
21
-141.175
0
LINE
8
Black
10
87.0073
20
-141.175
11
87.0071
21
-141.175
0
LINE
8
Black
10
87.0071
20
-141.175
11
87.0056
21
-141.175
0
LINE
8
Black
10
87.0056
20
-141.175
11
86.7609
21
-141.085
0
LINE
8
Black
10
86.7609
20
-141.085
11
86.76
21
-141.085
0
LINE
8
Black
10
86.76
20
-141.085
11
86.7594
21
-141.084
0
LINE
8
Black
10
86.7594
20
-141.084
11
86.7594
21
-141.084
0
LINE
8
Black
10
86.7594
20
-141.084
11
86.56
21
-140.917
0
LINE
8
Black
10
86.56
20
-140.917
11
86.56
21
-140.917
0
LINE
8
Black
10
86.56
20
-140.917
11
86.5589
21
-140.915
0
LINE
8
Black
10
86.5589
20
-140.915
11
86.4289
21
-140.69
0
LINE
8
Black
10
86.4289
20
-140.69
11
86.4289
21
-140.69
0
LINE
8
Black
10
86.4289
20
-140.69
11
86.4287
21
-140.689
0
LINE
8
Black
10
86.4287
20
-140.689
11
86.4283
21
-140.688
0
LINE
8
Black
10
86.4283
20
-140.688
11
86.3833
21
-140.433
0
LINE
8
Black
10
86.3833
20
-140.433
11
86.3833
21
-140.432
0
LINE
8
Black
10
86.3833
20
-140.432
11
86.3833
21
-140.432
0
LINE
8
Black
10
86.3833
20
-140.432
11
86.3833
21
-136.432
0
LINE
8
Black
10
86.3833
20
-136.432
11
86.3833
21
-136.432
0
LINE
8
Black
10
86.3833
20
-136.432
11
86.3833
21
-136.431
0
LINE
8
Black
10
86.3833
20
-136.431
11
86.4288
21
-136.175
0
LINE
8
Black
10
86.4288
20
-136.175
11
86.4294
21
-136.173
0
LINE
8
Black
10
86.4294
20
-136.173
11
86.5598
21
-135.947
0
LINE
8
Black
10
86.5598
20
-135.947
11
86.561
21
-135.946
0
LINE
8
Black
10
86.561
20
-135.946
11
86.7607
21
-135.779
0
LINE
8
Black
10
86.7607
20
-135.779
11
86.7622
21
-135.778
0
LINE
8
Black
10
86.7622
20
-135.778
11
87.007
21
-135.689
0
LINE
8
Black
10
87.007
20
-135.689
11
87.007
21
-135.689
0
LINE
8
Black
10
87.007
20
-135.689
11
87.0087
21
-135.689
0
LINE
8
Black
10
87.0087
20
-135.689
11
87.2692
21
-135.689
0
LINE
8
Black
10
87.2692
20
-135.689
11
87.2709
21
-135.689
0
LINE
8
Black
10
87.2709
20
-135.689
11
87.5156
21
-135.779
0
LINE
8
Black
10
87.5156
20
-135.779
11
87.5171
21
-135.78
0
LINE
8
Black
10
87.5171
20
-135.78
11
87.7165
21
-135.947
0
LINE
8
Black
10
87.7165
20
-135.947
11
87.7176
21
-135.949
0
LINE
8
Black
10
87.7176
20
-135.949
11
87.8476
21
-136.174
0
LINE
8
Black
10
87.8476
20
-136.174
11
87.848
21
-136.175
0
LINE
8
Black
10
87.848
20
-136.175
11
87.8482
21
-136.176
0
LINE
8
Black
10
87.8482
20
-136.176
11
87.8482
21
-136.176
0
LINE
8
Black
10
87.8482
20
-136.176
11
87.8482
21
-136.176
0
LINE
8
Black
10
87.8482
20
-136.176
11
87.8932
21
-136.431
0
LINE
8
Black
10
87.8932
20
-136.431
11
87.8932
21
-136.432
0
LINE
8
Black
10
87.8932
20
-136.432
11
87.8933
21
-136.432
0
LINE
8
Black
10
87.8933
20
-136.432
11
87.8933
21
-140.432
0
LINE
8
Black
10
87.8933
20
-140.432
11
87.8932
21
-140.432
0
LINE
8
Black
10
87.8932
20
-140.432
11
87.8932
21
-140.433
0
LINE
8
Black
10
87.8932
20
-140.433
11
87.8833
21
-140.489
0
LINE
8
Black
10
87.8833
20
-140.489
11
87.8477
21
-140.689
0
LINE
8
Black
10
87.8385
20
-136.179
11
87.7094
21
-135.954
0
LINE
8
Black
10
87.7094
20
-135.954
11
87.5113
21
-135.788
0
LINE
8
Black
10
87.5113
20
-135.788
11
87.2683
21
-135.699
0
LINE
8
Black
10
87.2683
20
-135.699
11
87.0096
21
-135.699
0
LINE
8
Black
10
87.0096
20
-135.699
11
86.7664
21
-135.787
0
LINE
8
Black
10
86.7664
20
-135.787
11
86.5681
21
-135.953
0
LINE
8
Black
10
86.5681
20
-135.953
11
86.4385
21
-136.177
0
LINE
8
Black
10
86.4385
20
-136.177
11
86.3933
21
-136.432
0
LINE
8
Black
10
86.3933
20
-136.432
11
86.3933
21
-140.432
0
LINE
8
Black
10
86.3933
20
-140.432
11
86.438
21
-140.686
0
LINE
8
Black
10
86.438
20
-140.686
11
86.5672
21
-140.91
0
LINE
8
Black
10
86.5672
20
-140.91
11
86.7652
21
-141.076
0
LINE
8
Black
10
86.7652
20
-141.076
11
87.0082
21
-141.165
0
LINE
8
Black
10
87.0082
20
-141.165
11
87.2669
21
-141.165
0
LINE
8
Black
10
87.2669
20
-141.165
11
87.5101
21
-141.077
0
LINE
8
Black
10
87.5101
20
-141.077
11
87.7084
21
-140.911
0
LINE
8
Black
10
87.7084
20
-140.911
11
87.838
21
-140.687
0
LINE
8
Black
10
87.838
20
-140.687
11
87.8833
21
-140.432
0
LINE
8
Black
10
87.8833
20
-140.432
11
87.8833
21
-136.432
0
LINE
8
Black
10
87.8833
20
-136.432
11
87.8385
21
-136.179
0
LINE
8
Black
10
87.8477
20
-164.689
11
87.8471
21
-164.691
0
LINE
8
Black
10
87.8471
20
-164.691
11
87.8471
21
-164.691
0
LINE
8
Black
10
87.8471
20
-164.691
11
87.7167
21
-164.917
0
LINE
8
Black
10
87.7167
20
-164.917
11
87.7167
21
-164.917
0
LINE
8
Black
10
87.7167
20
-164.917
11
87.7155
21
-164.918
0
LINE
8
Black
10
87.7155
20
-164.918
11
87.5158
21
-165.085
0
LINE
8
Black
10
87.5158
20
-165.085
11
87.5143
21
-165.086
0
LINE
8
Black
10
87.5143
20
-165.086
11
87.5143
21
-165.086
0
LINE
8
Black
10
87.5143
20
-165.086
11
87.2695
21
-165.175
0
LINE
8
Black
10
87.2695
20
-165.175
11
87.2695
21
-165.175
0
LINE
8
Black
10
87.2695
20
-165.175
11
87.2678
21
-165.175
0
LINE
8
Black
10
87.2678
20
-165.175
11
87.0073
21
-165.175
0
LINE
8
Black
10
87.0073
20
-165.175
11
87.0073
21
-165.175
0
LINE
8
Black
10
87.0073
20
-165.175
11
87.0071
21
-165.175
0
LINE
8
Black
10
87.0071
20
-165.175
11
87.0056
21
-165.175
0
LINE
8
Black
10
87.0056
20
-165.175
11
86.7609
21
-165.085
0
LINE
8
Black
10
86.7609
20
-165.085
11
86.76
21
-165.085
0
LINE
8
Black
10
86.76
20
-165.085
11
86.7594
21
-165.084
0
LINE
8
Black
10
86.7594
20
-165.084
11
86.7594
21
-165.084
0
LINE
8
Black
10
86.7594
20
-165.084
11
86.56
21
-164.917
0
LINE
8
Black
10
86.56
20
-164.917
11
86.56
21
-164.917
0
LINE
8
Black
10
86.56
20
-164.917
11
86.5589
21
-164.915
0
LINE
8
Black
10
86.5589
20
-164.915
11
86.4289
21
-164.69
0
LINE
8
Black
10
86.4289
20
-164.69
11
86.4289
21
-164.69
0
LINE
8
Black
10
86.4289
20
-164.69
11
86.4287
21
-164.689
0
LINE
8
Black
10
86.4287
20
-164.689
11
86.4283
21
-164.688
0
LINE
8
Black
10
86.4283
20
-164.688
11
86.3833
21
-164.433
0
LINE
8
Black
10
86.3833
20
-164.433
11
86.3833
21
-164.432
0
LINE
8
Black
10
86.3833
20
-164.432
11
86.3833
21
-164.432
0
LINE
8
Black
10
86.3833
20
-164.432
11
86.3833
21
-160.432
0
LINE
8
Black
10
86.3833
20
-160.432
11
86.3833
21
-160.432
0
LINE
8
Black
10
86.3833
20
-160.432
11
86.3833
21
-160.431
0
LINE
8
Black
10
86.3833
20
-160.431
11
86.4288
21
-160.175
0
LINE
8
Black
10
86.4288
20
-160.175
11
86.4294
21
-160.173
0
LINE
8
Black
10
86.4294
20
-160.173
11
86.5598
21
-159.947
0
LINE
8
Black
10
86.5598
20
-159.947
11
86.561
21
-159.946
0
LINE
8
Black
10
86.561
20
-159.946
11
86.7607
21
-159.779
0
LINE
8
Black
10
86.7607
20
-159.779
11
86.7622
21
-159.778
0
LINE
8
Black
10
86.7622
20
-159.778
11
87.007
21
-159.689
0
LINE
8
Black
10
87.007
20
-159.689
11
87.007
21
-159.689
0
LINE
8
Black
10
87.007
20
-159.689
11
87.0087
21
-159.689
0
LINE
8
Black
10
87.0087
20
-159.689
11
87.2692
21
-159.689
0
LINE
8
Black
10
87.2692
20
-159.689
11
87.2709
21
-159.689
0
LINE
8
Black
10
87.2709
20
-159.689
11
87.5156
21
-159.779
0
LINE
8
Black
10
87.5156
20
-159.779
11
87.5171
21
-159.78
0
LINE
8
Black
10
87.5171
20
-159.78
11
87.7165
21
-159.947
0
LINE
8
Black
10
87.7165
20
-159.947
11
87.7176
21
-159.949
0
LINE
8
Black
10
87.7176
20
-159.949
11
87.8476
21
-160.174
0
LINE
8
Black
10
87.8476
20
-160.174
11
87.848
21
-160.175
0
LINE
8
Black
10
87.848
20
-160.175
11
87.8482
21
-160.176
0
LINE
8
Black
10
87.8482
20
-160.176
11
87.8482
21
-160.176
0
LINE
8
Black
10
87.8482
20
-160.176
11
87.8482
21
-160.176
0
LINE
8
Black
10
87.8482
20
-160.176
11
87.8932
21
-160.431
0
LINE
8
Black
10
87.8932
20
-160.431
11
87.8932
21
-160.432
0
LINE
8
Black
10
87.8932
20
-160.432
11
87.8933
21
-160.432
0
LINE
8
Black
10
87.8933
20
-160.432
11
87.8933
21
-164.432
0
LINE
8
Black
10
87.8933
20
-164.432
11
87.8932
21
-164.432
0
LINE
8
Black
10
87.8932
20
-164.432
11
87.8932
21
-164.433
0
LINE
8
Black
10
87.8932
20
-164.433
11
87.8833
21
-164.489
0
LINE
8
Black
10
87.8833
20
-164.489
11
87.8477
21
-164.689
0
LINE
8
Black
10
87.8385
20
-160.179
11
87.7094
21
-159.954
0
LINE
8
Black
10
87.7094
20
-159.954
11
87.5113
21
-159.788
0
LINE
8
Black
10
87.5113
20
-159.788
11
87.2683
21
-159.699
0
LINE
8
Black
10
87.2683
20
-159.699
11
87.0096
21
-159.699
0
LINE
8
Black
10
87.0096
20
-159.699
11
86.7664
21
-159.787
0
LINE
8
Black
10
86.7664
20
-159.787
11
86.5681
21
-159.953
0
LINE
8
Black
10
86.5681
20
-159.953
11
86.4385
21
-160.177
0
LINE
8
Black
10
86.4385
20
-160.177
11
86.3933
21
-160.432
0
LINE
8
Black
10
86.3933
20
-160.432
11
86.3933
21
-164.432
0
LINE
8
Black
10
86.3933
20
-164.432
11
86.438
21
-164.686
0
LINE
8
Black
10
86.438
20
-164.686
11
86.5672
21
-164.91
0
LINE
8
Black
10
86.5672
20
-164.91
11
86.7652
21
-165.076
0
LINE
8
Black
10
86.7652
20
-165.076
11
87.0082
21
-165.165
0
LINE
8
Black
10
87.0082
20
-165.165
11
87.2669
21
-165.165
0
LINE
8
Black
10
87.2669
20
-165.165
11
87.5101
21
-165.077
0
LINE
8
Black
10
87.5101
20
-165.077
11
87.7084
21
-164.911
0
LINE
8
Black
10
87.7084
20
-164.911
11
87.838
21
-164.687
0
LINE
8
Black
10
87.838
20
-164.687
11
87.8833
21
-164.432
0
LINE
8
Black
10
87.8833
20
-164.432
11
87.8833
21
-160.432
0
LINE
8
Black
10
87.8833
20
-160.432
11
87.8385
21
-160.179
0
LINE
8
Black
10
105.268
20
-153.669
11
105.268
21
-153.669
0
LINE
8
Black
10
105.268
20
-153.669
11
105.267
21
-153.67
0
LINE
8
Black
10
105.267
20
-153.67
11
105.267
21
-153.67
0
LINE
8
Black
10
105.267
20
-153.67
11
105.267
21
-153.67
0
LINE
8
Black
10
105.267
20
-153.67
11
104.919
21
-154.271
0
LINE
8
Black
10
104.919
20
-154.271
11
104.918
21
-154.273
0
LINE
8
Black
10
104.918
20
-154.273
11
104.385
21
-154.718
0
LINE
8
Black
10
104.385
20
-154.718
11
104.385
21
-154.718
0
LINE
8
Black
10
104.385
20
-154.718
11
104.384
21
-154.719
0
LINE
8
Black
10
104.384
20
-154.719
11
103.731
21
-154.956
0
LINE
8
Black
10
103.731
20
-154.956
11
103.73
21
-154.956
0
LINE
8
Black
10
103.73
20
-154.956
11
103.729
21
-154.956
0
LINE
8
Black
10
103.729
20
-154.956
11
103.382
21
-154.986
0
LINE
8
Black
10
103.382
20
-154.986
11
103.382
21
-154.986
0
LINE
8
Black
10
103.382
20
-154.986
11
103.382
21
-154.986
0
LINE
8
Black
10
103.382
20
-154.986
11
101.128
21
-154.983
0
LINE
8
Black
10
101.128
20
-154.983
11
101.042
21
-154.99
0
LINE
8
Black
10
101.042
20
-154.99
11
100.881
21
-155.049
0
LINE
8
Black
10
100.881
20
-155.049
11
100.749
21
-155.159
0
LINE
8
Black
10
100.749
20
-155.159
11
100.663
21
-155.308
0
LINE
8
Black
10
100.663
20
-155.308
11
100.632
21
-155.477
0
LINE
8
Black
10
100.632
20
-155.477
11
100.632
21
-155.677
0
LINE
8
Black
10
100.632
20
-155.677
11
100.632
21
-155.677
0
LINE
8
Black
10
100.632
20
-155.677
11
100.632
21
-155.679
0
LINE
8
Black
10
100.632
20
-155.679
11
100.589
21
-155.847
0
LINE
8
Black
10
100.589
20
-155.847
11
100.588
21
-155.848
0
LINE
8
Black
10
100.588
20
-155.848
11
100.588
21
-155.848
0
LINE
8
Black
10
100.588
20
-155.848
11
100.491
21
-155.992
0
LINE
8
Black
10
100.491
20
-155.992
11
100.491
21
-155.992
0
LINE
8
Black
10
100.491
20
-155.992
11
100.49
21
-155.992
0
LINE
8
Black
10
100.49
20
-155.992
11
100.489
21
-155.993
0
LINE
8
Black
10
100.489
20
-155.993
11
100.348
21
-156.095
0
LINE
8
Black
10
100.348
20
-156.095
11
100.348
21
-156.095
0
LINE
8
Black
10
100.348
20
-156.095
11
100.347
21
-156.095
0
LINE
8
Black
10
100.347
20
-156.095
11
100.18
21
-156.142
0
LINE
8
Black
10
100.18
20
-156.142
11
100.179
21
-156.142
0
LINE
8
Black
10
100.179
20
-156.142
11
100.179
21
-156.143
0
LINE
8
Black
10
100.179
20
-156.143
11
100.144
21
-156.145
0
LINE
8
Black
10
100.144
20
-156.145
11
100.144
21
-156.145
0
LINE
8
Black
10
100.144
20
-156.145
11
100.143
21
-156.145
0
LINE
8
Black
10
100.143
20
-156.145
11
91.1434
21
-156.158
0
LINE
8
Black
10
91.1434
20
-156.158
11
91.143
21
-156.158
0
LINE
8
Black
10
91.143
20
-156.158
11
91.1418
21
-156.158
0
LINE
8
Black
10
91.1418
20
-156.158
11
90.9708
21
-156.128
0
LINE
8
Black
10
90.9708
20
-156.128
11
90.9708
21
-156.128
0
LINE
8
Black
10
90.9708
20
-156.128
11
90.9703
21
-156.128
0
LINE
8
Black
10
90.9703
20
-156.128
11
90.9691
21
-156.127
0
LINE
8
Black
10
90.9691
20
-156.127
11
90.8187
21
-156.04
0
LINE
8
Black
10
90.8187
20
-156.04
11
90.818
21
-156.04
0
LINE
8
Black
10
90.818
20
-156.04
11
90.8174
21
-156.039
0
LINE
8
Black
10
90.8174
20
-156.039
11
90.8174
21
-156.039
0
LINE
8
Black
10
90.8174
20
-156.039
11
90.7058
21
-155.906
0
LINE
8
Black
10
90.7058
20
-155.906
11
90.7058
21
-155.906
0
LINE
8
Black
10
90.7058
20
-155.906
11
90.7056
21
-155.906
0
LINE
8
Black
10
90.7056
20
-155.906
11
90.7049
21
-155.905
0
LINE
8
Black
10
90.7049
20
-155.905
11
90.6455
21
-155.742
0
LINE
8
Black
10
90.6455
20
-155.742
11
90.6454
21
-155.741
0
LINE
8
Black
10
90.6454
20
-155.741
11
90.6453
21
-155.74
0
LINE
8
Black
10
90.6453
20
-155.74
11
90.6377
21
-155.654
0
LINE
8
Black
10
90.6377
20
-155.654
11
90.6377
21
-155.654
0
LINE
8
Black
10
90.6377
20
-155.654
11
90.6377
21
-155.654
0
LINE
8
Black
10
90.6377
20
-155.654
11
90.6374
21
-155.454
0
LINE
8
Black
10
90.6374
20
-155.454
11
90.6299
21
-155.369
0
LINE
8
Black
10
90.6299
20
-155.369
11
90.571
21
-155.207
0
LINE
8
Black
10
90.571
20
-155.207
11
90.4606
21
-155.076
0
LINE
8
Black
10
90.4606
20
-155.076
11
90.3118
21
-154.99
0
LINE
8
Black
10
90.3118
20
-154.99
11
90.1418
21
-154.96
0
LINE
8
Black
10
90.1418
20
-154.96
11
90.1416
21
-154.96
0
LINE
8
Black
10
90.1416
20
-154.96
11
87.8883
21
-154.963
0
LINE
8
Black
10
87.8883
20
-154.963
11
87.8878
21
-154.963
0
LINE
8
Black
10
87.8878
20
-154.963
11
87.8874
21
-154.963
0
LINE
8
Black
10
87.8874
20
-154.963
11
87.887
21
-154.963
0
LINE
8
Black
10
87.887
20
-154.963
11
87.8865
21
-154.963
0
LINE
8
Black
10
87.8865
20
-154.963
11
87.8862
21
-154.962
0
LINE
8
Black
10
87.8862
20
-154.962
11
87.8858
21
-154.962
0
LINE
8
Black
10
87.8858
20
-154.962
11
87.8854
21
-154.962
0
LINE
8
Black
10
87.8854
20
-154.962
11
87.885
21
-154.962
0
LINE
8
Black
10
87.885
20
-154.962
11
87.8848
21
-154.961
0
LINE
8
Black
10
87.8848
20
-154.961
11
87.8844
21
-154.961
0
LINE
8
Black
10
87.8844
20
-154.961
11
87.8842
21
-154.961
0
LINE
8
Black
10
87.8842
20
-154.961
11
87.8839
21
-154.96
0
LINE
8
Black
10
87.8839
20
-154.96
11
87.8838
21
-154.96
0
LINE
8
Black
10
87.8838
20
-154.96
11
87.8836
21
-154.96
0
LINE
8
Black
10
87.8836
20
-154.96
11
87.8835
21
-154.959
0
LINE
8
Black
10
87.8835
20
-154.959
11
87.8833
21
-154.959
0
LINE
8
Black
10
87.8833
20
-154.959
11
87.8833
21
-154.958
0
LINE
8
Black
10
87.8833
20
-154.958
11
87.8833
21
-154.958
0
LINE
8
Black
10
87.8833
20
-154.958
11
87.8833
21
-145.906
0
LINE
8
Black
10
87.8833
20
-145.906
11
87.8833
21
-145.906
0
LINE
8
Black
10
87.8833
20
-145.906
11
87.8833
21
-145.905
0
LINE
8
Black
10
87.8833
20
-145.905
11
87.8835
21
-145.905
0
LINE
8
Black
10
87.8835
20
-145.905
11
87.8836
21
-145.904
0
LINE
8
Black
10
87.8836
20
-145.904
11
87.8838
21
-145.904
0
LINE
8
Black
10
87.8838
20
-145.904
11
87.8839
21
-145.904
0
LINE
8
Black
10
87.8839
20
-145.904
11
87.8842
21
-145.903
0
LINE
8
Black
10
87.8842
20
-145.903
11
87.8844
21
-145.903
0
LINE
8
Black
10
87.8844
20
-145.903
11
87.8848
21
-145.903
0
LINE
8
Black
10
87.8848
20
-145.903
11
87.885
21
-145.902
0
LINE
8
Black
10
87.885
20
-145.902
11
87.8854
21
-145.902
0
LINE
8
Black
10
87.8854
20
-145.902
11
87.8858
21
-145.902
0
LINE
8
Black
10
87.8858
20
-145.902
11
87.8862
21
-145.902
0
LINE
8
Black
10
87.8862
20
-145.902
11
87.8865
21
-145.901
0
LINE
8
Black
10
87.8865
20
-145.901
11
87.887
21
-145.901
0
LINE
8
Black
10
87.887
20
-145.901
11
87.8874
21
-145.901
0
LINE
8
Black
10
87.8874
20
-145.901
11
87.8878
21
-145.901
0
LINE
8
Black
10
87.8878
20
-145.901
11
87.8883
21
-145.901
0
LINE
8
Black
10
87.8883
20
-145.901
11
90.1414
21
-145.904
0
LINE
8
Black
10
90.1414
20
-145.904
11
90.2274
21
-145.897
0
LINE
8
Black
10
90.2274
20
-145.897
11
90.3892
21
-145.838
0
LINE
8
Black
10
90.3892
20
-145.838
11
90.521
21
-145.728
0
LINE
8
Black
10
90.521
20
-145.728
11
90.6072
21
-145.579
0
LINE
8
Black
10
90.6072
20
-145.579
11
90.6374
21
-145.41
0
LINE
8
Black
10
90.6374
20
-145.41
11
90.6377
21
-145.21
0
LINE
8
Black
10
90.6377
20
-145.21
11
90.6377
21
-145.21
0
LINE
8
Black
10
90.6377
20
-145.21
11
90.6377
21
-145.209
0
LINE
8
Black
10
90.6377
20
-145.209
11
90.6684
21
-145.038
0
LINE
8
Black
10
90.6684
20
-145.038
11
90.669
21
-145.036
0
LINE
8
Black
10
90.669
20
-145.036
11
90.7563
21
-144.886
0
LINE
8
Black
10
90.7563
20
-144.886
11
90.7574
21
-144.885
0
LINE
8
Black
10
90.7574
20
-144.885
11
90.8908
21
-144.773
0
LINE
8
Black
10
90.8908
20
-144.773
11
90.8923
21
-144.772
0
LINE
8
Black
10
90.8923
20
-144.772
11
91.0557
21
-144.714
0
LINE
8
Black
10
91.0557
20
-144.714
11
91.0563
21
-144.713
0
LINE
8
Black
10
91.0563
20
-144.713
11
91.057
21
-144.713
0
LINE
8
Black
10
91.057
20
-144.713
11
91.143
21
-144.706
0
LINE
8
Black
10
91.143
20
-144.706
11
91.1432
21
-144.706
0
LINE
8
Black
10
91.1432
20
-144.706
11
91.1434
21
-144.706
0
LINE
8
Black
10
91.1434
20
-144.706
11
100.143
21
-144.719
0
LINE
8
Black
10
100.143
20
-144.719
11
100.144
21
-144.719
0
LINE
8
Black
10
100.144
20
-144.719
11
100.144
21
-144.719
0
LINE
8
Black
10
100.144
20
-144.719
11
100.315
21
-144.75
0
LINE
8
Black
10
100.315
20
-144.75
11
100.317
21
-144.75
0
LINE
8
Black
10
100.317
20
-144.75
11
100.467
21
-144.837
0
LINE
8
Black
10
100.467
20
-144.837
11
100.468
21
-144.838
0
LINE
8
Black
10
100.468
20
-144.838
11
100.58
21
-144.972
0
LINE
8
Black
10
100.58
20
-144.972
11
100.581
21
-144.973
0
LINE
8
Black
10
100.581
20
-144.973
11
100.64
21
-145.136
0
LINE
8
Black
10
100.64
20
-145.136
11
100.64
21
-145.137
0
LINE
8
Black
10
100.64
20
-145.137
11
100.64
21
-145.138
0
LINE
8
Black
10
100.64
20
-145.138
11
100.648
21
-145.225
0
LINE
8
Black
10
100.648
20
-145.225
11
100.648
21
-145.225
0
LINE
8
Black
10
100.648
20
-145.225
11
100.648
21
-145.225
0
LINE
8
Black
10
100.648
20
-145.225
11
100.647
21
-145.425
0
LINE
8
Black
10
100.647
20
-145.425
11
100.655
21
-145.51
0
LINE
8
Black
10
100.655
20
-145.51
11
100.713
21
-145.672
0
LINE
8
Black
10
100.713
20
-145.672
11
100.823
21
-145.804
0
LINE
8
Black
10
100.823
20
-145.804
11
100.972
21
-145.89
0
LINE
8
Black
10
100.972
20
-145.89
11
101.141
21
-145.921
0
LINE
8
Black
10
101.141
20
-145.921
11
101.142
21
-145.921
0
LINE
8
Black
10
101.142
20
-145.921
11
103.395
21
-145.924
0
LINE
8
Black
10
103.395
20
-145.924
11
103.397
21
-145.924
0
LINE
8
Black
10
103.397
20
-145.924
11
103.397
21
-145.924
0
LINE
8
Black
10
103.397
20
-145.924
11
103.398
21
-145.924
0
LINE
8
Black
10
103.398
20
-145.924
11
103.399
21
-145.924
0
LINE
8
Black
10
103.399
20
-145.924
11
104.083
21
-146.047
0
LINE
8
Black
10
104.083
20
-146.047
11
104.085
21
-146.048
0
LINE
8
Black
10
104.085
20
-146.048
11
104.685
21
-146.397
0
LINE
8
Black
10
104.685
20
-146.397
11
104.686
21
-146.398
0
LINE
8
Black
10
104.686
20
-146.398
11
105.131
21
-146.931
0
LINE
8
Black
10
105.131
20
-146.931
11
105.132
21
-146.932
0
LINE
8
Black
10
105.132
20
-146.932
11
105.132
21
-146.933
0
LINE
8
Black
10
105.132
20
-146.933
11
105.132
21
-146.933
0
LINE
8
Black
10
105.132
20
-146.933
11
105.367
21
-147.586
0
LINE
8
Black
10
105.367
20
-147.586
11
105.368
21
-147.587
0
LINE
8
Black
10
105.368
20
-147.587
11
105.368
21
-147.588
0
LINE
8
Black
10
105.368
20
-147.588
11
105.397
21
-147.932
0
LINE
8
Black
10
105.397
20
-147.932
11
105.397
21
-147.932
0
LINE
8
Black
10
105.397
20
-147.932
11
105.397
21
-147.932
0
LINE
8
Black
10
105.397
20
-147.932
11
105.389
21
-152.984
0
LINE
8
Black
10
105.389
20
-152.984
11
105.389
21
-152.984
0
LINE
8
Black
10
105.389
20
-152.984
11
105.389
21
-152.985
0
LINE
8
Black
10
105.389
20
-152.985
11
105.387
21
-152.998
0
LINE
8
Black
10
105.387
20
-152.998
11
105.268
21
-153.669
0
LINE
8
Black
10
105.123
20
-146.937
11
104.679
21
-146.405
0
LINE
8
Black
10
104.679
20
-146.405
11
104.08
21
-146.057
0
LINE
8
Black
10
104.08
20
-146.057
11
103.398
21
-145.934
0
LINE
8
Black
10
103.398
20
-145.934
11
103.397
21
-145.934
0
LINE
8
Black
10
103.397
20
-145.934
11
103.397
21
-145.934
0
LINE
8
Black
10
103.397
20
-145.934
11
103.395
21
-145.934
0
LINE
8
Black
10
103.395
20
-145.934
11
101.142
21
-145.931
0
LINE
8
Black
10
101.142
20
-145.931
11
101.141
21
-145.931
0
LINE
8
Black
10
101.141
20
-145.931
11
101.14
21
-145.931
0
LINE
8
Black
10
101.14
20
-145.931
11
100.969
21
-145.9
0
LINE
8
Black
10
100.969
20
-145.9
11
100.967
21
-145.899
0
LINE
8
Black
10
100.967
20
-145.899
11
100.817
21
-145.812
0
LINE
8
Black
10
100.817
20
-145.812
11
100.816
21
-145.811
0
LINE
8
Black
10
100.816
20
-145.811
11
100.705
21
-145.678
0
LINE
8
Black
10
100.705
20
-145.678
11
100.704
21
-145.676
0
LINE
8
Black
10
100.704
20
-145.676
11
100.645
21
-145.513
0
LINE
8
Black
10
100.645
20
-145.513
11
100.645
21
-145.512
0
LINE
8
Black
10
100.645
20
-145.512
11
100.645
21
-145.511
0
LINE
8
Black
10
100.645
20
-145.511
11
100.637
21
-145.425
0
LINE
8
Black
10
100.637
20
-145.425
11
100.637
21
-145.425
0
LINE
8
Black
10
100.637
20
-145.425
11
100.637
21
-145.425
0
LINE
8
Black
10
100.637
20
-145.425
11
100.638
21
-145.225
0
LINE
8
Black
10
100.638
20
-145.225
11
100.63
21
-145.139
0
LINE
8
Black
10
100.63
20
-145.139
11
100.572
21
-144.977
0
LINE
8
Black
10
100.572
20
-144.977
11
100.461
21
-144.846
0
LINE
8
Black
10
100.461
20
-144.846
11
100.313
21
-144.759
0
LINE
8
Black
10
100.313
20
-144.759
11
100.143
21
-144.729
0
LINE
8
Black
10
100.143
20
-144.729
11
91.1436
21
-144.716
0
LINE
8
Black
10
91.1436
20
-144.716
11
91.0585
21
-144.723
0
LINE
8
Black
10
91.0585
20
-144.723
11
90.8965
21
-144.782
0
LINE
8
Black
10
90.8965
20
-144.782
11
90.7645
21
-144.892
0
LINE
8
Black
10
90.7645
20
-144.892
11
90.6781
21
-145.04
0
LINE
8
Black
10
90.6781
20
-145.04
11
90.6476
21
-145.21
0
LINE
8
Black
10
90.6476
20
-145.21
11
90.6477
21
-145.21
0
LINE
8
Black
10
90.6477
20
-145.21
11
90.6474
21
-145.41
0
LINE
8
Black
10
90.6474
20
-145.41
11
90.6473
21
-145.411
0
LINE
8
Black
10
90.6473
20
-145.411
11
90.6473
21
-145.411
0
LINE
8
Black
10
90.6473
20
-145.411
11
90.6169
21
-145.582
0
LINE
8
Black
10
90.6169
20
-145.582
11
90.6169
21
-145.582
0
LINE
8
Black
10
90.6169
20
-145.582
11
90.6164
21
-145.583
0
LINE
8
Black
10
90.6164
20
-145.583
11
90.6163
21
-145.584
0
LINE
8
Black
10
90.6163
20
-145.584
11
90.6163
21
-145.584
0
LINE
8
Black
10
90.6163
20
-145.584
11
90.5292
21
-145.734
0
LINE
8
Black
10
90.5292
20
-145.734
11
90.5281
21
-145.735
0
LINE
8
Black
10
90.5281
20
-145.735
11
90.3949
21
-145.847
0
LINE
8
Black
10
90.3949
20
-145.847
11
90.3949
21
-145.847
0
LINE
8
Black
10
90.3949
20
-145.847
11
90.3934
21
-145.847
0
LINE
8
Black
10
90.3934
20
-145.847
11
90.2302
21
-145.907
0
LINE
8
Black
10
90.2302
20
-145.907
11
90.2295
21
-145.907
0
LINE
8
Black
10
90.2295
20
-145.907
11
90.2289
21
-145.907
0
LINE
8
Black
10
90.2289
20
-145.907
11
90.142
21
-145.914
0
LINE
8
Black
10
90.142
20
-145.914
11
90.1418
21
-145.914
0
LINE
8
Black
10
90.1418
20
-145.914
11
90.1416
21
-145.914
0
LINE
8
Black
10
90.1416
20
-145.914
11
87.8933
21
-145.911
0
LINE
8
Black
10
87.8933
20
-145.911
11
87.8933
21
-154.953
0
LINE
8
Black
10
87.8933
20
-154.953
11
90.1416
21
-154.95
0
LINE
8
Black
10
90.1416
20
-154.95
11
90.142
21
-154.95
0
LINE
8
Black
10
90.142
20
-154.95
11
90.1434
21
-154.95
0
LINE
8
Black
10
90.1434
20
-154.95
11
90.3144
21
-154.98
0
LINE
8
Black
10
90.3144
20
-154.98
11
90.316
21
-154.981
0
LINE
8
Black
10
90.316
20
-154.981
11
90.4664
21
-155.067
0
LINE
8
Black
10
90.4664
20
-155.067
11
90.4671
21
-155.068
0
LINE
8
Black
10
90.4671
20
-155.068
11
90.4677
21
-155.068
0
LINE
8
Black
10
90.4677
20
-155.068
11
90.5793
21
-155.202
0
LINE
8
Black
10
90.5793
20
-155.202
11
90.5801
21
-155.203
0
LINE
8
Black
10
90.5801
20
-155.203
11
90.5801
21
-155.203
0
LINE
8
Black
10
90.5801
20
-155.203
11
90.6395
21
-155.366
0
LINE
8
Black
10
90.6395
20
-155.366
11
90.6396
21
-155.367
0
LINE
8
Black
10
90.6396
20
-155.367
11
90.6398
21
-155.368
0
LINE
8
Black
10
90.6398
20
-155.368
11
90.6473
21
-155.453
0
LINE
8
Black
10
90.6473
20
-155.453
11
90.6473
21
-155.454
0
LINE
8
Black
10
90.6473
20
-155.454
11
90.6474
21
-155.454
0
LINE
8
Black
10
90.6474
20
-155.454
11
90.6477
21
-155.654
0
LINE
8
Black
10
90.6477
20
-155.654
11
90.6552
21
-155.739
0
LINE
8
Black
10
90.6552
20
-155.739
11
90.714
21
-155.901
0
LINE
8
Black
10
90.714
20
-155.901
11
90.8245
21
-156.032
0
LINE
8
Black
10
90.8245
20
-156.032
11
90.9734
21
-156.118
0
LINE
8
Black
10
90.9734
20
-156.118
11
91.1432
21
-156.148
0
LINE
8
Black
10
91.1432
20
-156.148
11
91.1434
21
-156.148
0
LINE
8
Black
10
91.1434
20
-156.148
11
100.143
21
-156.135
0
LINE
8
Black
10
100.143
20
-156.135
11
100.177
21
-156.133
0
LINE
8
Black
10
100.177
20
-156.133
11
100.343
21
-156.086
0
LINE
8
Black
10
100.343
20
-156.086
11
100.483
21
-155.986
0
LINE
8
Black
10
100.483
20
-155.986
11
100.58
21
-155.844
0
LINE
8
Black
10
100.58
20
-155.844
11
100.622
21
-155.677
0
LINE
8
Black
10
100.622
20
-155.677
11
100.622
21
-155.477
0
LINE
8
Black
10
100.622
20
-155.477
11
100.623
21
-155.476
0
LINE
8
Black
10
100.623
20
-155.476
11
100.623
21
-155.476
0
LINE
8
Black
10
100.623
20
-155.476
11
100.653
21
-155.305
0
LINE
8
Black
10
100.653
20
-155.305
11
100.654
21
-155.303
0
LINE
8
Black
10
100.654
20
-155.303
11
100.741
21
-155.153
0
LINE
8
Black
10
100.741
20
-155.153
11
100.742
21
-155.152
0
LINE
8
Black
10
100.742
20
-155.152
11
100.875
21
-155.04
0
LINE
8
Black
10
100.875
20
-155.04
11
100.876
21
-155.04
0
LINE
8
Black
10
100.876
20
-155.04
11
101.04
21
-154.98
0
LINE
8
Black
10
101.04
20
-154.98
11
101.04
21
-154.98
0
LINE
8
Black
10
101.04
20
-154.98
11
101.041
21
-154.98
0
LINE
8
Black
10
101.041
20
-154.98
11
101.128
21
-154.973
0
LINE
8
Black
10
101.128
20
-154.973
11
101.128
21
-154.973
0
LINE
8
Black
10
101.128
20
-154.973
11
101.128
21
-154.973
0
LINE
8
Black
10
101.128
20
-154.973
11
103.381
21
-154.976
0
LINE
8
Black
10
103.381
20
-154.976
11
103.728
21
-154.946
0
LINE
8
Black
10
103.728
20
-154.946
11
104.379
21
-154.71
0
LINE
8
Black
10
104.379
20
-154.71
11
104.911
21
-154.266
0
LINE
8
Black
10
104.911
20
-154.266
11
105.258
21
-153.666
0
LINE
8
Black
10
105.258
20
-153.666
11
105.379
21
-152.983
0
LINE
8
Black
10
105.379
20
-152.983
11
105.387
21
-147.932
0
LINE
8
Black
10
105.387
20
-147.932
11
105.358
21
-147.589
0
LINE
8
Black
10
105.358
20
-147.589
11
105.123
21
-146.937
0
LINE
8
Black
10
127.89
20
-154.963
11
127.889
21
-154.963
0
LINE
8
Black
10
127.889
20
-154.963
11
127.889
21
-154.963
0
LINE
8
Black
10
127.889
20
-154.963
11
127.888
21
-154.963
0
LINE
8
Black
10
127.888
20
-154.963
11
125.635
21
-154.96
0
LINE
8
Black
10
125.635
20
-154.96
11
125.549
21
-154.967
0
LINE
8
Black
10
125.549
20
-154.967
11
125.387
21
-155.026
0
LINE
8
Black
10
125.387
20
-155.026
11
125.255
21
-155.136
0
LINE
8
Black
10
125.255
20
-155.136
11
125.169
21
-155.285
0
LINE
8
Black
10
125.169
20
-155.285
11
125.139
21
-155.454
0
LINE
8
Black
10
125.139
20
-155.454
11
125.139
21
-155.654
0
LINE
8
Black
10
125.139
20
-155.654
11
125.139
21
-155.654
0
LINE
8
Black
10
125.139
20
-155.654
11
125.139
21
-155.655
0
LINE
8
Black
10
125.139
20
-155.655
11
125.11
21
-155.827
0
LINE
8
Black
10
125.11
20
-155.827
11
125.11
21
-155.827
0
LINE
8
Black
10
125.11
20
-155.827
11
125.109
21
-155.828
0
LINE
8
Black
10
125.109
20
-155.828
11
125.109
21
-155.828
0
LINE
8
Black
10
125.109
20
-155.828
11
125.109
21
-155.828
0
LINE
8
Black
10
125.109
20
-155.828
11
125.023
21
-155.979
0
LINE
8
Black
10
125.023
20
-155.979
11
125.022
21
-155.981
0
LINE
8
Black
10
125.022
20
-155.981
11
124.89
21
-156.093
0
LINE
8
Black
10
124.89
20
-156.093
11
124.889
21
-156.094
0
LINE
8
Black
10
124.889
20
-156.094
11
124.889
21
-156.094
0
LINE
8
Black
10
124.889
20
-156.094
11
124.726
21
-156.155
0
LINE
8
Black
10
124.726
20
-156.155
11
124.725
21
-156.155
0
LINE
8
Black
10
124.725
20
-156.155
11
124.725
21
-156.155
0
LINE
8
Black
10
124.725
20
-156.155
11
124.642
21
-156.163
0
LINE
8
Black
10
124.642
20
-156.163
11
124.642
21
-156.163
0
LINE
8
Black
10
124.642
20
-156.163
11
124.642
21
-156.163
0
LINE
8
Black
10
124.642
20
-156.163
11
115.642
21
-156.163
0
LINE
8
Black
10
115.642
20
-156.163
11
115.641
21
-156.163
0
LINE
8
Black
10
115.641
20
-156.163
11
115.64
21
-156.163
0
LINE
8
Black
10
115.64
20
-156.163
11
115.469
21
-156.132
0
LINE
8
Black
10
115.469
20
-156.132
11
115.467
21
-156.132
0
LINE
8
Black
10
115.467
20
-156.132
11
115.317
21
-156.045
0
LINE
8
Black
10
115.317
20
-156.045
11
115.317
21
-156.044
0
LINE
8
Black
10
115.317
20
-156.044
11
115.316
21
-156.044
0
LINE
8
Black
10
115.316
20
-156.044
11
115.204
21
-155.91
0
LINE
8
Black
10
115.204
20
-155.91
11
115.203
21
-155.909
0
LINE
8
Black
10
115.203
20
-155.909
11
115.144
21
-155.746
0
LINE
8
Black
10
115.144
20
-155.746
11
115.144
21
-155.745
0
LINE
8
Black
10
115.144
20
-155.745
11
115.144
21
-155.744
0
LINE
8
Black
10
115.144
20
-155.744
11
115.137
21
-155.658
0
LINE
8
Black
10
115.137
20
-155.658
11
115.137
21
-155.658
0
LINE
8
Black
10
115.137
20
-155.658
11
115.137
21
-155.658
0
LINE
8
Black
10
115.137
20
-155.658
11
115.137
21
-155.458
0
LINE
8
Black
10
115.137
20
-155.458
11
115.129
21
-155.373
0
LINE
8
Black
10
115.129
20
-155.373
11
115.071
21
-155.211
0
LINE
8
Black
10
115.071
20
-155.211
11
114.96
21
-155.079
0
LINE
8
Black
10
114.96
20
-155.079
11
114.812
21
-154.993
0
LINE
8
Black
10
114.812
20
-154.993
11
114.642
21
-154.963
0
LINE
8
Black
10
114.642
20
-154.963
11
114.642
21
-154.963
0
LINE
8
Black
10
114.642
20
-154.963
11
112.388
21
-154.963
0
LINE
8
Black
10
112.388
20
-154.963
11
112.387
21
-154.963
0
LINE
8
Black
10
112.387
20
-154.963
11
112.386
21
-154.963
0
LINE
8
Black
10
112.386
20
-154.963
11
112.386
21
-154.963
0
LINE
8
Black
10
112.386
20
-154.963
11
112.384
21
-154.963
0
LINE
8
Black
10
112.384
20
-154.963
11
111.7
21
-154.841
0
LINE
8
Black
10
111.7
20
-154.841
11
111.699
21
-154.841
0
LINE
8
Black
10
111.699
20
-154.841
11
111.698
21
-154.84
0
LINE
8
Black
10
111.698
20
-154.84
11
111.097
21
-154.492
0
LINE
8
Black
10
111.097
20
-154.492
11
111.096
21
-154.491
0
LINE
8
Black
10
111.096
20
-154.491
11
110.651
21
-153.958
0
LINE
8
Black
10
110.651
20
-153.958
11
110.65
21
-153.957
0
LINE
8
Black
10
110.65
20
-153.957
11
110.413
21
-153.304
0
LINE
8
Black
10
110.413
20
-153.304
11
110.413
21
-153.303
0
LINE
8
Black
10
110.413
20
-153.303
11
110.413
21
-153.302
0
LINE
8
Black
10
110.413
20
-153.302
11
110.383
21
-152.958
0
LINE
8
Black
10
110.383
20
-152.958
11
110.383
21
-152.958
0
LINE
8
Black
10
110.383
20
-152.958
11
110.383
21
-152.958
0
LINE
8
Black
10
110.383
20
-152.958
11
110.383
21
-147.906
0
LINE
8
Black
10
110.383
20
-147.906
11
110.384
21
-147.904
0
LINE
8
Black
10
110.384
20
-147.904
11
110.384
21
-147.904
0
LINE
8
Black
10
110.384
20
-147.904
11
110.383
21
-147.903
0
LINE
8
Black
10
110.383
20
-147.903
11
110.383
21
-147.902
0
LINE
8
Black
10
110.383
20
-147.902
11
110.505
21
-147.218
0
LINE
8
Black
10
110.505
20
-147.218
11
110.506
21
-147.216
0
LINE
8
Black
10
110.506
20
-147.216
11
110.854
21
-146.615
0
LINE
8
Black
10
110.854
20
-146.615
11
110.855
21
-146.614
0
LINE
8
Black
10
110.855
20
-146.614
11
111.388
21
-146.168
0
LINE
8
Black
10
111.388
20
-146.168
11
111.39
21
-146.168
0
LINE
8
Black
10
111.39
20
-146.168
11
112.043
21
-145.931
0
LINE
8
Black
10
112.043
20
-145.931
11
112.043
21
-145.931
0
LINE
8
Black
10
112.043
20
-145.931
11
112.044
21
-145.931
0
LINE
8
Black
10
112.044
20
-145.931
11
112.388
21
-145.901
0
LINE
8
Black
10
112.388
20
-145.901
11
112.388
21
-145.901
0
LINE
8
Black
10
112.388
20
-145.901
11
112.388
21
-145.901
0
LINE
8
Black
10
112.388
20
-145.901
11
114.641
21
-145.901
0
LINE
8
Black
10
114.641
20
-145.901
11
114.726
21
-145.894
0
LINE
8
Black
10
114.726
20
-145.894
11
114.888
21
-145.835
0
LINE
8
Black
10
114.888
20
-145.835
11
115.02
21
-145.725
0
LINE
8
Black
10
115.02
20
-145.725
11
115.106
21
-145.576
0
LINE
8
Black
10
115.106
20
-145.576
11
115.137
21
-145.406
0
LINE
8
Black
10
115.137
20
-145.406
11
115.137
21
-145.406
0
LINE
8
Black
10
115.137
20
-145.406
11
115.137
21
-145.206
0
LINE
8
Black
10
115.137
20
-145.206
11
115.137
21
-145.206
0
LINE
8
Black
10
115.137
20
-145.206
11
115.137
21
-145.204
0
LINE
8
Black
10
115.137
20
-145.204
11
115.167
21
-145.033
0
LINE
8
Black
10
115.167
20
-145.033
11
115.168
21
-145.032
0
LINE
8
Black
10
115.168
20
-145.032
11
115.255
21
-144.882
0
LINE
8
Black
10
115.255
20
-144.882
11
115.256
21
-144.88
0
LINE
8
Black
10
115.256
20
-144.88
11
115.389
21
-144.769
0
LINE
8
Black
10
115.389
20
-144.769
11
115.391
21
-144.768
0
LINE
8
Black
10
115.391
20
-144.768
11
115.554
21
-144.709
0
LINE
8
Black
10
115.554
20
-144.709
11
115.555
21
-144.709
0
LINE
8
Black
10
115.555
20
-144.709
11
115.555
21
-144.709
0
LINE
8
Black
10
115.555
20
-144.709
11
115.641
21
-144.701
0
LINE
8
Black
10
115.641
20
-144.701
11
115.641
21
-144.701
0
LINE
8
Black
10
115.641
20
-144.701
11
115.642
21
-144.701
0
LINE
8
Black
10
115.642
20
-144.701
11
124.642
21
-144.701
0
LINE
8
Black
10
124.642
20
-144.701
11
124.642
21
-144.701
0
LINE
8
Black
10
124.642
20
-144.701
11
124.643
21
-144.701
0
LINE
8
Black
10
124.643
20
-144.701
11
124.814
21
-144.732
0
LINE
8
Black
10
124.814
20
-144.732
11
124.815
21
-144.732
0
LINE
8
Black
10
124.815
20
-144.732
11
124.816
21
-144.732
0
LINE
8
Black
10
124.816
20
-144.732
11
124.966
21
-144.819
0
LINE
8
Black
10
124.966
20
-144.819
11
124.967
21
-144.82
0
LINE
8
Black
10
124.967
20
-144.82
11
124.967
21
-144.82
0
LINE
8
Black
10
124.967
20
-144.82
11
125.079
21
-144.954
0
LINE
8
Black
10
125.079
20
-144.954
11
125.08
21
-144.955
0
LINE
8
Black
10
125.08
20
-144.955
11
125.139
21
-145.118
0
LINE
8
Black
10
125.139
20
-145.118
11
125.139
21
-145.119
0
LINE
8
Black
10
125.139
20
-145.119
11
125.139
21
-145.12
0
LINE
8
Black
10
125.139
20
-145.12
11
125.147
21
-145.206
0
LINE
8
Black
10
125.147
20
-145.206
11
125.147
21
-145.206
0
LINE
8
Black
10
125.147
20
-145.206
11
125.147
21
-145.206
0
LINE
8
Black
10
125.147
20
-145.206
11
125.147
21
-145.406
0
LINE
8
Black
10
125.147
20
-145.406
11
125.154
21
-145.491
0
LINE
8
Black
10
125.154
20
-145.491
11
125.213
21
-145.653
0
LINE
8
Black
10
125.213
20
-145.653
11
125.323
21
-145.785
0
LINE
8
Black
10
125.323
20
-145.785
11
125.472
21
-145.871
0
LINE
8
Black
10
125.472
20
-145.871
11
125.641
21
-145.901
0
LINE
8
Black
10
125.641
20
-145.901
11
125.642
21
-145.901
0
LINE
8
Black
10
125.642
20
-145.901
11
127.895
21
-145.901
0
LINE
8
Black
10
127.895
20
-145.901
11
127.895
21
-145.901
0
LINE
8
Black
10
127.895
20
-145.901
11
127.896
21
-145.901
0
LINE
8
Black
10
127.896
20
-145.901
11
127.896
21
-145.901
0
LINE
8
Black
10
127.896
20
-145.901
11
127.897
21
-145.901
0
LINE
8
Black
10
127.897
20
-145.901
11
127.897
21
-145.902
0
LINE
8
Black
10
127.897
20
-145.902
11
127.897
21
-145.902
0
LINE
8
Black
10
127.897
20
-145.902
11
127.898
21
-145.902
0
LINE
8
Black
10
127.898
20
-145.902
11
127.898
21
-145.902
0
LINE
8
Black
10
127.898
20
-145.902
11
127.898
21
-145.903
0
LINE
8
Black
10
127.898
20
-145.903
11
127.899
21
-145.903
0
LINE
8
Black
10
127.899
20
-145.903
11
127.899
21
-145.903
0
LINE
8
Black
10
127.899
20
-145.903
11
127.899
21
-145.904
0
LINE
8
Black
10
127.899
20
-145.904
11
127.899
21
-145.904
0
LINE
8
Black
10
127.899
20
-145.904
11
127.9
21
-145.904
0
LINE
8
Black
10
127.9
20
-145.904
11
127.9
21
-145.905
0
LINE
8
Black
10
127.9
20
-145.905
11
127.9
21
-145.905
0
LINE
8
Black
10
127.9
20
-145.905
11
127.9
21
-145.906
0
LINE
8
Black
10
127.9
20
-145.906
11
127.9
21
-145.906
0
LINE
8
Black
10
127.9
20
-145.906
11
127.893
21
-150.432
0
LINE
8
Black
10
127.893
20
-150.432
11
127.893
21
-154.958
0
LINE
8
Black
10
127.893
20
-154.958
11
127.893
21
-154.958
0
LINE
8
Black
10
127.893
20
-154.958
11
127.893
21
-154.959
0
LINE
8
Black
10
127.893
20
-154.959
11
127.893
21
-154.959
0
LINE
8
Black
10
127.893
20
-154.959
11
127.893
21
-154.96
0
LINE
8
Black
10
127.893
20
-154.96
11
127.893
21
-154.96
0
LINE
8
Black
10
127.893
20
-154.96
11
127.893
21
-154.96
0
LINE
8
Black
10
127.893
20
-154.96
11
127.892
21
-154.961
0
LINE
8
Black
10
127.892
20
-154.961
11
127.892
21
-154.961
0
LINE
8
Black
10
127.892
20
-154.961
11
127.892
21
-154.961
0
LINE
8
Black
10
127.892
20
-154.961
11
127.891
21
-154.962
0
LINE
8
Black
10
127.891
20
-154.962
11
127.891
21
-154.962
0
LINE
8
Black
10
127.891
20
-154.962
11
127.891
21
-154.962
0
LINE
8
Black
10
127.891
20
-154.962
11
127.89
21
-154.962
0
LINE
8
Black
10
127.89
20
-154.962
11
127.89
21
-154.963
0
LINE
8
Black
10
127.89
20
-154.963
11
127.89
21
-154.963
0
LINE
8
Black
10
127.89
20
-154.963
11
127.89
21
-154.963
0
LINE
8
Black
10
125.641
20
-145.911
11
125.64
21
-145.911
0
LINE
8
Black
10
125.64
20
-145.911
11
125.469
21
-145.881
0
LINE
8
Black
10
125.469
20
-145.881
11
125.467
21
-145.88
0
LINE
8
Black
10
125.467
20
-145.88
11
125.317
21
-145.793
0
LINE
8
Black
10
125.317
20
-145.793
11
125.317
21
-145.793
0
LINE
8
Black
10
125.317
20
-145.793
11
125.317
21
-145.792
0
LINE
8
Black
10
125.317
20
-145.792
11
125.316
21
-145.792
0
LINE
8
Black
10
125.316
20
-145.792
11
125.204
21
-145.659
0
LINE
8
Black
10
125.204
20
-145.659
11
125.203
21
-145.657
0
LINE
8
Black
10
125.203
20
-145.657
11
125.144
21
-145.494
0
LINE
8
Black
10
125.144
20
-145.494
11
125.144
21
-145.493
0
LINE
8
Black
10
125.144
20
-145.493
11
125.144
21
-145.492
0
LINE
8
Black
10
125.144
20
-145.492
11
125.137
21
-145.407
0
LINE
8
Black
10
125.137
20
-145.407
11
125.137
21
-145.406
0
LINE
8
Black
10
125.137
20
-145.406
11
125.137
21
-145.406
0
LINE
8
Black
10
125.137
20
-145.406
11
125.137
21
-145.206
0
LINE
8
Black
10
125.137
20
-145.206
11
125.129
21
-145.121
0
LINE
8
Black
10
125.129
20
-145.121
11
125.071
21
-144.959
0
LINE
8
Black
10
125.071
20
-144.959
11
124.96
21
-144.827
0
LINE
8
Black
10
124.96
20
-144.827
11
124.812
21
-144.741
0
LINE
8
Black
10
124.812
20
-144.741
11
124.642
21
-144.711
0
LINE
8
Black
10
124.642
20
-144.711
11
124.642
21
-144.711
0
LINE
8
Black
10
124.642
20
-144.711
11
115.642
21
-144.711
0
LINE
8
Black
10
115.642
20
-144.711
11
115.557
21
-144.718
0
LINE
8
Black
10
115.557
20
-144.718
11
115.395
21
-144.777
0
LINE
8
Black
10
115.395
20
-144.777
11
115.263
21
-144.887
0
LINE
8
Black
10
115.263
20
-144.887
11
115.177
21
-145.036
0
LINE
8
Black
10
115.177
20
-145.036
11
115.147
21
-145.206
0
LINE
8
Black
10
115.147
20
-145.206
11
115.147
21
-145.206
0
LINE
8
Black
10
115.147
20
-145.206
11
115.147
21
-145.406
0
LINE
8
Black
10
115.147
20
-145.406
11
115.147
21
-145.407
0
LINE
8
Black
10
115.147
20
-145.407
11
115.147
21
-145.408
0
LINE
8
Black
10
115.147
20
-145.408
11
115.116
21
-145.579
0
LINE
8
Black
10
115.116
20
-145.579
11
115.116
21
-145.579
0
LINE
8
Black
10
115.116
20
-145.579
11
115.115
21
-145.58
0
LINE
8
Black
10
115.115
20
-145.58
11
115.028
21
-145.731
0
LINE
8
Black
10
115.028
20
-145.731
11
115.028
21
-145.731
0
LINE
8
Black
10
115.028
20
-145.731
11
115.028
21
-145.731
0
LINE
8
Black
10
115.028
20
-145.731
11
115.027
21
-145.732
0
LINE
8
Black
10
115.027
20
-145.732
11
114.894
21
-145.843
0
LINE
8
Black
10
114.894
20
-145.843
11
114.893
21
-145.844
0
LINE
8
Black
10
114.893
20
-145.844
11
114.893
21
-145.844
0
LINE
8
Black
10
114.893
20
-145.844
11
114.729
21
-145.903
0
LINE
8
Black
10
114.729
20
-145.903
11
114.729
21
-145.903
0
LINE
8
Black
10
114.729
20
-145.903
11
114.728
21
-145.904
0
LINE
8
Black
10
114.728
20
-145.904
11
114.642
21
-145.911
0
LINE
8
Black
10
114.642
20
-145.911
11
114.642
21
-145.911
0
LINE
8
Black
10
114.642
20
-145.911
11
114.642
21
-145.911
0
LINE
8
Black
10
114.642
20
-145.911
11
112.388
21
-145.911
0
LINE
8
Black
10
112.388
20
-145.911
11
112.045
21
-145.941
0
LINE
8
Black
10
112.045
20
-145.941
11
111.394
21
-146.177
0
LINE
8
Black
10
111.394
20
-146.177
11
110.862
21
-146.621
0
LINE
8
Black
10
110.862
20
-146.621
11
110.515
21
-147.22
0
LINE
8
Black
10
110.515
20
-147.22
11
110.393
21
-147.903
0
LINE
8
Black
10
110.393
20
-147.903
11
110.393
21
-147.904
0
LINE
8
Black
10
110.393
20
-147.904
11
110.393
21
-147.904
0
LINE
8
Black
10
110.393
20
-147.904
11
110.393
21
-147.906
0
LINE
8
Black
10
110.393
20
-147.906
11
110.393
21
-152.958
0
LINE
8
Black
10
110.393
20
-152.958
11
110.423
21
-153.301
0
LINE
8
Black
10
110.423
20
-153.301
11
110.659
21
-153.952
0
LINE
8
Black
10
110.659
20
-153.952
11
111.103
21
-154.484
0
LINE
8
Black
10
111.103
20
-154.484
11
111.703
21
-154.831
0
LINE
8
Black
10
111.703
20
-154.831
11
112.386
21
-154.953
0
LINE
8
Black
10
112.386
20
-154.953
11
112.386
21
-154.953
0
LINE
8
Black
10
112.386
20
-154.953
11
112.387
21
-154.953
0
LINE
8
Black
10
112.387
20
-154.953
11
112.388
21
-154.953
0
LINE
8
Black
10
112.388
20
-154.953
11
114.642
21
-154.953
0
LINE
8
Black
10
114.642
20
-154.953
11
114.642
21
-154.953
0
LINE
8
Black
10
114.642
20
-154.953
11
114.643
21
-154.953
0
LINE
8
Black
10
114.643
20
-154.953
11
114.814
21
-154.984
0
LINE
8
Black
10
114.814
20
-154.984
11
114.815
21
-154.984
0
LINE
8
Black
10
114.815
20
-154.984
11
114.816
21
-154.984
0
LINE
8
Black
10
114.816
20
-154.984
11
114.966
21
-155.071
0
LINE
8
Black
10
114.966
20
-155.071
11
114.967
21
-155.072
0
LINE
8
Black
10
114.967
20
-155.072
11
114.967
21
-155.072
0
LINE
8
Black
10
114.967
20
-155.072
11
115.079
21
-155.206
0
LINE
8
Black
10
115.079
20
-155.206
11
115.08
21
-155.207
0
LINE
8
Black
10
115.08
20
-155.207
11
115.139
21
-155.37
0
LINE
8
Black
10
115.139
20
-155.37
11
115.139
21
-155.371
0
LINE
8
Black
10
115.139
20
-155.371
11
115.139
21
-155.372
0
LINE
8
Black
10
115.139
20
-155.372
11
115.147
21
-155.458
0
LINE
8
Black
10
115.147
20
-155.458
11
115.147
21
-155.458
0
LINE
8
Black
10
115.147
20
-155.458
11
115.147
21
-155.458
0
LINE
8
Black
10
115.147
20
-155.458
11
115.147
21
-155.658
0
LINE
8
Black
10
115.147
20
-155.658
11
115.154
21
-155.743
0
LINE
8
Black
10
115.154
20
-155.743
11
115.213
21
-155.905
0
LINE
8
Black
10
115.213
20
-155.905
11
115.323
21
-156.037
0
LINE
8
Black
10
115.323
20
-156.037
11
115.472
21
-156.123
0
LINE
8
Black
10
115.472
20
-156.123
11
115.641
21
-156.153
0
LINE
8
Black
10
115.641
20
-156.153
11
115.642
21
-156.153
0
LINE
8
Black
10
115.642
20
-156.153
11
124.641
21
-156.153
0
LINE
8
Black
10
124.641
20
-156.153
11
124.723
21
-156.145
0
LINE
8
Black
10
124.723
20
-156.145
11
124.884
21
-156.085
0
LINE
8
Black
10
124.884
20
-156.085
11
125.015
21
-155.974
0
LINE
8
Black
10
125.015
20
-155.974
11
125.1
21
-155.824
0
LINE
8
Black
10
125.1
20
-155.824
11
125.129
21
-155.654
0
LINE
8
Black
10
125.129
20
-155.654
11
125.129
21
-155.654
0
LINE
8
Black
10
125.129
20
-155.654
11
125.129
21
-155.454
0
LINE
8
Black
10
125.129
20
-155.454
11
125.129
21
-155.453
0
LINE
8
Black
10
125.129
20
-155.453
11
125.129
21
-155.453
0
LINE
8
Black
10
125.129
20
-155.453
11
125.16
21
-155.282
0
LINE
8
Black
10
125.16
20
-155.282
11
125.16
21
-155.28
0
LINE
8
Black
10
125.16
20
-155.28
11
125.247
21
-155.13
0
LINE
8
Black
10
125.247
20
-155.13
11
125.248
21
-155.129
0
LINE
8
Black
10
125.248
20
-155.129
11
125.248
21
-155.129
0
LINE
8
Black
10
125.248
20
-155.129
11
125.382
21
-155.017
0
LINE
8
Black
10
125.382
20
-155.017
11
125.383
21
-155.017
0
LINE
8
Black
10
125.383
20
-155.017
11
125.546
21
-154.957
0
LINE
8
Black
10
125.546
20
-154.957
11
125.547
21
-154.957
0
LINE
8
Black
10
125.547
20
-154.957
11
125.548
21
-154.957
0
LINE
8
Black
10
125.548
20
-154.957
11
125.634
21
-154.95
0
LINE
8
Black
10
125.634
20
-154.95
11
125.635
21
-154.95
0
LINE
8
Black
10
125.635
20
-154.95
11
125.635
21
-154.95
0
LINE
8
Black
10
125.635
20
-154.95
11
127.883
21
-154.953
0
LINE
8
Black
10
127.883
20
-154.953
11
127.883
21
-150.432
0
LINE
8
Black
10
127.883
20
-150.432
11
127.89
21
-145.911
0
LINE
8
Black
10
127.89
20
-145.911
11
125.642
21
-145.911
0
LINE
8
Black
10
125.642
20
-145.911
11
125.641
21
-145.911
0
LINE
8
Black
10
129.347
20
-140.691
11
129.347
21
-140.691
0
LINE
8
Black
10
129.347
20
-140.691
11
129.347
21
-140.691
0
LINE
8
Black
10
129.347
20
-140.691
11
129.347
21
-140.692
0
LINE
8
Black
10
129.347
20
-140.692
11
129.216
21
-140.918
0
LINE
8
Black
10
129.216
20
-140.918
11
129.215
21
-140.919
0
LINE
8
Black
10
129.215
20
-140.919
11
129.015
21
-141.086
0
LINE
8
Black
10
129.015
20
-141.086
11
129.015
21
-141.086
0
LINE
8
Black
10
129.015
20
-141.086
11
129.014
21
-141.087
0
LINE
8
Black
10
129.014
20
-141.087
11
128.769
21
-141.176
0
LINE
8
Black
10
128.769
20
-141.176
11
128.769
21
-141.176
0
LINE
8
Black
10
128.769
20
-141.176
11
128.767
21
-141.176
0
LINE
8
Black
10
128.767
20
-141.176
11
128.507
21
-141.175
0
LINE
8
Black
10
128.507
20
-141.175
11
128.505
21
-141.175
0
LINE
8
Black
10
128.505
20
-141.175
11
128.505
21
-141.175
0
LINE
8
Black
10
128.505
20
-141.175
11
128.505
21
-141.175
0
LINE
8
Black
10
128.505
20
-141.175
11
128.26
21
-141.086
0
LINE
8
Black
10
128.26
20
-141.086
11
128.259
21
-141.085
0
LINE
8
Black
10
128.259
20
-141.085
11
128.06
21
-140.917
0
LINE
8
Black
10
128.06
20
-140.917
11
128.06
21
-140.917
0
LINE
8
Black
10
128.06
20
-140.917
11
128.059
21
-140.916
0
LINE
8
Black
10
128.059
20
-140.916
11
128.059
21
-140.916
0
LINE
8
Black
10
128.059
20
-140.916
11
127.929
21
-140.69
0
LINE
8
Black
10
127.929
20
-140.69
11
127.929
21
-140.69
0
LINE
8
Black
10
127.929
20
-140.69
11
127.929
21
-140.69
0
LINE
8
Black
10
127.929
20
-140.69
11
127.929
21
-140.689
0
LINE
8
Black
10
127.929
20
-140.689
11
127.928
21
-140.688
0
LINE
8
Black
10
127.928
20
-140.688
11
127.883
21
-140.433
0
LINE
8
Black
10
127.883
20
-140.433
11
127.883
21
-140.432
0
LINE
8
Black
10
127.883
20
-140.432
11
127.883
21
-140.432
0
LINE
8
Black
10
127.883
20
-140.432
11
127.883
21
-136.432
0
LINE
8
Black
10
127.883
20
-136.432
11
127.883
21
-136.432
0
LINE
8
Black
10
127.883
20
-136.432
11
127.883
21
-136.432
0
LINE
8
Black
10
127.883
20
-136.432
11
127.883
21
-136.43
0
LINE
8
Black
10
127.883
20
-136.43
11
127.929
21
-136.173
0
LINE
8
Black
10
127.929
20
-136.173
11
127.929
21
-136.173
0
LINE
8
Black
10
127.929
20
-136.173
11
127.93
21
-136.172
0
LINE
8
Black
10
127.93
20
-136.172
11
128.06
21
-135.946
0
LINE
8
Black
10
128.06
20
-135.946
11
128.061
21
-135.946
0
LINE
8
Black
10
128.061
20
-135.946
11
128.061
21
-135.945
0
LINE
8
Black
10
128.061
20
-135.945
11
128.261
21
-135.778
0
LINE
8
Black
10
128.261
20
-135.778
11
128.263
21
-135.777
0
LINE
8
Black
10
128.263
20
-135.777
11
128.508
21
-135.688
0
LINE
8
Black
10
128.508
20
-135.688
11
128.509
21
-135.688
0
LINE
8
Black
10
128.509
20
-135.688
11
128.77
21
-135.689
0
LINE
8
Black
10
128.77
20
-135.689
11
128.77
21
-135.689
0
LINE
8
Black
10
128.77
20
-135.689
11
128.771
21
-135.689
0
LINE
8
Black
10
128.771
20
-135.689
11
129.016
21
-135.778
0
LINE
8
Black
10
129.016
20
-135.778
11
129.017
21
-135.779
0
LINE
8
Black
10
129.017
20
-135.779
11
129.018
21
-135.779
0
LINE
8
Black
10
129.018
20
-135.779
11
129.217
21
-135.947
0
LINE
8
Black
10
129.217
20
-135.947
11
129.218
21
-135.948
0
LINE
8
Black
10
129.218
20
-135.948
11
129.348
21
-136.174
0
LINE
8
Black
10
129.348
20
-136.174
11
129.348
21
-136.174
0
LINE
8
Black
10
129.348
20
-136.174
11
129.348
21
-136.175
0
LINE
8
Black
10
129.348
20
-136.175
11
129.348
21
-136.176
0
LINE
8
Black
10
129.348
20
-136.176
11
129.348
21
-136.176
0
LINE
8
Black
10
129.348
20
-136.176
11
129.393
21
-136.431
0
LINE
8
Black
10
129.393
20
-136.431
11
129.393
21
-136.432
0
LINE
8
Black
10
129.393
20
-136.432
11
129.393
21
-136.432
0
LINE
8
Black
10
129.393
20
-136.432
11
129.393
21
-140.432
0
LINE
8
Black
10
129.393
20
-140.432
11
129.393
21
-140.432
0
LINE
8
Black
10
129.393
20
-140.432
11
129.393
21
-140.432
0
LINE
8
Black
10
129.393
20
-140.432
11
129.393
21
-140.434
0
LINE
8
Black
10
129.393
20
-140.434
11
129.383
21
-140.489
0
LINE
8
Black
10
129.383
20
-140.489
11
129.347
21
-140.691
0
LINE
8
Black
10
129.383
20
-140.432
11
129.383
21
-136.432
0
LINE
8
Black
10
129.383
20
-136.432
11
129.339
21
-136.178
0
LINE
8
Black
10
129.339
20
-136.178
11
129.21
21
-135.954
0
LINE
8
Black
10
129.21
20
-135.954
11
129.012
21
-135.788
0
LINE
8
Black
10
129.012
20
-135.788
11
128.769
21
-135.699
0
LINE
8
Black
10
128.769
20
-135.699
11
128.51
21
-135.698
0
LINE
8
Black
10
128.51
20
-135.698
11
128.267
21
-135.786
0
LINE
8
Black
10
128.267
20
-135.786
11
128.068
21
-135.952
0
LINE
8
Black
10
128.068
20
-135.952
11
127.939
21
-136.176
0
LINE
8
Black
10
127.939
20
-136.176
11
127.893
21
-136.432
0
LINE
8
Black
10
127.893
20
-136.432
11
127.893
21
-136.432
0
LINE
8
Black
10
127.893
20
-136.432
11
127.893
21
-136.432
0
LINE
8
Black
10
127.893
20
-136.432
11
127.893
21
-140.432
0
LINE
8
Black
10
127.893
20
-140.432
11
127.938
21
-140.686
0
LINE
8
Black
10
127.938
20
-140.686
11
128.067
21
-140.91
0
LINE
8
Black
10
128.067
20
-140.91
11
128.265
21
-141.076
0
LINE
8
Black
10
128.265
20
-141.076
11
128.508
21
-141.165
0
LINE
8
Black
10
128.508
20
-141.165
11
128.766
21
-141.166
0
LINE
8
Black
10
128.766
20
-141.166
11
129.01
21
-141.078
0
LINE
8
Black
10
129.01
20
-141.078
11
129.208
21
-140.912
0
LINE
8
Black
10
129.208
20
-140.912
11
129.338
21
-140.688
0
LINE
8
Black
10
129.338
20
-140.688
11
129.383
21
-140.432
0
LINE
8
Black
10
129.383
20
-140.432
11
129.383
21
-140.432
0
LINE
8
Black
10
129.383
20
-140.432
11
129.383
21
-140.432
0
LINE
8
Black
10
129.347
20
-164.691
11
129.347
21
-164.691
0
LINE
8
Black
10
129.347
20
-164.691
11
129.347
21
-164.691
0
LINE
8
Black
10
129.347
20
-164.691
11
129.347
21
-164.692
0
LINE
8
Black
10
129.347
20
-164.692
11
129.216
21
-164.918
0
LINE
8
Black
10
129.216
20
-164.918
11
129.215
21
-164.919
0
LINE
8
Black
10
129.215
20
-164.919
11
129.015
21
-165.086
0
LINE
8
Black
10
129.015
20
-165.086
11
129.015
21
-165.086
0
LINE
8
Black
10
129.015
20
-165.086
11
129.014
21
-165.087
0
LINE
8
Black
10
129.014
20
-165.087
11
128.769
21
-165.176
0
LINE
8
Black
10
128.769
20
-165.176
11
128.769
21
-165.176
0
LINE
8
Black
10
128.769
20
-165.176
11
128.767
21
-165.176
0
LINE
8
Black
10
128.767
20
-165.176
11
128.507
21
-165.175
0
LINE
8
Black
10
128.507
20
-165.175
11
128.505
21
-165.175
0
LINE
8
Black
10
128.505
20
-165.175
11
128.505
21
-165.175
0
LINE
8
Black
10
128.505
20
-165.175
11
128.505
21
-165.175
0
LINE
8
Black
10
128.505
20
-165.175
11
128.26
21
-165.086
0
LINE
8
Black
10
128.26
20
-165.086
11
128.259
21
-165.085
0
LINE
8
Black
10
128.259
20
-165.085
11
128.06
21
-164.917
0
LINE
8
Black
10
128.06
20
-164.917
11
128.06
21
-164.917
0
LINE
8
Black
10
128.06
20
-164.917
11
128.059
21
-164.916
0
LINE
8
Black
10
128.059
20
-164.916
11
128.059
21
-164.916
0
LINE
8
Black
10
128.059
20
-164.916
11
127.929
21
-164.69
0
LINE
8
Black
10
127.929
20
-164.69
11
127.929
21
-164.69
0
LINE
8
Black
10
127.929
20
-164.69
11
127.929
21
-164.69
0
LINE
8
Black
10
127.929
20
-164.69
11
127.929
21
-164.689
0
LINE
8
Black
10
127.929
20
-164.689
11
127.928
21
-164.688
0
LINE
8
Black
10
127.928
20
-164.688
11
127.883
21
-164.433
0
LINE
8
Black
10
127.883
20
-164.433
11
127.883
21
-164.432
0
LINE
8
Black
10
127.883
20
-164.432
11
127.883
21
-164.432
0
LINE
8
Black
10
127.883
20
-164.432
11
127.883
21
-160.432
0
LINE
8
Black
10
127.883
20
-160.432
11
127.883
21
-160.432
0
LINE
8
Black
10
127.883
20
-160.432
11
127.883
21
-160.432
0
LINE
8
Black
10
127.883
20
-160.432
11
127.883
21
-160.43
0
LINE
8
Black
10
127.883
20
-160.43
11
127.929
21
-160.173
0
LINE
8
Black
10
127.929
20
-160.173
11
127.929
21
-160.173
0
LINE
8
Black
10
127.929
20
-160.173
11
127.93
21
-160.172
0
LINE
8
Black
10
127.93
20
-160.172
11
128.06
21
-159.946
0
LINE
8
Black
10
128.06
20
-159.946
11
128.061
21
-159.946
0
LINE
8
Black
10
128.061
20
-159.946
11
128.061
21
-159.945
0
LINE
8
Black
10
128.061
20
-159.945
11
128.261
21
-159.778
0
LINE
8
Black
10
128.261
20
-159.778
11
128.263
21
-159.777
0
LINE
8
Black
10
128.263
20
-159.777
11
128.508
21
-159.688
0
LINE
8
Black
10
128.508
20
-159.688
11
128.509
21
-159.688
0
LINE
8
Black
10
128.509
20
-159.688
11
128.77
21
-159.689
0
LINE
8
Black
10
128.77
20
-159.689
11
128.77
21
-159.689
0
LINE
8
Black
10
128.77
20
-159.689
11
128.771
21
-159.689
0
LINE
8
Black
10
128.771
20
-159.689
11
129.016
21
-159.778
0
LINE
8
Black
10
129.016
20
-159.778
11
129.017
21
-159.779
0
LINE
8
Black
10
129.017
20
-159.779
11
129.018
21
-159.779
0
LINE
8
Black
10
129.018
20
-159.779
11
129.217
21
-159.947
0
LINE
8
Black
10
129.217
20
-159.947
11
129.218
21
-159.948
0
LINE
8
Black
10
129.218
20
-159.948
11
129.348
21
-160.174
0
LINE
8
Black
10
129.348
20
-160.174
11
129.348
21
-160.174
0
LINE
8
Black
10
129.348
20
-160.174
11
129.348
21
-160.175
0
LINE
8
Black
10
129.348
20
-160.175
11
129.348
21
-160.176
0
LINE
8
Black
10
129.348
20
-160.176
11
129.348
21
-160.176
0
LINE
8
Black
10
129.348
20
-160.176
11
129.393
21
-160.431
0
LINE
8
Black
10
129.393
20
-160.431
11
129.393
21
-160.432
0
LINE
8
Black
10
129.393
20
-160.432
11
129.393
21
-160.432
0
LINE
8
Black
10
129.393
20
-160.432
11
129.393
21
-164.432
0
LINE
8
Black
10
129.393
20
-164.432
11
129.393
21
-164.432
0
LINE
8
Black
10
129.393
20
-164.432
11
129.393
21
-164.432
0
LINE
8
Black
10
129.393
20
-164.432
11
129.393
21
-164.434
0
LINE
8
Black
10
129.393
20
-164.434
11
129.383
21
-164.489
0
LINE
8
Black
10
129.383
20
-164.489
11
129.347
21
-164.691
0
LINE
8
Black
10
129.383
20
-164.432
11
129.383
21
-160.432
0
LINE
8
Black
10
129.383
20
-160.432
11
129.339
21
-160.178
0
LINE
8
Black
10
129.339
20
-160.178
11
129.21
21
-159.954
0
LINE
8
Black
10
129.21
20
-159.954
11
129.012
21
-159.788
0
LINE
8
Black
10
129.012
20
-159.788
11
128.769
21
-159.699
0
LINE
8
Black
10
128.769
20
-159.699
11
128.51
21
-159.698
0
LINE
8
Black
10
128.51
20
-159.698
11
128.267
21
-159.786
0
LINE
8
Black
10
128.267
20
-159.786
11
128.068
21
-159.952
0
LINE
8
Black
10
128.068
20
-159.952
11
127.939
21
-160.176
0
LINE
8
Black
10
127.939
20
-160.176
11
127.893
21
-160.432
0
LINE
8
Black
10
127.893
20
-160.432
11
127.893
21
-160.432
0
LINE
8
Black
10
127.893
20
-160.432
11
127.893
21
-160.432
0
LINE
8
Black
10
127.893
20
-160.432
11
127.893
21
-164.432
0
LINE
8
Black
10
127.893
20
-164.432
11
127.938
21
-164.686
0
LINE
8
Black
10
127.938
20
-164.686
11
128.067
21
-164.91
0
LINE
8
Black
10
128.067
20
-164.91
11
128.265
21
-165.076
0
LINE
8
Black
10
128.265
20
-165.076
11
128.508
21
-165.165
0
LINE
8
Black
10
128.508
20
-165.165
11
128.766
21
-165.166
0
LINE
8
Black
10
128.766
20
-165.166
11
129.01
21
-165.078
0
LINE
8
Black
10
129.01
20
-165.078
11
129.208
21
-164.912
0
LINE
8
Black
10
129.208
20
-164.912
11
129.338
21
-164.688
0
LINE
8
Black
10
129.338
20
-164.688
11
129.383
21
-164.432
0
LINE
8
Black
10
129.383
20
-164.432
11
129.383
21
-164.432
0
LINE
8
Black
10
129.383
20
-164.432
11
129.383
21
-164.432
0
LINE
8
Black
10
131.637
20
-115.674
11
131.637
21
-115.675
0
LINE
8
Black
10
131.637
20
-115.675
11
131.637
21
-115.676
0
LINE
8
Black
10
131.637
20
-115.676
11
131.068
21
-116.783
0
LINE
8
Black
10
131.068
20
-116.783
11
131.068
21
-116.783
0
LINE
8
Black
10
131.068
20
-116.783
11
131.068
21
-116.783
0
LINE
8
Black
10
131.068
20
-116.783
11
128.786
21
-120.126
0
LINE
8
Black
10
128.786
20
-120.126
11
128.784
21
-120.128
0
LINE
8
Black
10
128.784
20
-120.128
11
128.784
21
-120.128
0
LINE
8
Black
10
128.784
20
-120.128
11
128.784
21
-120.129
0
LINE
8
Black
10
128.784
20
-120.129
11
128.783
21
-120.13
0
LINE
8
Black
10
128.783
20
-120.13
11
128.054
21
-120.875
0
LINE
8
Black
10
128.054
20
-120.875
11
128.052
21
-120.876
0
LINE
8
Black
10
128.052
20
-120.876
11
127.113
21
-121.326
0
LINE
8
Black
10
127.113
20
-121.326
11
127.112
21
-121.326
0
LINE
8
Black
10
127.112
20
-121.326
11
127.111
21
-121.326
0
LINE
8
Black
10
127.111
20
-121.326
11
126.305
21
-121.437
0
LINE
8
Black
10
126.305
20
-121.437
11
126.304
21
-121.437
0
LINE
8
Black
10
126.304
20
-121.437
11
126.304
21
-121.437
0
LINE
8
Black
10
126.304
20
-121.437
11
116.466
21
-121.437
0
LINE
8
Black
10
116.466
20
-121.437
11
116.464
21
-121.437
0
LINE
8
Black
10
116.464
20
-121.437
11
116.463
21
-121.436
0
LINE
8
Black
10
116.463
20
-121.436
11
116.463
21
-121.436
0
LINE
8
Black
10
116.463
20
-121.436
11
116.462
21
-121.437
0
LINE
8
Black
10
116.462
20
-121.437
11
116.46
21
-121.437
0
LINE
8
Black
10
116.46
20
-121.437
11
115.434
21
-121.254
0
LINE
8
Black
10
115.434
20
-121.254
11
115.434
21
-121.254
0
LINE
8
Black
10
115.434
20
-121.254
11
115.433
21
-121.254
0
LINE
8
Black
10
115.433
20
-121.254
11
115.35
21
-121.222
0
LINE
8
Black
10
115.35
20
-121.222
11
115.35
21
-121.222
0
LINE
8
Black
10
115.35
20
-121.222
11
115.35
21
-121.222
0
LINE
8
Black
10
115.35
20
-121.222
11
111.423
21
-119.651
0
LINE
8
Black
10
111.423
20
-119.651
11
111.34
21
-119.62
0
LINE
8
Black
10
111.34
20
-119.62
11
110.315
21
-119.437
0
LINE
8
Black
10
110.315
20
-119.437
11
110.313
21
-119.436
0
LINE
8
Black
10
110.313
20
-119.436
11
110.313
21
-119.436
0
LINE
8
Black
10
110.313
20
-119.436
11
110.312
21
-119.437
0
LINE
8
Black
10
110.312
20
-119.437
11
110.311
21
-119.437
0
LINE
8
Black
10
110.311
20
-119.437
11
105.466
21
-119.437
0
LINE
8
Black
10
105.466
20
-119.437
11
105.378
21
-119.438
0
LINE
8
Black
10
105.378
20
-119.438
11
104.358
21
-119.65
0
LINE
8
Black
10
104.358
20
-119.65
11
104.356
21
-119.65
0
LINE
8
Black
10
104.356
20
-119.65
11
104.356
21
-119.65
0
LINE
8
Black
10
104.356
20
-119.65
11
104.355
21
-119.65
0
LINE
8
Black
10
104.355
20
-119.65
11
104.354
21
-119.651
0
LINE
8
Black
10
104.354
20
-119.651
11
100.427
21
-121.222
0
LINE
8
Black
10
100.427
20
-121.222
11
100.425
21
-121.222
0
LINE
8
Black
10
100.425
20
-121.222
11
100.424
21
-121.222
0
LINE
8
Black
10
100.424
20
-121.222
11
100.424
21
-121.223
0
LINE
8
Black
10
100.424
20
-121.223
11
100.422
21
-121.224
0
LINE
8
Black
10
100.422
20
-121.224
11
100.421
21
-121.224
0
LINE
8
Black
10
100.421
20
-121.224
11
99.4005
21
-121.436
0
LINE
8
Black
10
99.4005
20
-121.436
11
99.4
21
-121.436
0
LINE
8
Black
10
99.4
20
-121.436
11
99.3996
21
-121.436
0
LINE
8
Black
10
99.3996
20
-121.436
11
99.3106
21
-121.437
0
LINE
8
Black
10
99.3106
20
-121.437
11
99.3105
21
-121.437
0
LINE
8
Black
10
99.3105
20
-121.437
11
99.3105
21
-121.437
0
LINE
8
Black
10
99.3105
20
-121.437
11
89.4726
21
-121.437
0
LINE
8
Black
10
89.4726
20
-121.437
11
89.4709
21
-121.437
0
LINE
8
Black
10
89.4709
20
-121.437
11
89.4705
21
-121.437
0
LINE
8
Black
10
89.4705
20
-121.437
11
89.4694
21
-121.437
0
LINE
8
Black
10
89.4694
20
-121.437
11
89.4677
21
-121.437
0
LINE
8
Black
10
89.4677
20
-121.437
11
88.4418
21
-121.255
0
LINE
8
Black
10
88.4418
20
-121.255
11
88.441
21
-121.254
0
LINE
8
Black
10
88.441
20
-121.254
11
88.4402
21
-121.254
0
LINE
8
Black
10
88.4402
20
-121.254
11
87.5386
21
-120.732
0
LINE
8
Black
10
87.5386
20
-120.732
11
87.538
21
-120.731
0
LINE
8
Black
10
87.538
20
-120.731
11
87.5374
21
-120.731
0
LINE
8
Black
10
87.5374
20
-120.731
11
86.9912
21
-120.127
0
LINE
8
Black
10
86.9912
20
-120.127
11
86.991
21
-120.127
0
LINE
8
Black
10
86.991
20
-120.127
11
86.9908
21
-120.126
0
LINE
8
Black
10
86.9908
20
-120.126
11
84.7085
21
-116.783
0
LINE
8
Black
10
84.7085
20
-116.783
11
84.7081
21
-116.783
0
LINE
8
Black
10
84.7081
20
-116.783
11
84.708
21
-116.783
0
LINE
8
Black
10
84.708
20
-116.783
11
84.707
21
-116.781
0
LINE
8
Black
10
84.707
20
-116.781
11
83.9924
21
-115.198
0
LINE
8
Black
10
83.9924
20
-115.198
11
83.9922
21
-115.198
0
LINE
8
Black
10
83.9922
20
-115.198
11
83.992
21
-115.197
0
LINE
8
Black
10
83.992
20
-115.197
11
83.837
21
-113.962
0
LINE
8
Black
10
83.837
20
-113.962
11
83.8371
21
-113.962
0
LINE
8
Black
10
83.8371
20
-113.962
11
83.837
21
-113.961
0
LINE
8
Black
10
83.837
20
-113.961
11
83.837
21
-113.176
0
LINE
8
Black
10
83.837
20
-113.176
11
83.837
21
-113.176
0
LINE
8
Black
10
83.837
20
-113.176
11
83.837
21
-113.176
0
LINE
8
Black
10
83.837
20
-113.176
11
83.8801
21
-110.605
0
LINE
8
Black
10
83.8801
20
-110.605
11
83.8801
21
-110.605
0
LINE
8
Black
10
83.8801
20
-110.605
11
83.8801
21
-110.605
0
LINE
8
Black
10
83.8801
20
-110.605
11
84.0219
21
-108.269
0
LINE
8
Black
10
84.0219
20
-108.269
11
84.0219
21
-108.269
0
LINE
8
Black
10
84.0219
20
-108.269
11
84.0219
21
-108.269
0
LINE
8
Black
10
84.0219
20
-108.269
11
84.2811
21
-106.158
0
LINE
8
Black
10
84.2811
20
-106.158
11
84.2811
21
-106.158
0
LINE
8
Black
10
84.2811
20
-106.158
11
84.2811
21
-106.158
0
LINE
8
Black
10
84.2811
20
-106.158
11
84.6764
21
-104.262
0
LINE
8
Black
10
84.6764
20
-104.262
11
84.6765
21
-104.262
0
LINE
8
Black
10
84.6765
20
-104.262
11
84.6766
21
-104.261
0
LINE
8
Black
10
84.6766
20
-104.261
11
85.2267
21
-102.57
0
LINE
8
Black
10
85.2267
20
-102.57
11
85.2269
21
-102.569
0
LINE
8
Black
10
85.2269
20
-102.569
11
85.227
21
-102.569
0
LINE
8
Black
10
85.227
20
-102.569
11
85.9507
21
-101.071
0
LINE
8
Black
10
85.9507
20
-101.071
11
85.9509
21
-101.071
0
LINE
8
Black
10
85.9509
20
-101.071
11
85.951
21
-101.071
0
LINE
8
Black
10
85.951
20
-101.071
11
86.7068
21
-99.9547
0
LINE
8
Black
10
86.7068
20
-99.9547
11
86.7071
21
-99.9545
0
LINE
8
Black
10
86.7071
20
-99.9545
11
86.7073
21
-99.9542
0
LINE
8
Black
10
86.7073
20
-99.9542
11
87.6098
21
-98.9617
0
LINE
8
Black
10
87.6098
20
-98.9617
11
87.6101
21
-98.9615
0
LINE
8
Black
10
87.6101
20
-98.9615
11
87.6103
21
-98.9613
0
LINE
8
Black
10
87.6103
20
-98.9613
11
88.6708
21
-98.0861
0
LINE
8
Black
10
88.6708
20
-98.0861
11
88.6711
21
-98.0859
0
LINE
8
Black
10
88.6711
20
-98.0859
11
88.6714
21
-98.0857
0
LINE
8
Black
10
88.6714
20
-98.0857
11
89.9008
21
-97.3216
0
LINE
8
Black
10
89.9008
20
-97.3216
11
89.9011
21
-97.3215
0
LINE
8
Black
10
89.9011
20
-97.3215
11
89.9013
21
-97.3213
0
LINE
8
Black
10
89.9013
20
-97.3213
11
91.3383
21
-96.6511
0
LINE
8
Black
10
91.3383
20
-96.6511
11
91.3385
21
-96.6511
0
LINE
8
Black
10
91.3385
20
-96.6511
11
91.3387
21
-96.6509
0
LINE
8
Black
10
91.3387
20
-96.6509
11
92.9741
21
-96.0831
0
LINE
8
Black
10
92.9741
20
-96.0831
11
92.9743
21
-96.0831
0
LINE
8
Black
10
92.9743
20
-96.0831
11
92.9745
21
-96.083
0
LINE
8
Black
10
92.9745
20
-96.083
11
94.82
21
-95.611
0
LINE
8
Black
10
94.82
20
-95.611
11
94.8201
21
-95.611
0
LINE
8
Black
10
94.8201
20
-95.611
11
94.8203
21
-95.6109
0
LINE
8
Black
10
94.8203
20
-95.6109
11
96.8876
21
-95.2283
0
LINE
8
Black
10
96.8876
20
-95.2283
11
96.8878
21
-95.2283
0
LINE
8
Black
10
96.8878
20
-95.2283
11
96.8879
21
-95.2283
0
LINE
8
Black
10
96.8879
20
-95.2283
11
99.1888
21
-94.9286
0
LINE
8
Black
10
99.1888
20
-94.9286
11
99.8472
21
-94.8315
0
LINE
8
Black
10
99.8472
20
-94.8315
11
99.8473
21
-94.8315
0
LINE
8
Black
10
99.8473
20
-94.8315
11
99.8474
21
-94.8315
0
LINE
8
Black
10
99.8474
20
-94.8315
11
100.323
21
-94.7888
0
LINE
8
Black
10
100.323
20
-94.7888
11
100.324
21
-94.7889
0
LINE
8
Black
10
100.324
20
-94.7889
11
100.324
21
-94.7888
0
LINE
8
Black
10
100.324
20
-94.7888
11
100.676
21
-94.7918
0
LINE
8
Black
10
100.676
20
-94.7918
11
100.676
21
-94.7919
0
LINE
8
Black
10
100.676
20
-94.7919
11
100.676
21
-94.7919
0
LINE
8
Black
10
100.676
20
-94.7919
11
101.099
21
-94.8628
0
LINE
8
Black
10
101.099
20
-94.8628
11
101.099
21
-94.8628
0
LINE
8
Black
10
101.099
20
-94.8628
11
101.1
21
-94.8629
0
LINE
8
Black
10
101.1
20
-94.8629
11
101.571
21
-94.9871
0
LINE
8
Black
10
101.571
20
-94.9871
11
101.887
21
-95.06
0
LINE
8
Black
10
101.887
20
-95.06
11
102.289
21
-95.1352
0
LINE
8
Black
10
102.289
20
-95.1352
11
102.802
21
-95.209
0
LINE
8
Black
10
102.802
20
-95.209
11
103.45
21
-95.2776
0
LINE
8
Black
10
103.45
20
-95.2776
11
104.258
21
-95.3374
0
LINE
8
Black
10
104.258
20
-95.3374
11
105.25
21
-95.3847
0
LINE
8
Black
10
105.25
20
-95.3847
11
106.452
21
-95.4158
0
LINE
8
Black
10
106.452
20
-95.4158
11
107.888
21
-95.427
0
LINE
8
Black
10
107.888
20
-95.427
11
109.324
21
-95.4158
0
LINE
8
Black
10
109.324
20
-95.4158
11
110.526
21
-95.3847
0
LINE
8
Black
10
110.526
20
-95.3847
11
111.519
21
-95.3374
0
LINE
8
Black
10
111.519
20
-95.3374
11
112.327
21
-95.2776
0
LINE
8
Black
10
112.327
20
-95.2776
11
112.975
21
-95.209
0
LINE
8
Black
10
112.975
20
-95.209
11
113.488
21
-95.1352
0
LINE
8
Black
10
113.488
20
-95.1352
11
113.889
21
-95.06
0
LINE
8
Black
10
113.889
20
-95.06
11
114.205
21
-94.9871
0
LINE
8
Black
10
114.205
20
-94.9871
11
114.677
21
-94.8629
0
LINE
8
Black
10
114.677
20
-94.8629
11
114.677
21
-94.8628
0
LINE
8
Black
10
114.677
20
-94.8628
11
114.677
21
-94.8628
0
LINE
8
Black
10
114.677
20
-94.8628
11
115.1
21
-94.7919
0
LINE
8
Black
10
115.1
20
-94.7919
11
115.1
21
-94.7919
0
LINE
8
Black
10
115.1
20
-94.7919
11
115.101
21
-94.7918
0
LINE
8
Black
10
115.101
20
-94.7918
11
115.453
21
-94.7888
0
LINE
8
Black
10
115.453
20
-94.7888
11
115.453
21
-94.7889
0
LINE
8
Black
10
115.453
20
-94.7889
11
115.453
21
-94.7888
0
LINE
8
Black
10
115.453
20
-94.7888
11
115.929
21
-94.8315
0
LINE
8
Black
10
115.929
20
-94.8315
11
115.929
21
-94.8315
0
LINE
8
Black
10
115.929
20
-94.8315
11
115.929
21
-94.8315
0
LINE
8
Black
10
115.929
20
-94.8315
11
116.588
21
-94.9286
0
LINE
8
Black
10
116.588
20
-94.9286
11
118.893
21
-95.229
0
LINE
8
Black
10
118.893
20
-95.229
11
118.893
21
-95.2291
0
LINE
8
Black
10
118.893
20
-95.2291
11
118.894
21
-95.2291
0
LINE
8
Black
10
118.894
20
-95.2291
11
120.965
21
-95.6128
0
LINE
8
Black
10
120.965
20
-95.6128
11
120.965
21
-95.6129
0
LINE
8
Black
10
120.965
20
-95.6129
11
120.965
21
-95.6129
0
LINE
8
Black
10
120.965
20
-95.6129
11
122.813
21
-96.0864
0
LINE
8
Black
10
122.813
20
-96.0864
11
122.814
21
-96.0865
0
LINE
8
Black
10
122.814
20
-96.0865
11
122.814
21
-96.0865
0
LINE
8
Black
10
122.814
20
-96.0865
11
124.451
21
-96.6563
0
LINE
8
Black
10
124.451
20
-96.6563
11
124.451
21
-96.6565
0
LINE
8
Black
10
124.451
20
-96.6565
11
124.452
21
-96.6565
0
LINE
8
Black
10
124.452
20
-96.6565
11
125.89
21
-97.3292
0
LINE
8
Black
10
125.89
20
-97.3292
11
125.89
21
-97.3294
0
LINE
8
Black
10
125.89
20
-97.3294
11
125.89
21
-97.3295
0
LINE
8
Black
10
125.89
20
-97.3295
11
127.141
21
-98.1115
0
LINE
8
Black
10
127.141
20
-98.1115
11
127.141
21
-98.1118
0
LINE
8
Black
10
127.141
20
-98.1118
11
127.142
21
-98.1119
0
LINE
8
Black
10
127.142
20
-98.1119
11
128.217
21
-99.0099
0
LINE
8
Black
10
128.217
20
-99.0099
11
128.217
21
-99.0102
0
LINE
8
Black
10
128.217
20
-99.0102
11
128.217
21
-99.0104
0
LINE
8
Black
10
128.217
20
-99.0104
11
129.223
21
-100.155
0
LINE
8
Black
10
129.223
20
-100.155
11
129.223
21
-100.155
0
LINE
8
Black
10
129.223
20
-100.155
11
129.223
21
-100.155
0
LINE
8
Black
10
129.223
20
-100.155
11
130.041
21
-101.461
0
LINE
8
Black
10
130.041
20
-101.461
11
130.041
21
-101.461
0
LINE
8
Black
10
130.041
20
-101.461
11
130.042
21
-101.461
0
LINE
8
Black
10
130.042
20
-101.461
11
130.689
21
-102.936
0
LINE
8
Black
10
130.689
20
-102.936
11
130.689
21
-102.937
0
LINE
8
Black
10
130.689
20
-102.937
11
130.689
21
-102.937
0
LINE
8
Black
10
130.689
20
-102.937
11
131.183
21
-104.591
0
LINE
8
Black
10
131.183
20
-104.591
11
131.183
21
-104.591
0
LINE
8
Black
10
131.183
20
-104.591
11
131.183
21
-104.591
0
LINE
8
Black
10
131.183
20
-104.591
11
131.538
21
-106.433
0
LINE
8
Black
10
131.538
20
-106.433
11
131.538
21
-106.433
0
LINE
8
Black
10
131.538
20
-106.433
11
131.538
21
-106.433
0
LINE
8
Black
10
131.538
20
-106.433
11
131.772
21
-108.472
0
LINE
8
Black
10
131.772
20
-108.472
11
131.772
21
-108.472
0
LINE
8
Black
10
131.772
20
-108.472
11
131.772
21
-108.472
0
LINE
8
Black
10
131.772
20
-108.472
11
131.9
21
-110.716
0
LINE
8
Black
10
131.9
20
-110.716
11
131.9
21
-110.717
0
LINE
8
Black
10
131.9
20
-110.717
11
131.9
21
-110.717
0
LINE
8
Black
10
131.9
20
-110.717
11
131.939
21
-113.176
0
LINE
8
Black
10
131.939
20
-113.176
11
131.939
21
-113.176
0
LINE
8
Black
10
131.939
20
-113.176
11
131.939
21
-113.176
0
LINE
8
Black
10
131.939
20
-113.176
11
131.939
21
-113.961
0
LINE
8
Black
10
131.939
20
-113.961
11
131.939
21
-113.962
0
LINE
8
Black
10
131.939
20
-113.962
11
131.939
21
-113.962
0
LINE
8
Black
10
131.939
20
-113.962
11
131.939
21
-113.964
0
LINE
8
Black
10
131.939
20
-113.964
11
131.93
21
-114.019
0
LINE
8
Black
10
131.93
20
-114.019
11
131.637
21
-115.674
0
LINE
8
Black
10
131.929
20
-113.176
11
131.89
21
-110.717
0
LINE
8
Black
10
131.89
20
-110.717
11
131.762
21
-108.473
0
LINE
8
Black
10
131.762
20
-108.473
11
131.528
21
-106.435
0
LINE
8
Black
10
131.528
20
-106.435
11
131.173
21
-104.593
0
LINE
8
Black
10
131.173
20
-104.593
11
130.68
21
-102.94
0
LINE
8
Black
10
130.68
20
-102.94
11
130.033
21
-101.466
0
LINE
8
Black
10
130.033
20
-101.466
11
129.215
21
-100.161
0
LINE
8
Black
10
129.215
20
-100.161
11
128.21
21
-99.0173
0
LINE
8
Black
10
128.21
20
-99.0173
11
127.136
21
-98.1198
0
LINE
8
Black
10
127.136
20
-98.1198
11
125.885
21
-97.3381
0
LINE
8
Black
10
125.885
20
-97.3381
11
124.448
21
-96.6657
0
LINE
8
Black
10
124.448
20
-96.6657
11
122.811
21
-96.096
0
LINE
8
Black
10
122.811
20
-96.096
11
120.963
21
-95.6226
0
LINE
8
Black
10
120.963
20
-95.6226
11
118.892
21
-95.2389
0
LINE
8
Black
10
118.892
20
-95.2389
11
116.586
21
-94.9385
0
LINE
8
Black
10
116.586
20
-94.9385
11
116.586
21
-94.9385
0
LINE
8
Black
10
116.586
20
-94.9385
11
116.586
21
-94.9385
0
LINE
8
Black
10
116.586
20
-94.9385
11
115.928
21
-94.8415
0
LINE
8
Black
10
115.928
20
-94.8415
11
115.452
21
-94.7988
0
LINE
8
Black
10
115.452
20
-94.7988
11
115.101
21
-94.8018
0
LINE
8
Black
10
115.101
20
-94.8018
11
114.679
21
-94.8726
0
LINE
8
Black
10
114.679
20
-94.8726
11
114.208
21
-94.9968
0
LINE
8
Black
10
114.208
20
-94.9968
11
114.207
21
-94.9968
0
LINE
8
Black
10
114.207
20
-94.9968
11
114.207
21
-94.9969
0
LINE
8
Black
10
114.207
20
-94.9969
11
113.892
21
-95.0698
0
LINE
8
Black
10
113.892
20
-95.0698
11
113.891
21
-95.0698
0
LINE
8
Black
10
113.891
20
-95.0698
11
113.891
21
-95.0699
0
LINE
8
Black
10
113.891
20
-95.0699
11
113.489
21
-95.1451
0
LINE
8
Black
10
113.489
20
-95.1451
11
113.489
21
-95.1451
0
LINE
8
Black
10
113.489
20
-95.1451
11
113.489
21
-95.1451
0
LINE
8
Black
10
113.489
20
-95.1451
11
112.976
21
-95.2189
0
LINE
8
Black
10
112.976
20
-95.2189
11
112.976
21
-95.2189
0
LINE
8
Black
10
112.976
20
-95.2189
11
112.976
21
-95.2189
0
LINE
8
Black
10
112.976
20
-95.2189
11
112.328
21
-95.2876
0
LINE
8
Black
10
112.328
20
-95.2876
11
112.328
21
-95.2876
0
LINE
8
Black
10
112.328
20
-95.2876
11
112.328
21
-95.2876
0
LINE
8
Black
10
112.328
20
-95.2876
11
111.52
21
-95.3474
0
LINE
8
Black
10
111.52
20
-95.3474
11
111.519
21
-95.3474
0
LINE
8
Black
10
111.519
20
-95.3474
11
111.519
21
-95.3474
0
LINE
8
Black
10
111.519
20
-95.3474
11
110.527
21
-95.3947
0
LINE
8
Black
10
110.527
20
-95.3947
11
110.527
21
-95.3947
0
LINE
8
Black
10
110.527
20
-95.3947
11
110.526
21
-95.3947
0
LINE
8
Black
10
110.526
20
-95.3947
11
109.324
21
-95.4258
0
LINE
8
Black
10
109.324
20
-95.4258
11
109.324
21
-95.4258
0
LINE
8
Black
10
109.324
20
-95.4258
11
109.324
21
-95.4258
0
LINE
8
Black
10
109.324
20
-95.4258
11
107.888
21
-95.437
0
LINE
8
Black
10
107.888
20
-95.437
11
107.888
21
-95.437
0
LINE
8
Black
10
107.888
20
-95.437
11
107.888
21
-95.437
0
LINE
8
Black
10
107.888
20
-95.437
11
106.452
21
-95.4258
0
LINE
8
Black
10
106.452
20
-95.4258
11
106.452
21
-95.4258
0
LINE
8
Black
10
106.452
20
-95.4258
11
106.452
21
-95.4258
0
LINE
8
Black
10
106.452
20
-95.4258
11
105.25
21
-95.3947
0
LINE
8
Black
10
105.25
20
-95.3947
11
105.25
21
-95.3947
0
LINE
8
Black
10
105.25
20
-95.3947
11
105.25
21
-95.3947
0
LINE
8
Black
10
105.25
20
-95.3947
11
104.257
21
-95.3474
0
LINE
8
Black
10
104.257
20
-95.3474
11
104.257
21
-95.3474
0
LINE
8
Black
10
104.257
20
-95.3474
11
104.257
21
-95.3474
0
LINE
8
Black
10
104.257
20
-95.3474
11
103.449
21
-95.2876
0
LINE
8
Black
10
103.449
20
-95.2876
11
103.449
21
-95.2876
0
LINE
8
Black
10
103.449
20
-95.2876
11
103.449
21
-95.2876
0
LINE
8
Black
10
103.449
20
-95.2876
11
102.8
21
-95.2189
0
LINE
8
Black
10
102.8
20
-95.2189
11
102.8
21
-95.2189
0
LINE
8
Black
10
102.8
20
-95.2189
11
102.8
21
-95.2189
0
LINE
8
Black
10
102.8
20
-95.2189
11
102.287
21
-95.1451
0
LINE
8
Black
10
102.287
20
-95.1451
11
102.287
21
-95.1451
0
LINE
8
Black
10
102.287
20
-95.1451
11
102.287
21
-95.1451
0
LINE
8
Black
10
102.287
20
-95.1451
11
101.885
21
-95.0699
0
LINE
8
Black
10
101.885
20
-95.0699
11
101.885
21
-95.0698
0
LINE
8
Black
10
101.885
20
-95.0698
11
101.885
21
-95.0698
0
LINE
8
Black
10
101.885
20
-95.0698
11
101.569
21
-94.9969
0
LINE
8
Black
10
101.569
20
-94.9969
11
101.569
21
-94.9968
0
LINE
8
Black
10
101.569
20
-94.9968
11
101.569
21
-94.9968
0
LINE
8
Black
10
101.569
20
-94.9968
11
101.097
21
-94.8726
0
LINE
8
Black
10
101.097
20
-94.8726
11
100.675
21
-94.8018
0
LINE
8
Black
10
100.675
20
-94.8018
11
100.324
21
-94.7988
0
LINE
8
Black
10
100.324
20
-94.7988
11
99.8485
21
-94.8415
0
LINE
8
Black
10
99.8485
20
-94.8415
11
99.1902
21
-94.9385
0
LINE
8
Black
10
99.1902
20
-94.9385
11
99.1902
21
-94.9385
0
LINE
8
Black
10
99.1902
20
-94.9385
11
99.1901
21
-94.9385
0
LINE
8
Black
10
99.1901
20
-94.9385
11
96.8893
21
-95.2382
0
LINE
8
Black
10
96.8893
20
-95.2382
11
94.8223
21
-95.6207
0
LINE
8
Black
10
94.8223
20
-95.6207
11
92.9772
21
-96.0926
0
LINE
8
Black
10
92.9772
20
-96.0926
11
91.3423
21
-96.6603
0
LINE
8
Black
10
91.3423
20
-96.6603
11
89.9059
21
-97.3302
0
LINE
8
Black
10
89.9059
20
-97.3302
11
88.6769
21
-98.094
0
LINE
8
Black
10
88.6769
20
-98.094
11
87.617
21
-98.9687
0
LINE
8
Black
10
87.617
20
-98.9687
11
86.7149
21
-99.9607
0
LINE
8
Black
10
86.7149
20
-99.9607
11
85.9595
21
-101.076
0
LINE
8
Black
10
85.9595
20
-101.076
11
85.2361
21
-102.573
0
LINE
8
Black
10
85.2361
20
-102.573
11
84.6862
21
-104.264
0
LINE
8
Black
10
84.6862
20
-104.264
11
84.291
21
-106.16
0
LINE
8
Black
10
84.291
20
-106.16
11
84.0318
21
-108.27
0
LINE
8
Black
10
84.0318
20
-108.27
11
83.8901
21
-110.605
0
LINE
8
Black
10
83.8901
20
-110.605
11
83.847
21
-113.176
0
LINE
8
Black
10
83.847
20
-113.176
11
83.847
21
-113.961
0
LINE
8
Black
10
83.847
20
-113.961
11
84.0018
21
-115.195
0
LINE
8
Black
10
84.0018
20
-115.195
11
84.7161
21
-116.777
0
LINE
8
Black
10
84.7161
20
-116.777
11
84.7162
21
-116.777
0
LINE
8
Black
10
84.7162
20
-116.777
11
84.7167
21
-116.778
0
LINE
8
Black
10
84.7167
20
-116.778
11
86.9989
21
-120.12
0
LINE
8
Black
10
86.9989
20
-120.12
11
87.5443
21
-120.724
0
LINE
8
Black
10
87.5443
20
-120.724
11
88.4445
21
-121.245
0
LINE
8
Black
10
88.4445
20
-121.245
11
89.4694
21
-121.427
0
LINE
8
Black
10
89.4694
20
-121.427
11
89.4705
21
-121.428
0
LINE
8
Black
10
89.4705
20
-121.428
11
89.4709
21
-121.427
0
LINE
8
Black
10
89.4709
20
-121.427
11
89.4726
21
-121.427
0
LINE
8
Black
10
89.4726
20
-121.427
11
99.3105
21
-121.427
0
LINE
8
Black
10
99.3105
20
-121.427
11
99.399
21
-121.426
0
LINE
8
Black
10
99.399
20
-121.426
11
100.419
21
-121.215
0
LINE
8
Black
10
100.419
20
-121.215
11
100.42
21
-121.214
0
LINE
8
Black
10
100.42
20
-121.214
11
100.421
21
-121.215
0
LINE
8
Black
10
100.421
20
-121.215
11
100.421
21
-121.214
0
LINE
8
Black
10
100.421
20
-121.214
11
100.423
21
-121.213
0
LINE
8
Black
10
100.423
20
-121.213
11
104.35
21
-119.642
0
LINE
8
Black
10
104.35
20
-119.642
11
104.352
21
-119.642
0
LINE
8
Black
10
104.352
20
-119.642
11
104.353
21
-119.642
0
LINE
8
Black
10
104.353
20
-119.642
11
104.353
21
-119.642
0
LINE
8
Black
10
104.353
20
-119.642
11
104.354
21
-119.64
0
LINE
8
Black
10
104.354
20
-119.64
11
104.356
21
-119.64
0
LINE
8
Black
10
104.356
20
-119.64
11
105.376
21
-119.428
0
LINE
8
Black
10
105.376
20
-119.428
11
105.376
21
-119.428
0
LINE
8
Black
10
105.376
20
-119.428
11
105.377
21
-119.428
0
LINE
8
Black
10
105.377
20
-119.428
11
105.466
21
-119.427
0
LINE
8
Black
10
105.466
20
-119.427
11
105.466
21
-119.427
0
LINE
8
Black
10
105.466
20
-119.427
11
105.466
21
-119.427
0
LINE
8
Black
10
105.466
20
-119.427
11
110.311
21
-119.427
0
LINE
8
Black
10
110.311
20
-119.427
11
110.312
21
-119.427
0
LINE
8
Black
10
110.312
20
-119.427
11
110.313
21
-119.428
0
LINE
8
Black
10
110.313
20
-119.428
11
110.313
21
-119.428
0
LINE
8
Black
10
110.313
20
-119.428
11
110.315
21
-119.427
0
LINE
8
Black
10
110.315
20
-119.427
11
110.317
21
-119.427
0
LINE
8
Black
10
110.317
20
-119.427
11
111.342
21
-119.61
0
LINE
8
Black
10
111.342
20
-119.61
11
111.343
21
-119.61
0
LINE
8
Black
10
111.343
20
-119.61
11
111.343
21
-119.61
0
LINE
8
Black
10
111.343
20
-119.61
11
111.426
21
-119.642
0
LINE
8
Black
10
111.426
20
-119.642
11
111.426
21
-119.642
0
LINE
8
Black
10
111.426
20
-119.642
11
111.427
21
-119.642
0
LINE
8
Black
10
111.427
20
-119.642
11
115.354
21
-121.213
0
LINE
8
Black
10
115.354
20
-121.213
11
115.436
21
-121.244
0
LINE
8
Black
10
115.436
20
-121.244
11
116.462
21
-121.427
0
LINE
8
Black
10
116.462
20
-121.427
11
116.463
21
-121.428
0
LINE
8
Black
10
116.463
20
-121.428
11
116.463
21
-121.428
0
LINE
8
Black
10
116.463
20
-121.428
11
116.464
21
-121.427
0
LINE
8
Black
10
116.464
20
-121.427
11
116.466
21
-121.427
0
LINE
8
Black
10
116.466
20
-121.427
11
126.304
21
-121.427
0
LINE
8
Black
10
126.304
20
-121.427
11
127.109
21
-121.317
0
LINE
8
Black
10
127.109
20
-121.317
11
128.047
21
-120.867
0
LINE
8
Black
10
128.047
20
-120.867
11
128.776
21
-120.123
0
LINE
8
Black
10
128.776
20
-120.123
11
128.777
21
-120.123
0
LINE
8
Black
10
128.777
20
-120.123
11
128.777
21
-120.122
0
LINE
8
Black
10
128.777
20
-120.122
11
128.777
21
-120.121
0
LINE
8
Black
10
128.777
20
-120.121
11
131.06
21
-116.778
0
LINE
8
Black
10
131.06
20
-116.778
11
131.628
21
-115.672
0
LINE
8
Black
10
131.628
20
-115.672
11
131.93
21
-113.962
0
LINE
8
Black
10
131.93
20
-113.962
11
131.93
21
-113.962
0
LINE
8
Black
10
131.93
20
-113.962
11
131.929
21
-113.961
0
LINE
8
Black
10
131.929
20
-113.961
11
131.929
21
-113.176
0
LINE
8
Black
10
142.715
20
-121.058
11
142.714
21
-121.06
0
LINE
8
Black
10
142.714
20
-121.06
11
142.075
21
-122.293
0
LINE
8
Black
10
142.075
20
-122.293
11
142.074
21
-122.293
0
LINE
8
Black
10
142.074
20
-122.293
11
142.074
21
-122.294
0
LINE
8
Black
10
142.074
20
-122.294
11
141.725
21
-122.693
0
LINE
8
Black
10
141.725
20
-122.693
11
141.725
21
-122.693
0
LINE
8
Black
10
141.725
20
-122.693
11
141.725
21
-122.693
0
LINE
8
Black
10
141.725
20
-122.693
11
139.105
21
-125.313
0
LINE
8
Black
10
139.105
20
-125.313
11
139.103
21
-125.314
0
LINE
8
Black
10
139.103
20
-125.314
11
139.102
21
-125.314
0
LINE
8
Black
10
139.102
20
-125.314
11
139.102
21
-125.314
0
LINE
8
Black
10
139.102
20
-125.314
11
139.102
21
-125.315
0
LINE
8
Black
10
139.102
20
-125.315
11
139.101
21
-125.317
0
LINE
8
Black
10
139.101
20
-125.317
11
139.1
21
-125.318
0
LINE
8
Black
10
139.1
20
-125.318
11
137.96
21
-126.113
0
LINE
8
Black
10
137.96
20
-126.113
11
137.959
21
-126.114
0
LINE
8
Black
10
137.959
20
-126.114
11
136.616
21
-126.471
0
LINE
8
Black
10
136.616
20
-126.471
11
136.616
21
-126.471
0
LINE
8
Black
10
136.616
20
-126.471
11
136.615
21
-126.471
0
LINE
8
Black
10
136.615
20
-126.471
11
136.232
21
-126.486
0
LINE
8
Black
10
136.232
20
-126.486
11
136.232
21
-126.486
0
LINE
8
Black
10
136.232
20
-126.486
11
136.232
21
-126.486
0
LINE
8
Black
10
136.232
20
-126.486
11
135.015
21
-126.544
0
LINE
8
Black
10
135.015
20
-126.544
11
133.998
21
-126.71
0
LINE
8
Black
10
133.998
20
-126.71
11
133.162
21
-126.966
0
LINE
8
Black
10
133.162
20
-126.966
11
132.492
21
-127.295
0
LINE
8
Black
10
132.492
20
-127.295
11
131.967
21
-127.682
0
LINE
8
Black
10
131.967
20
-127.682
11
131.483
21
-128.233
0
LINE
8
Black
10
131.483
20
-128.233
11
131.17
21
-128.817
0
LINE
8
Black
10
131.17
20
-128.817
11
130.992
21
-129.4
0
LINE
8
Black
10
130.992
20
-129.4
11
130.912
21
-129.95
0
LINE
8
Black
10
130.912
20
-129.95
11
130.893
21
-130.432
0
LINE
8
Black
10
130.893
20
-130.432
11
130.893
21
-170.432
0
LINE
8
Black
10
130.893
20
-170.432
11
130.992
21
-171.291
0
LINE
8
Black
10
130.992
20
-171.291
11
131.263
21
-171.963
0
LINE
8
Black
10
131.263
20
-171.963
11
131.673
21
-172.489
0
LINE
8
Black
10
131.673
20
-172.489
11
132.187
21
-172.91
0
LINE
8
Black
10
132.187
20
-172.91
11
132.772
21
-173.267
0
LINE
8
Black
10
132.772
20
-173.267
11
133.391
21
-173.601
0
LINE
8
Black
10
133.391
20
-173.601
11
133.391
21
-173.602
0
LINE
8
Black
10
133.391
20
-173.602
11
133.391
21
-173.602
0
LINE
8
Black
10
133.391
20
-173.602
11
134.01
21
-173.954
0
LINE
8
Black
10
134.01
20
-173.954
11
134.01
21
-173.954
0
LINE
8
Black
10
134.01
20
-173.954
11
134.01
21
-173.955
0
LINE
8
Black
10
134.01
20
-173.955
11
134.595
21
-174.366
0
LINE
8
Black
10
134.595
20
-174.366
11
134.595
21
-174.367
0
LINE
8
Black
10
134.595
20
-174.367
11
134.595
21
-174.367
0
LINE
8
Black
10
134.595
20
-174.367
11
135.111
21
-174.879
0
LINE
8
Black
10
135.111
20
-174.879
11
135.111
21
-174.88
0
LINE
8
Black
10
135.111
20
-174.88
11
135.111
21
-174.88
0
LINE
8
Black
10
135.111
20
-174.88
11
135.431
21
-175.355
0
LINE
8
Black
10
135.431
20
-175.355
11
135.431
21
-175.355
0
LINE
8
Black
10
135.431
20
-175.355
11
135.431
21
-175.356
0
LINE
8
Black
10
135.431
20
-175.356
11
135.678
21
-175.927
0
LINE
8
Black
10
135.678
20
-175.927
11
135.678
21
-175.928
0
LINE
8
Black
10
135.678
20
-175.928
11
135.678
21
-175.928
0
LINE
8
Black
10
135.678
20
-175.928
11
135.837
21
-176.614
0
LINE
8
Black
10
135.837
20
-176.614
11
135.837
21
-176.614
0
LINE
8
Black
10
135.837
20
-176.614
11
135.837
21
-176.614
0
LINE
8
Black
10
135.837
20
-176.614
11
135.893
21
-177.432
0
LINE
8
Black
10
135.893
20
-177.432
11
135.893
21
-177.432
0
LINE
8
Black
10
135.893
20
-177.432
11
135.893
21
-177.432
0
LINE
8
Black
10
135.893
20
-177.432
11
135.893
21
-179.432
0
LINE
8
Black
10
135.893
20
-179.432
11
135.893
21
-179.434
0
LINE
8
Black
10
135.893
20
-179.434
11
135.892
21
-179.435
0
LINE
8
Black
10
135.892
20
-179.435
11
135.892
21
-179.436
0
LINE
8
Black
10
135.892
20
-179.436
11
135.893
21
-179.437
0
LINE
8
Black
10
135.893
20
-179.437
11
135.893
21
-179.438
0
LINE
8
Black
10
135.893
20
-179.438
11
135.893
21
-179.44
0
LINE
8
Black
10
135.893
20
-179.44
11
135.65
21
-180.808
0
LINE
8
Black
10
135.65
20
-180.808
11
135.65
21
-180.808
0
LINE
8
Black
10
135.65
20
-180.808
11
135.649
21
-180.808
0
LINE
8
Black
10
135.649
20
-180.808
11
135.649
21
-180.809
0
LINE
8
Black
10
135.649
20
-180.809
11
134.952
21
-182.011
0
LINE
8
Black
10
134.952
20
-182.011
11
134.952
21
-182.011
0
LINE
8
Black
10
134.952
20
-182.011
11
134.951
21
-182.012
0
LINE
8
Black
10
134.951
20
-182.012
11
133.885
21
-182.903
0
LINE
8
Black
10
133.885
20
-182.903
11
133.885
21
-182.903
0
LINE
8
Black
10
133.885
20
-182.903
11
133.884
21
-182.904
0
LINE
8
Black
10
133.884
20
-182.904
11
132.578
21
-183.377
0
LINE
8
Black
10
132.578
20
-183.377
11
132.577
21
-183.377
0
LINE
8
Black
10
132.577
20
-183.377
11
132.576
21
-183.377
0
LINE
8
Black
10
132.576
20
-183.377
11
131.889
21
-183.437
0
LINE
8
Black
10
131.889
20
-183.437
11
131.888
21
-183.437
0
LINE
8
Black
10
131.888
20
-183.437
11
131.888
21
-183.437
0
LINE
8
Black
10
131.888
20
-183.437
11
126.215
21
-183.437
0
LINE
8
Black
10
126.215
20
-183.437
11
126.214
21
-183.437
0
LINE
8
Black
10
126.214
20
-183.437
11
126.214
21
-183.437
0
LINE
8
Black
10
126.214
20
-183.437
11
126.102
21
-183.407
0
LINE
8
Black
10
126.102
20
-183.407
11
126.102
21
-183.407
0
LINE
8
Black
10
126.102
20
-183.407
11
126.102
21
-183.407
0
LINE
8
Black
10
126.102
20
-183.407
11
125.789
21
-183.27
0
LINE
8
Black
10
125.789
20
-183.27
11
125.789
21
-183.27
0
LINE
8
Black
10
125.789
20
-183.27
11
125.788
21
-183.27
0
LINE
8
Black
10
125.788
20
-183.27
11
125.3
21
-183.009
0
LINE
8
Black
10
125.3
20
-183.009
11
125.3
21
-183.009
0
LINE
8
Black
10
125.3
20
-183.009
11
125.3
21
-183.009
0
LINE
8
Black
10
125.3
20
-183.009
11
124.686
21
-182.68
0
LINE
8
Black
10
124.686
20
-182.68
11
123.921
21
-182.335
0
LINE
8
Black
10
123.921
20
-182.335
11
122.987
21
-182.053
0
LINE
8
Black
10
122.987
20
-182.053
11
121.888
21
-181.937
0
LINE
8
Black
10
121.888
20
-181.937
11
93.8885
21
-181.937
0
LINE
8
Black
10
93.8885
20
-181.937
11
93.0157
21
-182.011
0
LINE
8
Black
10
93.0157
20
-182.011
11
92.2338
21
-182.201
0
LINE
8
Black
10
92.2338
20
-182.201
11
91.5642
21
-182.455
0
LINE
8
Black
10
91.5642
20
-182.455
11
90.9935
21
-182.729
0
LINE
8
Black
10
90.9935
20
-182.729
11
90.4642
21
-183.016
0
LINE
8
Black
10
90.4642
20
-183.016
11
90.4642
21
-183.016
0
LINE
8
Black
10
90.4642
20
-183.016
11
90.4642
21
-183.016
0
LINE
8
Black
10
90.4642
20
-183.016
11
90.0459
21
-183.24
0
LINE
8
Black
10
90.0459
20
-183.24
11
90.0458
21
-183.24
0
LINE
8
Black
10
90.0458
20
-183.24
11
90.0457
21
-183.24
0
LINE
8
Black
10
90.0457
20
-183.24
11
89.7848
21
-183.364
0
LINE
8
Black
10
89.7848
20
-183.364
11
89.7845
21
-183.364
0
LINE
8
Black
10
89.7845
20
-183.364
11
89.7843
21
-183.365
0
LINE
8
Black
10
89.7843
20
-183.365
11
89.6207
21
-183.424
0
LINE
8
Black
10
89.6207
20
-183.424
11
89.6204
21
-183.424
0
LINE
8
Black
10
89.6204
20
-183.424
11
89.6201
21
-183.424
0
LINE
8
Black
10
89.6201
20
-183.424
11
89.5625
21
-183.437
0
LINE
8
Black
10
89.5625
20
-183.437
11
89.562
21
-183.437
0
LINE
8
Black
10
89.562
20
-183.437
11
89.5615
21
-183.437
0
LINE
8
Black
10
89.5615
20
-183.437
11
83.8883
21
-183.437
0
LINE
8
Black
10
83.8883
20
-183.437
11
83.8865
21
-183.437
0
LINE
8
Black
10
83.8865
20
-183.437
11
83.885
21
-183.436
0
LINE
8
Black
10
83.885
20
-183.436
11
83.8848
21
-183.436
0
LINE
8
Black
10
83.8848
20
-183.436
11
83.8838
21
-183.436
0
LINE
8
Black
10
83.8838
20
-183.436
11
83.8821
21
-183.437
0
LINE
8
Black
10
83.8821
20
-183.437
11
83.8804
21
-183.437
0
LINE
8
Black
10
83.8804
20
-183.437
11
82.5127
21
-183.193
0
LINE
8
Black
10
82.5127
20
-183.193
11
82.512
21
-183.193
0
LINE
8
Black
10
82.512
20
-183.193
11
82.5111
21
-183.193
0
LINE
8
Black
10
82.5111
20
-183.193
11
81.3092
21
-182.496
0
LINE
8
Black
10
81.3092
20
-182.496
11
81.3079
21
-182.495
0
LINE
8
Black
10
81.3079
20
-182.495
11
80.4168
21
-181.429
0
LINE
8
Black
10
80.4168
20
-181.429
11
80.416
21
-181.428
0
LINE
8
Black
10
80.416
20
-181.428
11
79.9431
21
-180.121
0
LINE
8
Black
10
79.9431
20
-180.121
11
79.943
21
-180.121
0
LINE
8
Black
10
79.943
20
-180.121
11
79.9428
21
-180.12
0
LINE
8
Black
10
79.9428
20
-180.12
11
79.8833
21
-179.432
0
LINE
8
Black
10
79.8833
20
-179.432
11
79.8833
21
-179.432
0
LINE
8
Black
10
79.8833
20
-179.432
11
79.8833
21
-179.432
0
LINE
8
Black
10
79.8833
20
-179.432
11
79.8833
21
-177.432
0
LINE
8
Black
10
79.8833
20
-177.432
11
79.8833
21
-177.432
0
LINE
8
Black
10
79.8833
20
-177.432
11
79.8833
21
-177.432
0
LINE
8
Black
10
79.8833
20
-177.432
11
79.9394
21
-176.614
0
LINE
8
Black
10
79.9394
20
-176.614
11
79.9395
21
-176.614
0
LINE
8
Black
10
79.9395
20
-176.614
11
79.9395
21
-176.614
0
LINE
8
Black
10
79.9395
20
-176.614
11
80.0982
21
-175.928
0
LINE
8
Black
10
80.0982
20
-175.928
11
80.0984
21
-175.928
0
LINE
8
Black
10
80.0984
20
-175.928
11
80.0985
21
-175.927
0
LINE
8
Black
10
80.0985
20
-175.927
11
80.3451
21
-175.356
0
LINE
8
Black
10
80.3451
20
-175.356
11
80.3453
21
-175.355
0
LINE
8
Black
10
80.3453
20
-175.355
11
80.3455
21
-175.355
0
LINE
8
Black
10
80.3455
20
-175.355
11
80.6654
21
-174.88
0
LINE
8
Black
10
80.6654
20
-174.88
11
80.6657
21
-174.88
0
LINE
8
Black
10
80.6657
20
-174.88
11
80.666
21
-174.879
0
LINE
8
Black
10
80.666
20
-174.879
11
81.181
21
-174.367
0
LINE
8
Black
10
81.181
20
-174.367
11
81.1814
21
-174.367
0
LINE
8
Black
10
81.1814
20
-174.367
11
81.1817
21
-174.366
0
LINE
8
Black
10
81.1817
20
-174.366
11
81.7662
21
-173.955
0
LINE
8
Black
10
81.7662
20
-173.955
11
81.7664
21
-173.954
0
LINE
8
Black
10
81.7664
20
-173.954
11
81.7666
21
-173.954
0
LINE
8
Black
10
81.7666
20
-173.954
11
82.3858
21
-173.602
0
LINE
8
Black
10
82.3858
20
-173.602
11
82.3858
21
-173.602
0
LINE
8
Black
10
82.3858
20
-173.602
11
82.3859
21
-173.601
0
LINE
8
Black
10
82.3859
20
-173.601
11
83.005
21
-173.267
0
LINE
8
Black
10
83.005
20
-173.267
11
83.5891
21
-172.91
0
LINE
8
Black
10
83.5891
20
-172.91
11
84.1034
21
-172.489
0
LINE
8
Black
10
84.1034
20
-172.489
11
84.5135
21
-171.963
0
LINE
8
Black
10
84.5135
20
-171.963
11
84.785
21
-171.291
0
LINE
8
Black
10
84.785
20
-171.291
11
84.8833
21
-170.432
0
LINE
8
Black
10
84.8833
20
-170.432
11
84.8833
21
-130.432
0
LINE
8
Black
10
84.8833
20
-130.432
11
84.8482
21
-129.785
0
LINE
8
Black
10
84.8482
20
-129.785
11
84.6882
21
-129.041
0
LINE
8
Black
10
84.6882
20
-129.041
11
84.3211
21
-128.274
0
LINE
8
Black
10
84.3211
20
-128.274
11
83.9422
21
-127.809
0
LINE
8
Black
10
83.9422
20
-127.809
11
83.4248
21
-127.384
0
LINE
8
Black
10
83.4248
20
-127.384
11
82.7477
21
-127.021
0
LINE
8
Black
10
82.7477
20
-127.021
11
81.8895
21
-126.736
0
LINE
8
Black
10
81.8895
20
-126.736
11
80.8291
21
-126.552
0
LINE
8
Black
10
80.8291
20
-126.552
11
79.5449
21
-126.486
0
LINE
8
Black
10
79.5449
20
-126.486
11
79.5432
21
-126.485
0
LINE
8
Black
10
79.5432
20
-126.485
11
79.5419
21
-126.484
0
LINE
8
Black
10
79.5419
20
-126.484
11
79.5412
21
-126.485
0
LINE
8
Black
10
79.5412
20
-126.485
11
79.5395
21
-126.486
0
LINE
8
Black
10
79.5395
20
-126.486
11
79.5378
21
-126.486
0
LINE
8
Black
10
79.5378
20
-126.486
11
78.1676
21
-126.256
0
LINE
8
Black
10
78.1676
20
-126.256
11
78.166
21
-126.256
0
LINE
8
Black
10
78.166
20
-126.256
11
76.9569
21
-125.572
0
LINE
8
Black
10
76.9569
20
-125.572
11
76.9564
21
-125.571
0
LINE
8
Black
10
76.9564
20
-125.571
11
76.956
21
-125.571
0
LINE
8
Black
10
76.956
20
-125.571
11
76.6719
21
-125.313
0
LINE
8
Black
10
76.6719
20
-125.313
11
76.6718
21
-125.313
0
LINE
8
Black
10
76.6718
20
-125.313
11
76.6717
21
-125.313
0
LINE
8
Black
10
76.6717
20
-125.313
11
74.052
21
-122.693
0
LINE
8
Black
10
74.052
20
-122.693
11
74.051
21
-122.692
0
LINE
8
Black
10
74.051
20
-122.692
11
74.0508
21
-122.691
0
LINE
8
Black
10
74.0508
20
-122.691
11
74.0492
21
-122.69
0
LINE
8
Black
10
74.0492
20
-122.69
11
74.048
21
-122.689
0
LINE
8
Black
10
74.048
20
-122.689
11
73.2526
21
-121.55
0
LINE
8
Black
10
73.2526
20
-121.55
11
73.2518
21
-121.548
0
LINE
8
Black
10
73.2518
20
-121.548
11
72.8939
21
-120.206
0
LINE
8
Black
10
72.8939
20
-120.206
11
72.8938
21
-120.206
0
LINE
8
Black
10
72.8938
20
-120.206
11
72.8937
21
-120.205
0
LINE
8
Black
10
72.8937
20
-120.205
11
72.8833
21
-119.675
0
LINE
8
Black
10
72.8833
20
-119.675
11
72.8833
21
-119.675
0
LINE
8
Black
10
72.8833
20
-119.675
11
72.8833
21
-119.675
0
LINE
8
Black
10
72.8833
20
-119.675
11
72.9371
21
-117.733
0
LINE
8
Black
10
72.9371
20
-117.733
11
72.9371
21
-117.733
0
LINE
8
Black
10
72.9371
20
-117.733
11
72.9371
21
-117.733
0
LINE
8
Black
10
72.9371
20
-117.733
11
73.1107
21
-115.628
0
LINE
8
Black
10
73.1107
20
-115.628
11
73.1107
21
-115.628
0
LINE
8
Black
10
73.1107
20
-115.628
11
73.1107
21
-115.628
0
LINE
8
Black
10
73.1107
20
-115.628
11
73.4222
21
-113.392
0
LINE
8
Black
10
73.4222
20
-113.392
11
73.4223
21
-113.391
0
LINE
8
Black
10
73.4223
20
-113.391
11
73.4223
21
-113.391
0
LINE
8
Black
10
73.4223
20
-113.391
11
73.8899
21
-111.057
0
LINE
8
Black
10
73.8899
20
-111.057
11
73.89
21
-111.057
0
LINE
8
Black
10
73.89
20
-111.057
11
73.89
21
-111.057
0
LINE
8
Black
10
73.89
20
-111.057
11
74.532
21
-108.657
0
LINE
8
Black
10
74.532
20
-108.657
11
74.532
21
-108.656
0
LINE
8
Black
10
74.532
20
-108.656
11
74.5321
21
-108.656
0
LINE
8
Black
10
74.5321
20
-108.656
11
75.3665
21
-106.224
0
LINE
8
Black
10
75.3665
20
-106.224
11
75.3666
21
-106.224
0
LINE
8
Black
10
75.3666
20
-106.224
11
75.3666
21
-106.223
0
LINE
8
Black
10
75.3666
20
-106.223
11
76.4117
21
-103.791
0
LINE
8
Black
10
76.4117
20
-103.791
11
76.4118
21
-103.791
0
LINE
8
Black
10
76.4118
20
-103.791
11
76.4119
21
-103.791
0
LINE
8
Black
10
76.4119
20
-103.791
11
77.6857
21
-101.391
0
LINE
8
Black
10
77.6857
20
-101.391
11
77.6859
21
-101.391
0
LINE
8
Black
10
77.6859
20
-101.391
11
77.686
21
-101.391
0
LINE
8
Black
10
77.686
20
-101.391
11
79.0366
21
-99.2963
0
LINE
8
Black
10
79.0366
20
-99.2963
11
79.0368
21
-99.2962
0
LINE
8
Black
10
79.0368
20
-99.2962
11
79.0369
21
-99.296
0
LINE
8
Black
10
79.0369
20
-99.296
11
80.5989
21
-97.2777
0
LINE
8
Black
10
80.5989
20
-97.2777
11
80.5991
21
-97.2775
0
LINE
8
Black
10
80.5991
20
-97.2775
11
80.5992
21
-97.2773
0
LINE
8
Black
10
80.5992
20
-97.2773
11
82.3857
21
-95.3591
0
LINE
8
Black
10
82.3857
20
-95.3591
11
82.3859
21
-95.359
0
LINE
8
Black
10
82.3859
20
-95.359
11
82.3861
21
-95.3588
0
LINE
8
Black
10
82.3861
20
-95.3588
11
84.4101
21
-93.5643
0
LINE
8
Black
10
84.4101
20
-93.5643
11
84.4103
21
-93.5641
0
LINE
8
Black
10
84.4103
20
-93.5641
11
84.4105
21
-93.564
0
LINE
8
Black
10
84.4105
20
-93.564
11
86.6851
21
-91.9167
0
LINE
8
Black
10
86.6851
20
-91.9167
11
86.6853
21
-91.9167
0
LINE
8
Black
10
86.6853
20
-91.9167
11
86.6854
21
-91.9165
0
LINE
8
Black
10
86.6854
20
-91.9165
11
88.4338
21
-90.8638
0
LINE
8
Black
10
88.4338
20
-90.8638
11
88.4339
21
-90.8637
0
LINE
8
Black
10
88.4339
20
-90.8637
11
88.4341
21
-90.8636
0
LINE
8
Black
10
88.4341
20
-90.8636
11
90.3161
21
-89.9027
0
LINE
8
Black
10
90.3161
20
-89.9027
11
90.3162
21
-89.9026
0
LINE
8
Black
10
90.3162
20
-89.9026
11
90.3164
21
-89.9025
0
LINE
8
Black
10
90.3164
20
-89.9025
11
92.3366
21
-89.0416
0
LINE
8
Black
10
92.3366
20
-89.0416
11
92.3367
21
-89.0415
0
LINE
8
Black
10
92.3367
20
-89.0415
11
92.3369
21
-89.0414
0
LINE
8
Black
10
92.3369
20
-89.0414
11
94.4997
21
-88.2885
0
LINE
8
Black
10
94.4997
20
-88.2885
11
94.4999
21
-88.2885
0
LINE
8
Black
10
94.4999
20
-88.2885
11
94.5001
21
-88.2884
0
LINE
8
Black
10
94.5001
20
-88.2884
11
96.8534
21
-87.6412
0
LINE
8
Black
10
96.8534
20
-87.6412
11
96.8536
21
-87.6412
0
LINE
8
Black
10
96.8536
20
-87.6412
11
96.8537
21
-87.6411
0
LINE
8
Black
10
96.8537
20
-87.6411
11
99.3644
21
-87.1228
0
LINE
8
Black
10
99.3644
20
-87.1228
11
99.3645
21
-87.1228
0
LINE
8
Black
10
99.3645
20
-87.1228
11
99.3647
21
-87.1228
0
LINE
8
Black
10
99.3647
20
-87.1228
11
102.037
21
-86.742
0
LINE
8
Black
10
102.037
20
-86.742
11
102.037
21
-86.742
0
LINE
8
Black
10
102.037
20
-86.742
11
102.038
21
-86.7419
0
LINE
8
Black
10
102.038
20
-86.7419
11
104.877
21
-86.5072
0
LINE
8
Black
10
104.877
20
-86.5072
11
104.877
21
-86.5072
0
LINE
8
Black
10
104.877
20
-86.5072
11
104.877
21
-86.5072
0
LINE
8
Black
10
104.877
20
-86.5072
11
107.888
21
-86.427
0
LINE
8
Black
10
107.888
20
-86.427
11
107.888
21
-86.427
0
LINE
8
Black
10
107.888
20
-86.427
11
107.888
21
-86.427
0
LINE
8
Black
10
107.888
20
-86.427
11
111.198
21
-86.5242
0
LINE
8
Black
10
111.198
20
-86.5242
11
111.198
21
-86.5243
0
LINE
8
Black
10
111.198
20
-86.5243
11
111.198
21
-86.5243
0
LINE
8
Black
10
111.198
20
-86.5243
11
114.3
21
-86.8083
0
LINE
8
Black
10
114.3
20
-86.8083
11
114.3
21
-86.8084
0
LINE
8
Black
10
114.3
20
-86.8084
11
114.3
21
-86.8084
0
LINE
8
Black
10
114.3
20
-86.8084
11
117.2
21
-87.2678
0
LINE
8
Black
10
117.2
20
-87.2678
11
117.2
21
-87.2678
0
LINE
8
Black
10
117.2
20
-87.2678
11
117.201
21
-87.2678
0
LINE
8
Black
10
117.201
20
-87.2678
11
119.906
21
-87.8911
0
LINE
8
Black
10
119.906
20
-87.8911
11
119.906
21
-87.8912
0
LINE
8
Black
10
119.906
20
-87.8912
11
119.906
21
-87.8912
0
LINE
8
Black
10
119.906
20
-87.8912
11
122.422
21
-88.667
0
LINE
8
Black
10
122.422
20
-88.667
11
122.422
21
-88.6671
0
LINE
8
Black
10
122.422
20
-88.6671
11
122.423
21
-88.6671
0
LINE
8
Black
10
122.423
20
-88.6671
11
124.892
21
-89.6437
0
LINE
8
Black
10
124.892
20
-89.6437
11
124.892
21
-89.6439
0
LINE
8
Black
10
124.892
20
-89.6439
11
124.893
21
-89.6439
0
LINE
8
Black
10
124.893
20
-89.6439
11
127.164
21
-90.7655
0
LINE
8
Black
10
127.164
20
-90.7655
11
127.165
21
-90.7656
0
LINE
8
Black
10
127.165
20
-90.7656
11
127.165
21
-90.7657
0
LINE
8
Black
10
127.165
20
-90.7657
11
129.247
21
-92.0185
0
LINE
8
Black
10
129.247
20
-92.0185
11
129.247
21
-92.0187
0
LINE
8
Black
10
129.247
20
-92.0187
11
129.247
21
-92.0188
0
LINE
8
Black
10
129.247
20
-92.0188
11
131.146
21
-93.3893
0
LINE
8
Black
10
131.146
20
-93.3893
11
131.146
21
-93.3894
0
LINE
8
Black
10
131.146
20
-93.3894
11
131.147
21
-93.3895
0
LINE
8
Black
10
131.147
20
-93.3895
11
132.871
21
-94.864
0
LINE
8
Black
10
132.871
20
-94.864
11
132.871
21
-94.8641
0
LINE
8
Black
10
132.871
20
-94.8641
11
132.871
21
-94.8642
0
LINE
8
Black
10
132.871
20
-94.8642
11
134.428
21
-96.429
0
LINE
8
Black
10
134.428
20
-96.429
11
134.428
21
-96.4292
0
LINE
8
Black
10
134.428
20
-96.4292
11
134.429
21
-96.4293
0
LINE
8
Black
10
134.429
20
-96.4293
11
136.087
21
-98.407
0
LINE
8
Black
10
136.087
20
-98.407
11
136.087
21
-98.4072
0
LINE
8
Black
10
136.087
20
-98.4072
11
136.087
21
-98.4073
0
LINE
8
Black
10
136.087
20
-98.4073
11
137.528
21
-100.472
0
LINE
8
Black
10
137.528
20
-100.472
11
137.528
21
-100.472
0
LINE
8
Black
10
137.528
20
-100.472
11
137.528
21
-100.472
0
LINE
8
Black
10
137.528
20
-100.472
11
138.765
21
-102.6
0
LINE
8
Black
10
138.765
20
-102.6
11
138.765
21
-102.6
0
LINE
8
Black
10
138.765
20
-102.6
11
138.765
21
-102.6
0
LINE
8
Black
10
138.765
20
-102.6
11
139.812
21
-104.767
0
LINE
8
Black
10
139.812
20
-104.767
11
139.812
21
-104.767
0
LINE
8
Black
10
139.812
20
-104.767
11
139.812
21
-104.767
0
LINE
8
Black
10
139.812
20
-104.767
11
140.68
21
-106.95
0
LINE
8
Black
10
140.68
20
-106.95
11
140.68
21
-106.951
0
LINE
8
Black
10
140.68
20
-106.951
11
140.68
21
-106.951
0
LINE
8
Black
10
140.68
20
-106.951
11
141.549
21
-109.715
0
LINE
8
Black
10
141.549
20
-109.715
11
141.549
21
-109.715
0
LINE
8
Black
10
141.549
20
-109.715
11
141.549
21
-109.715
0
LINE
8
Black
10
141.549
20
-109.715
11
142.177
21
-112.418
0
LINE
8
Black
10
142.177
20
-112.418
11
142.177
21
-112.418
0
LINE
8
Black
10
142.177
20
-112.418
11
142.177
21
-112.419
0
LINE
8
Black
10
142.177
20
-112.419
11
142.593
21
-115.012
0
LINE
8
Black
10
142.593
20
-115.012
11
142.593
21
-115.012
0
LINE
8
Black
10
142.593
20
-115.012
11
142.593
21
-115.012
0
LINE
8
Black
10
142.593
20
-115.012
11
142.823
21
-117.447
0
LINE
8
Black
10
142.823
20
-117.447
11
142.823
21
-117.447
0
LINE
8
Black
10
142.823
20
-117.447
11
142.823
21
-117.447
0
LINE
8
Black
10
142.823
20
-117.447
11
142.893
21
-119.675
0
LINE
8
Black
10
142.893
20
-119.675
11
142.893
21
-119.676
0
LINE
8
Black
10
142.893
20
-119.676
11
142.893
21
-119.677
0
LINE
8
Black
10
142.893
20
-119.677
11
142.893
21
-119.678
0
LINE
8
Black
10
142.893
20
-119.678
11
142.893
21
-119.68
0
LINE
8
Black
10
142.893
20
-119.68
11
142.884
21
-119.753
0
LINE
8
Black
10
142.884
20
-119.753
11
142.715
21
-121.058
0
LINE
8
Black
10
142.883
20
-119.675
11
142.813
21
-117.448
0
LINE
8
Black
10
142.813
20
-117.448
11
142.583
21
-115.013
0
LINE
8
Black
10
142.583
20
-115.013
11
142.168
21
-112.42
0
LINE
8
Black
10
142.168
20
-112.42
11
141.539
21
-109.718
0
LINE
8
Black
10
141.539
20
-109.718
11
140.671
21
-106.954
0
LINE
8
Black
10
140.671
20
-106.954
11
139.802
21
-104.771
0
LINE
8
Black
10
139.802
20
-104.771
11
138.756
21
-102.604
0
LINE
8
Black
10
138.756
20
-102.604
11
137.52
21
-100.477
0
LINE
8
Black
10
137.52
20
-100.477
11
136.079
21
-98.4132
0
LINE
8
Black
10
136.079
20
-98.4132
11
134.421
21
-96.4359
0
LINE
8
Black
10
134.421
20
-96.4359
11
132.864
21
-94.8714
0
LINE
8
Black
10
132.864
20
-94.8714
11
131.14
21
-93.3973
0
LINE
8
Black
10
131.14
20
-93.3973
11
129.241
21
-92.027
0
LINE
8
Black
10
129.241
20
-92.027
11
127.16
21
-90.7744
0
LINE
8
Black
10
127.16
20
-90.7744
11
124.888
21
-89.653
0
LINE
8
Black
10
124.888
20
-89.653
11
122.419
21
-88.6765
0
LINE
8
Black
10
122.419
20
-88.6765
11
119.903
21
-87.9008
0
LINE
8
Black
10
119.903
20
-87.9008
11
117.198
21
-87.2776
0
LINE
8
Black
10
117.198
20
-87.2776
11
114.299
21
-86.8183
0
LINE
8
Black
10
114.299
20
-86.8183
11
111.197
21
-86.5342
0
LINE
8
Black
10
111.197
20
-86.5342
11
107.888
21
-86.437
0
LINE
8
Black
10
107.888
20
-86.437
11
104.878
21
-86.5172
0
LINE
8
Black
10
104.878
20
-86.5172
11
102.039
21
-86.7519
0
LINE
8
Black
10
102.039
20
-86.7519
11
99.3662
21
-87.1326
0
LINE
8
Black
10
99.3662
20
-87.1326
11
96.8559
21
-87.6509
0
LINE
8
Black
10
96.8559
20
-87.6509
11
94.5029
21
-88.298
0
LINE
8
Black
10
94.5029
20
-88.298
11
92.3403
21
-89.0508
0
LINE
8
Black
10
92.3403
20
-89.0508
11
90.3205
21
-89.9117
0
LINE
8
Black
10
90.3205
20
-89.9117
11
88.4388
21
-90.8724
0
LINE
8
Black
10
88.4388
20
-90.8724
11
86.6908
21
-91.925
0
LINE
8
Black
10
86.6908
20
-91.925
11
84.4165
21
-93.5719
0
LINE
8
Black
10
84.4165
20
-93.5719
11
82.3929
21
-95.3661
0
LINE
8
Black
10
82.3929
20
-95.3661
11
80.6067
21
-97.284
0
LINE
8
Black
10
80.6067
20
-97.284
11
79.0449
21
-99.3019
0
LINE
8
Black
10
79.0449
20
-99.3019
11
77.6945
21
-101.396
0
LINE
8
Black
10
77.6945
20
-101.396
11
76.4208
21
-103.795
0
LINE
8
Black
10
76.4208
20
-103.795
11
75.3759
21
-106.227
0
LINE
8
Black
10
75.3759
20
-106.227
11
74.5416
21
-108.659
0
LINE
8
Black
10
74.5416
20
-108.659
11
73.8997
21
-111.059
0
LINE
8
Black
10
73.8997
20
-111.059
11
73.4321
21
-113.393
0
LINE
8
Black
10
73.4321
20
-113.393
11
73.1206
21
-115.629
0
LINE
8
Black
10
73.1206
20
-115.629
11
72.9471
21
-117.734
0
LINE
8
Black
10
72.9471
20
-117.734
11
72.8933
21
-119.675
0
LINE
8
Black
10
72.8933
20
-119.675
11
72.9037
21
-120.204
0
LINE
8
Black
10
72.9037
20
-120.204
11
73.2613
21
-121.545
0
LINE
8
Black
10
73.2613
20
-121.545
11
74.0562
21
-122.683
0
LINE
8
Black
10
74.0562
20
-122.683
11
74.0569
21
-122.685
0
LINE
8
Black
10
74.0569
20
-122.685
11
74.0576
21
-122.685
0
LINE
8
Black
10
74.0576
20
-122.685
11
74.059
21
-122.686
0
LINE
8
Black
10
74.059
20
-122.686
11
76.6787
21
-125.306
0
LINE
8
Black
10
76.6787
20
-125.306
11
76.9623
21
-125.563
0
LINE
8
Black
10
76.9623
20
-125.563
11
78.1702
21
-126.247
0
LINE
8
Black
10
78.1702
20
-126.247
11
79.5394
21
-126.476
0
LINE
8
Black
10
79.5394
20
-126.476
11
79.5411
21
-126.476
0
LINE
8
Black
10
79.5411
20
-126.476
11
79.5418
21
-126.477
0
LINE
8
Black
10
79.5418
20
-126.477
11
79.5421
21
-126.477
0
LINE
8
Black
10
79.5421
20
-126.477
11
79.5437
21
-126.476
0
LINE
8
Black
10
79.5437
20
-126.476
11
79.5454
21
-126.476
0
LINE
8
Black
10
79.5454
20
-126.476
11
80.8299
21
-126.542
0
LINE
8
Black
10
80.8299
20
-126.542
11
80.8302
21
-126.542
0
LINE
8
Black
10
80.8302
20
-126.542
11
80.8305
21
-126.542
0
LINE
8
Black
10
80.8305
20
-126.542
11
81.8916
21
-126.727
0
LINE
8
Black
10
81.8916
20
-126.727
11
81.892
21
-126.727
0
LINE
8
Black
10
81.892
20
-126.727
11
81.8923
21
-126.727
0
LINE
8
Black
10
81.8923
20
-126.727
11
82.7512
21
-127.011
0
LINE
8
Black
10
82.7512
20
-127.011
11
82.7516
21
-127.011
0
LINE
8
Black
10
82.7516
20
-127.011
11
82.752
21
-127.012
0
LINE
8
Black
10
82.752
20
-127.012
11
83.4299
21
-127.376
0
LINE
8
Black
10
83.4299
20
-127.376
11
83.4303
21
-127.376
0
LINE
8
Black
10
83.4303
20
-127.376
11
83.4308
21
-127.376
0
LINE
8
Black
10
83.4308
20
-127.376
11
83.9489
21
-127.801
0
LINE
8
Black
10
83.9489
20
-127.801
11
83.9492
21
-127.802
0
LINE
8
Black
10
83.9492
20
-127.802
11
83.9496
21
-127.802
0
LINE
8
Black
10
83.9496
20
-127.802
11
84.3292
21
-128.268
0
LINE
8
Black
10
84.3292
20
-128.268
11
84.3295
21
-128.268
0
LINE
8
Black
10
84.3295
20
-128.268
11
84.3298
21
-128.269
0
LINE
8
Black
10
84.3298
20
-128.269
11
84.6975
21
-129.037
0
LINE
8
Black
10
84.6975
20
-129.037
11
84.6976
21
-129.038
0
LINE
8
Black
10
84.6976
20
-129.038
11
84.6978
21
-129.038
0
LINE
8
Black
10
84.6978
20
-129.038
11
84.858
21
-129.784
0
LINE
8
Black
10
84.858
20
-129.784
11
84.858
21
-129.784
0
LINE
8
Black
10
84.858
20
-129.784
11
84.8581
21
-129.784
0
LINE
8
Black
10
84.8581
20
-129.784
11
84.8932
21
-130.432
0
LINE
8
Black
10
84.8932
20
-130.432
11
84.8932
21
-130.432
0
LINE
8
Black
10
84.8932
20
-130.432
11
84.8933
21
-130.432
0
LINE
8
Black
10
84.8933
20
-130.432
11
84.8933
21
-170.432
0
LINE
8
Black
10
84.8933
20
-170.432
11
84.8932
21
-170.432
0
LINE
8
Black
10
84.8932
20
-170.432
11
84.8932
21
-170.433
0
LINE
8
Black
10
84.8932
20
-170.433
11
84.7948
21
-171.293
0
LINE
8
Black
10
84.7948
20
-171.293
11
84.7946
21
-171.294
0
LINE
8
Black
10
84.7946
20
-171.294
11
84.7945
21
-171.294
0
LINE
8
Black
10
84.7945
20
-171.294
11
84.5225
21
-171.967
0
LINE
8
Black
10
84.5225
20
-171.967
11
84.5221
21
-171.968
0
LINE
8
Black
10
84.5221
20
-171.968
11
84.5218
21
-171.968
0
LINE
8
Black
10
84.5218
20
-171.968
11
84.1109
21
-172.495
0
LINE
8
Black
10
84.1109
20
-172.495
11
84.1105
21
-172.495
0
LINE
8
Black
10
84.1105
20
-172.495
11
84.1102
21
-172.496
0
LINE
8
Black
10
84.1102
20
-172.496
11
83.5951
21
-172.918
0
LINE
8
Black
10
83.5951
20
-172.918
11
83.5948
21
-172.918
0
LINE
8
Black
10
83.5948
20
-172.918
11
83.5946
21
-172.918
0
LINE
8
Black
10
83.5946
20
-172.918
11
83.0101
21
-173.276
0
LINE
8
Black
10
83.0101
20
-173.276
11
83.0099
21
-173.276
0
LINE
8
Black
10
83.0099
20
-173.276
11
83.0098
21
-173.276
0
LINE
8
Black
10
83.0098
20
-173.276
11
82.3907
21
-173.61
0
LINE
8
Black
10
82.3907
20
-173.61
11
82.3906
21
-173.61
0
LINE
8
Black
10
82.3906
20
-173.61
11
81.7717
21
-173.963
0
LINE
8
Black
10
81.7717
20
-173.963
11
81.1878
21
-174.374
0
LINE
8
Black
10
81.1878
20
-174.374
11
80.6734
21
-174.886
0
LINE
8
Black
10
80.6734
20
-174.886
11
80.3541
21
-175.36
0
LINE
8
Black
10
80.3541
20
-175.36
11
80.1079
21
-175.931
0
LINE
8
Black
10
80.1079
20
-175.931
11
79.9494
21
-176.616
0
LINE
8
Black
10
79.9494
20
-176.616
11
79.8933
21
-177.432
0
LINE
8
Black
10
79.8933
20
-177.432
11
79.8933
21
-179.432
0
LINE
8
Black
10
79.8933
20
-179.432
11
79.9527
21
-180.119
0
LINE
8
Black
10
79.9527
20
-180.119
11
80.4251
21
-181.423
0
LINE
8
Black
10
80.4251
20
-181.423
11
81.315
21
-182.488
0
LINE
8
Black
10
81.315
20
-182.488
11
82.5154
21
-183.184
0
LINE
8
Black
10
82.5154
20
-183.184
11
83.8821
21
-183.427
0
LINE
8
Black
10
83.8821
20
-183.427
11
83.8838
21
-183.428
0
LINE
8
Black
10
83.8838
20
-183.428
11
83.8848
21
-183.429
0
LINE
8
Black
10
83.8848
20
-183.429
11
83.885
21
-183.428
0
LINE
8
Black
10
83.885
20
-183.428
11
83.8865
21
-183.427
0
LINE
8
Black
10
83.8865
20
-183.427
11
83.8883
21
-183.427
0
LINE
8
Black
10
83.8883
20
-183.427
11
89.5609
21
-183.427
0
LINE
8
Black
10
89.5609
20
-183.427
11
89.6176
21
-183.414
0
LINE
8
Black
10
89.6176
20
-183.414
11
89.7807
21
-183.355
0
LINE
8
Black
10
89.7807
20
-183.355
11
90.0413
21
-183.231
0
LINE
8
Black
10
90.0413
20
-183.231
11
90.4594
21
-183.007
0
LINE
8
Black
10
90.4594
20
-183.007
11
90.4594
21
-183.007
0
LINE
8
Black
10
90.4594
20
-183.007
11
90.9888
21
-182.721
0
LINE
8
Black
10
90.9888
20
-182.721
11
90.989
21
-182.721
0
LINE
8
Black
10
90.989
20
-182.721
11
90.9891
21
-182.72
0
LINE
8
Black
10
90.9891
20
-182.72
11
91.5601
21
-182.446
0
LINE
8
Black
10
91.5601
20
-182.446
11
91.5603
21
-182.446
0
LINE
8
Black
10
91.5603
20
-182.446
11
91.5605
21
-182.446
0
LINE
8
Black
10
91.5605
20
-182.446
11
92.2306
21
-182.191
0
LINE
8
Black
10
92.2306
20
-182.191
11
92.2309
21
-182.191
0
LINE
8
Black
10
92.2309
20
-182.191
11
92.2312
21
-182.191
0
LINE
8
Black
10
92.2312
20
-182.191
11
93.0137
21
-182.001
0
LINE
8
Black
10
93.0137
20
-182.001
11
93.0141
21
-182.001
0
LINE
8
Black
10
93.0141
20
-182.001
11
93.0144
21
-182.001
0
LINE
8
Black
10
93.0144
20
-182.001
11
93.8878
21
-181.927
0
LINE
8
Black
10
93.8878
20
-181.927
11
93.888
21
-181.927
0
LINE
8
Black
10
93.888
20
-181.927
11
93.8883
21
-181.927
0
LINE
8
Black
10
93.8883
20
-181.927
11
121.888
21
-181.927
0
LINE
8
Black
10
121.888
20
-181.927
11
121.889
21
-181.927
0
LINE
8
Black
10
121.889
20
-181.927
11
121.889
21
-181.927
0
LINE
8
Black
10
121.889
20
-181.927
11
122.988
21
-182.043
0
LINE
8
Black
10
122.988
20
-182.043
11
122.989
21
-182.043
0
LINE
8
Black
10
122.989
20
-182.043
11
122.989
21
-182.044
0
LINE
8
Black
10
122.989
20
-182.044
11
123.924
21
-182.325
0
LINE
8
Black
10
123.924
20
-182.325
11
123.924
21
-182.325
0
LINE
8
Black
10
123.924
20
-182.325
11
123.924
21
-182.326
0
LINE
8
Black
10
123.924
20
-182.326
11
124.691
21
-182.671
0
LINE
8
Black
10
124.691
20
-182.671
11
124.691
21
-182.671
0
LINE
8
Black
10
124.691
20
-182.671
11
124.691
21
-182.671
0
LINE
8
Black
10
124.691
20
-182.671
11
125.305
21
-183
0
LINE
8
Black
10
125.305
20
-183
11
125.305
21
-183
0
LINE
8
Black
10
125.305
20
-183
11
125.793
21
-183.261
0
LINE
8
Black
10
125.793
20
-183.261
11
126.105
21
-183.398
0
LINE
8
Black
10
126.105
20
-183.398
11
126.216
21
-183.427
0
LINE
8
Black
10
126.216
20
-183.427
11
131.888
21
-183.427
0
LINE
8
Black
10
131.888
20
-183.427
11
132.575
21
-183.368
0
LINE
8
Black
10
132.575
20
-183.368
11
133.88
21
-182.895
0
LINE
8
Black
10
133.88
20
-182.895
11
134.944
21
-182.005
0
LINE
8
Black
10
134.944
20
-182.005
11
135.64
21
-180.805
0
LINE
8
Black
10
135.64
20
-180.805
11
135.883
21
-179.438
0
LINE
8
Black
10
135.883
20
-179.438
11
135.884
21
-179.436
0
LINE
8
Black
10
135.884
20
-179.436
11
135.885
21
-179.436
0
LINE
8
Black
10
135.885
20
-179.436
11
135.884
21
-179.435
0
LINE
8
Black
10
135.884
20
-179.435
11
135.884
21
-179.434
0
LINE
8
Black
10
135.884
20
-179.434
11
135.883
21
-179.432
0
LINE
8
Black
10
135.883
20
-179.432
11
135.883
21
-177.432
0
LINE
8
Black
10
135.883
20
-177.432
11
135.827
21
-176.616
0
LINE
8
Black
10
135.827
20
-176.616
11
135.669
21
-175.931
0
LINE
8
Black
10
135.669
20
-175.931
11
135.422
21
-175.36
0
LINE
8
Black
10
135.422
20
-175.36
11
135.103
21
-174.886
0
LINE
8
Black
10
135.103
20
-174.886
11
134.589
21
-174.374
0
LINE
8
Black
10
134.589
20
-174.374
11
134.005
21
-173.963
0
LINE
8
Black
10
134.005
20
-173.963
11
133.386
21
-173.61
0
LINE
8
Black
10
133.386
20
-173.61
11
132.767
21
-173.276
0
LINE
8
Black
10
132.767
20
-173.276
11
132.767
21
-173.276
0
LINE
8
Black
10
132.767
20
-173.276
11
132.766
21
-173.276
0
LINE
8
Black
10
132.766
20
-173.276
11
132.182
21
-172.918
0
LINE
8
Black
10
132.182
20
-172.918
11
132.182
21
-172.918
0
LINE
8
Black
10
132.182
20
-172.918
11
132.181
21
-172.918
0
LINE
8
Black
10
132.181
20
-172.918
11
131.666
21
-172.496
0
LINE
8
Black
10
131.666
20
-172.496
11
131.666
21
-172.495
0
LINE
8
Black
10
131.666
20
-172.495
11
131.666
21
-172.495
0
LINE
8
Black
10
131.666
20
-172.495
11
131.255
21
-171.968
0
LINE
8
Black
10
131.255
20
-171.968
11
131.254
21
-171.968
0
LINE
8
Black
10
131.254
20
-171.968
11
131.254
21
-171.967
0
LINE
8
Black
10
131.254
20
-171.967
11
130.982
21
-171.294
0
LINE
8
Black
10
130.982
20
-171.294
11
130.982
21
-171.294
0
LINE
8
Black
10
130.982
20
-171.294
11
130.982
21
-171.293
0
LINE
8
Black
10
130.982
20
-171.293
11
130.883
21
-170.433
0
LINE
8
Black
10
130.883
20
-170.433
11
130.883
21
-170.432
0
LINE
8
Black
10
130.883
20
-170.432
11
130.883
21
-170.432
0
LINE
8
Black
10
130.883
20
-170.432
11
130.883
21
-130.432
0
LINE
8
Black
10
130.883
20
-130.432
11
130.883
21
-130.432
0
LINE
8
Black
10
130.883
20
-130.432
11
130.883
21
-130.432
0
LINE
8
Black
10
130.883
20
-130.432
11
130.902
21
-129.949
0
LINE
8
Black
10
130.902
20
-129.949
11
130.902
21
-129.949
0
LINE
8
Black
10
130.902
20
-129.949
11
130.902
21
-129.949
0
LINE
8
Black
10
130.902
20
-129.949
11
130.982
21
-129.398
0
LINE
8
Black
10
130.982
20
-129.398
11
130.982
21
-129.398
0
LINE
8
Black
10
130.982
20
-129.398
11
130.982
21
-129.398
0
LINE
8
Black
10
130.982
20
-129.398
11
131.161
21
-128.813
0
LINE
8
Black
10
131.161
20
-128.813
11
131.161
21
-128.813
0
LINE
8
Black
10
131.161
20
-128.813
11
131.161
21
-128.812
0
LINE
8
Black
10
131.161
20
-128.812
11
131.474
21
-128.228
0
LINE
8
Black
10
131.474
20
-128.228
11
131.475
21
-128.227
0
LINE
8
Black
10
131.475
20
-128.227
11
131.475
21
-128.227
0
LINE
8
Black
10
131.475
20
-128.227
11
131.96
21
-127.675
0
LINE
8
Black
10
131.96
20
-127.675
11
131.96
21
-127.675
0
LINE
8
Black
10
131.96
20
-127.675
11
131.961
21
-127.675
0
LINE
8
Black
10
131.961
20
-127.675
11
132.486
21
-127.287
0
LINE
8
Black
10
132.486
20
-127.287
11
132.486
21
-127.287
0
LINE
8
Black
10
132.486
20
-127.287
11
132.487
21
-127.286
0
LINE
8
Black
10
132.487
20
-127.286
11
133.158
21
-126.956
0
LINE
8
Black
10
133.158
20
-126.956
11
133.159
21
-126.956
0
LINE
8
Black
10
133.159
20
-126.956
11
133.159
21
-126.956
0
LINE
8
Black
10
133.159
20
-126.956
11
133.995
21
-126.7
0
LINE
8
Black
10
133.995
20
-126.7
11
133.995
21
-126.7
0
LINE
8
Black
10
133.995
20
-126.7
11
133.996
21
-126.7
0
LINE
8
Black
10
133.996
20
-126.7
11
135.013
21
-126.534
0
LINE
8
Black
10
135.013
20
-126.534
11
135.014
21
-126.534
0
LINE
8
Black
10
135.014
20
-126.534
11
135.014
21
-126.534
0
LINE
8
Black
10
135.014
20
-126.534
11
136.231
21
-126.476
0
LINE
8
Black
10
136.231
20
-126.476
11
136.231
21
-126.476
0
LINE
8
Black
10
136.231
20
-126.476
11
136.231
21
-126.476
0
LINE
8
Black
10
136.231
20
-126.476
11
136.614
21
-126.461
0
LINE
8
Black
10
136.614
20
-126.461
11
137.955
21
-126.104
0
LINE
8
Black
10
137.955
20
-126.104
11
139.094
21
-125.31
0
LINE
8
Black
10
139.094
20
-125.31
11
139.095
21
-125.309
0
LINE
8
Black
10
139.095
20
-125.309
11
139.096
21
-125.309
0
LINE
8
Black
10
139.096
20
-125.309
11
139.096
21
-125.309
0
LINE
8
Black
10
139.096
20
-125.309
11
139.097
21
-125.307
0
LINE
8
Black
10
139.097
20
-125.307
11
139.098
21
-125.306
0
LINE
8
Black
10
139.098
20
-125.306
11
141.717
21
-122.686
0
LINE
8
Black
10
141.717
20
-122.686
11
142.066
21
-122.288
0
LINE
8
Black
10
142.066
20
-122.288
11
142.705
21
-121.056
0
LINE
8
Black
10
142.705
20
-121.056
11
142.884
21
-119.679
0
LINE
8
Black
10
142.884
20
-119.679
11
142.884
21
-119.677
0
LINE
8
Black
10
142.884
20
-119.677
11
142.884
21
-119.677
0
LINE
8
Black
10
142.884
20
-119.677
11
142.883
21
-119.675
  0
ENDSEC
  0
EOF
