  0
SECTION
  2
HEADER
  9
$ANGBASE
  50
0.0
  9
$ANGDIR
  70
  1
  9
$MEASUREMENT
  70
0
  0
ENDSEC
  0
SECTION
  2
TABLES
  0
TABLE
  2
LTYPE
  70
1
  0
LTYPE
  2
CONTINUOUS
  70
0
  3
Solid line
  72
65
  73
0
  40
0.0
  0
ENDTAB
  0
TABLE
  2
STYLE
  70
4
  0
STYLE
  2
KICAD
  70
0
  40
0
  41
1
  42
1
  50
0
  71
0
  3
isocp.shx
  0
STYLE
  2
KICADB
  70
0
  40
0
  41
1
  42
1
  50
0
  71
0
  3
isocp.shx
  0
STYLE
  2
KICADI
  70
0
  40
0
  41
1
  42
1
  50
15
  71
0
  3
isocp.shx
  0
STYLE
  2
KICADBI
  70
0
  40
0
  41
1
  42
1
  50
15
  71
0
  3
isocp.shx
  0
ENDTAB
  0
TABLE
  2
LAYER
  70
30
  0
LAYER
  2
BLACK
  70
0
  62
7
  6
CONTINUOUS
  0
LAYER
  2
GRAY1
  70
0
  62
251
  6
CONTINUOUS
  0
LAYER
  2
GRAY2
  70
0
  62
8
  6
CONTINUOUS
  0
LAYER
  2
GRAY3
  70
0
  62
9
  6
CONTINUOUS
  0
LAYER
  2
WHITE
  70
0
  62
7
  6
CONTINUOUS
  0
LAYER
  2
LYELLOW
  70
0
  62
51
  6
CONTINUOUS
  0
LAYER
  2
BLUE1
  70
0
  62
178
  6
CONTINUOUS
  0
LAYER
  2
GREEN1
  70
0
  62
98
  6
CONTINUOUS
  0
LAYER
  2
CYAN1
  70
0
  62
138
  6
CONTINUOUS
  0
LAYER
  2
RED1
  70
0
  62
18
  6
CONTINUOUS
  0
LAYER
  2
MAGENTA1
  70
0
  62
228
  6
CONTINUOUS
  0
LAYER
  2
BROWN1
  70
0
  62
58
  6
CONTINUOUS
  0
LAYER
  2
BLUE2
  70
0
  62
5
  6
CONTINUOUS
  0
LAYER
  2
GREEN2
  70
0
  62
3
  6
CONTINUOUS
  0
LAYER
  2
CYAN2
  70
0
  62
4
  6
CONTINUOUS
  0
LAYER
  2
RED2
  70
0
  62
1
  6
CONTINUOUS
  0
LAYER
  2
MAGENTA2
  70
0
  62
6
  6
CONTINUOUS
  0
LAYER
  2
BROWN2
  70
0
  62
54
  6
CONTINUOUS
  0
LAYER
  2
BLUE3
  70
0
  62
171
  6
CONTINUOUS
  0
LAYER
  2
GREEN3
  70
0
  62
91
  6
CONTINUOUS
  0
LAYER
  2
CYAN3
  70
0
  62
131
  6
CONTINUOUS
  0
LAYER
  2
RED3
  70
0
  62
11
  6
CONTINUOUS
  0
LAYER
  2
MAGENTA3
  70
0
  62
221
  6
CONTINUOUS
  0
LAYER
  2
YELLOW3
  70
0
  62
2
  6
CONTINUOUS
  0
LAYER
  2
BLUE4
  70
0
  62
5
  6
CONTINUOUS
  0
LAYER
  2
GREEN4
  70
0
  62
3
  6
CONTINUOUS
  0
LAYER
  2
CYAN4
  70
0
  62
4
  6
CONTINUOUS
  0
LAYER
  2
RED4
  70
0
  62
1
  6
CONTINUOUS
  0
LAYER
  2
MAGENTA4
  70
0
  62
6
  6
CONTINUOUS
  0
LAYER
  2
YELLOW4
  70
0
  62
2
  6
CONTINUOUS
  0
ENDTAB
  0
ENDSEC
  0
SECTION
  2
ENTITIES
0
LINE
8
Black
10
6.55435
20
32.6751
11
6.275
21
32.4407
0
LINE
8
Black
10
6.275
20
32.4407
11
5.93233
21
32.316
0
LINE
8
Black
10
5.93233
20
32.316
11
5.56767
21
32.316
0
LINE
8
Black
10
5.56767
20
32.316
11
5.225
21
32.4407
0
LINE
8
Black
10
5.225
20
32.4407
11
4.94565
21
32.6751
0
LINE
8
Black
10
4.94565
20
32.6751
11
4.76332
21
32.9909
0
LINE
8
Black
10
4.76332
20
32.9909
11
4.7
21
33.35
0
LINE
8
Black
10
4.7
20
33.35
11
4.76332
21
33.7091
0
LINE
8
Black
10
4.76332
20
33.7091
11
4.94565
21
34.0249
0
LINE
8
Black
10
4.94565
20
34.0249
11
5.225
21
34.2593
0
LINE
8
Black
10
5.225
20
34.2593
11
5.56767
21
34.384
0
LINE
8
Black
10
5.56767
20
34.384
11
5.93233
21
34.384
0
LINE
8
Black
10
5.93233
20
34.384
11
6.275
21
34.2593
0
LINE
8
Black
10
6.275
20
34.2593
11
6.55435
21
34.0249
0
LINE
8
Black
10
6.55435
20
34.0249
11
6.73668
21
33.7091
0
LINE
8
Black
10
6.73668
20
33.7091
11
6.8
21
33.35
0
LINE
8
Black
10
6.8
20
33.35
11
6.73668
21
32.9909
0
LINE
8
Black
10
6.73668
20
32.9909
11
6.7
21
32.9274
0
LINE
8
Black
10
6.7
20
32.9274
11
6.55435
21
32.6751
0
LINE
8
Black
10
6.47774
20
33.9606
11
6.225
21
34.1727
0
LINE
8
Black
10
6.225
20
34.1727
11
5.91497
21
34.2856
0
LINE
8
Black
10
5.91497
20
34.2856
11
5.58503
21
34.2856
0
LINE
8
Black
10
5.58503
20
34.2856
11
5.275
21
34.1727
0
LINE
8
Black
10
5.275
20
34.1727
11
5.02226
21
33.9606
0
LINE
8
Black
10
5.02226
20
33.9606
11
4.85729
21
33.6749
0
LINE
8
Black
10
4.85729
20
33.6749
11
4.8
21
33.35
0
LINE
8
Black
10
4.8
20
33.35
11
4.85729
21
33.0251
0
LINE
8
Black
10
4.85729
20
33.0251
11
5.02226
21
32.7394
0
LINE
8
Black
10
5.02226
20
32.7394
11
5.275
21
32.5273
0
LINE
8
Black
10
5.275
20
32.5273
11
5.58503
21
32.4144
0
LINE
8
Black
10
5.58503
20
32.4144
11
5.91497
21
32.4144
0
LINE
8
Black
10
5.91497
20
32.4144
11
6.225
21
32.5273
0
LINE
8
Black
10
6.225
20
32.5273
11
6.47774
21
32.7394
0
LINE
8
Black
10
6.47774
20
32.7394
11
6.64271
21
33.0251
0
LINE
8
Black
10
6.64271
20
33.0251
11
6.7
21
33.35
0
LINE
8
Black
10
6.7
20
33.35
11
6.64271
21
33.6749
0
LINE
8
Black
10
6.64271
20
33.6749
11
6.47774
21
33.9606
0
LINE
8
Black
10
6.55435
20
-3.32493
11
6.275
21
-3.55933
0
LINE
8
Black
10
6.275
20
-3.55933
11
5.93233
21
-3.68405
0
LINE
8
Black
10
5.93233
20
-3.68405
11
5.56767
21
-3.68405
0
LINE
8
Black
10
5.56767
20
-3.68405
11
5.225
21
-3.55933
0
LINE
8
Black
10
5.225
20
-3.55933
11
4.94565
21
-3.32493
0
LINE
8
Black
10
4.94565
20
-3.32493
11
4.76332
21
-3.00912
0
LINE
8
Black
10
4.76332
20
-3.00912
11
4.7
21
-2.65
0
LINE
8
Black
10
4.7
20
-2.65
11
4.76332
21
-2.29088
0
LINE
8
Black
10
4.76332
20
-2.29088
11
4.94565
21
-1.97507
0
LINE
8
Black
10
4.94565
20
-1.97507
11
5.225
21
-1.74067
0
LINE
8
Black
10
5.225
20
-1.74067
11
5.56767
21
-1.61595
0
LINE
8
Black
10
5.56767
20
-1.61595
11
5.93233
21
-1.61595
0
LINE
8
Black
10
5.93233
20
-1.61595
11
6.275
21
-1.74067
0
LINE
8
Black
10
6.275
20
-1.74067
11
6.55435
21
-1.97507
0
LINE
8
Black
10
6.55435
20
-1.97507
11
6.73668
21
-2.29088
0
LINE
8
Black
10
6.73668
20
-2.29088
11
6.8
21
-2.65
0
LINE
8
Black
10
6.8
20
-2.65
11
6.73668
21
-3.00912
0
LINE
8
Black
10
6.73668
20
-3.00912
11
6.7
21
-3.07265
0
LINE
8
Black
10
6.7
20
-3.07265
11
6.55435
21
-3.32493
0
LINE
8
Black
10
6.47774
20
-2.03935
11
6.225
21
-1.82728
0
LINE
8
Black
10
6.225
20
-1.82728
11
5.91497
21
-1.71443
0
LINE
8
Black
10
5.91497
20
-1.71443
11
5.58503
21
-1.71443
0
LINE
8
Black
10
5.58503
20
-1.71443
11
5.275
21
-1.82728
0
LINE
8
Black
10
5.275
20
-1.82728
11
5.02226
21
-2.03935
0
LINE
8
Black
10
5.02226
20
-2.03935
11
4.85729
21
-2.32508
0
LINE
8
Black
10
4.85729
20
-2.32508
11
4.8
21
-2.65
0
LINE
8
Black
10
4.8
20
-2.65
11
4.85729
21
-2.97492
0
LINE
8
Black
10
4.85729
20
-2.97492
11
5.02226
21
-3.26065
0
LINE
8
Black
10
5.02226
20
-3.26065
11
5.275
21
-3.47272
0
LINE
8
Black
10
5.275
20
-3.47272
11
5.58503
21
-3.58557
0
LINE
8
Black
10
5.58503
20
-3.58557
11
5.91497
21
-3.58557
0
LINE
8
Black
10
5.91497
20
-3.58557
11
6.225
21
-3.47272
0
LINE
8
Black
10
6.225
20
-3.47272
11
6.47774
21
-3.26065
0
LINE
8
Black
10
6.47774
20
-3.26065
11
6.64271
21
-2.97492
0
LINE
8
Black
10
6.64271
20
-2.97492
11
6.7
21
-2.65
0
LINE
8
Black
10
6.7
20
-2.65
11
6.64271
21
-2.32508
0
LINE
8
Black
10
6.64271
20
-2.32508
11
6.47774
21
-2.03935
0
LINE
8
Black
10
34.5543
20
36.6751
11
34.275
21
36.4407
0
LINE
8
Black
10
34.275
20
36.4407
11
33.9323
21
36.316
0
LINE
8
Black
10
33.9323
20
36.316
11
33.5677
21
36.316
0
LINE
8
Black
10
33.5677
20
36.316
11
33.225
21
36.4407
0
LINE
8
Black
10
33.225
20
36.4407
11
32.9457
21
36.6751
0
LINE
8
Black
10
32.9457
20
36.6751
11
32.7633
21
36.9909
0
LINE
8
Black
10
32.7633
20
36.9909
11
32.7
21
37.35
0
LINE
8
Black
10
32.7
20
37.35
11
32.7633
21
37.7091
0
LINE
8
Black
10
32.7633
20
37.7091
11
32.9457
21
38.0249
0
LINE
8
Black
10
32.9457
20
38.0249
11
33.225
21
38.2593
0
LINE
8
Black
10
33.225
20
38.2593
11
33.5677
21
38.384
0
LINE
8
Black
10
33.5677
20
38.384
11
33.9323
21
38.384
0
LINE
8
Black
10
33.9323
20
38.384
11
34.275
21
38.2593
0
LINE
8
Black
10
34.275
20
38.2593
11
34.5543
21
38.0249
0
LINE
8
Black
10
34.5543
20
38.0249
11
34.7367
21
37.7091
0
LINE
8
Black
10
34.7367
20
37.7091
11
34.8
21
37.35
0
LINE
8
Black
10
34.8
20
37.35
11
34.7367
21
36.9909
0
LINE
8
Black
10
34.7367
20
36.9909
11
34.7
21
36.9274
0
LINE
8
Black
10
34.7
20
36.9274
11
34.5543
21
36.6751
0
LINE
8
Black
10
34.4777
20
37.9606
11
34.225
21
38.1727
0
LINE
8
Black
10
34.225
20
38.1727
11
33.915
21
38.2856
0
LINE
8
Black
10
33.915
20
38.2856
11
33.585
21
38.2856
0
LINE
8
Black
10
33.585
20
38.2856
11
33.275
21
38.1727
0
LINE
8
Black
10
33.275
20
38.1727
11
33.0223
21
37.9606
0
LINE
8
Black
10
33.0223
20
37.9606
11
32.8573
21
37.6749
0
LINE
8
Black
10
32.8573
20
37.6749
11
32.8
21
37.35
0
LINE
8
Black
10
32.8
20
37.35
11
32.8573
21
37.0251
0
LINE
8
Black
10
32.8573
20
37.0251
11
33.0223
21
36.7394
0
LINE
8
Black
10
33.0223
20
36.7394
11
33.275
21
36.5273
0
LINE
8
Black
10
33.275
20
36.5273
11
33.585
21
36.4144
0
LINE
8
Black
10
33.585
20
36.4144
11
33.915
21
36.4144
0
LINE
8
Black
10
33.915
20
36.4144
11
34.225
21
36.5273
0
LINE
8
Black
10
34.225
20
36.5273
11
34.4777
21
36.7394
0
LINE
8
Black
10
34.4777
20
36.7394
11
34.6427
21
37.0251
0
LINE
8
Black
10
34.6427
20
37.0251
11
34.7
21
37.35
0
LINE
8
Black
10
34.7
20
37.35
11
34.6427
21
37.6749
0
LINE
8
Black
10
34.6427
20
37.6749
11
34.4777
21
37.9606
0
LINE
8
Black
10
34.5543
20
-7.32493
11
34.275
21
-7.55933
0
LINE
8
Black
10
34.275
20
-7.55933
11
33.9323
21
-7.68405
0
LINE
8
Black
10
33.9323
20
-7.68405
11
33.5677
21
-7.68405
0
LINE
8
Black
10
33.5677
20
-7.68405
11
33.225
21
-7.55933
0
LINE
8
Black
10
33.225
20
-7.55933
11
32.9457
21
-7.32493
0
LINE
8
Black
10
32.9457
20
-7.32493
11
32.7633
21
-7.00912
0
LINE
8
Black
10
32.7633
20
-7.00912
11
32.7
21
-6.65
0
LINE
8
Black
10
32.7
20
-6.65
11
32.7633
21
-6.29088
0
LINE
8
Black
10
32.7633
20
-6.29088
11
32.9457
21
-5.97507
0
LINE
8
Black
10
32.9457
20
-5.97507
11
33.225
21
-5.74067
0
LINE
8
Black
10
33.225
20
-5.74067
11
33.5677
21
-5.61595
0
LINE
8
Black
10
33.5677
20
-5.61595
11
33.9323
21
-5.61595
0
LINE
8
Black
10
33.9323
20
-5.61595
11
34.275
21
-5.74067
0
LINE
8
Black
10
34.275
20
-5.74067
11
34.5543
21
-5.97507
0
LINE
8
Black
10
34.5543
20
-5.97507
11
34.7367
21
-6.29088
0
LINE
8
Black
10
34.7367
20
-6.29088
11
34.8
21
-6.65
0
LINE
8
Black
10
34.8
20
-6.65
11
34.7367
21
-7.00912
0
LINE
8
Black
10
34.7367
20
-7.00912
11
34.7
21
-7.07265
0
LINE
8
Black
10
34.7
20
-7.07265
11
34.5543
21
-7.32493
0
LINE
8
Black
10
34.4777
20
-6.03935
11
34.225
21
-5.82728
0
LINE
8
Black
10
34.225
20
-5.82728
11
33.915
21
-5.71443
0
LINE
8
Black
10
33.915
20
-5.71443
11
33.585
21
-5.71443
0
LINE
8
Black
10
33.585
20
-5.71443
11
33.275
21
-5.82728
0
LINE
8
Black
10
33.275
20
-5.82728
11
33.0223
21
-6.03935
0
LINE
8
Black
10
33.0223
20
-6.03935
11
32.8573
21
-6.32508
0
LINE
8
Black
10
32.8573
20
-6.32508
11
32.8
21
-6.65
0
LINE
8
Black
10
32.8
20
-6.65
11
32.8573
21
-6.97492
0
LINE
8
Black
10
32.8573
20
-6.97492
11
33.0223
21
-7.26065
0
LINE
8
Black
10
33.0223
20
-7.26065
11
33.275
21
-7.47272
0
LINE
8
Black
10
33.275
20
-7.47272
11
33.585
21
-7.58557
0
LINE
8
Black
10
33.585
20
-7.58557
11
33.915
21
-7.58557
0
LINE
8
Black
10
33.915
20
-7.58557
11
34.225
21
-7.47272
0
LINE
8
Black
10
34.225
20
-7.47272
11
34.4777
21
-7.26065
0
LINE
8
Black
10
34.4777
20
-7.26065
11
34.6427
21
-6.97492
0
LINE
8
Black
10
34.6427
20
-6.97492
11
34.7
21
-6.65
0
LINE
8
Black
10
34.7
20
-6.65
11
34.6427
21
-6.32508
0
LINE
8
Black
10
34.6427
20
-6.32508
11
34.4777
21
-6.03935
0
LINE
8
Black
10
35.6786
20
-7.34272
11
35.6786
21
-7.34272
0
LINE
8
Black
10
35.6786
20
-7.34272
11
35.6786
21
-7.34272
0
LINE
8
Black
10
35.6786
20
-7.34272
11
35.6727
21
-7.35904
0
LINE
8
Black
10
35.6727
20
-7.35904
11
35.6727
21
-7.35904
0
LINE
8
Black
10
35.6727
20
-7.35904
11
35.6727
21
-7.35904
0
LINE
8
Black
10
35.6727
20
-7.35904
11
35.3254
21
-7.96057
0
LINE
8
Black
10
35.3254
20
-7.96057
11
35.3142
21
-7.97388
0
LINE
8
Black
10
35.3142
20
-7.97388
11
35.3142
21
-7.97388
0
LINE
8
Black
10
35.3142
20
-7.97388
11
35.3142
21
-7.97388
0
LINE
8
Black
10
35.3142
20
-7.97388
11
34.7821
21
-8.42035
0
LINE
8
Black
10
34.7821
20
-8.42035
11
34.7821
21
-8.42035
0
LINE
8
Black
10
34.7821
20
-8.42035
11
34.7821
21
-8.42035
0
LINE
8
Black
10
34.7821
20
-8.42035
11
34.7671
21
-8.42904
0
LINE
8
Black
10
34.7671
20
-8.42904
11
34.1144
21
-8.6666
0
LINE
8
Black
10
34.1144
20
-8.6666
11
34.108
21
-8.66773
0
LINE
8
Black
10
34.108
20
-8.66773
11
34.1017
21
-8.66943
0
LINE
8
Black
10
34.1017
20
-8.66943
11
33.7544
21
-8.69981
0
LINE
8
Black
10
33.7544
20
-8.69981
11
33.7478
21
-8.69924
0
LINE
8
Black
10
33.7478
20
-8.69924
11
33.7413
21
-8.69924
0
LINE
8
Black
10
33.7413
20
-8.69924
11
33.0573
21
-8.57862
0
LINE
8
Black
10
33.0573
20
-8.57862
11
33.0573
21
-8.57862
0
LINE
8
Black
10
33.0573
20
-8.57862
11
33.0573
21
-8.57863
0
LINE
8
Black
10
33.0573
20
-8.57863
11
33.0491
21
-8.57566
0
LINE
8
Black
10
33.0491
20
-8.57566
11
33.041
21
-8.57269
0
LINE
8
Black
10
33.041
20
-8.57269
11
33.041
21
-8.57268
0
LINE
8
Black
10
33.041
20
-8.57268
11
32.4394
21
-8.22539
0
LINE
8
Black
10
32.4394
20
-8.22539
11
32.4261
21
-8.21423
0
LINE
8
Black
10
32.4261
20
-8.21423
11
32.4261
21
-8.21422
0
LINE
8
Black
10
32.4261
20
-8.21422
11
31.9796
21
-7.68214
0
LINE
8
Black
10
31.9796
20
-7.68214
11
31.9796
21
-7.68214
0
LINE
8
Black
10
31.9796
20
-7.68214
11
31.9796
21
-7.68214
0
LINE
8
Black
10
31.9796
20
-7.68214
11
31.971
21
-7.6671
0
LINE
8
Black
10
31.971
20
-7.6671
11
31.7334
21
-7.0144
0
LINE
8
Black
10
31.7334
20
-7.0144
11
31.7323
21
-7.00797
0
LINE
8
Black
10
31.7323
20
-7.00797
11
31.7306
21
-7.00165
0
LINE
8
Black
10
31.7306
20
-7.00165
11
31.7002
21
-6.65436
0
LINE
8
Black
10
31.7002
20
-6.65436
11
31.6704
21
-6.31362
0
LINE
8
Black
10
31.6704
20
-6.31362
11
31.4381
21
-5.67538
0
LINE
8
Black
10
31.4381
20
-5.67538
11
31.0029
21
-5.1568
0
LINE
8
Black
10
31.0029
20
-5.1568
11
30.4167
21
-4.81832
0
LINE
8
Black
10
30.4167
20
-4.81832
11
29.7456
21
-4.7
0
LINE
8
Black
10
29.7456
20
-4.7
11
5.75
21
-4.7
0
LINE
8
Black
10
5.75
20
-4.7
11
5.74569
21
-4.69924
0
LINE
8
Black
10
5.74569
20
-4.69924
11
5.74132
21
-4.69924
0
LINE
8
Black
10
5.74132
20
-4.69924
11
5.05728
21
-4.57862
0
LINE
8
Black
10
5.05728
20
-4.57862
11
5.05728
21
-4.57862
0
LINE
8
Black
10
5.05728
20
-4.57862
11
5.05728
21
-4.57863
0
LINE
8
Black
10
5.05728
20
-4.57863
11
5.04912
21
-4.57566
0
LINE
8
Black
10
5.04912
20
-4.57566
11
5.04096
21
-4.57269
0
LINE
8
Black
10
5.04096
20
-4.57269
11
5.04096
21
-4.57268
0
LINE
8
Black
10
5.04096
20
-4.57268
11
4.43942
21
-4.22539
0
LINE
8
Black
10
4.43942
20
-4.22539
11
4.42612
21
-4.21423
0
LINE
8
Black
10
4.42612
20
-4.21423
11
4.42612
21
-4.21422
0
LINE
8
Black
10
4.42612
20
-4.21422
11
3.97965
21
-3.68214
0
LINE
8
Black
10
3.97965
20
-3.68214
11
3.97965
21
-3.68214
0
LINE
8
Black
10
3.97965
20
-3.68214
11
3.97965
21
-3.68214
0
LINE
8
Black
10
3.97965
20
-3.68214
11
3.97096
21
-3.6671
0
LINE
8
Black
10
3.97096
20
-3.6671
11
3.7334
21
-3.0144
0
LINE
8
Black
10
3.7334
20
-3.0144
11
3.73226
21
-3.00797
0
LINE
8
Black
10
3.73226
20
-3.00797
11
3.73057
21
-3.00165
0
LINE
8
Black
10
3.73057
20
-3.00165
11
3.70019
21
-2.65436
0
LINE
8
Black
10
3.70019
20
-2.65436
11
3.70076
21
-2.64784
0
LINE
8
Black
10
3.70076
20
-2.64784
11
3.70076
21
-2.64132
0
LINE
8
Black
10
3.70076
20
-2.64132
11
3.82137
21
-1.95728
0
LINE
8
Black
10
3.82137
20
-1.95728
11
3.82137
21
-1.95728
0
LINE
8
Black
10
3.82137
20
-1.95728
11
3.8248
21
-1.94786
0
LINE
8
Black
10
3.8248
20
-1.94786
11
3.82731
21
-1.94096
0
LINE
8
Black
10
3.82731
20
-1.94096
11
3.82732
21
-1.94096
0
LINE
8
Black
10
3.82732
20
-1.94096
11
4.17461
21
-1.33943
0
LINE
8
Black
10
4.17461
20
-1.33943
11
4.17461
21
-1.33942
0
LINE
8
Black
10
4.17461
20
-1.33942
11
4.17854
21
-1.33474
0
LINE
8
Black
10
4.17854
20
-1.33474
11
4.18577
21
-1.32612
0
LINE
8
Black
10
4.18577
20
-1.32612
11
4.18578
21
-1.32612
0
LINE
8
Black
10
4.18578
20
-1.32612
11
4.71785
21
-0.879652
0
LINE
8
Black
10
4.71785
20
-0.879652
11
4.71786
21
-0.879646
0
LINE
8
Black
10
4.71786
20
-0.879646
11
4.7329
21
-0.870964
0
LINE
8
Black
10
4.7329
20
-0.870964
11
5.3856
21
-0.633399
0
LINE
8
Black
10
5.3856
20
-0.633399
11
5.39203
21
-0.632265
0
LINE
8
Black
10
5.39203
20
-0.632265
11
5.39835
21
-0.630574
0
LINE
8
Black
10
5.39835
20
-0.630574
11
5.74564
21
-0.60019
0
LINE
8
Black
10
5.74564
20
-0.60019
11
5.74564
21
-0.60019
0
LINE
8
Black
10
5.74564
20
-0.60019
11
6.08638
21
-0.570379
0
LINE
8
Black
10
6.08638
20
-0.570379
11
6.72462
21
-0.33808
0
LINE
8
Black
10
6.72462
20
-0.33808
11
7.2432
21
0.09706
0
LINE
8
Black
10
7.2432
20
0.09706
11
7.58168
21
0.683326
0
LINE
8
Black
10
7.58168
20
0.683326
11
7.7
21
1.35437
0
LINE
8
Black
10
7.7
20
1.35437
11
7.7
21
29.3478
0
LINE
8
Black
10
7.7
20
29.3478
11
7.67038
21
29.6864
0
LINE
8
Black
10
7.67038
20
29.6864
11
7.43808
21
30.3246
0
LINE
8
Black
10
7.43808
20
30.3246
11
7.00294
21
30.8432
0
LINE
8
Black
10
7.00294
20
30.8432
11
6.41667
21
31.1817
0
LINE
8
Black
10
6.41667
20
31.1817
11
5.74132
21
31.3008
0
LINE
8
Black
10
5.74132
20
31.3008
11
5.74132
21
31.3008
0
LINE
8
Black
10
5.74132
20
31.3008
11
5.05728
21
31.4214
0
LINE
8
Black
10
5.05728
20
31.4214
11
5.05728
21
31.4214
0
LINE
8
Black
10
5.05728
20
31.4214
11
5.05728
21
31.4214
0
LINE
8
Black
10
5.05728
20
31.4214
11
5.04912
21
31.4243
0
LINE
8
Black
10
5.04912
20
31.4243
11
5.04096
21
31.4273
0
LINE
8
Black
10
5.04096
20
31.4273
11
5.04096
21
31.4273
0
LINE
8
Black
10
5.04096
20
31.4273
11
4.43942
21
31.7746
0
LINE
8
Black
10
4.43942
20
31.7746
11
4.42612
21
31.7858
0
LINE
8
Black
10
4.42612
20
31.7858
11
4.42612
21
31.7858
0
LINE
8
Black
10
4.42612
20
31.7858
11
3.97965
21
32.3179
0
LINE
8
Black
10
3.97965
20
32.3179
11
3.97965
21
32.3179
0
LINE
8
Black
10
3.97965
20
32.3179
11
3.97965
21
32.3179
0
LINE
8
Black
10
3.97965
20
32.3179
11
3.97096
21
32.3329
0
LINE
8
Black
10
3.97096
20
32.3329
11
3.7334
21
32.9856
0
LINE
8
Black
10
3.7334
20
32.9856
11
3.73226
21
32.992
0
LINE
8
Black
10
3.73226
20
32.992
11
3.73057
21
32.9983
0
LINE
8
Black
10
3.73057
20
32.9983
11
3.70019
21
33.3456
0
LINE
8
Black
10
3.70019
20
33.3456
11
3.70076
21
33.3522
0
LINE
8
Black
10
3.70076
20
33.3522
11
3.70076
21
33.3587
0
LINE
8
Black
10
3.70076
20
33.3587
11
3.82137
21
34.0427
0
LINE
8
Black
10
3.82137
20
34.0427
11
3.82137
21
34.0427
0
LINE
8
Black
10
3.82137
20
34.0427
11
3.8248
21
34.0521
0
LINE
8
Black
10
3.8248
20
34.0521
11
3.82731
21
34.059
0
LINE
8
Black
10
3.82731
20
34.059
11
3.82732
21
34.059
0
LINE
8
Black
10
3.82732
20
34.059
11
4.17461
21
34.6606
0
LINE
8
Black
10
4.17461
20
34.6606
11
4.17461
21
34.6606
0
LINE
8
Black
10
4.17461
20
34.6606
11
4.17854
21
34.6653
0
LINE
8
Black
10
4.17854
20
34.6653
11
4.18577
21
34.6739
0
LINE
8
Black
10
4.18577
20
34.6739
11
4.18578
21
34.6739
0
LINE
8
Black
10
4.18578
20
34.6739
11
4.71785
21
35.1203
0
LINE
8
Black
10
4.71785
20
35.1203
11
4.71786
21
35.1204
0
LINE
8
Black
10
4.71786
20
35.1204
11
4.7329
21
35.129
0
LINE
8
Black
10
4.7329
20
35.129
11
5.3856
21
35.3666
0
LINE
8
Black
10
5.3856
20
35.3666
11
5.39203
21
35.3677
0
LINE
8
Black
10
5.39203
20
35.3677
11
5.39835
21
35.3694
0
LINE
8
Black
10
5.39835
20
35.3694
11
5.74564
21
35.3998
0
LINE
8
Black
10
5.74564
20
35.3998
11
5.74783
21
35.3996
0
LINE
8
Black
10
5.74783
20
35.3996
11
5.75
21
35.4
0
LINE
8
Black
10
5.75
20
35.4
11
29.7478
21
35.4
0
LINE
8
Black
10
29.7478
20
35.4
11
30.0864
21
35.4296
0
LINE
8
Black
10
30.0864
20
35.4296
11
30.7246
21
35.6619
0
LINE
8
Black
10
30.7246
20
35.6619
11
31.2432
21
36.0971
0
LINE
8
Black
10
31.2432
20
36.0971
11
31.5817
21
36.6833
0
LINE
8
Black
10
31.5817
20
36.6833
11
31.7008
21
37.3587
0
LINE
8
Black
10
31.7008
20
37.3587
11
31.8214
21
38.0427
0
LINE
8
Black
10
31.8214
20
38.0427
11
31.8214
21
38.0427
0
LINE
8
Black
10
31.8214
20
38.0427
11
31.8248
21
38.0521
0
LINE
8
Black
10
31.8248
20
38.0521
11
31.8273
21
38.059
0
LINE
8
Black
10
31.8273
20
38.059
11
31.8273
21
38.059
0
LINE
8
Black
10
31.8273
20
38.059
11
32.1746
21
38.6606
0
LINE
8
Black
10
32.1746
20
38.6606
11
32.1746
21
38.6606
0
LINE
8
Black
10
32.1746
20
38.6606
11
32.1785
21
38.6653
0
LINE
8
Black
10
32.1785
20
38.6653
11
32.1858
21
38.6739
0
LINE
8
Black
10
32.1858
20
38.6739
11
32.1858
21
38.6739
0
LINE
8
Black
10
32.1858
20
38.6739
11
32.7179
21
39.1203
0
LINE
8
Black
10
32.7179
20
39.1203
11
32.7179
21
39.1204
0
LINE
8
Black
10
32.7179
20
39.1204
11
32.7329
21
39.129
0
LINE
8
Black
10
32.7329
20
39.129
11
33.3856
21
39.3666
0
LINE
8
Black
10
33.3856
20
39.3666
11
33.392
21
39.3677
0
LINE
8
Black
10
33.392
20
39.3677
11
33.3983
21
39.3694
0
LINE
8
Black
10
33.3983
20
39.3694
11
33.7456
21
39.3998
0
LINE
8
Black
10
33.7456
20
39.3998
11
33.7522
21
39.3992
0
LINE
8
Black
10
33.7522
20
39.3992
11
33.7587
21
39.3992
0
LINE
8
Black
10
33.7587
20
39.3992
11
34.4427
21
39.2786
0
LINE
8
Black
10
34.4427
20
39.2786
11
34.4427
21
39.2786
0
LINE
8
Black
10
34.4427
20
39.2786
11
34.4521
21
39.2752
0
LINE
8
Black
10
34.4521
20
39.2752
11
34.459
21
39.2727
0
LINE
8
Black
10
34.459
20
39.2727
11
34.459
21
39.2727
0
LINE
8
Black
10
34.459
20
39.2727
11
35.0606
21
38.9254
0
LINE
8
Black
10
35.0606
20
38.9254
11
35.0606
21
38.9254
0
LINE
8
Black
10
35.0606
20
38.9254
11
35.0653
21
38.9215
0
LINE
8
Black
10
35.0653
20
38.9215
11
35.0739
21
38.9142
0
LINE
8
Black
10
35.0739
20
38.9142
11
35.0739
21
38.9142
0
LINE
8
Black
10
35.0739
20
38.9142
11
35.5203
21
38.3821
0
LINE
8
Black
10
35.5203
20
38.3821
11
35.5204
21
38.3821
0
LINE
8
Black
10
35.5204
20
38.3821
11
35.529
21
38.3671
0
LINE
8
Black
10
35.529
20
38.3671
11
35.7666
21
37.7144
0
LINE
8
Black
10
35.7666
20
37.7144
11
35.7677
21
37.708
0
LINE
8
Black
10
35.7677
20
37.708
11
35.7694
21
37.7017
0
LINE
8
Black
10
35.7694
20
37.7017
11
35.7998
21
37.3544
0
LINE
8
Black
10
35.7998
20
37.3544
11
35.7996
21
37.3522
0
LINE
8
Black
10
35.7996
20
37.3522
11
35.8
21
37.35
0
LINE
8
Black
10
35.8
20
37.35
11
35.8
21
-6.65
0
LINE
8
Black
10
35.8
20
-6.65
11
35.7992
21
-6.65431
0
LINE
8
Black
10
35.7992
20
-6.65431
11
35.7992
21
-6.65868
0
LINE
8
Black
10
35.7992
20
-6.65868
11
35.7
21
-7.22149
0
LINE
8
Black
10
35.7
20
-7.22149
11
35.6786
21
-7.34272
0
LINE
8
Black
10
35.6704
20
37.6864
11
35.4381
21
38.3246
0
LINE
8
Black
10
35.4381
20
38.3246
11
35.0029
21
38.8432
0
LINE
8
Black
10
35.0029
20
38.8432
11
34.4167
21
39.1817
0
LINE
8
Black
10
34.4167
20
39.1817
11
33.7478
21
39.2996
0
LINE
8
Black
10
33.7478
20
39.2996
11
33.4136
21
39.2704
0
LINE
8
Black
10
33.4136
20
39.2704
11
32.7754
21
39.0381
0
LINE
8
Black
10
32.7754
20
39.0381
11
32.2568
21
38.6029
0
LINE
8
Black
10
32.2568
20
38.6029
11
31.9183
21
38.0167
0
LINE
8
Black
10
31.9183
20
38.0167
11
31.7992
21
37.3413
0
LINE
8
Black
10
31.7992
20
37.3413
11
31.7992
21
37.3413
0
LINE
8
Black
10
31.7992
20
37.3413
11
31.6786
21
36.6573
0
LINE
8
Black
10
31.6786
20
36.6573
11
31.6786
21
36.6573
0
LINE
8
Black
10
31.6786
20
36.6573
11
31.6786
21
36.6573
0
LINE
8
Black
10
31.6786
20
36.6573
11
31.6727
21
36.641
0
LINE
8
Black
10
31.6727
20
36.641
11
31.6727
21
36.641
0
LINE
8
Black
10
31.6727
20
36.641
11
31.6727
21
36.641
0
LINE
8
Black
10
31.6727
20
36.641
11
31.3254
21
36.0394
0
LINE
8
Black
10
31.3254
20
36.0394
11
31.3142
21
36.0261
0
LINE
8
Black
10
31.3142
20
36.0261
11
31.3142
21
36.0261
0
LINE
8
Black
10
31.3142
20
36.0261
11
31.3142
21
36.0261
0
LINE
8
Black
10
31.3142
20
36.0261
11
30.7821
21
35.5797
0
LINE
8
Black
10
30.7821
20
35.5797
11
30.7821
21
35.5796
0
LINE
8
Black
10
30.7821
20
35.5796
11
30.7821
21
35.5796
0
LINE
8
Black
10
30.7821
20
35.5796
11
30.7671
21
35.571
0
LINE
8
Black
10
30.7671
20
35.571
11
30.1144
21
35.3334
0
LINE
8
Black
10
30.1144
20
35.3334
11
30.108
21
35.3323
0
LINE
8
Black
10
30.108
20
35.3323
11
30.1017
21
35.3306
0
LINE
8
Black
10
30.1017
20
35.3306
11
29.7544
21
35.3002
0
LINE
8
Black
10
29.7544
20
35.3002
11
29.7522
21
35.3004
0
LINE
8
Black
10
29.7522
20
35.3004
11
29.75
21
35.3
0
LINE
8
Black
10
29.75
20
35.3
11
5.75219
21
35.3
0
LINE
8
Black
10
5.75219
20
35.3
11
5.41362
21
35.2704
0
LINE
8
Black
10
5.41362
20
35.2704
11
4.77538
21
35.0381
0
LINE
8
Black
10
4.77538
20
35.0381
11
4.2568
21
34.6029
0
LINE
8
Black
10
4.2568
20
34.6029
11
3.91832
21
34.0167
0
LINE
8
Black
10
3.91832
20
34.0167
11
3.80038
21
33.3478
0
LINE
8
Black
10
3.80038
20
33.3478
11
3.82962
21
33.0136
0
LINE
8
Black
10
3.82962
20
33.0136
11
4.06192
21
32.3754
0
LINE
8
Black
10
4.06192
20
32.3754
11
4.49706
21
31.8568
0
LINE
8
Black
10
4.49706
20
31.8568
11
5.08332
21
31.5183
0
LINE
8
Black
10
5.08332
20
31.5183
11
5.75868
21
31.3992
0
LINE
8
Black
10
5.75868
20
31.3992
11
6.44272
21
31.2786
0
LINE
8
Black
10
6.44272
20
31.2786
11
6.44272
21
31.2786
0
LINE
8
Black
10
6.44272
20
31.2786
11
6.45214
21
31.2752
0
LINE
8
Black
10
6.45214
20
31.2752
11
6.45904
21
31.2727
0
LINE
8
Black
10
6.45904
20
31.2727
11
6.45904
21
31.2727
0
LINE
8
Black
10
6.45904
20
31.2727
11
7.06057
21
30.9254
0
LINE
8
Black
10
7.06057
20
30.9254
11
7.06058
21
30.9254
0
LINE
8
Black
10
7.06058
20
30.9254
11
7.06526
21
30.9215
0
LINE
8
Black
10
7.06526
20
30.9215
11
7.07388
21
30.9142
0
LINE
8
Black
10
7.07388
20
30.9142
11
7.07388
21
30.9142
0
LINE
8
Black
10
7.07388
20
30.9142
11
7.52035
21
30.3821
0
LINE
8
Black
10
7.52035
20
30.3821
11
7.52035
21
30.3821
0
LINE
8
Black
10
7.52035
20
30.3821
11
7.52904
21
30.3671
0
LINE
8
Black
10
7.52904
20
30.3671
11
7.7666
21
29.7144
0
LINE
8
Black
10
7.7666
20
29.7144
11
7.76773
21
29.708
0
LINE
8
Black
10
7.76773
20
29.708
11
7.76943
21
29.7017
0
LINE
8
Black
10
7.76943
20
29.7017
11
7.79981
21
29.3544
0
LINE
8
Black
10
7.79981
20
29.3544
11
7.79962
21
29.3522
0
LINE
8
Black
10
7.79962
20
29.3522
11
7.8
21
29.35
0
LINE
8
Black
10
7.8
20
29.35
11
7.8
21
1.35
0
LINE
8
Black
10
7.8
20
1.35
11
7.79924
21
1.34569
0
LINE
8
Black
10
7.79924
20
1.34569
11
7.79924
21
1.34132
0
LINE
8
Black
10
7.79924
20
1.34132
11
7.67862
21
0.657284
0
LINE
8
Black
10
7.67862
20
0.657284
11
7.67863
21
0.657278
0
LINE
8
Black
10
7.67863
20
0.657278
11
7.67862
21
0.657278
0
LINE
8
Black
10
7.67862
20
0.657278
11
7.67269
21
0.64096
0
LINE
8
Black
10
7.67269
20
0.64096
11
7.67269
21
0.64096
0
LINE
8
Black
10
7.67269
20
0.64096
11
7.67268
21
0.640957
0
LINE
8
Black
10
7.67268
20
0.640957
11
7.32539
21
0.039425
0
LINE
8
Black
10
7.32539
20
0.039425
11
7.31423
21
0.026123
0
LINE
8
Black
10
7.31423
20
0.026123
11
7.31423
21
0.026123
0
LINE
8
Black
10
7.31423
20
0.026123
11
7.31422
21
0.026122
0
LINE
8
Black
10
7.31422
20
0.026122
11
6.78214
21
-0.42035
0
LINE
8
Black
10
6.78214
20
-0.42035
11
6.78214
21
-0.420353
0
LINE
8
Black
10
6.78214
20
-0.420353
11
6.78214
21
-0.420354
0
LINE
8
Black
10
6.78214
20
-0.420354
11
6.7671
21
-0.429036
0
LINE
8
Black
10
6.7671
20
-0.429036
11
6.1144
21
-0.666601
0
LINE
8
Black
10
6.1144
20
-0.666601
11
6.10797
21
-0.667734
0
LINE
8
Black
10
6.10797
20
-0.667734
11
6.10165
21
-0.669426
0
LINE
8
Black
10
6.10165
20
-0.669426
11
5.75436
21
-0.69981
0
LINE
8
Black
10
5.75436
20
-0.69981
11
5.41362
21
-0.72962
0
LINE
8
Black
10
5.41362
20
-0.72962
11
4.77538
21
-0.961919
0
LINE
8
Black
10
4.77538
20
-0.961919
11
4.2568
21
-1.39706
0
LINE
8
Black
10
4.2568
20
-1.39706
11
3.91832
21
-1.98332
0
LINE
8
Black
10
3.91832
20
-1.98332
11
3.80038
21
-2.6522
0
LINE
8
Black
10
3.80038
20
-2.6522
11
3.82962
21
-2.98638
0
LINE
8
Black
10
3.82962
20
-2.98638
11
4.06192
21
-3.62462
0
LINE
8
Black
10
4.06192
20
-3.62462
11
4.49706
21
-4.14319
0
LINE
8
Black
10
4.49706
20
-4.14319
11
5.08332
21
-4.48168
0
LINE
8
Black
10
5.08332
20
-4.48168
11
5.75437
21
-4.6
0
LINE
8
Black
10
5.75437
20
-4.6
11
29.75
21
-4.6
0
LINE
8
Black
10
29.75
20
-4.6
11
29.7543
21
-4.60076
0
LINE
8
Black
10
29.7543
20
-4.60076
11
29.7587
21
-4.60076
0
LINE
8
Black
10
29.7587
20
-4.60076
11
30.4427
21
-4.72137
0
LINE
8
Black
10
30.4427
20
-4.72137
11
30.4427
21
-4.72137
0
LINE
8
Black
10
30.4427
20
-4.72137
11
30.4521
21
-4.7248
0
LINE
8
Black
10
30.4521
20
-4.7248
11
30.459
21
-4.72731
0
LINE
8
Black
10
30.459
20
-4.72731
11
30.459
21
-4.72732
0
LINE
8
Black
10
30.459
20
-4.72732
11
31.0606
21
-5.07461
0
LINE
8
Black
10
31.0606
20
-5.07461
11
31.0606
21
-5.07461
0
LINE
8
Black
10
31.0606
20
-5.07461
11
31.0653
21
-5.07854
0
LINE
8
Black
10
31.0653
20
-5.07854
11
31.0739
21
-5.08577
0
LINE
8
Black
10
31.0739
20
-5.08577
11
31.0739
21
-5.08578
0
LINE
8
Black
10
31.0739
20
-5.08578
11
31.5203
21
-5.61785
0
LINE
8
Black
10
31.5203
20
-5.61785
11
31.5204
21
-5.61786
0
LINE
8
Black
10
31.5204
20
-5.61786
11
31.529
21
-5.6329
0
LINE
8
Black
10
31.529
20
-5.6329
11
31.7666
21
-6.2856
0
LINE
8
Black
10
31.7666
20
-6.2856
11
31.7677
21
-6.29203
0
LINE
8
Black
10
31.7677
20
-6.29203
11
31.7694
21
-6.29835
0
LINE
8
Black
10
31.7694
20
-6.29835
11
31.7998
21
-6.64564
0
LINE
8
Black
10
31.7998
20
-6.64564
11
31.7998
21
-6.64564
0
LINE
8
Black
10
31.7998
20
-6.64564
11
31.7998
21
-6.64564
0
LINE
8
Black
10
31.7998
20
-6.64564
11
31.8296
21
-6.98638
0
LINE
8
Black
10
31.8296
20
-6.98638
11
32.0619
21
-7.62462
0
LINE
8
Black
10
32.0619
20
-7.62462
11
32.4971
21
-8.1432
0
LINE
8
Black
10
32.4971
20
-8.1432
11
33.0833
21
-8.48168
0
LINE
8
Black
10
33.0833
20
-8.48168
11
33.7522
21
-8.59962
0
LINE
8
Black
10
33.7522
20
-8.59962
11
34.0864
21
-8.57038
0
LINE
8
Black
10
34.0864
20
-8.57038
11
34.7246
21
-8.33808
0
LINE
8
Black
10
34.7246
20
-8.33808
11
35.2432
21
-7.90294
0
LINE
8
Black
10
35.2432
20
-7.90294
11
35.5817
21
-7.31667
0
LINE
8
Black
10
35.5817
20
-7.31667
11
35.7
21
-6.64563
0
LINE
8
Black
10
35.7
20
-6.64563
11
35.7
21
37.3478
0
LINE
8
Black
10
35.7
20
37.3478
11
35.6704
21
37.6864
  0
ENDSEC
  0
EOF
