G04 (created by PCBNEW (2013-07-07 BZR 4022)-stable) date 27/08/2014 13:54:50*
%MOIN*%
G04 Gerber Fmt 3.4, Leading zero omitted, Abs format*
%FSLAX34Y34*%
G01*
G70*
G90*
G04 APERTURE LIST*
%ADD10C,0.00393701*%
%ADD11R,0.0787402X0.0787402*%
%ADD12R,0.0866142X0.0866142*%
%ADD13R,0.0236X0.0551*%
%ADD14R,0.055X0.035*%
%ADD15R,0.035X0.055*%
%ADD16R,0.08X0.06*%
%ADD17C,0.0314961*%
%ADD18C,0.0551181*%
%ADD19C,0.0393701*%
G04 APERTURE END LIST*
G54D10*
X14960Y25984D02*
G75*
G03X14960Y25984I-393J0D01*
G74*
G01*
X1574Y25984D02*
G75*
G03X1574Y25984I-393J0D01*
G74*
G01*
X1574Y6299D02*
G75*
G03X1574Y6299I-393J0D01*
G74*
G01*
X14960Y6299D02*
G75*
G03X14960Y6299I-393J0D01*
G74*
G01*
X15748Y29527D02*
X15748Y0D01*
X0Y29527D02*
X15748Y29527D01*
X0Y0D02*
X0Y29527D01*
X15748Y0D02*
X0Y0D01*
G54D11*
X3830Y1574D03*
X4830Y1574D03*
G54D12*
X8413Y8480D03*
X7413Y8480D03*
X8413Y7480D03*
X7413Y7480D03*
X8413Y6480D03*
X7413Y6480D03*
G54D13*
X5352Y19750D03*
X5352Y17650D03*
X5852Y19750D03*
X6352Y19750D03*
X6852Y19750D03*
X5852Y17650D03*
X6352Y17650D03*
X6852Y17650D03*
G54D14*
X12637Y9979D03*
X12637Y10729D03*
G54D15*
X11829Y2559D03*
X12579Y2559D03*
X4745Y19763D03*
X3995Y19763D03*
X6121Y16535D03*
X6871Y16535D03*
G54D14*
X2559Y3524D03*
X2559Y2774D03*
X3740Y3524D03*
X3740Y2774D03*
G54D11*
X2468Y1574D03*
X1468Y1574D03*
G54D12*
X9874Y12760D03*
X8874Y12760D03*
X7874Y12760D03*
X6874Y12760D03*
X5874Y12760D03*
X5874Y14960D03*
X6874Y14960D03*
X7874Y14960D03*
X8874Y14960D03*
X9874Y14960D03*
G54D16*
X11653Y8126D03*
X11653Y6826D03*
G54D11*
X5374Y26594D03*
X7374Y11594D03*
X6374Y26594D03*
X8374Y11594D03*
X7374Y26594D03*
X8374Y26594D03*
X9374Y11594D03*
X10374Y11594D03*
X13598Y590D03*
X11598Y590D03*
X11098Y1590D03*
X14098Y1590D03*
G54D17*
X5078Y14960D02*
X3740Y13622D01*
X5874Y14960D02*
X5078Y14960D01*
X3740Y13622D02*
X3740Y3524D01*
X6352Y17650D02*
X6152Y17650D01*
X6152Y17650D02*
X6121Y17619D01*
X6121Y16535D02*
X6121Y17619D01*
X6089Y17650D02*
X5852Y17650D01*
X6121Y17619D02*
X6089Y17650D01*
G54D18*
X5874Y14960D02*
X5874Y16288D01*
X5874Y16288D02*
X6121Y16535D01*
G54D17*
X3740Y3524D02*
X2559Y3524D01*
G54D18*
X8413Y6480D02*
X11307Y6480D01*
X11307Y6480D02*
X11653Y6826D01*
G54D17*
X12618Y3149D02*
X12618Y964D01*
X12618Y964D02*
X12992Y590D01*
X12618Y7106D02*
X12618Y3149D01*
X12618Y3149D02*
X12618Y2597D01*
X12618Y2597D02*
X12579Y2559D01*
X13598Y590D02*
X12992Y590D01*
X12637Y7086D02*
X12618Y7106D01*
X12618Y7106D02*
X12244Y7480D01*
X8413Y7480D02*
X12244Y7480D01*
X12637Y7874D02*
X12637Y9979D01*
X12244Y7480D02*
X12637Y7874D01*
X13598Y590D02*
X13346Y590D01*
X7413Y6480D02*
X6787Y6480D01*
X7874Y14488D02*
X7874Y14960D01*
X7480Y14094D02*
X7874Y14488D01*
X5000Y14094D02*
X7480Y14094D01*
X4330Y13425D02*
X5000Y14094D01*
X4330Y8937D02*
X4330Y13425D01*
X6787Y6480D02*
X4330Y8937D01*
X7413Y7480D02*
X6732Y7480D01*
X9874Y14244D02*
X9874Y14960D01*
X9251Y13622D02*
X9874Y14244D01*
X5314Y13622D02*
X9251Y13622D01*
X4921Y13228D02*
X5314Y13622D01*
X4921Y9291D02*
X4921Y13228D01*
X6732Y7480D02*
X4921Y9291D01*
G54D19*
X8374Y11594D02*
X8374Y11917D01*
X8874Y12417D02*
X8874Y12760D01*
X8374Y11917D02*
X8874Y12417D01*
G54D17*
X4830Y984D02*
X5224Y590D01*
X5224Y590D02*
X11598Y590D01*
X11598Y590D02*
X11829Y821D01*
X11829Y821D02*
X11829Y2559D01*
X4830Y1574D02*
X4830Y984D01*
X4830Y984D02*
X4437Y590D01*
X4437Y590D02*
X984Y590D01*
X984Y590D02*
X590Y984D01*
X590Y984D02*
X590Y3543D01*
X590Y3543D02*
X2500Y5452D01*
X2500Y5452D02*
X2500Y26122D01*
X2500Y26122D02*
X4724Y28346D01*
X4724Y28346D02*
X8858Y28346D01*
X8858Y28346D02*
X10039Y27165D01*
X10039Y27165D02*
X10039Y21181D01*
X10039Y21181D02*
X7578Y18720D01*
X7413Y8480D02*
X8413Y8480D01*
X6871Y16535D02*
X6871Y17632D01*
X6871Y17632D02*
X6852Y17650D01*
X6852Y17650D02*
X6852Y18720D01*
X5352Y17650D02*
X5352Y18720D01*
G54D18*
X3957Y19448D02*
X3957Y20847D01*
X3957Y19191D02*
X3957Y19448D01*
X3957Y19448D02*
X3957Y19726D01*
X7413Y8480D02*
X7413Y11555D01*
X7413Y11555D02*
X7374Y11594D01*
X8413Y11555D02*
X8374Y11594D01*
X7578Y18720D02*
X6852Y18720D01*
X8874Y17425D02*
X7578Y18720D01*
X8874Y16456D02*
X8874Y17425D01*
X6852Y18720D02*
X5352Y18720D01*
X5352Y18720D02*
X4429Y18720D01*
X4429Y18720D02*
X3957Y19191D01*
X5374Y22263D02*
X3957Y20847D01*
X5374Y26594D02*
X5374Y22263D01*
X8874Y14960D02*
X8874Y16456D01*
X5374Y26594D02*
X6374Y26594D01*
X8374Y11594D02*
X7374Y11594D01*
G54D17*
X2559Y2774D02*
X2559Y1665D01*
X2559Y1862D02*
X2468Y1771D01*
X12637Y10729D02*
X12637Y11181D01*
X11058Y12760D02*
X9874Y12760D01*
X12637Y11181D02*
X11058Y12760D01*
X5852Y19750D02*
X5852Y20379D01*
G54D18*
X7374Y22688D02*
X5866Y21181D01*
X5866Y21181D02*
X5866Y20393D01*
X7374Y22688D02*
X7374Y26594D01*
G54D17*
X5852Y20379D02*
X5866Y20393D01*
X5852Y19750D02*
X6352Y19750D01*
X5352Y19750D02*
X5852Y19750D01*
X4745Y19763D02*
X5339Y19763D01*
X5339Y19763D02*
X5352Y19750D01*
G54D18*
X7374Y26594D02*
X8374Y26594D01*
X10374Y11594D02*
X9374Y11594D01*
X11653Y8126D02*
X11653Y8937D01*
X10374Y10216D02*
X10374Y11594D01*
X11653Y8937D02*
X10374Y10216D01*
G54D17*
X3110Y5196D02*
X3110Y25826D01*
X6852Y20710D02*
X9409Y23267D01*
X9409Y23267D02*
X9409Y26929D01*
X9409Y26929D02*
X8582Y27755D01*
X8582Y27755D02*
X5039Y27755D01*
X6852Y19750D02*
X6852Y20710D01*
X3110Y5196D02*
X1468Y3555D01*
X1468Y3555D02*
X1468Y1574D01*
X3110Y25826D02*
X5039Y27755D01*
X3740Y2774D02*
X3740Y1665D01*
X3740Y1862D02*
X3830Y1771D01*
M02*
