M48
;DRILL file {Pcbnew (2013-07-07 BZR 4022)-stable} date 27/08/2014 13:54:46
;FORMAT={-:-/ absolute / metric / decimal}
FMAT,2
METRIC,TZ
T1C1.000
T2C1.200
%
G90
G05
M71
T1
X3.73Y4.
X6.27Y4.
X9.73Y4.
X12.27Y4.
X14.92Y38.
X14.92Y32.412
X17.46Y38.
X17.46Y32.412
X18.83Y21.54
X18.83Y19.
X18.83Y16.46
X20.Y38.
X20.Y32.412
X21.37Y21.54
X21.37Y19.
X21.37Y16.46
X22.54Y38.
X22.54Y32.412
X25.08Y38.
X25.08Y32.412
T2
X13.65Y67.55
X16.19Y67.55
X18.73Y67.55
X18.73Y29.45
X21.27Y67.55
X21.27Y29.45
X23.81Y29.45
X26.35Y29.45
X28.19Y4.04
X29.46Y1.5
X34.54Y1.5
X35.81Y4.04
T0
M30
