  0
SECTION
  2
HEADER
  9
$ANGBASE
  50
0.0
  9
$ANGDIR
  70
  1
  9
$MEASUREMENT
  70
0
  0
ENDSEC
  0
SECTION
  2
TABLES
  0
TABLE
  2
LTYPE
  70
1
  0
LTYPE
  2
CONTINUOUS
  70
0
  3
Solid line
  72
65
  73
0
  40
0.0
  0
ENDTAB
  0
TABLE
  2
STYLE
  70
4
  0
STYLE
  2
KICAD
  70
0
  40
0
  41
1
  42
1
  50
0
  71
0
  3
isocp.shx
  0
STYLE
  2
KICADB
  70
0
  40
0
  41
1
  42
1
  50
0
  71
0
  3
isocp.shx
  0
STYLE
  2
KICADI
  70
0
  40
0
  41
1
  42
1
  50
15
  71
0
  3
isocp.shx
  0
STYLE
  2
KICADBI
  70
0
  40
0
  41
1
  42
1
  50
15
  71
0
  3
isocp.shx
  0
ENDTAB
  0
TABLE
  2
LAYER
  70
24
  0
LAYER
  2
BLACK
  70
0
  62
250
  6
CONTINUOUS
  0
LAYER
  2
BLUE
  70
0
  62
5
  6
CONTINUOUS
  0
LAYER
  2
GREEN
  70
0
  62
3
  6
CONTINUOUS
  0
LAYER
  2
CYAN
  70
0
  62
4
  6
CONTINUOUS
  0
LAYER
  2
RED
  70
0
  62
1
  6
CONTINUOUS
  0
LAYER
  2
MAGENTA
  70
0
  62
6
  6
CONTINUOUS
  0
LAYER
  2
BROWN
  70
0
  62
54
  6
CONTINUOUS
  0
LAYER
  2
LIGHTGRAY
  70
0
  62
9
  6
CONTINUOUS
  0
LAYER
  2
DARKGRAY
  70
0
  62
8
  6
CONTINUOUS
  0
LAYER
  2
LIGHTBLUE
  70
0
  62
171
  6
CONTINUOUS
  0
LAYER
  2
LIGHTGREEN
  70
0
  62
91
  6
CONTINUOUS
  0
LAYER
  2
LIGHTCYAN
  70
0
  62
131
  6
CONTINUOUS
  0
LAYER
  2
LIGHTRED
  70
0
  62
11
  6
CONTINUOUS
  0
LAYER
  2
LIGHTMAGENTA
  70
0
  62
221
  6
CONTINUOUS
  0
LAYER
  2
YELLOW
  70
0
  62
2
  6
CONTINUOUS
  0
LAYER
  2
WHITE
  70
0
  62
7
  6
CONTINUOUS
  0
LAYER
  2
DARKDARKGRAY
  70
0
  62
251
  6
CONTINUOUS
  0
LAYER
  2
DARKBLUE
  70
0
  62
178
  6
CONTINUOUS
  0
LAYER
  2
DARKGREEN
  70
0
  62
98
  6
CONTINUOUS
  0
LAYER
  2
DARKCYAN
  70
0
  62
138
  6
CONTINUOUS
  0
LAYER
  2
DARKRED
  70
0
  62
18
  6
CONTINUOUS
  0
LAYER
  2
DARKMAGENTA
  70
0
  62
228
  6
CONTINUOUS
  0
LAYER
  2
DARKBROWN
  70
0
  62
58
  6
CONTINUOUS
  0
LAYER
  2
LIGHTYELLOW
  70
0
  62
51
  6
CONTINUOUS
  0
ENDTAB
  0
ENDSEC
  0
SECTION
  2
ENTITIES
0
LINE
8
BLACK
10
38.05
20
47.99
11
38.05
21
48.99
0
LINE
8
BLACK
10
37.95
20
47.99
11
37.95
21
48.99
0
ARC
8
BLACK
10
38
20
48.99
40
0.05
50
360
51
540
0
ARC
8
BLACK
10
38
20
47.99
40
0.05
50
180
51
360
0
LINE
8
BLACK
10
0
20
48.94
11
38
21
48.94
0
LINE
8
BLACK
10
0
20
49.04
11
38
21
49.04
0
ARC
8
BLACK
10
38
20
48.99
40
0.05
50
270
51
450
0
ARC
8
BLACK
10
0
20
48.99
40
0.05
50
90
51
270
0
LINE
8
BLACK
10
0.05
20
47.99
11
0.05
21
48.99
0
LINE
8
BLACK
10
-0.05
20
47.99
11
-0.05
21
48.99
0
ARC
8
BLACK
10
0
20
48.99
40
0.05
50
360
51
540
0
ARC
8
BLACK
10
0
20
47.99
40
0.05
50
180
51
360
0
LINE
8
BLACK
10
0.05
20
42.99
11
0.05
21
47.99
0
LINE
8
BLACK
10
-0.05
20
42.99
11
-0.05
21
47.99
0
ARC
8
BLACK
10
0
20
47.99
40
0.05
50
360
51
540
0
ARC
8
BLACK
10
0
20
42.99
40
0.05
50
180
51
360
0
LINE
8
BLACK
10
38.05
20
42.99
11
38.05
21
47.99
0
LINE
8
BLACK
10
37.95
20
42.99
11
37.95
21
47.99
0
ARC
8
BLACK
10
38
20
47.99
40
0.05
50
360
51
540
0
ARC
8
BLACK
10
38
20
42.99
40
0.05
50
180
51
360
0
LINE
8
BLACK
10
38.05
20
-0.01
11
38.05
21
42.99
0
LINE
8
BLACK
10
37.95
20
-0.01
11
37.95
21
42.99
0
ARC
8
BLACK
10
38
20
42.99
40
0.05
50
360
51
540
0
ARC
8
BLACK
10
38
20
-0.01
40
0.05
50
180
51
360
0
LINE
8
BLACK
10
0
20
-0.06
11
38
21
-0.06
0
LINE
8
BLACK
10
0
20
0.04
11
38
21
0.04
0
ARC
8
BLACK
10
38
20
-0.01
40
0.05
50
270
51
450
0
ARC
8
BLACK
10
0
20
-0.01
40
0.05
50
90
51
270
0
LINE
8
BLACK
10
0.05
20
-0.01
11
0.05
21
42.99
0
LINE
8
BLACK
10
-0.05
20
-0.01
11
-0.05
21
42.99
0
ARC
8
BLACK
10
0
20
42.99
40
0.05
50
360
51
540
0
ARC
8
BLACK
10
0
20
-0.01
40
0.05
50
180
51
360
0
LINE
8
BLACK
10
21.73
20
4.99
11
21.73
21
2.99
0
LINE
8
BLACK
10
21.73
20
2.99
11
23.73
21
2.99
0
LINE
8
BLACK
10
23.73
20
2.99
11
23.73
21
4.99
0
LINE
8
BLACK
10
23.73
20
4.99
11
21.73
21
4.99
0
LINE
8
BLACK
10
24.27
20
4.99
11
24.27
21
2.99
0
LINE
8
BLACK
10
24.27
20
2.99
11
26.27
21
2.99
0
LINE
8
BLACK
10
26.27
20
2.99
11
26.27
21
4.99
0
LINE
8
BLACK
10
26.27
20
4.99
11
24.27
21
4.99
0
LINE
8
BLACK
10
28.44
20
0.2
11
28.44
21
2.7
0
LINE
8
BLACK
10
28.44
20
2.7
11
25.94
21
2.7
0
LINE
8
BLACK
10
25.94
20
2.7
11
25.94
21
0.2
0
LINE
8
BLACK
10
25.94
20
0.2
11
28.44
21
0.2
0
LINE
8
BLACK
10
28.44
20
5.28
11
28.44
21
7.78
0
LINE
8
BLACK
10
28.44
20
7.78
11
25.94
21
7.78
0
LINE
8
BLACK
10
25.94
20
7.78
11
25.94
21
5.28
0
LINE
8
BLACK
10
25.94
20
5.28
11
28.44
21
5.28
0
LINE
8
BLACK
10
36.06
20
0.2
11
36.06
21
2.7
0
LINE
8
BLACK
10
36.06
20
2.7
11
33.56
21
2.7
0
LINE
8
BLACK
10
33.56
20
2.7
11
33.56
21
0.2
0
LINE
8
BLACK
10
33.56
20
0.2
11
36.06
21
0.2
0
LINE
8
BLACK
10
36.06
20
5.28
11
36.06
21
7.78
0
LINE
8
BLACK
10
36.06
20
7.78
11
33.56
21
7.78
0
LINE
8
BLACK
10
33.56
20
7.78
11
33.56
21
5.28
0
LINE
8
BLACK
10
33.56
20
5.28
11
36.06
21
5.28
0
LINE
8
BLACK
10
21.46
20
46.99
11
21.46
21
42.99
0
LINE
8
BLACK
10
21.46
20
42.99
11
23.46
21
42.99
0
LINE
8
BLACK
10
23.46
20
42.99
11
23.46
21
46.99
0
LINE
8
BLACK
10
23.46
20
46.99
11
21.46
21
46.99
0
LINE
8
BLACK
10
24
20
46.99
11
24
21
42.99
0
LINE
8
BLACK
10
24
20
42.99
11
26
21
42.99
0
LINE
8
BLACK
10
26
20
42.99
11
26
21
46.99
0
LINE
8
BLACK
10
26
20
46.99
11
24
21
46.99
0
LINE
8
BLACK
10
26.54
20
46.99
11
26.54
21
42.99
0
LINE
8
BLACK
10
26.54
20
42.99
11
28.54
21
42.99
0
LINE
8
BLACK
10
28.54
20
42.99
11
28.54
21
46.99
0
LINE
8
BLACK
10
28.54
20
46.99
11
26.54
21
46.99
0
LINE
8
BLACK
10
21.37
20
31.64
11
19.17
21
31.64
0
LINE
8
BLACK
10
19.17
20
31.64
11
19.17
21
29.44
0
LINE
8
BLACK
10
19.17
20
29.44
11
21.37
21
29.44
0
LINE
8
BLACK
10
21.37
20
29.44
11
21.37
21
31.64
0
LINE
8
BLACK
10
18.83
20
31.64
11
16.63
21
31.64
0
LINE
8
BLACK
10
16.63
20
31.64
11
16.63
21
29.44
0
LINE
8
BLACK
10
16.63
20
29.44
11
18.83
21
29.44
0
LINE
8
BLACK
10
18.83
20
29.44
11
18.83
21
31.64
0
LINE
8
BLACK
10
21.37
20
29.1
11
19.17
21
29.1
0
LINE
8
BLACK
10
19.17
20
29.1
11
19.17
21
26.9
0
LINE
8
BLACK
10
19.17
20
26.9
11
21.37
21
26.9
0
LINE
8
BLACK
10
21.37
20
26.9
11
21.37
21
29.1
0
LINE
8
BLACK
10
18.83
20
29.1
11
16.63
21
29.1
0
LINE
8
BLACK
10
16.63
20
29.1
11
16.63
21
26.9
0
LINE
8
BLACK
10
16.63
20
26.9
11
18.83
21
26.9
0
LINE
8
BLACK
10
18.83
20
26.9
11
18.83
21
29.1
0
LINE
8
BLACK
10
21.37
20
26.56
11
19.17
21
26.56
0
LINE
8
BLACK
10
19.17
20
26.56
11
19.17
21
24.36
0
LINE
8
BLACK
10
19.17
20
24.36
11
21.37
21
24.36
0
LINE
8
BLACK
10
21.37
20
24.36
11
21.37
21
26.56
0
LINE
8
BLACK
10
18.83
20
26.56
11
16.63
21
26.56
0
LINE
8
BLACK
10
16.63
20
26.56
11
16.63
21
24.36
0
LINE
8
BLACK
10
16.63
20
24.36
11
18.83
21
24.36
0
LINE
8
BLACK
10
18.83
20
24.36
11
18.83
21
26.56
0
LINE
8
BLACK
10
16.3668
20
45.1947
11
14.9672
21
45.1947
0
LINE
8
BLACK
10
14.9672
20
45.1947
11
14.9672
21
44.5953
0
LINE
8
BLACK
10
14.9672
20
44.5953
11
16.3668
21
44.5953
0
LINE
8
BLACK
10
16.3668
20
44.5953
11
16.3668
21
45.1947
0
LINE
8
BLACK
10
11.0328
20
45.1947
11
9.63323
21
45.1947
0
LINE
8
BLACK
10
9.63323
20
45.1947
11
9.63323
21
44.5953
0
LINE
8
BLACK
10
9.63323
20
44.5953
11
11.0328
21
44.5953
0
LINE
8
BLACK
10
11.0328
20
44.5953
11
11.0328
21
45.1947
0
LINE
8
BLACK
10
16.3668
20
43.9247
11
14.9672
21
43.9247
0
LINE
8
BLACK
10
14.9672
20
43.9247
11
14.9672
21
43.3253
0
LINE
8
BLACK
10
14.9672
20
43.3253
11
16.3668
21
43.3253
0
LINE
8
BLACK
10
16.3668
20
43.3253
11
16.3668
21
43.9247
0
LINE
8
BLACK
10
16.3668
20
42.6547
11
14.9672
21
42.6547
0
LINE
8
BLACK
10
14.9672
20
42.6547
11
14.9672
21
42.0553
0
LINE
8
BLACK
10
14.9672
20
42.0553
11
16.3668
21
42.0553
0
LINE
8
BLACK
10
16.3668
20
42.0553
11
16.3668
21
42.6547
0
LINE
8
BLACK
10
16.3668
20
41.3847
11
14.9672
21
41.3847
0
LINE
8
BLACK
10
14.9672
20
41.3847
11
14.9672
21
40.7853
0
LINE
8
BLACK
10
14.9672
20
40.7853
11
16.3668
21
40.7853
0
LINE
8
BLACK
10
16.3668
20
40.7853
11
16.3668
21
41.3847
0
LINE
8
BLACK
10
11.0328
20
43.9247
11
9.63323
21
43.9247
0
LINE
8
BLACK
10
9.63323
20
43.9247
11
9.63323
21
43.3253
0
LINE
8
BLACK
10
9.63323
20
43.3253
11
11.0328
21
43.3253
0
LINE
8
BLACK
10
11.0328
20
43.3253
11
11.0328
21
43.9247
0
LINE
8
BLACK
10
11.0328
20
42.6547
11
9.63323
21
42.6547
0
LINE
8
BLACK
10
9.63323
20
42.6547
11
9.63323
21
42.0553
0
LINE
8
BLACK
10
9.63323
20
42.0553
11
11.0328
21
42.0553
0
LINE
8
BLACK
10
11.0328
20
42.0553
11
11.0328
21
42.6547
0
LINE
8
BLACK
10
11.0328
20
41.3847
11
9.63323
21
41.3847
0
LINE
8
BLACK
10
9.63323
20
41.3847
11
9.63323
21
40.7853
0
LINE
8
BLACK
10
9.63323
20
40.7853
11
11.0328
21
40.7853
0
LINE
8
BLACK
10
11.0328
20
40.7853
11
11.0328
21
41.3847
0
LINE
8
BLACK
10
25.178
20
37.803
11
25.178
21
32.977
0
LINE
8
BLACK
10
25.178
20
32.977
11
27.972
21
32.977
0
LINE
8
BLACK
10
27.972
20
32.977
11
27.972
21
37.803
0
LINE
8
BLACK
10
27.972
20
37.803
11
25.178
21
37.803
0
LINE
8
BLACK
10
18.828
20
37.803
11
18.828
21
32.977
0
LINE
8
BLACK
10
18.828
20
32.977
11
21.622
21
32.977
0
LINE
8
BLACK
10
21.622
20
32.977
11
21.622
21
37.803
0
LINE
8
BLACK
10
21.622
20
37.803
11
18.828
21
37.803
0
LINE
8
BLACK
10
30.087
20
44.268
11
34.913
21
44.268
0
LINE
8
BLACK
10
34.913
20
44.268
11
34.913
21
47.062
0
LINE
8
BLACK
10
34.913
20
47.062
11
30.087
21
47.062
0
LINE
8
BLACK
10
30.087
20
47.062
11
30.087
21
44.268
0
LINE
8
BLACK
10
30.087
20
37.918
11
34.913
21
37.918
0
LINE
8
BLACK
10
34.913
20
37.918
11
34.913
21
40.712
0
LINE
8
BLACK
10
34.913
20
40.712
11
30.087
21
40.712
0
LINE
8
BLACK
10
30.087
20
40.712
11
30.087
21
37.918
0
LINE
8
BLACK
10
22.897
20
20.2915
11
22.897
21
21.6885
0
LINE
8
BLACK
10
22.897
20
21.6885
11
22.008
21
21.6885
0
LINE
8
BLACK
10
22.008
20
21.6885
11
22.008
21
20.2915
0
LINE
8
BLACK
10
22.008
20
20.2915
11
22.897
21
20.2915
0
LINE
8
BLACK
10
20.992
20
20.2915
11
20.992
21
21.6885
0
LINE
8
BLACK
10
20.992
20
21.6885
11
20.103
21
21.6885
0
LINE
8
BLACK
10
20.103
20
21.6885
11
20.103
21
20.2915
0
LINE
8
BLACK
10
20.103
20
20.2915
11
20.992
21
20.2915
0
LINE
8
BLACK
10
25.803
20
10.3885
11
25.803
21
8.9915
0
LINE
8
BLACK
10
25.803
20
8.9915
11
26.692
21
8.9915
0
LINE
8
BLACK
10
26.692
20
8.9915
11
26.692
21
10.3885
0
LINE
8
BLACK
10
26.692
20
10.3885
11
25.803
21
10.3885
0
LINE
8
BLACK
10
27.708
20
10.3885
11
27.708
21
8.9915
0
LINE
8
BLACK
10
27.708
20
8.9915
11
28.597
21
8.9915
0
LINE
8
BLACK
10
28.597
20
8.9915
11
28.597
21
10.3885
0
LINE
8
BLACK
10
28.597
20
10.3885
11
27.708
21
10.3885
0
LINE
8
BLACK
10
22.003
20
42.0685
11
22.003
21
40.6715
0
LINE
8
BLACK
10
22.003
20
40.6715
11
22.892
21
40.6715
0
LINE
8
BLACK
10
22.892
20
40.6715
11
22.892
21
42.0685
0
LINE
8
BLACK
10
22.892
20
42.0685
11
22.003
21
42.0685
0
LINE
8
BLACK
10
23.908
20
42.0685
11
23.908
21
40.6715
0
LINE
8
BLACK
10
23.908
20
40.6715
11
24.797
21
40.6715
0
LINE
8
BLACK
10
24.797
20
40.6715
11
24.797
21
42.0685
0
LINE
8
BLACK
10
24.797
20
42.0685
11
23.908
21
42.0685
0
LINE
8
BLACK
10
6.3015
20
42.593
11
7.6985
21
42.593
0
LINE
8
BLACK
10
7.6985
20
42.593
11
7.6985
21
43.482
0
LINE
8
BLACK
10
7.6985
20
43.482
11
6.3015
21
43.482
0
LINE
8
BLACK
10
6.3015
20
43.482
11
6.3015
21
42.593
0
LINE
8
BLACK
10
6.3015
20
44.498
11
7.6985
21
44.498
0
LINE
8
BLACK
10
7.6985
20
44.498
11
7.6985
21
45.387
0
LINE
8
BLACK
10
7.6985
20
45.387
11
6.3015
21
45.387
0
LINE
8
BLACK
10
6.3015
20
45.387
11
6.3015
21
44.498
0
LINE
8
BLACK
10
20.6985
20
10.887
11
19.3015
21
10.887
0
LINE
8
BLACK
10
19.3015
20
10.887
11
19.3015
21
9.998
0
LINE
8
BLACK
10
19.3015
20
9.998
11
20.6985
21
9.998
0
LINE
8
BLACK
10
20.6985
20
9.998
11
20.6985
21
10.887
0
LINE
8
BLACK
10
20.6985
20
8.982
11
19.3015
21
8.982
0
LINE
8
BLACK
10
19.3015
20
8.982
11
19.3015
21
8.093
0
LINE
8
BLACK
10
19.3015
20
8.093
11
20.6985
21
8.093
0
LINE
8
BLACK
10
20.6985
20
8.093
11
20.6985
21
8.982
0
LINE
8
BLACK
10
23.1985
20
10.887
11
21.8015
21
10.887
0
LINE
8
BLACK
10
21.8015
20
10.887
11
21.8015
21
9.998
0
LINE
8
BLACK
10
21.8015
20
9.998
11
23.1985
21
9.998
0
LINE
8
BLACK
10
23.1985
20
9.998
11
23.1985
21
10.887
0
LINE
8
BLACK
10
23.1985
20
8.982
11
21.8015
21
8.982
0
LINE
8
BLACK
10
21.8015
20
8.982
11
21.8015
21
8.093
0
LINE
8
BLACK
10
21.8015
20
8.093
11
23.1985
21
8.093
0
LINE
8
BLACK
10
23.1985
20
8.093
11
23.1985
21
8.982
0
LINE
8
BLACK
10
21.27
20
2.99
11
21.27
21
4.99
0
LINE
8
BLACK
10
21.27
20
4.99
11
19.27
21
4.99
0
LINE
8
BLACK
10
19.27
20
4.99
11
19.27
21
2.99
0
LINE
8
BLACK
10
19.27
20
2.99
11
21.27
21
2.99
0
LINE
8
BLACK
10
18.73
20
2.99
11
18.73
21
4.99
0
LINE
8
BLACK
10
18.73
20
4.99
11
16.73
21
4.99
0
LINE
8
BLACK
10
16.73
20
4.99
11
16.73
21
2.99
0
LINE
8
BLACK
10
16.73
20
2.99
11
18.73
21
2.99
0
LINE
8
BLACK
10
11.88
20
30.312
11
14.08
21
30.312
0
LINE
8
BLACK
10
14.08
20
30.312
11
14.08
21
32.512
0
LINE
8
BLACK
10
14.08
20
32.512
11
11.88
21
32.512
0
LINE
8
BLACK
10
11.88
20
32.512
11
11.88
21
30.312
0
LINE
8
BLACK
10
9.34
20
30.312
11
11.54
21
30.312
0
LINE
8
BLACK
10
11.54
20
30.312
11
11.54
21
32.512
0
LINE
8
BLACK
10
11.54
20
32.512
11
9.34
21
32.512
0
LINE
8
BLACK
10
9.34
20
32.512
11
9.34
21
30.312
0
LINE
8
BLACK
10
6.8
20
30.312
11
9
21
30.312
0
LINE
8
BLACK
10
9
20
30.312
11
9
21
32.512
0
LINE
8
BLACK
10
9
20
32.512
11
6.8
21
32.512
0
LINE
8
BLACK
10
6.8
20
32.512
11
6.8
21
30.312
0
LINE
8
BLACK
10
4.26
20
30.312
11
6.46
21
30.312
0
LINE
8
BLACK
10
6.46
20
30.312
11
6.46
21
32.512
0
LINE
8
BLACK
10
6.46
20
32.512
11
4.26
21
32.512
0
LINE
8
BLACK
10
4.26
20
32.512
11
4.26
21
30.312
0
LINE
8
BLACK
10
1.72
20
30.312
11
3.92
21
30.312
0
LINE
8
BLACK
10
3.92
20
30.312
11
3.92
21
32.512
0
LINE
8
BLACK
10
3.92
20
32.512
11
1.72
21
32.512
0
LINE
8
BLACK
10
1.72
20
32.512
11
1.72
21
30.312
0
LINE
8
BLACK
10
1.72
20
35.9
11
3.92
21
35.9
0
LINE
8
BLACK
10
3.92
20
35.9
11
3.92
21
38.1
0
LINE
8
BLACK
10
3.92
20
38.1
11
1.72
21
38.1
0
LINE
8
BLACK
10
1.72
20
38.1
11
1.72
21
35.9
0
LINE
8
BLACK
10
4.26
20
35.9
11
6.46
21
35.9
0
LINE
8
BLACK
10
6.46
20
35.9
11
6.46
21
38.1
0
LINE
8
BLACK
10
6.46
20
38.1
11
4.26
21
38.1
0
LINE
8
BLACK
10
4.26
20
38.1
11
4.26
21
35.9
0
LINE
8
BLACK
10
6.8
20
35.9
11
9
21
35.9
0
LINE
8
BLACK
10
9
20
35.9
11
9
21
38.1
0
LINE
8
BLACK
10
9
20
38.1
11
6.8
21
38.1
0
LINE
8
BLACK
10
6.8
20
38.1
11
6.8
21
35.9
0
LINE
8
BLACK
10
9.34
20
35.9
11
11.54
21
35.9
0
LINE
8
BLACK
10
11.54
20
35.9
11
11.54
21
38.1
0
LINE
8
BLACK
10
11.54
20
38.1
11
9.34
21
38.1
0
LINE
8
BLACK
10
9.34
20
38.1
11
9.34
21
35.9
0
LINE
8
BLACK
10
11.88
20
35.9
11
14.08
21
35.9
0
LINE
8
BLACK
10
14.08
20
35.9
11
14.08
21
38.1
0
LINE
8
BLACK
10
14.08
20
38.1
11
11.88
21
38.1
0
LINE
8
BLACK
10
11.88
20
38.1
11
11.88
21
35.9
0
LINE
8
BLACK
10
29.516
20
30.403
11
27.484
21
30.403
0
LINE
8
BLACK
10
27.484
20
30.403
11
27.484
21
28.879
0
LINE
8
BLACK
10
27.484
20
28.879
11
29.516
21
28.879
0
LINE
8
BLACK
10
29.516
20
28.879
11
29.516
21
30.403
0
LINE
8
BLACK
10
29.516
20
27.101
11
27.484
21
27.101
0
LINE
8
BLACK
10
27.484
20
27.101
11
27.484
21
25.577
0
LINE
8
BLACK
10
27.484
20
25.577
11
29.516
21
25.577
0
LINE
8
BLACK
10
29.516
20
25.577
11
29.516
21
27.101
0
LINE
8
BLACK
10
20
20
10.0425
11
22.5
21
10.0425
0
LINE
8
BLACK
10
20
20
10.8425
11
22.5
21
10.8425
0
ARC
8
BLACK
10
22.5
20
10.4425
40
0.4
50
270
51
450
0
ARC
8
BLACK
10
20
20
10.4425
40
0.4
50
90
51
270
0
LINE
8
BLACK
10
7
20
42.6375
11
8.5475
21
42.6375
0
LINE
8
BLACK
10
7
20
43.4375
11
8.5475
21
43.4375
0
ARC
8
BLACK
10
8.5475
20
43.0375
40
0.4
50
270
51
450
0
ARC
8
BLACK
10
7
20
43.0375
40
0.4
50
90
51
270
0
LINE
8
BLACK
10
9.135
20
43.225
11
10.333
21
43.225
0
LINE
8
BLACK
10
9.135
20
44.025
11
10.333
21
44.025
0
ARC
8
BLACK
10
10.333
20
43.625
40
0.4
50
270
51
450
0
ARC
8
BLACK
10
9.135
20
43.625
40
0.4
50
90
51
270
0
LINE
8
BLACK
10
8.83034
20
42.7547
11
9.41784
21
43.3422
0
LINE
8
BLACK
10
8.26466
20
43.3203
11
8.85216
21
43.9078
0
ARC
8
BLACK
10
9.135
20
43.625
40
0.4
50
315
51
495
0
ARC
8
BLACK
10
8.5475
20
43.0375
40
0.4
50
135
51
315
0
LINE
8
BLACK
10
10.733
20
42.355
11
10.733
21
43.625
0
LINE
8
BLACK
10
9.933
20
42.355
11
9.933
21
43.625
0
ARC
8
BLACK
10
10.333
20
43.625
40
0.4
50
360
51
540
0
ARC
8
BLACK
10
10.333
20
42.355
40
0.4
50
180
51
360
0
LINE
8
BLACK
10
3.32
20
37
11
3.32
21
40.81
0
LINE
8
BLACK
10
2.32
20
37
11
2.32
21
40.81
0
ARC
8
BLACK
10
2.82
20
40.81
40
0.5
50
360
51
540
0
ARC
8
BLACK
10
2.82
20
37
40
0.5
50
180
51
360
0
LINE
8
BLACK
10
5.0475
20
42.5375
11
7
21
42.5375
0
LINE
8
BLACK
10
5.0475
20
43.5375
11
7
21
43.5375
0
ARC
8
BLACK
10
7
20
43.0375
40
0.5
50
270
51
450
0
ARC
8
BLACK
10
5.0475
20
43.0375
40
0.5
50
90
51
270
0
LINE
8
BLACK
10
3.17355
20
40.4564
11
5.40105
21
42.6839
0
LINE
8
BLACK
10
2.46645
20
41.1636
11
4.69395
21
43.3911
0
ARC
8
BLACK
10
5.0475
20
43.0375
40
0.5
50
315
51
495
0
ARC
8
BLACK
10
2.82
20
40.81
40
0.5
50
135
51
315
0
LINE
8
BLACK
10
3.32
20
31.412
11
3.32
21
37
0
LINE
8
BLACK
10
2.32
20
31.412
11
2.32
21
37
0
ARC
8
BLACK
10
2.82
20
37
40
0.5
50
360
51
540
0
ARC
8
BLACK
10
2.82
20
31.412
40
0.5
50
180
51
360
0
LINE
8
BLACK
10
20.4
20
10.4425
11
20.4
21
12.49
0
LINE
8
BLACK
10
19.6
20
10.4425
11
19.6
21
12.49
0
ARC
8
BLACK
10
20
20
12.49
40
0.4
50
360
51
540
0
ARC
8
BLACK
10
20
20
10.4425
40
0.4
50
180
51
360
0
LINE
8
BLACK
10
3.22
20
29.67
11
3.22
21
31.412
0
LINE
8
BLACK
10
2.42
20
29.67
11
2.42
21
31.412
0
ARC
8
BLACK
10
2.82
20
31.412
40
0.4
50
360
51
540
0
ARC
8
BLACK
10
2.82
20
29.67
40
0.4
50
180
51
360
0
LINE
8
BLACK
10
20.2828
20
12.7728
11
3.10284
21
29.9528
0
LINE
8
BLACK
10
19.7172
20
12.2072
11
2.53716
21
29.3872
0
ARC
8
BLACK
10
2.82
20
29.67
40
0.4
50
405
51
585
0
ARC
8
BLACK
10
20
20
12.49
40
0.4
50
225
51
405
0
LINE
8
BLACK
10
25.349
20
25.839
11
28.5
21
25.839
0
LINE
8
BLACK
10
25.349
20
26.839
11
28.5
21
26.839
0
ARC
8
BLACK
10
28.5
20
26.339
40
0.5
50
270
51
450
0
ARC
8
BLACK
10
25.349
20
26.339
40
0.5
50
90
51
270
0
LINE
8
BLACK
10
20.27
20
24.96
11
24.47
21
24.96
0
LINE
8
BLACK
10
20.27
20
25.96
11
24.47
21
25.96
0
ARC
8
BLACK
10
24.47
20
25.46
40
0.5
50
270
51
450
0
ARC
8
BLACK
10
20.27
20
25.46
40
0.5
50
90
51
270
0
LINE
8
BLACK
10
24.9954
20
26.6926
11
24.1164
21
25.8136
0
LINE
8
BLACK
10
25.7026
20
25.9854
11
24.8236
21
25.1064
0
ARC
8
BLACK
10
24.47
20
25.46
40
0.5
50
135
51
315
0
ARC
8
BLACK
10
25.349
20
26.339
40
0.5
50
-45
51
135
0
LINE
8
BLACK
10
22.4525
20
20.59
11
28
21
20.59
0
LINE
8
BLACK
10
22.4525
20
21.39
11
28
21
21.39
0
ARC
8
BLACK
10
28
20
20.99
40
0.4
50
270
51
450
0
ARC
8
BLACK
10
22.4525
20
20.99
40
0.4
50
90
51
270
0
LINE
8
BLACK
10
28.2828
20
20.7072
11
31.2828
21
23.7072
0
LINE
8
BLACK
10
27.7172
20
21.2728
11
30.7172
21
24.2728
0
ARC
8
BLACK
10
31
20
23.99
40
0.4
50
315
51
495
0
ARC
8
BLACK
10
28
20
20.99
40
0.4
50
135
51
315
0
LINE
8
BLACK
10
20.5628
20
28.2728
11
20.5528
21
28.2828
0
LINE
8
BLACK
10
19.9972
20
27.7072
11
19.9872
21
27.7172
0
ARC
8
BLACK
10
20.27
20
28
40
0.4
50
405
51
585
0
ARC
8
BLACK
10
20.28
20
27.99
40
0.4
50
225
51
405
0
LINE
8
BLACK
10
20.28
20
27.59
11
30
21
27.59
0
LINE
8
BLACK
10
20.28
20
28.39
11
30
21
28.39
0
ARC
8
BLACK
10
30
20
27.99
40
0.4
50
270
51
450
0
ARC
8
BLACK
10
20.28
20
27.99
40
0.4
50
90
51
270
0
LINE
8
BLACK
10
31.2828
20
27.2728
11
30.2828
21
28.2728
0
LINE
8
BLACK
10
30.7172
20
26.7072
11
29.7172
21
27.7072
0
ARC
8
BLACK
10
30
20
27.99
40
0.4
50
405
51
585
0
ARC
8
BLACK
10
31
20
26.99
40
0.4
50
225
51
405
0
LINE
8
BLACK
10
31.4
20
23.99
11
31.4
21
26.99
0
LINE
8
BLACK
10
30.6
20
23.99
11
30.6
21
26.99
0
ARC
8
BLACK
10
31
20
26.99
40
0.4
50
360
51
540
0
ARC
8
BLACK
10
31
20
23.99
40
0.4
50
180
51
360
0
LINE
8
BLACK
10
27.7172
20
20.7072
11
27.8697
21
20.5547
0
LINE
8
BLACK
10
28.2828
20
21.2728
11
28.4353
21
21.1203
0
ARC
8
BLACK
10
28.1525
20
20.8375
40
0.4
50
225
51
405
0
ARC
8
BLACK
10
28
20
20.99
40
0.4
50
45
51
225
0
LINE
8
BLACK
10
28.5525
20
9.69
11
28.5525
21
20.8375
0
LINE
8
BLACK
10
27.7525
20
9.69
11
27.7525
21
20.8375
0
ARC
8
BLACK
10
28.1525
20
20.8375
40
0.4
50
360
51
540
0
ARC
8
BLACK
10
28.1525
20
9.69
40
0.4
50
180
51
360
0
LINE
8
BLACK
10
27.19
20
6.13
11
34.81
21
6.13
0
LINE
8
BLACK
10
27.19
20
6.93
11
34.81
21
6.93
0
ARC
8
BLACK
10
34.81
20
6.53
40
0.4
50
270
51
450
0
ARC
8
BLACK
10
27.19
20
6.53
40
0.4
50
90
51
270
0
LINE
8
BLACK
10
27.4728
20
6.24716
11
28.4353
21
7.20966
0
LINE
8
BLACK
10
26.9072
20
6.81284
11
27.8697
21
7.77534
0
ARC
8
BLACK
10
28.1525
20
7.4925
40
0.4
50
315
51
495
0
ARC
8
BLACK
10
27.19
20
6.53
40
0.4
50
135
51
315
0
LINE
8
BLACK
10
28.5525
20
7.4925
11
28.5525
21
9.69
0
LINE
8
BLACK
10
27.7525
20
7.4925
11
27.7525
21
9.69
0
ARC
8
BLACK
10
28.1525
20
9.69
40
0.4
50
360
51
540
0
ARC
8
BLACK
10
28.1525
20
7.4925
40
0.4
50
180
51
360
0
LINE
8
BLACK
10
8.2
20
35.62
11
8.2
21
37
0
LINE
8
BLACK
10
7.6
20
35.62
11
7.6
21
37
0
ARC
8
BLACK
10
7.9
20
37
40
0.3
50
360
51
540
0
ARC
8
BLACK
10
7.9
20
35.62
40
0.3
50
180
51
360
0
LINE
8
BLACK
10
9.26
20
33.96
11
13.58
21
33.96
0
LINE
8
BLACK
10
9.26
20
34.56
11
13.58
21
34.56
0
ARC
8
BLACK
10
13.58
20
34.26
40
0.3
50
270
51
450
0
ARC
8
BLACK
10
9.26
20
34.26
40
0.3
50
90
51
270
0
LINE
8
BLACK
10
7.68787
20
35.4079
11
9.04787
21
34.0479
0
LINE
8
BLACK
10
8.11213
20
35.8321
11
9.47213
21
34.4721
0
ARC
8
BLACK
10
9.26
20
34.26
40
0.3
50
225
51
405
0
ARC
8
BLACK
10
7.9
20
35.62
40
0.3
50
45
51
225
0
LINE
8
BLACK
10
16.51
20
25.16
11
17.73
21
25.16
0
LINE
8
BLACK
10
16.51
20
25.76
11
17.73
21
25.76
0
ARC
8
BLACK
10
17.73
20
25.46
40
0.3
50
270
51
450
0
ARC
8
BLACK
10
16.51
20
25.46
40
0.3
50
90
51
270
0
LINE
8
BLACK
10
13.3679
20
34.0479
11
14.6679
21
32.7479
0
LINE
8
BLACK
10
13.7921
20
34.4721
11
15.0921
21
33.1721
0
ARC
8
BLACK
10
14.88
20
32.96
40
0.3
50
225
51
405
0
ARC
8
BLACK
10
13.58
20
34.26
40
0.3
50
45
51
225
0
LINE
8
BLACK
10
15.18
20
27.09
11
15.18
21
32.96
0
LINE
8
BLACK
10
14.58
20
27.09
11
14.58
21
32.96
0
ARC
8
BLACK
10
14.88
20
32.96
40
0.3
50
360
51
540
0
ARC
8
BLACK
10
14.88
20
27.09
40
0.3
50
180
51
360
0
LINE
8
BLACK
10
14.6679
20
26.8779
11
16.2979
21
25.2479
0
LINE
8
BLACK
10
15.0921
20
27.3021
11
16.7221
21
25.6721
0
ARC
8
BLACK
10
16.51
20
25.46
40
0.3
50
225
51
405
0
ARC
8
BLACK
10
14.88
20
27.09
40
0.3
50
45
51
225
0
LINE
8
BLACK
10
16.61
20
27.7
11
17.73
21
27.7
0
LINE
8
BLACK
10
16.61
20
28.3
11
17.73
21
28.3
0
ARC
8
BLACK
10
17.73
20
28
40
0.3
50
270
51
450
0
ARC
8
BLACK
10
16.61
20
28
40
0.3
50
90
51
270
0
LINE
8
BLACK
10
16.13
20
28.78
11
16.13
21
35.66
0
LINE
8
BLACK
10
15.53
20
28.78
11
15.53
21
35.66
0
ARC
8
BLACK
10
15.83
20
35.66
40
0.3
50
360
51
540
0
ARC
8
BLACK
10
15.83
20
28.78
40
0.3
50
180
51
360
0
LINE
8
BLACK
10
16.8221
20
28.2121
11
16.0421
21
28.9921
0
LINE
8
BLACK
10
16.3979
20
27.7879
11
15.6179
21
28.5679
0
ARC
8
BLACK
10
15.83
20
28.78
40
0.3
50
405
51
585
0
ARC
8
BLACK
10
16.61
20
28
40
0.3
50
225
51
405
0
LINE
8
BLACK
10
12.98
20
36.7
11
14.49
21
36.7
0
LINE
8
BLACK
10
12.98
20
37.3
11
14.49
21
37.3
0
ARC
8
BLACK
10
14.49
20
37
40
0.3
50
270
51
450
0
ARC
8
BLACK
10
12.98
20
37
40
0.3
50
90
51
270
0
LINE
8
BLACK
10
16.0421
20
35.8721
11
14.7021
21
37.2121
0
LINE
8
BLACK
10
15.6179
20
35.4479
11
14.2779
21
36.7879
0
ARC
8
BLACK
10
14.49
20
37
40
0.3
50
405
51
585
0
ARC
8
BLACK
10
15.83
20
35.66
40
0.3
50
225
51
405
0
LINE
8
BLACK
10
25.5
20
9.59
11
25.5
21
10.99
0
LINE
8
BLACK
10
24.5
20
9.59
11
24.5
21
10.99
0
ARC
8
BLACK
10
25
20
10.99
40
0.5
50
360
51
540
0
ARC
8
BLACK
10
25
20
9.59
40
0.5
50
180
51
360
0
LINE
8
BLACK
10
25.3536
20
11.3436
11
10.7936
21
25.9036
0
LINE
8
BLACK
10
24.6464
20
10.6364
11
10.0864
21
25.1964
0
ARC
8
BLACK
10
10.44
20
25.55
40
0.5
50
405
51
585
0
ARC
8
BLACK
10
25
20
10.99
40
0.5
50
225
51
405
0
LINE
8
BLACK
10
32.5
20
45.165
11
35.325
21
45.165
0
LINE
8
BLACK
10
32.5
20
46.165
11
35.325
21
46.165
0
ARC
8
BLACK
10
35.325
20
45.665
40
0.5
50
270
51
450
0
ARC
8
BLACK
10
32.5
20
45.665
40
0.5
50
90
51
270
0
LINE
8
BLACK
10
36.6464
20
3.99355
11
34.4564
21
1.80355
0
LINE
8
BLACK
10
37.3536
20
3.28645
11
35.1636
21
1.09645
0
ARC
8
BLACK
10
34.81
20
1.45
40
0.5
50
135
51
315
0
ARC
8
BLACK
10
37
20
3.64
40
0.5
50
-45
51
135
0
LINE
8
BLACK
10
37.5
20
3.64
11
37.5
21
43.99
0
LINE
8
BLACK
10
36.5
20
3.64
11
36.5
21
43.99
0
ARC
8
BLACK
10
37
20
43.99
40
0.5
50
360
51
540
0
ARC
8
BLACK
10
37
20
3.64
40
0.5
50
180
51
360
0
LINE
8
BLACK
10
34.9714
20
45.3114
11
36.6464
21
43.6364
0
LINE
8
BLACK
10
35.6786
20
46.0186
11
37.3536
21
44.3436
0
ARC
8
BLACK
10
37
20
43.99
40
0.5
50
225
51
405
0
ARC
8
BLACK
10
35.325
20
45.665
40
0.5
50
45
51
225
0
LINE
8
BLACK
10
33
20
45.665
11
33
21
47.49
0
LINE
8
BLACK
10
32
20
45.665
11
32
21
47.49
0
ARC
8
BLACK
10
32.5
20
47.49
40
0.5
50
360
51
540
0
ARC
8
BLACK
10
32.5
20
45.665
40
0.5
50
180
51
360
0
LINE
8
BLACK
10
26
20
47.49
11
32
21
47.49
0
LINE
8
BLACK
10
26
20
48.49
11
32
21
48.49
0
ARC
8
BLACK
10
32
20
47.99
40
0.5
50
270
51
450
0
ARC
8
BLACK
10
26
20
47.99
40
0.5
50
90
51
270
0
LINE
8
BLACK
10
32.8536
20
47.8436
11
32.3536
21
48.3436
0
LINE
8
BLACK
10
32.1464
20
47.1364
11
31.6464
21
47.6364
0
ARC
8
BLACK
10
32
20
47.99
40
0.5
50
405
51
585
0
ARC
8
BLACK
10
32.5
20
47.49
40
0.5
50
225
51
405
0
LINE
8
BLACK
10
25.5
20
44.99
11
25.5
21
46.99
0
LINE
8
BLACK
10
24.5
20
44.99
11
24.5
21
46.99
0
ARC
8
BLACK
10
25
20
46.99
40
0.5
50
360
51
540
0
ARC
8
BLACK
10
25
20
44.99
40
0.5
50
180
51
360
0
LINE
8
BLACK
10
25.3536
20
46.6364
11
26.3536
21
47.6364
0
LINE
8
BLACK
10
24.6464
20
47.3436
11
25.6464
21
48.3436
0
ARC
8
BLACK
10
26
20
47.99
40
0.5
50
315
51
495
0
ARC
8
BLACK
10
25
20
46.99
40
0.5
50
135
51
315
0
LINE
8
BLACK
10
20.27
20
30.04
11
24.15
21
30.04
0
LINE
8
BLACK
10
20.27
20
31.04
11
24.15
21
31.04
0
ARC
8
BLACK
10
24.15
20
30.54
40
0.5
50
270
51
450
0
ARC
8
BLACK
10
20.27
20
30.54
40
0.5
50
90
51
270
0
LINE
8
BLACK
10
27.075
20
32.965
11
27.075
21
35.39
0
LINE
8
BLACK
10
26.075
20
32.965
11
26.075
21
35.39
0
ARC
8
BLACK
10
26.575
20
35.39
40
0.5
50
360
51
540
0
ARC
8
BLACK
10
26.575
20
32.965
40
0.5
50
180
51
360
0
LINE
8
BLACK
10
24.5036
20
30.1864
11
26.9286
21
32.6114
0
LINE
8
BLACK
10
23.7964
20
30.8936
11
26.2214
21
33.3186
0
ARC
8
BLACK
10
26.575
20
32.965
40
0.5
50
315
51
495
0
ARC
8
BLACK
10
24.15
20
30.54
40
0.5
50
135
51
315
0
LINE
8
BLACK
10
24.3525
20
40.87
11
25.92
21
40.87
0
LINE
8
BLACK
10
24.3525
20
41.87
11
25.92
21
41.87
0
ARC
8
BLACK
10
25.92
20
41.37
40
0.5
50
270
51
450
0
ARC
8
BLACK
10
24.3525
20
41.37
40
0.5
50
90
51
270
0
LINE
8
BLACK
10
25.5664
20
41.0164
11
26.2214
21
40.3614
0
LINE
8
BLACK
10
26.2736
20
41.7236
11
26.9286
21
41.0686
0
ARC
8
BLACK
10
26.575
20
40.715
40
0.5
50
225
51
405
0
ARC
8
BLACK
10
25.92
20
41.37
40
0.5
50
45
51
225
0
LINE
8
BLACK
10
27.075
20
35.39
11
27.075
21
40.715
0
LINE
8
BLACK
10
26.075
20
35.39
11
26.075
21
40.715
0
ARC
8
BLACK
10
26.575
20
40.715
40
0.5
50
360
51
540
0
ARC
8
BLACK
10
26.575
20
35.39
40
0.5
50
180
51
360
0
LINE
8
BLACK
10
18.23
20
30.54
11
18.23
21
35.86
0
LINE
8
BLACK
10
17.23
20
30.54
11
17.23
21
35.86
0
ARC
8
BLACK
10
17.73
20
35.86
40
0.5
50
360
51
540
0
ARC
8
BLACK
10
17.73
20
30.54
40
0.5
50
180
51
360
0
LINE
8
BLACK
10
10.333
20
39.09
11
14
21
39.09
0
LINE
8
BLACK
10
10.333
20
40.09
11
14
21
40.09
0
ARC
8
BLACK
10
14
20
39.59
40
0.5
50
270
51
450
0
ARC
8
BLACK
10
10.333
20
39.59
40
0.5
50
90
51
270
0
LINE
8
BLACK
10
18.0836
20
36.2136
11
14.3536
21
39.9436
0
LINE
8
BLACK
10
17.3764
20
35.5064
11
13.6464
21
39.2364
0
ARC
8
BLACK
10
14
20
39.59
40
0.5
50
405
51
585
0
ARC
8
BLACK
10
17.73
20
35.86
40
0.5
50
225
51
405
0
LINE
8
BLACK
10
24.8525
20
41.37
11
24.8525
21
42.4425
0
LINE
8
BLACK
10
23.8525
20
41.37
11
23.8525
21
42.4425
0
ARC
8
BLACK
10
24.3525
20
42.4425
40
0.5
50
360
51
540
0
ARC
8
BLACK
10
24.3525
20
41.37
40
0.5
50
180
51
360
0
LINE
8
BLACK
10
25.5
20
43.09
11
25.5
21
44.99
0
LINE
8
BLACK
10
24.5
20
43.09
11
24.5
21
44.99
0
ARC
8
BLACK
10
25
20
44.99
40
0.5
50
360
51
540
0
ARC
8
BLACK
10
25
20
43.09
40
0.5
50
180
51
360
0
LINE
8
BLACK
10
24.7061
20
42.0889
11
25.3536
21
42.7364
0
LINE
8
BLACK
10
23.9989
20
42.7961
11
24.6464
21
43.4436
0
ARC
8
BLACK
10
25
20
43.09
40
0.5
50
315
51
495
0
ARC
8
BLACK
10
24.3525
20
42.4425
40
0.5
50
135
51
315
0
LINE
8
BLACK
10
25.9647
20
9.97284
11
25.8647
21
9.87284
0
LINE
8
BLACK
10
26.5303
20
9.40716
11
26.4303
21
9.30716
0
ARC
8
BLACK
10
26.1475
20
9.59
40
0.4
50
135
51
315
0
ARC
8
BLACK
10
26.2475
20
9.69
40
0.4
50
-45
51
135
0
LINE
8
BLACK
10
25
20
9.19
11
26.1475
21
9.19
0
LINE
8
BLACK
10
25
20
9.99
11
26.1475
21
9.99
0
ARC
8
BLACK
10
26.1475
20
9.59
40
0.4
50
270
51
450
0
ARC
8
BLACK
10
25
20
9.59
40
0.4
50
90
51
270
0
LINE
8
BLACK
10
25.6236
20
4.34355
11
25.3536
21
4.61355
0
LINE
8
BLACK
10
24.9164
20
3.63645
11
24.6464
21
3.90645
0
ARC
8
BLACK
10
25
20
4.26
40
0.5
50
405
51
585
0
ARC
8
BLACK
10
25.27
20
3.99
40
0.5
50
225
51
405
0
LINE
8
BLACK
10
10.94
20
25.55
11
10.94
21
31.412
0
LINE
8
BLACK
10
9.94
20
25.55
11
9.94
21
31.412
0
ARC
8
BLACK
10
10.44
20
31.412
40
0.5
50
360
51
540
0
ARC
8
BLACK
10
10.44
20
25.55
40
0.5
50
180
51
360
0
LINE
8
BLACK
10
25.5
20
4.26
11
25.5
21
9.59
0
LINE
8
BLACK
10
24.5
20
4.26
11
24.5
21
9.59
0
ARC
8
BLACK
10
25
20
9.59
40
0.5
50
360
51
540
0
ARC
8
BLACK
10
25
20
4.26
40
0.5
50
180
51
360
0
LINE
8
BLACK
10
27.69
20
1.45
11
27.69
21
2.07
0
LINE
8
BLACK
10
26.69
20
1.45
11
26.69
21
2.07
0
ARC
8
BLACK
10
27.19
20
2.07
40
0.5
50
360
51
540
0
ARC
8
BLACK
10
27.19
20
1.45
40
0.5
50
180
51
360
0
LINE
8
BLACK
10
27.5436
20
2.42355
11
25.6236
21
4.34355
0
LINE
8
BLACK
10
26.8364
20
1.71645
11
24.9164
21
3.63645
0
ARC
8
BLACK
10
25.27
20
3.99
40
0.5
50
405
51
585
0
ARC
8
BLACK
10
27.19
20
2.07
40
0.5
50
225
51
405
0
LINE
8
BLACK
10
27.19
20
0.95
11
34.81
21
0.95
0
LINE
8
BLACK
10
27.19
20
1.95
11
34.81
21
1.95
0
ARC
8
BLACK
10
34.81
20
1.45
40
0.5
50
270
51
450
0
ARC
8
BLACK
10
27.19
20
1.45
40
0.5
50
90
51
270
0
LINE
8
BLACK
10
10.333
20
44.595
11
12.005
21
44.595
0
LINE
8
BLACK
10
10.333
20
45.195
11
12.005
21
45.195
0
ARC
8
BLACK
10
12.005
20
44.895
40
0.3
50
270
51
450
0
ARC
8
BLACK
10
10.333
20
44.895
40
0.3
50
90
51
270
0
LINE
8
BLACK
10
10.333
20
40.785
11
11.9
21
40.785
0
LINE
8
BLACK
10
10.333
20
41.385
11
11.9
21
41.385
0
ARC
8
BLACK
10
11.9
20
41.085
40
0.3
50
270
51
450
0
ARC
8
BLACK
10
10.333
20
41.085
40
0.3
50
90
51
270
0
LINE
8
BLACK
10
12.1879
20
41.7971
11
11.6879
21
41.2971
0
LINE
8
BLACK
10
12.6121
20
41.3729
11
12.1121
21
40.8729
0
ARC
8
BLACK
10
11.9
20
41.085
40
0.3
50
135
51
315
0
ARC
8
BLACK
10
12.4
20
41.585
40
0.3
50
-45
51
135
0
LINE
8
BLACK
10
12.7
20
41.585
11
12.7
21
44.5
0
LINE
8
BLACK
10
12.1
20
41.585
11
12.1
21
44.5
0
ARC
8
BLACK
10
12.4
20
44.5
40
0.3
50
360
51
540
0
ARC
8
BLACK
10
12.4
20
41.585
40
0.3
50
180
51
360
0
LINE
8
BLACK
10
11.7929
20
44.6829
11
12.1879
21
44.2879
0
LINE
8
BLACK
10
12.2171
20
45.1071
11
12.6121
21
44.7121
0
ARC
8
BLACK
10
12.4
20
44.5
40
0.3
50
225
51
405
0
ARC
8
BLACK
10
12.005
20
44.895
40
0.3
50
45
51
225
0
LINE
8
BLACK
10
10.833
20
39.59
11
10.833
21
41.085
0
LINE
8
BLACK
10
9.833
20
39.59
11
9.833
21
41.085
0
ARC
8
BLACK
10
10.333
20
41.085
40
0.5
50
360
51
540
0
ARC
8
BLACK
10
10.333
20
39.59
40
0.5
50
180
51
360
0
LINE
8
BLACK
10
10.833
20
37.107
11
10.833
21
39.59
0
LINE
8
BLACK
10
9.833
20
37.107
11
9.833
21
39.59
0
ARC
8
BLACK
10
10.333
20
39.59
40
0.5
50
360
51
540
0
ARC
8
BLACK
10
10.333
20
37.107
40
0.5
50
180
51
360
0
LINE
8
BLACK
10
9.97945
20
36.7534
11
10.0864
21
36.6464
0
LINE
8
BLACK
10
10.6866
20
37.4606
11
10.7936
21
37.3536
0
ARC
8
BLACK
10
10.44
20
37
40
0.5
50
225
51
405
0
ARC
8
BLACK
10
10.333
20
37.107
40
0.5
50
45
51
225
0
LINE
8
BLACK
10
7.0475
20
44.595
11
10.333
21
44.595
0
LINE
8
BLACK
10
7.0475
20
45.195
11
10.333
21
45.195
0
ARC
8
BLACK
10
10.333
20
44.895
40
0.3
50
270
51
450
0
ARC
8
BLACK
10
7.0475
20
44.895
40
0.3
50
90
51
270
0
LINE
8
BLACK
10
7.25963
20
45.1071
11
7.21213
21
45.1546
0
LINE
8
BLACK
10
6.83537
20
44.6829
11
6.78787
21
44.7304
0
ARC
8
BLACK
10
7
20
44.9425
40
0.3
50
405
51
585
0
ARC
8
BLACK
10
7.0475
20
44.895
40
0.3
50
225
51
405
0
LINE
8
BLACK
10
17.73
20
30.04
11
20.27
21
30.04
0
LINE
8
BLACK
10
17.73
20
31.04
11
20.27
21
31.04
0
ARC
8
BLACK
10
20.27
20
30.54
40
0.5
50
270
51
450
0
ARC
8
BLACK
10
17.73
20
30.54
40
0.5
50
90
51
270
0
LINE
8
BLACK
10
20.4
20
4.26
11
20.4
21
8.5375
0
LINE
8
BLACK
10
19.6
20
4.26
11
19.6
21
8.5375
0
ARC
8
BLACK
10
20
20
8.5375
40
0.4
50
360
51
540
0
ARC
8
BLACK
10
20
20
4.26
40
0.4
50
180
51
360
0
LINE
8
BLACK
10
19.7172
20
3.97716
11
19.9872
21
3.70716
0
LINE
8
BLACK
10
20.2828
20
4.54284
11
20.5528
21
4.27284
0
ARC
8
BLACK
10
20.27
20
3.99
40
0.4
50
225
51
405
0
ARC
8
BLACK
10
20
20
4.26
40
0.4
50
45
51
225
0
LINE
8
BLACK
10
13.38
20
25.35
11
13.38
21
31.412
0
LINE
8
BLACK
10
12.58
20
25.35
11
12.58
21
31.412
0
ARC
8
BLACK
10
12.98
20
31.412
40
0.4
50
360
51
540
0
ARC
8
BLACK
10
12.98
20
25.35
40
0.4
50
180
51
360
0
LINE
8
BLACK
10
17.34
20
20.59
11
20.5475
21
20.59
0
LINE
8
BLACK
10
17.34
20
21.39
11
20.5475
21
21.39
0
ARC
8
BLACK
10
20.5475
20
20.99
40
0.4
50
270
51
450
0
ARC
8
BLACK
10
17.34
20
20.99
40
0.4
50
90
51
270
0
LINE
8
BLACK
10
12.6972
20
25.0672
11
17.0572
21
20.7072
0
LINE
8
BLACK
10
13.2628
20
25.6328
11
17.6228
21
21.2728
0
ARC
8
BLACK
10
17.34
20
20.99
40
0.4
50
225
51
405
0
ARC
8
BLACK
10
12.98
20
25.35
40
0.4
50
45
51
225
0
LINE
8
BLACK
10
22.9475
20
40.3375
11
22.9475
21
41.37
0
LINE
8
BLACK
10
21.9475
20
40.3375
11
21.9475
21
41.37
0
ARC
8
BLACK
10
22.4475
20
41.37
40
0.5
50
360
51
540
0
ARC
8
BLACK
10
22.4475
20
40.3375
40
0.5
50
180
51
360
0
LINE
8
BLACK
10
20.725
20
35.39
11
20.725
21
38.115
0
LINE
8
BLACK
10
19.725
20
35.39
11
19.725
21
38.115
0
ARC
8
BLACK
10
20.225
20
38.115
40
0.5
50
360
51
540
0
ARC
8
BLACK
10
20.225
20
35.39
40
0.5
50
180
51
360
0
LINE
8
BLACK
10
22.0939
20
40.6911
11
19.8714
21
38.4686
0
LINE
8
BLACK
10
22.8011
20
39.9839
11
20.5786
21
37.7614
0
ARC
8
BLACK
10
20.225
20
38.115
40
0.5
50
135
51
315
0
ARC
8
BLACK
10
22.4475
20
40.3375
40
0.5
50
-45
51
135
0
LINE
8
BLACK
10
22.96
20
41.3825
11
22.96
21
44.99
0
LINE
8
BLACK
10
21.96
20
41.3825
11
21.96
21
44.99
0
ARC
8
BLACK
10
22.46
20
44.99
40
0.5
50
360
51
540
0
ARC
8
BLACK
10
22.46
20
41.3825
40
0.5
50
180
51
360
0
LINE
8
BLACK
10
22.1064
20
41.7361
11
22.0939
21
41.7236
0
LINE
8
BLACK
10
22.8136
20
41.0289
11
22.8011
21
41.0164
0
ARC
8
BLACK
10
22.4475
20
41.37
40
0.5
50
135
51
315
0
ARC
8
BLACK
10
22.46
20
41.3825
40
0.5
50
-45
51
135
0
LINE
8
BLACK
10
15.667
20
43.125
11
18.825
21
43.125
0
LINE
8
BLACK
10
15.667
20
44.125
11
18.825
21
44.125
0
ARC
8
BLACK
10
18.825
20
43.625
40
0.5
50
270
51
450
0
ARC
8
BLACK
10
15.667
20
43.625
40
0.5
50
90
51
270
0
LINE
8
BLACK
10
16.167
20
43.625
11
16.167
21
44.895
0
LINE
8
BLACK
10
15.167
20
43.625
11
15.167
21
44.895
0
ARC
8
BLACK
10
15.667
20
44.895
40
0.5
50
360
51
540
0
ARC
8
BLACK
10
15.667
20
43.625
40
0.5
50
180
51
360
0
LINE
8
BLACK
10
16.167
20
42.355
11
16.167
21
43.625
0
LINE
8
BLACK
10
15.167
20
42.355
11
15.167
21
43.625
0
ARC
8
BLACK
10
15.667
20
43.625
40
0.5
50
360
51
540
0
ARC
8
BLACK
10
15.667
20
42.355
40
0.5
50
180
51
360
0
LINE
8
BLACK
10
20.19
20
44.49
11
22.46
21
44.49
0
LINE
8
BLACK
10
20.19
20
45.49
11
22.46
21
45.49
0
ARC
8
BLACK
10
22.46
20
44.99
40
0.5
50
270
51
450
0
ARC
8
BLACK
10
20.19
20
44.99
40
0.5
50
90
51
270
0
LINE
8
BLACK
10
19.1786
20
43.2714
11
20.5436
21
44.6364
0
LINE
8
BLACK
10
18.4714
20
43.9786
11
19.8364
21
45.3436
0
ARC
8
BLACK
10
20.19
20
44.99
40
0.5
50
315
51
495
0
ARC
8
BLACK
10
18.825
20
43.625
40
0.5
50
135
51
315
0
LINE
8
BLACK
10
33
20
35.49
11
33
21
39.315
0
LINE
8
BLACK
10
32
20
35.49
11
32
21
39.315
0
ARC
8
BLACK
10
32.5
20
39.315
40
0.5
50
360
51
540
0
ARC
8
BLACK
10
32.5
20
35.49
40
0.5
50
180
51
360
0
LINE
8
BLACK
10
29
20
29.641
11
29
21
31.49
0
LINE
8
BLACK
10
28
20
29.641
11
28
21
31.49
0
ARC
8
BLACK
10
28.5
20
31.49
40
0.5
50
360
51
540
0
ARC
8
BLACK
10
28.5
20
29.641
40
0.5
50
180
51
360
0
LINE
8
BLACK
10
32.1464
20
35.8436
11
28.1464
21
31.8436
0
LINE
8
BLACK
10
32.8536
20
35.1364
11
28.8536
21
31.1364
0
ARC
8
BLACK
10
28.5
20
31.49
40
0.5
50
135
51
315
0
ARC
8
BLACK
10
32.5
20
35.49
40
0.5
50
-45
51
135
0
LINE
8
BLACK
10
33
20
39.315
11
33
21
41.49
0
LINE
8
BLACK
10
32
20
39.315
11
32
21
41.49
0
ARC
8
BLACK
10
32.5
20
41.49
40
0.5
50
360
51
540
0
ARC
8
BLACK
10
32.5
20
39.315
40
0.5
50
180
51
360
0
LINE
8
BLACK
10
28.04
20
43.95
11
28.04
21
44.99
0
LINE
8
BLACK
10
27.04
20
43.95
11
27.04
21
44.99
0
ARC
8
BLACK
10
27.54
20
44.99
40
0.5
50
360
51
540
0
ARC
8
BLACK
10
27.54
20
43.95
40
0.5
50
180
51
360
0
LINE
8
BLACK
10
29.3536
20
42.8436
11
27.8936
21
44.3036
0
LINE
8
BLACK
10
28.6464
20
42.1364
11
27.1864
21
43.5964
0
ARC
8
BLACK
10
27.54
20
43.95
40
0.5
50
405
51
585
0
ARC
8
BLACK
10
29
20
42.49
40
0.5
50
225
51
405
0
LINE
8
BLACK
10
29
20
41.99
11
31.5
21
41.99
0
LINE
8
BLACK
10
29
20
42.99
11
31.5
21
42.99
0
ARC
8
BLACK
10
31.5
20
42.49
40
0.5
50
270
51
450
0
ARC
8
BLACK
10
29
20
42.49
40
0.5
50
90
51
270
0
LINE
8
BLACK
10
32.8536
20
41.8436
11
31.8536
21
42.8436
0
LINE
8
BLACK
10
32.1464
20
41.1364
11
31.1464
21
42.1364
0
ARC
8
BLACK
10
31.5
20
42.49
40
0.5
50
405
51
585
0
ARC
8
BLACK
10
32.5
20
41.49
40
0.5
50
225
51
405
0
LINE
8
BLACK
10
18.13
20
3.99
11
18.13
21
11.26
0
LINE
8
BLACK
10
17.33
20
3.99
11
17.33
21
11.26
0
ARC
8
BLACK
10
17.73
20
11.26
40
0.4
50
360
51
540
0
ARC
8
BLACK
10
17.73
20
3.99
40
0.4
50
180
51
360
0
LINE
8
BLACK
10
18.0128
20
11.5428
11
1.24284
21
28.3128
0
LINE
8
BLACK
10
17.4472
20
10.9772
11
0.677158
21
27.7472
0
ARC
8
BLACK
10
0.960001
20
28.03
40
0.4
50
405
51
585
0
ARC
8
BLACK
10
17.73
20
11.26
40
0.4
50
225
51
405
0
LINE
8
BLACK
10
14.8478
20
41.3678
11
13.9678
21
42.2478
0
LINE
8
BLACK
10
14.2822
20
40.8022
11
13.4022
21
41.6822
0
ARC
8
BLACK
10
13.685
20
41.965
40
0.4
50
405
51
585
0
ARC
8
BLACK
10
14.565
20
41.085
40
0.4
50
225
51
405
0
LINE
8
BLACK
10
14.565
20
40.685
11
15.667
21
40.685
0
LINE
8
BLACK
10
14.565
20
41.485
11
15.667
21
41.485
0
ARC
8
BLACK
10
15.667
20
41.085
40
0.4
50
270
51
450
0
ARC
8
BLACK
10
14.565
20
41.085
40
0.4
50
90
51
270
0
LINE
8
BLACK
10
1.36
20
28.03
11
1.36
21
42.89
0
LINE
8
BLACK
10
0.56
20
28.03
11
0.56
21
42.89
0
ARC
8
BLACK
10
0.96
20
42.89
40
0.4
50
360
51
540
0
ARC
8
BLACK
10
0.96
20
28.03
40
0.4
50
180
51
360
0
LINE
8
BLACK
10
4.28716
20
46.7828
11
0.677158
21
43.1728
0
LINE
8
BLACK
10
4.85284
20
46.2172
11
1.24284
21
42.6072
0
ARC
8
BLACK
10
0.96
20
42.89
40
0.4
50
135
51
315
0
ARC
8
BLACK
10
4.57
20
46.5
40
0.4
50
-45
51
135
0
LINE
8
BLACK
10
4.57
20
46.1
11
12.49
21
46.1
0
LINE
8
BLACK
10
4.57
20
46.9
11
12.49
21
46.9
0
ARC
8
BLACK
10
12.49
20
46.5
40
0.4
50
270
51
450
0
ARC
8
BLACK
10
4.57
20
46.5
40
0.4
50
90
51
270
0
LINE
8
BLACK
10
13.9678
20
45.5878
11
12.7728
21
46.7828
0
LINE
8
BLACK
10
13.4022
20
45.0222
11
12.2072
21
46.2172
0
ARC
8
BLACK
10
12.49
20
46.5
40
0.4
50
405
51
585
0
ARC
8
BLACK
10
13.685
20
45.305
40
0.4
50
225
51
405
0
LINE
8
BLACK
10
14.085
20
41.965
11
14.085
21
45.305
0
LINE
8
BLACK
10
13.285
20
41.965
11
13.285
21
45.305
0
ARC
8
BLACK
10
13.685
20
45.305
40
0.4
50
360
51
540
0
ARC
8
BLACK
10
13.685
20
41.965
40
0.4
50
180
51
360
0
LINE
8
BLACK
10
22.9
20
4.22
11
22.9
21
8.5375
0
LINE
8
BLACK
10
22.1
20
4.22
11
22.1
21
8.5375
0
ARC
8
BLACK
10
22.5
20
8.5375
40
0.4
50
360
51
540
0
ARC
8
BLACK
10
22.5
20
4.22
40
0.4
50
180
51
360
0
LINE
8
BLACK
10
22.2172
20
3.93716
11
22.4472
21
3.70716
0
LINE
8
BLACK
10
22.7828
20
4.50284
11
23.0128
21
4.27284
0
ARC
8
BLACK
10
22.73
20
3.99
40
0.4
50
225
51
405
0
ARC
8
BLACK
10
22.5
20
4.22
40
0.4
50
45
51
225
0
CIRCLE
8
WHITE
10
22.73
20
3.99
40
0.5
0
CIRCLE
8
WHITE
10
25.27
20
3.99
40
0.5
0
CIRCLE
8
WHITE
10
27.19
20
1.45
40
0.5
0
CIRCLE
8
WHITE
10
27.19
20
6.53
40
0.5
0
CIRCLE
8
WHITE
10
34.81
20
1.45
40
0.5
0
CIRCLE
8
WHITE
10
34.81
20
6.53
40
0.5
0
CIRCLE
8
WHITE
10
22.46
20
44.99
40
0.5
0
CIRCLE
8
WHITE
10
25
20
44.99
40
0.5
0
CIRCLE
8
WHITE
10
27.54
20
44.99
40
0.5
0
CIRCLE
8
WHITE
10
20.27
20
30.54
40
0.5
0
CIRCLE
8
WHITE
10
17.73
20
30.54
40
0.5
0
CIRCLE
8
WHITE
10
20.27
20
28
40
0.5
0
CIRCLE
8
WHITE
10
17.73
20
28
40
0.5
0
CIRCLE
8
WHITE
10
20.27
20
25.46
40
0.5
0
CIRCLE
8
WHITE
10
17.73
20
25.46
40
0.5
0
CIRCLE
8
WHITE
10
20.27
20
3.99
40
0.5
0
CIRCLE
8
WHITE
10
17.73
20
3.99
40
0.5
0
CIRCLE
8
WHITE
10
12.98
20
31.412
40
0.5
0
CIRCLE
8
WHITE
10
10.44
20
31.412
40
0.5
0
CIRCLE
8
WHITE
10
7.9
20
31.412
40
0.5
0
CIRCLE
8
WHITE
10
5.36
20
31.412
40
0.5
0
CIRCLE
8
WHITE
10
2.82
20
31.412
40
0.5
0
CIRCLE
8
WHITE
10
2.82
20
37
40
0.5
0
CIRCLE
8
WHITE
10
5.36
20
37
40
0.5
0
CIRCLE
8
WHITE
10
7.9
20
37
40
0.5
0
CIRCLE
8
WHITE
10
10.44
20
37
40
0.5
0
CIRCLE
8
WHITE
10
12.98
20
37
40
0.5
  0
ENDSEC
  0
EOF
