<?xml version="1.0" standalone="no"?>
 <!DOCTYPE svg PUBLIC "-//W3C//DTD SVG 1.1//EN" 
 "http://www.w3.org/Graphics/SVG/1.1/DTD/svg11.dtd"> 
<svg xmlns="http://www.w3.org/2000/svg" version="1.1" 
    width="41.9989cm" height="29.7002cm" viewBox="0 0 165350 116930 ">
<title>SVG Picture created as Zhonx_III-B_Mask.svg date 2014/06/15 19:51:56 </title>
  <desc>Picture generated by PCBNEW </desc>
<g style="fill:#000000; fill-opacity:1;stroke:#000000; stroke-opacity:1;
stroke-linecap:round; stroke-linejoin:round; "
 transform="translate(0 0) scale(1 1)">
</g>
<g style="fill:#000000; fill-opacity:0.0; 
stroke:#000000; stroke-width:3.93701; stroke-opacity:1; 
stroke-linecap:round; stroke-linejoin:round;">
<path d="M46688 61626
L47121 61672
" />
<path d="M47121 61672
L47489 61783
" />
<path d="M47489 61783
L47790 61919
" />
<path d="M47790 61919
L48032 62048
" />
<path d="M48032 62048
L48224 62151
" />
<path d="M48224 62151
L48347 62205
" />
<path d="M48347 62205
L48391 62217
" />
<path d="M33961 62217
L33983 62212
" />
<path d="M33983 62212
L34048 62188
" />
<path d="M34048 62188
L34151 62140
" />
<path d="M34151 62140
L34315 62051
" />
<path d="M34315 62051
L34524 61938
" />
<path d="M34524 61938
L34748 61830
" />
<path d="M34748 61830
L35012 61730
" />
<path d="M35012 61730
L35320 61655
" />
<path d="M35320 61655
L35664 61626
" />
<path d="M32121 57099
L32082 57437
" />
<path d="M32082 57437
L31975 57702
" />
<path d="M31975 57702
L31813 57910
" />
<path d="M31813 57910
L31611 58076
" />
<path d="M31611 58076
L31380 58217
" />
<path d="M31380 58217
L31137 58348
" />
<path d="M31137 58348
L30893 58487
" />
<path d="M30893 58487
L30663 58649
" />
<path d="M30663 58649
L30460 58851
" />
<path d="M30460 58851
L30334 59038
" />
<path d="M30334 59038
L30237 59263
" />
<path d="M30237 59263
L30174 59533
" />
<path d="M30174 59533
L30152 59855
" />
<path d="M30017 39795
L30523 39821
" />
<path d="M30523 39821
L30941 39894
" />
<path d="M30941 39894
L31279 40006
" />
<path d="M31279 40006
L31546 40149
" />
<path d="M31546 40149
L31750 40317
" />
<path d="M31750 40317
L31899 40500
" />
<path d="M31899 40500
L32044 40802
" />
<path d="M32044 40802
L32107 41096
" />
<path d="M32107 41096
L32121 41351
" />
<path d="M41176 24028
L39991 24059
" />
<path d="M39991 24059
L38873 24152
" />
<path d="M38873 24152
L37821 24302
" />
<path d="M37821 24302
L36832 24506
" />
<path d="M36832 24506
L35906 24761
" />
<path d="M35906 24761
L35054 25057
" />
<path d="M35054 25057
L34259 25396
" />
<path d="M34259 25396
L33518 25774
" />
<path d="M33518 25774
L32829 26189
" />
<path d="M32829 26189
L31934 26837
" />
<path d="M31934 26837
L31137 27544
" />
<path d="M31137 27544
L30434 28299
" />
<path d="M30434 28299
L29819 29094
" />
<path d="M29819 29094
L29287 29918
" />
<path d="M29287 29918
L28785 30863
" />
<path d="M28785 30863
L28374 31821
" />
<path d="M28374 31821
L28045 32778
" />
<path d="M28045 32778
L27793 33723
" />
<path d="M27793 33723
L27609 34642
" />
<path d="M27609 34642
L27486 35523
" />
<path d="M27486 35523
L27418 36351
" />
<path d="M27418 36351
L27396 37116
" />
<path d="M54956 37116
L54928 36239
" />
<path d="M54928 36239
L54837 35280
" />
<path d="M54837 35280
L54674 34259
" />
<path d="M54674 34259
L54426 33195
" />
<path d="M54426 33195
L54084 32107
" />
<path d="M54084 32107
L53742 31247
" />
<path d="M53742 31247
L53331 30394
" />
<path d="M53331 30394
L52844 29556
" />
<path d="M52844 29556
L52276 28744
" />
<path d="M52276 28744
L51623 27965
" />
<path d="M51623 27965
L51010 27349
" />
<path d="M51010 27349
L50332 26769
" />
<path d="M50332 26769
L49584 26229
" />
<path d="M49584 26229
L48764 25736
" />
<path d="M48764 25736
L47870 25294
" />
<path d="M47870 25294
L46897 24910
" />
<path d="M46897 24910
L45907 24604
" />
<path d="M45907 24604
L44842 24359
" />
<path d="M44842 24359
L43700 24178
" />
<path d="M43700 24178
L42479 24066
" />
<path d="M42479 24066
L41176 24028
" />
<path d="M50231 41351
L50238 41161
" />
<path d="M50238 41161
L50270 40944
" />
<path d="M50270 40944
L50340 40714
" />
<path d="M50340 40714
L50464 40484
" />
<path d="M50464 40484
L50655 40267
" />
<path d="M50655 40267
L50861 40114
" />
<path d="M50861 40114
L51126 39984
" />
<path d="M51126 39984
L51455 39883
" />
<path d="M51455 39883
L51855 39818
" />
<path d="M51855 39818
L52335 39795
" />
<path d="M52200 59855
L52177 59533
" />
<path d="M52177 59533
L52115 59263
" />
<path d="M52115 59263
L52018 59038
" />
<path d="M52018 59038
L51892 58851
" />
<path d="M51892 58851
L51689 58649
" />
<path d="M51689 58649
L51459 58487
" />
<path d="M51459 58487
L51215 58348
" />
<path d="M51215 58348
L50972 58217
" />
<path d="M50972 58217
L50741 58076
" />
<path d="M50741 58076
L50539 57910
" />
<path d="M50539 57910
L50377 57702
" />
<path d="M50377 57702
L50270 57437
" />
<path d="M50270 57437
L50231 57099
" />
<path d="M37751 27375
L36845 27493
" />
<path d="M36845 27493
L36031 27644
" />
<path d="M36031 27644
L35305 27829
" />
<path d="M35305 27829
L34661 28053
" />
<path d="M34661 28053
L34095 28317
" />
<path d="M34095 28317
L33611 28618
" />
<path d="M33611 28618
L33194 28962
" />
<path d="M33194 28962
L32838 29353
" />
<path d="M32838 29353
L32541 29792
" />
<path d="M32541 29792
L32256 30382
" />
<path d="M32256 30382
L32039 31048
" />
<path d="M32039 31048
L31884 31794
" />
<path d="M31884 31794
L31782 32625
" />
<path d="M31782 32625
L31726 33545
" />
<path d="M31726 33545
L31709 34557
" />
<path d="M50643 34557
L50628 33589
" />
<path d="M50628 33589
L50577 32705
" />
<path d="M50577 32705
L50485 31903
" />
<path d="M50485 31903
L50345 31177
" />
<path d="M50345 31177
L50151 30526
" />
<path d="M50151 30526
L49896 29946
" />
<path d="M49896 29946
L49574 29432
" />
<path d="M49574 29432
L49178 28981
" />
<path d="M49178 28981
L48755 28628
" />
<path d="M48755 28628
L48262 28320
" />
<path d="M48262 28320
L47696 28055
" />
<path d="M47696 28055
L47052 27831
" />
<path d="M47052 27831
L46324 27644
" />
<path d="M46324 27644
L45508 27493
" />
<path d="M45508 27493
L44601 27375
" />
<path d="M44601 27375
L44341 27337
" />
<path d="M44341 27337
L44154 27320
" />
<path d="M44154 27320
L44016 27321
" />
<path d="M44016 27321
L43849 27349
" />
<path d="M43849 27349
L43663 27398
" />
<path d="M43663 27398
L43539 27427
" />
<path d="M43539 27427
L43381 27456
" />
<path d="M43381 27456
L43179 27485
" />
<path d="M43179 27485
L42924 27512
" />
<path d="M42924 27512
L42605 27536
" />
<path d="M42605 27536
L42215 27555
" />
<path d="M42215 27555
L41741 27567
" />
<path d="M41741 27567
L41176 27571
" />
<path d="M41176 27571
L40611 27567
" />
<path d="M40611 27567
L40137 27555
" />
<path d="M40137 27555
L39746 27536
" />
<path d="M39746 27536
L39428 27512
" />
<path d="M39428 27512
L39173 27485
" />
<path d="M39173 27485
L38971 27456
" />
<path d="M38971 27456
L38813 27427
" />
<path d="M38813 27427
L38689 27398
" />
<path d="M38689 27398
L38503 27349
" />
<path d="M38503 27349
L38336 27321
" />
<path d="M38336 27321
L38198 27320
" />
<path d="M38198 27320
L38010 27337
" />
<path d="M38010 27337
L37751 27375
" />
<path d="M32711 43713
L32711 45288
" />
<path d="M33302 45288
L33302 43713
" />
<path d="M33302 47443
L33302 51007
" />
<path d="M33302 51007
L34189 51005
" />
<path d="M34386 51202
L34386 51281
" />
<path d="M34584 51477
L38127 51472
" />
<path d="M38317 51290
L38317 51211
" />
<path d="M38515 51014
L39402 51016
" />
<path d="M40190 50229
L40193 48240
" />
<path d="M39407 47452
L38520 47451
" />
<path d="M38323 47253
L38323 47175
" />
<path d="M38127 46978
L34584 46972
" />
<path d="M34386 47169
L34386 47248
" />
<path d="M34189 47444
L33302 47443
" />
<path d="M49053 47443
L48165 47443
" />
<path d="M47969 47246
L47969 47167
" />
<path d="M47772 46970
L44228 46970
" />
<path d="M44032 47167
L44032 47246
" />
<path d="M43835 47443
L42948 47443
" />
<path d="M42160 48230
L42160 50219
" />
<path d="M42948 51007
L43835 51007
" />
<path d="M44032 51203
L44032 51282
" />
<path d="M44228 51479
L47772 51479
" />
<path d="M47966 51281
L47966 51202
" />
<path d="M48163 51005
L49050 51007
" />
<path d="M49050 51007
L49050 49225
" />
<path d="M49050 49225
L49053 47443
" />
<path d="M52200 60642
L52200 59855
" />
<path d="M48391 62217
L50625 62217
" />
<path d="M35664 61626
L46688 61626
" />
<path d="M31727 62217
L33961 62217
" />
<path d="M30152 59855
L30152 60642
" />
<path d="M32121 41351
L32121 57099
" />
<path d="M27856 38302
L28887 39334
" />
<path d="M53465 39334
L54496 38302
" />
<path d="M50231 57099
L50231 41351
" />
<path d="M49050 43713
L49050 45288
" />
<path d="M49641 45288
L49641 43713
" />
<path d="M49641 54737
L49641 53162
" />
<path d="M49050 53162
L49050 54737
" />
<path d="M32711 53162
L32711 54737
" />
<path d="M33302 54737
L33302 53162
" />
<path d="M31709 34557
L31709 34866
" />
<path d="M32052 35976
L32950 37292
" />
<path d="M33926 37807
L37799 37807
" />
<path d="M38238 37723
L39784 37104
" />
<path d="M40222 37020
L42130 37020
" />
<path d="M42568 37104
L44114 37723
" />
<path d="M44553 37807
L48426 37807
" />
<path d="M49402 37292
L50300 35976
" />
<path d="M50643 34866
L50643 34557
" />
<path d="M32711.9 45288 A295.276 295.276 0.0 0 0 33302.5 45288.5 " />
<path d="M33302.5 43713.6 A295.276 295.276 0.0 0 0 32711.9 43713.1 " />
<path d="M34386.8 51202.3 A196.85 196.85 0.0 0 0 34189.9 51005.8 " />
<path d="M34386.9 51281.1 A196.879 196.879 0.0 0 0 34583.8 51477.6 " />
<path d="M38127.3 51472.4 A196.881 196.881 0.0 0 0 38317.8 51290.3 " />
<path d="M38515.1 51014.8 A196.85 196.85 0.0 0 0 38317.9 51211.3 " />
<path d="M39402 51016.1 A787.401 787.401 0.0 0 0 40190.7 50230.1 " />
<path d="M40193.7 48241.2 A787.402 787.402 0.0 0 0 39409 47452.4 " />
<path d="M38323.8 47253.9 A196.879 196.879 0.0 0 0 38519.9 47451.1 " />
<path d="M38323.9 47175.2 A196.85 196.85 0.0 0 0 38127.4 46978 " />
<path d="M34584.1 46972.8 A196.879 196.879 0.0 0 0 34386.9 47169 " />
<path d="M34189.6 47444.6 A196.85 196.85 0.0 0 0 34386.8 47248.1 " />
<path d="M47969.1 47246.5 A196.879 196.879 0.0 0 0 48165.7 47443.3 " />
<path d="M47969.1 47167.7 A196.85 196.85 0.0 0 0 47772.6 46970.9 " />
<path d="M44229 46970.9 A196.879 196.879 0.0 0 0 44032.1 47167.4 " />
<path d="M43835.2 47443.3 A196.879 196.879 0.0 0 0 44032.1 47246.8 " />
<path d="M42948.1 47443.3 A787.402 787.402 0.0 0 0 42160.7 48229.4 " />
<path d="M42160.7 50219.7 A787.402 787.402 0.0 0 0 42946.8 51007.1 " />
<path d="M44032.1 51203.9 A196.85 196.85 0.0 0 0 43835.6 51007.1 " />
<path d="M44032.1 51282.6 A196.879 196.879 0.0 0 0 44228.7 51479.5 " />
<path d="M47772.3 51479.5 A196.88 196.88 0.0 0 0 47966.1 51281.3 " />
<path d="M48163.4 51005.8 A196.85 196.85 0.0 0 0 47966.2 51202.3 " />
<path d="M50625.3 62217.3 A1574.8 1574.8 0.0 0 0 52200.1 60645.3 " />
<path d="M30152.9 60642.5 A1574.8 1574.8 0.0 0 0 31724.9 62217.3 " />
<path d="M28887.9 39334.3 A1574.83 1574.83 0.0 0 0 30015.2 39795.5 " />
<path d="M27397 37115.2 A1574.81 1574.81 0.0 0 0 27854.6 38301 " />
<path d="M54496.5 38302.9 A1574.81 1574.81 0.0 0 0 54956.1 37117.9 " />
<path d="M52335 39795.5 A1574.83 1574.83 0.0 0 0 53463.1 39336.3 " />
<path d="M49050.5 45288.2 A295.276 295.276 0.0 0 0 49641 45288.7 " />
<path d="M49641 43713.4 A295.276 295.276 0.0 0 0 49050.5 43712.9 " />
<path d="M49641 53162.2 A295.276 295.276 0.0 0 0 49050.5 53161.7 " />
<path d="M49050.5 54737 A295.276 295.276 0.0 0 0 49641 54737.5 " />
<path d="M32711.9 54736.8 A295.276 295.276 0.0 0 0 33302.5 54737.3 " />
<path d="M33302.5 53162.4 A295.276 295.276 0.0 0 0 32711.9 53161.9 " />
<path d="M31709.5 34866.7 A1968.54 1968.54 0.0 0 0 32051.8 35976 " />
<path d="M32950.5 37292.4 A1181.12 1181.12 0.0 0 0 33924.2 37807.9 " />
<path d="M37799.4 37807.9 A1181.14 1181.14 0.0 0 0 38236.1 37724.2 " />
<path d="M40222.8 37020.5 A1181.14 1181.14 0.0 0 0 39786.1 37104.2 " />
<path d="M42568.7 37105 A1181.14 1181.14 0.0 0 0 42132.2 37020.5 " />
<path d="M44114.9 37723.4 A1181.14 1181.14 0.0 0 0 44551.5 37807.9 " />
<path d="M48426.7 37807.9 A1181.12 1181.12 0.0 0 0 49401.3 37294.1 " />
<path d="M50301.2 35976 A1968.54 1968.54 0.0 0 0 50643.5 34866.7 " />
</g>
<g style="fill:#000000; fill-opacity:0.0; 
stroke:#000000; stroke-width:118.11; stroke-opacity:1; 
stroke-linecap:round; stroke-linejoin:round;">
<path d="M34527 41397
L34527 41633
" />
<path d="M34724 41397
L34724 41633
" />
<path d="M34921 41397
L34921 41633
" />
<path d="M35118 41397
L35118 41633
" />
<path d="M35551 41830
L35314 41830
" />
<path d="M35551 42027
L35314 42027
" />
<path d="M35551 42224
L35314 42224
" />
<path d="M35551 42421
L35314 42421
" />
<path d="M35118 42854
L35118 42618
" />
<path d="M34921 42854
L34921 42618
" />
<path d="M34724 42854
L34724 42618
" />
<path d="M34527 42854
L34527 42618
" />
<path d="M34094 42421
L34330 42421
" />
<path d="M34094 42224
L34330 42224
" />
<path d="M34094 42027
L34330 42027
" />
<path d="M34094 41830
L34330 41830
" />
</g>
<g style="fill:#000000; fill-opacity:0.0; 
stroke:#000000; stroke-width:59.0551; stroke-opacity:1; 
stroke-linecap:round; stroke-linejoin:round;">
</g>
<g style="fill:#000000; fill-opacity:1.0; 
stroke:#000000; stroke-width:59.0551; stroke-opacity:1; 
stroke-linecap:round; stroke-linejoin:round;">
<polyline style="fill-rule:evenodd;"
points="34519,42429
34519,42153
34795,42153
34795,42429
34519,42429
" /> 
<polyline style="fill-rule:evenodd;"
points="34850,42098
34850,41822
35125,41822
35125,42098
34850,42098
" /> 
<polyline style="fill-rule:evenodd;"
points="34519,42098
34519,41822
34795,41822
34795,42098
34519,42098
" /> 
<polyline style="fill-rule:evenodd;"
points="34850,42429
34850,42153
35125,42153
35125,42429
34850,42429
" /> 
</g>
<g style="fill:#000000; fill-opacity:1.0; 
stroke:#000000; stroke-width:118.11; stroke-opacity:1; 
stroke-linecap:round; stroke-linejoin:round;">
<path d="M48236 41830
L48000 41830
" />
<path d="M48236 42027
L48000 42027
" />
<path d="M48236 42224
L48000 42224
" />
<path d="M48236 42421
L48000 42421
" />
<path d="M47803 42854
L47803 42618
" />
<path d="M47606 42854
L47606 42618
" />
<path d="M47409 42854
L47409 42618
" />
<path d="M47212 42854
L47212 42618
" />
<path d="M46779 42421
L47015 42421
" />
<path d="M46779 42224
L47015 42224
" />
<path d="M46779 42027
L47015 42027
" />
<path d="M46779 41830
L47015 41830
" />
<path d="M47212 41397
L47212 41633
" />
<path d="M47409 41397
L47409 41633
" />
<path d="M47606 41397
L47606 41633
" />
<path d="M47803 41397
L47803 41633
" />
</g>
<g style="fill:#000000; fill-opacity:1.0; 
stroke:#000000; stroke-width:59.0551; stroke-opacity:1; 
stroke-linecap:round; stroke-linejoin:round;">
<polyline style="fill-rule:evenodd;"
points="47204,41822
47480,41822
47480,42098
47204,42098
47204,41822
" /> 
<polyline style="fill-rule:evenodd;"
points="47535,42153
47811,42153
47811,42429
47535,42429
47535,42153
" /> 
<polyline style="fill-rule:evenodd;"
points="47535,41822
47811,41822
47811,42098
47535,42098
47535,41822
" /> 
<polyline style="fill-rule:evenodd;"
points="47204,42153
47480,42153
47480,42429
47204,42429
47204,42153
" /> 
<circle cx="47257.9" cy="44007.9" r="285.433" /> 
<circle cx="46757.9" cy="45007.9" r="285.433" /> 
<circle cx="46257.9" cy="44007.9" r="285.433" /> 
<circle cx="45757.9" cy="45007.9" r="285.433" /> 
<circle cx="45257.9" cy="44007.9" r="285.433" /> 
<circle cx="44757.9" cy="45007.9" r="285.433" /> 
<circle cx="44207.9" cy="44297.9" r="265.748" /> 
<circle cx="37602.4" cy="44007.9" r="285.433" /> 
<circle cx="37102.4" cy="45007.9" r="285.433" /> 
<circle cx="36602.4" cy="44007.9" r="285.433" /> 
<circle cx="36102.4" cy="45007.9" r="285.433" /> 
<circle cx="35602.4" cy="44007.9" r="285.433" /> 
<circle cx="35102.4" cy="45007.9" r="285.433" /> 
<circle cx="34552.4" cy="44297.9" r="265.748" /> 
<circle cx="32509.8" cy="59163.4" r="206.693" /> 
<circle cx="32509.8" cy="59950.8" r="206.693" /> 
<circle cx="33297.2" cy="59950.8" r="206.693" /> 
<circle cx="33297.2" cy="59163.4" r="206.693" /> 
<circle cx="49045.3" cy="59163.4" r="206.693" /> 
<circle cx="49045.3" cy="59950.8" r="206.693" /> 
<circle cx="49832.7" cy="59950.8" r="206.693" /> 
<circle cx="49832.7" cy="59163.4" r="206.693" /> 
</g>
<g style="fill:#000000; fill-opacity:1.0; 
stroke:#000000; stroke-width:590.551; stroke-opacity:1; 
stroke-linecap:round; stroke-linejoin:round;">
<path d="M42690 45029
L42690 44832
" />
<path d="M41690 45029
L41690 44832
" />
<path d="M39690 45029
L39690 44832
" />
<path d="M40690 45029
L40690 44832
" />
</g>
<g style="fill:#000000; fill-opacity:1.0; 
stroke:#000000; stroke-width:59.0551; stroke-opacity:1; 
stroke-linecap:round; stroke-linejoin:round;">
<polyline style="fill-rule:evenodd;"
points="41376,52813
41986,52813
41986,53423
41376,53423
41376,52813
" /> 
<polyline style="fill-rule:evenodd;"
points="40376,52813
40986,52813
40986,53423
40376,53423
40376,52813
" /> 
<polyline style="fill-rule:evenodd;"
points="41376,53813
41986,53813
41986,54423
41376,54423
41376,53813
" /> 
<polyline style="fill-rule:evenodd;"
points="40376,53813
40986,53813
40986,54423
40376,54423
40376,53813
" /> 
<polyline style="fill-rule:evenodd;"
points="41376,54813
41986,54813
41986,55423
41376,55423
41376,54813
" /> 
<polyline style="fill-rule:evenodd;"
points="40376,54813
40986,54813
40986,55423
40376,55423
40376,54813
" /> 
<circle cx="38622" cy="54133.9" r="1348.43" /> 
<circle cx="43740.2" cy="54133.9" r="1348.43" /> 
<polyline style="fill-rule:evenodd;"
points="42303,25314
42303,25609
41850,25609
41850,25314
42303,25314
" /> 
<polyline style="fill-rule:evenodd;"
points="40491,25314
40491,25609
40038,25609
40038,25314
40491,25314
" /> 
<polyline style="fill-rule:evenodd;"
points="40491,24606
40491,24901
40038,24901
40038,24606
40491,24606
" /> 
<polyline style="fill-rule:evenodd;"
points="42303,24606
42303,24901
41850,24901
41850,24606
42303,24606
" /> 
<polyline style="fill-rule:evenodd;"
points="33623,27671
33748,27938
33337,28129
33212,27862
33623,27671
" /> 
<polyline style="fill-rule:evenodd;"
points="31981,28436
32105,28704
31695,28895
31570,28628
31981,28436
" /> 
<polyline style="fill-rule:evenodd;"
points="31682,27795
31806,28062
31396,28254
31271,27986
31682,27795
" /> 
<polyline style="fill-rule:evenodd;"
points="33324,27029
33448,27296
33038,27488
32913,27220
33324,27029
" /> 
<polyline style="fill-rule:evenodd;"
points="50378,28234
50253,28501
49842,28310
49967,28043
50378,28234
" /> 
<polyline style="fill-rule:evenodd;"
points="48735,27468
48611,27736
48200,27544
48325,27277
48735,27468
" /> 
<polyline style="fill-rule:evenodd;"
points="49035,26827
48910,27094
48499,26903
48624,26635
49035,26827
" /> 
<polyline style="fill-rule:evenodd;"
points="50677,27593
50552,27860
50142,27668
50266,27401
50677,27593
" /> 
<polyline style="fill-rule:evenodd;"
points="45997,25784
45951,26075
45504,26005
45550,25713
45997,25784
" /> 
<polyline style="fill-rule:evenodd;"
points="44207,25501
44161,25792
43714,25721
43760,25430
44207,25501
" /> 
<polyline style="fill-rule:evenodd;"
points="44318,24801
44272,25093
43825,25022
43871,24731
44318,24801
" /> 
<polyline style="fill-rule:evenodd;"
points="46108,25085
46062,25376
45614,25305
45661,25014
46108,25085
" /> 
<polyline style="fill-rule:evenodd;"
points="39242,60009
38820,60009
38820,59911
39242,59911
39242,60009
" /> 
<polyline style="fill-rule:evenodd;"
points="39242,59753
38820,59753
38820,59655
39242,59655
39242,59753
" /> 
<polyline style="fill-rule:evenodd;"
points="39242,59498
38820,59498
38820,59399
39242,59399
39242,59498
" /> 
<polyline style="fill-rule:evenodd;"
points="39242,59242
38820,59242
38820,59143
39242,59143
39242,59242
" /> 
<polyline style="fill-rule:evenodd;"
points="40273,59242
39852,59242
39852,59143
40273,59143
40273,59242
" /> 
<polyline style="fill-rule:evenodd;"
points="40273,59498
39852,59498
39852,59399
40273,59399
40273,59498
" /> 
<polyline style="fill-rule:evenodd;"
points="40273,59753
39852,59753
39852,59655
40273,59655
40273,59753
" /> 
<polyline style="fill-rule:evenodd;"
points="40273,60009
39852,60009
39852,59911
40273,59911
40273,60009
" /> 
<polyline style="fill-rule:evenodd;"
points="38926,57775
38926,57657
39103,57657
39103,57775
38926,57775
" /> 
<polyline style="fill-rule:evenodd;"
points="39676,57775
39676,57657
39853,57657
39853,57775
39676,57775
" /> 
<polyline style="fill-rule:evenodd;"
points="44043,60774
44043,60033
45424,60033
45424,60774
44043,60774
" /> 
<polyline style="fill-rule:evenodd;"
points="44563,58174
44563,57433
44904,57433
44904,58174
44563,58174
" /> 
<polyline style="fill-rule:evenodd;"
points="45463,58174
45463,57433
45804,57433
45804,58174
45463,58174
" /> 
<polyline style="fill-rule:evenodd;"
points="43663,58174
43663,57433
44004,57433
44004,58174
43663,58174
" /> 
<polyline style="fill-rule:evenodd;"
points="39821,41310
39430,41310
39430,41119
39821,41119
39821,41310
" /> 
<polyline style="fill-rule:evenodd;"
points="39821,40710
39430,40710
39430,40519
39821,40519
39821,40710
" /> 
<polyline style="fill-rule:evenodd;"
points="37982,40718
38317,40718
38317,40974
37982,40974
37982,40718
" /> 
<polyline style="fill-rule:evenodd;"
points="38848,41093
39183,41093
39183,41349
38848,41349
38848,41093
" /> 
<polyline style="fill-rule:evenodd;"
points="38848,40343
39183,40343
39183,40599
38848,40599
38848,40343
" /> 
<polyline style="fill-rule:evenodd;"
points="38581,25430
38628,25721
38180,25792
38134,25501
38581,25430
" /> 
<polyline style="fill-rule:evenodd;"
points="36792,25713
36838,26005
36391,26075
36344,25784
36792,25713
" /> 
<polyline style="fill-rule:evenodd;"
points="36681,25014
36727,25305
36280,25376
36234,25085
36681,25014
" /> 
<polyline style="fill-rule:evenodd;"
points="38471,24731
38517,25022
38069,25093
38023,24801
38471,24731
" /> 
</g>
<g style="fill:#000000; fill-opacity:1.0; 
stroke:#000000; stroke-width:98.4252; stroke-opacity:1; 
stroke-linecap:round; stroke-linejoin:round;">
<path d="M36210 57687
L36053 57687
" />
<path d="M36210 57883
L36053 57883
" />
<path d="M36210 58080
L36053 58080
" />
<path d="M36210 58277
L36053 58277
" />
<path d="M36210 58474
L36053 58474
" />
<path d="M37431 58474
L37273 58474
" />
<path d="M37431 58277
L37273 58277
" />
<path d="M37431 58080
L37273 58080
" />
<path d="M37431 57883
L37273 57883
" />
<path d="M37431 57687
L37273 57687
" />
</g>
<g style="fill:#000000; fill-opacity:1.0; 
stroke:#000000; stroke-width:59.0551; stroke-opacity:1; 
stroke-linecap:round; stroke-linejoin:round;">
<polyline style="fill-rule:evenodd;"
points="36466,57622
37017,57622
37017,58539
36466,58539
36466,57622
" /> 
<polyline style="fill-rule:evenodd;"
points="37872,39757
37537,39757
37537,39501
37872,39501
37872,39757
" /> 
<polyline style="fill-rule:evenodd;"
points="37006,39382
36671,39382
36671,39126
37006,39126
37006,39382
" /> 
<polyline style="fill-rule:evenodd;"
points="37006,40132
36671,40132
36671,39876
37006,39876
37006,40132
" /> 
<polyline style="fill-rule:evenodd;"
points="40954,57165
40994,57165
40994,57204
40954,57204
40954,57165
" /> 
<polyline style="fill-rule:evenodd;"
points="40954,57362
40994,57362
40994,57401
40954,57401
40954,57362
" /> 
<polyline style="fill-rule:evenodd;"
points="40954,57559
40994,57559
40994,57598
40954,57598
40954,57559
" /> 
<polyline style="fill-rule:evenodd;"
points="40423,57559
40462,57559
40462,57598
40423,57598
40423,57559
" /> 
<polyline style="fill-rule:evenodd;"
points="40423,57362
40462,57362
40462,57401
40423,57401
40423,57362
" /> 
<polyline style="fill-rule:evenodd;"
points="40423,57165
40462,57165
40462,57204
40423,57204
40423,57165
" /> 
<polyline style="fill-rule:evenodd;"
points="40618,57177
40799,57177
40799,57291
40618,57291
40618,57177
" /> 
<polyline style="fill-rule:evenodd;"
points="40618,57472
40799,57472
40799,57586
40618,57586
40618,57472
" /> 
<polyline style="fill-rule:evenodd;"
points="28072,37646
28072,37345
28373,37345
28373,37646
28072,37646
" /> 
<polyline style="fill-rule:evenodd;"
points="28772,37646
28772,37345
29073,37345
29073,37646
28772,37646
" /> 
<polyline style="fill-rule:evenodd;"
points="28422,36846
28422,36545
28723,36545
28723,36846
28422,36846
" /> 
<polyline style="fill-rule:evenodd;"
points="38869,42815
38869,43011
38768,43011
38768,42815
38869,42815
" /> 
<polyline style="fill-rule:evenodd;"
points="38613,42815
38613,43011
38512,43011
38512,42815
38613,42815
" /> 
<polyline style="fill-rule:evenodd;"
points="38357,42815
38357,43011
38256,43011
38256,42815
38357,42815
" /> 
<polyline style="fill-rule:evenodd;"
points="38357,42106
38357,42302
38256,42302
38256,42106
38357,42106
" /> 
<polyline style="fill-rule:evenodd;"
points="38613,42106
38613,42302
38512,42302
38512,42106
38613,42106
" /> 
<polyline style="fill-rule:evenodd;"
points="38869,42106
38869,42302
38768,42302
38768,42106
38869,42106
" /> 
<polyline style="fill-rule:evenodd;"
points="46812,43324
46635,43324
46635,43226
46812,43226
46812,43324
" /> 
<polyline style="fill-rule:evenodd;"
points="46812,42970
46635,42970
46635,42872
46812,42872
46812,42970
" /> 
<polyline style="fill-rule:evenodd;"
points="46722,40875
46722,40698
46820,40698
46820,40875
46722,40875
" /> 
<polyline style="fill-rule:evenodd;"
points="47076,40875
47076,40698
47174,40698
47174,40875
47076,40875
" /> 
<polyline style="fill-rule:evenodd;"
points="38494,58218
38671,58218
38671,58316
38494,58316
38494,58218
" /> 
<polyline style="fill-rule:evenodd;"
points="38494,58572
38671,58572
38671,58670
38494,58670
38494,58572
" /> 
<polyline style="fill-rule:evenodd;"
points="47942,40698
47942,40875
47844,40875
47844,40698
47942,40698
" /> 
<polyline style="fill-rule:evenodd;"
points="47588,40698
47588,40875
47490,40875
47490,40698
47588,40698
" /> 
<polyline style="fill-rule:evenodd;"
points="36230,39400
36407,39400
36407,39497
36230,39497
36230,39400
" /> 
<polyline style="fill-rule:evenodd;"
points="36230,39754
36407,39754
36407,39851
36230,39851
36230,39754
" /> 
<polyline style="fill-rule:evenodd;"
points="48651,41270
48828,41270
48828,41368
48651,41368
48651,41270
" /> 
<polyline style="fill-rule:evenodd;"
points="48651,41624
48828,41624
48828,41722
48651,41722
48651,41624
" /> 
<polyline style="fill-rule:evenodd;"
points="33779,41151
33779,40974
33877,40974
33877,41151
33779,41151
" /> 
<polyline style="fill-rule:evenodd;"
points="34133,41151
34133,40974
34231,40974
34231,41151
34133,41151
" /> 
<polyline style="fill-rule:evenodd;"
points="43785,57167
43785,56990
43883,56990
43883,57167
43785,57167
" /> 
<polyline style="fill-rule:evenodd;"
points="44139,57167
44139,56990
44237,56990
44237,57167
44139,57167
" /> 
<polyline style="fill-rule:evenodd;"
points="33415,41730
33592,41730
33592,41828
33415,41828
33415,41730
" /> 
<polyline style="fill-rule:evenodd;"
points="33415,42084
33592,42084
33592,42182
33415,42182
33415,42084
" /> 
<polyline style="fill-rule:evenodd;"
points="35813,42384
35990,42384
35990,42482
35813,42482
35813,42384
" /> 
<polyline style="fill-rule:evenodd;"
points="35813,42738
35990,42738
35990,42836
35813,42836
35813,42738
" /> 
<polyline style="fill-rule:evenodd;"
points="40236,41259
40059,41259
40059,41161
40236,41161
40236,41259
" /> 
<polyline style="fill-rule:evenodd;"
points="40236,40905
40059,40905
40059,40807
40236,40807
40236,40905
" /> 
<polyline style="fill-rule:evenodd;"
points="35840,39400
36017,39400
36017,39497
35840,39497
35840,39400
" /> 
<polyline style="fill-rule:evenodd;"
points="35840,39754
36017,39754
36017,39851
35840,39851
35840,39754
" /> 
<polyline style="fill-rule:evenodd;"
points="37756,58366
37756,58189
37854,58189
37854,58366
37756,58366
" /> 
<polyline style="fill-rule:evenodd;"
points="38110,58366
38110,58189
38208,58189
38208,58366
38110,58366
" /> 
<polyline style="fill-rule:evenodd;"
points="33832,42824
33655,42824
33655,42726
33832,42726
33832,42824
" /> 
<polyline style="fill-rule:evenodd;"
points="33832,42470
33655,42470
33655,42372
33832,42372
33832,42470
" /> 
<polyline style="fill-rule:evenodd;"
points="37618,40059
37795,40059
37795,40157
37618,40157
37618,40059
" /> 
<polyline style="fill-rule:evenodd;"
points="37618,40413
37795,40413
37795,40511
37618,40511
37618,40413
" /> 
<polyline style="fill-rule:evenodd;"
points="30317,38486
30493,38486
30493,38584
30317,38584
30317,38486
" /> 
<polyline style="fill-rule:evenodd;"
points="30317,38840
30493,38840
30493,38938
30317,38938
30317,38840
" /> 
<polyline style="fill-rule:evenodd;"
points="37824,41978
38001,41978
38001,42076
37824,42076
37824,41978
" /> 
<polyline style="fill-rule:evenodd;"
points="37824,42332
38001,42332
38001,42430
37824,42430
37824,42332
" /> 
<polyline style="fill-rule:evenodd;"
points="37824,42687
38001,42687
38001,42785
37824,42785
37824,42687
" /> 
<polyline style="fill-rule:evenodd;"
points="37824,43041
38001,43041
38001,43139
37824,43139
37824,43041
" /> 
<polyline style="fill-rule:evenodd;"
points="43060,41141
42883,41141
42883,41043
43060,41043
43060,41141
" /> 
<polyline style="fill-rule:evenodd;"
points="43060,40787
42883,40787
42883,40689
43060,40689
43060,40787
" /> 
<polyline style="fill-rule:evenodd;"
points="40689,59547
40689,59370
40787,59370
40787,59547
40689,59547
" /> 
<polyline style="fill-rule:evenodd;"
points="41043,59547
41043,59370
41141,59370
41141,59547
41043,59547
" /> 
<polyline style="fill-rule:evenodd;"
points="38927,58218
39104,58218
39104,58316
38927,58316
38927,58218
" /> 
<polyline style="fill-rule:evenodd;"
points="38927,58572
39104,58572
39104,58670
38927,58670
38927,58572
" /> 
<polyline style="fill-rule:evenodd;"
points="38966,43257
38966,43434
38868,43434
38868,43257
38966,43257
" /> 
<polyline style="fill-rule:evenodd;"
points="38612,43257
38612,43434
38514,43434
38514,43257
38612,43257
" /> 
<polyline style="fill-rule:evenodd;"
points="30041,38938
29864,38938
29864,38840
30041,38840
30041,38938
" /> 
<polyline style="fill-rule:evenodd;"
points="30041,38584
29864,38584
29864,38486
30041,38486
30041,38584
" /> 
<polyline style="fill-rule:evenodd;"
points="38238,41860
38238,41683
38336,41683
38336,41860
38238,41860
" /> 
<polyline style="fill-rule:evenodd;"
points="38592,41860
38592,41683
38690,41683
38690,41860
38592,41860
" /> 
<polyline style="fill-rule:evenodd;"
points="42982,39025
42982,38848
43080,38848
43080,39025
42982,39025
" /> 
<polyline style="fill-rule:evenodd;"
points="43336,39025
43336,38848
43434,38848
43434,39025
43336,39025
" /> 
<polyline style="fill-rule:evenodd;"
points="43828,39566
43651,39566
43651,39468
43828,39468
43828,39566
" /> 
<polyline style="fill-rule:evenodd;"
points="43828,39212
43651,39212
43651,39114
43828,39114
43828,39212
" /> 
<polyline style="fill-rule:evenodd;"
points="35679,58099
35502,58099
35502,58002
35679,58002
35679,58099
" /> 
<polyline style="fill-rule:evenodd;"
points="35679,57745
35502,57745
35502,57648
35679,57648
35679,57745
" /> 
<polyline style="fill-rule:evenodd;"
points="41141,59763
41141,59940
41043,59940
41043,59763
41141,59763
" /> 
<polyline style="fill-rule:evenodd;"
points="40787,59763
40787,59940
40689,59940
40689,59763
40787,59763
" /> 
<polyline style="fill-rule:evenodd;"
points="28995,38031
28995,38208
28897,38208
28897,38031
28995,38031
" /> 
<polyline style="fill-rule:evenodd;"
points="28641,38031
28641,38208
28543,38208
28543,38031
28641,38031
" /> 
<polyline style="fill-rule:evenodd;"
points="42421,40020
42598,40020
42598,40118
42421,40118
42421,40020
" /> 
<polyline style="fill-rule:evenodd;"
points="42421,40374
42598,40374
42598,40472
42421,40472
42421,40374
" /> 
<polyline style="fill-rule:evenodd;"
points="41411,26021
41411,26198
41313,26198
41313,26021
41411,26021
" /> 
<polyline style="fill-rule:evenodd;"
points="41057,26021
41057,26198
40959,26198
40959,26021
41057,26021
" /> 
<polyline style="fill-rule:evenodd;"
points="35816,25737
35639,25737
35639,25639
35816,25639
35816,25737
" /> 
<polyline style="fill-rule:evenodd;"
points="35816,25383
35639,25383
35639,25285
35816,25285
35816,25383
" /> 
<polyline style="fill-rule:evenodd;"
points="34596,41003
34596,40826
34694,40826
34694,41003
34596,41003
" /> 
<polyline style="fill-rule:evenodd;"
points="34950,41003
34950,40826
35048,40826
35048,41003
34950,41003
" /> 
<polyline style="fill-rule:evenodd;"
points="41141,58976
41141,59153
41043,59153
41043,58976
41141,58976
" /> 
<polyline style="fill-rule:evenodd;"
points="40787,58976
40787,59153
40689,59153
40689,58976
40787,58976
" /> 
<polyline style="fill-rule:evenodd;"
points="37391,40865
37214,40865
37214,40767
37391,40767
37391,40865
" /> 
<polyline style="fill-rule:evenodd;"
points="37391,40511
37214,40511
37214,40413
37391,40413
37391,40511
" /> 
<polyline style="fill-rule:evenodd;"
points="38543,59507
38366,59507
38366,59409
38543,59409
38543,59507
" /> 
<polyline style="fill-rule:evenodd;"
points="38543,59153
38366,59153
38366,59055
38543,59055
38543,59153
" /> 
<polyline style="fill-rule:evenodd;"
points="34124,27686
34124,27509
34222,27509
34222,27686
34124,27686
" /> 
<polyline style="fill-rule:evenodd;"
points="34478,27686
34478,27509
34576,27509
34576,27686
34478,27686
" /> 
<polyline style="fill-rule:evenodd;"
points="46299,26121
46299,25944
46397,25944
46397,26121
46299,26121
" /> 
<polyline style="fill-rule:evenodd;"
points="46653,26121
46653,25944
46751,25944
46751,26121
46653,26121
" /> 
<polyline style="fill-rule:evenodd;"
points="50610,28445
50787,28445
50787,28543
50610,28543
50610,28445
" /> 
<polyline style="fill-rule:evenodd;"
points="50610,28799
50787,28799
50787,28897
50610,28897
50610,28799
" /> 
<polyline style="fill-rule:evenodd;"
points="46988,26004
47165,26004
47165,26102
46988,26102
46988,26004
" /> 
<polyline style="fill-rule:evenodd;"
points="46988,26358
47165,26358
47165,26456
46988,26456
46988,26358
" /> 
<polyline style="fill-rule:evenodd;"
points="47382,26004
47558,26004
47558,26102
47382,26102
47382,26004
" /> 
<polyline style="fill-rule:evenodd;"
points="47382,26358
47558,26358
47558,26456
47382,26456
47382,26358
" /> 
<polyline style="fill-rule:evenodd;"
points="43060,40472
42883,40472
42883,40374
43060,40374
43060,40472
" /> 
<polyline style="fill-rule:evenodd;"
points="43060,40118
42883,40118
42883,40020
43060,40020
43060,40118
" /> 
<polyline style="fill-rule:evenodd;"
points="43523,40472
43346,40472
43346,40374
43523,40374
43523,40472
" /> 
<polyline style="fill-rule:evenodd;"
points="43523,40118
43346,40118
43346,40020
43523,40020
43523,40118
" /> 
<polyline style="fill-rule:evenodd;"
points="46929,55562
47230,55562
47230,55863
46929,55863
46929,55562
" /> 
<polyline style="fill-rule:evenodd;"
points="46929,56262
47230,56262
47230,56563
46929,56563
46929,56262
" /> 
<polyline style="fill-rule:evenodd;"
points="47729,55912
48030,55912
48030,56213
47729,56213
47729,55912
" /> 
<polyline style="fill-rule:evenodd;"
points="34814,43180
34814,43571
34623,43571
34623,43180
34814,43180
" /> 
<polyline style="fill-rule:evenodd;"
points="34214,43180
34214,43571
34023,43571
34023,43180
34214,43180
" /> 
<polyline style="fill-rule:evenodd;"
points="46514,42119
46123,42119
46123,41928
46514,41928
46514,42119
" /> 
<polyline style="fill-rule:evenodd;"
points="46514,41519
46123,41519
46123,41328
46514,41328
46514,41519
" /> 
<polyline style="fill-rule:evenodd;"
points="41781,42557
41958,42557
41958,42655
41781,42655
41781,42557
" /> 
<polyline style="fill-rule:evenodd;"
points="41781,42911
41958,42911
41958,43009
41781,43009
41781,42911
" /> 
<polyline style="fill-rule:evenodd;"
points="42598,41141
42421,41141
42421,41043
42598,41043
42598,41141
" /> 
<polyline style="fill-rule:evenodd;"
points="42598,40787
42421,40787
42421,40689
42598,40689
42598,40787
" /> 
<polyline style="fill-rule:evenodd;"
points="46446,57529
47017,57529
47017,58061
46446,58061
46446,57529
" /> 
<polyline style="fill-rule:evenodd;"
points="46446,58474
47017,58474
47017,59005
46446,59005
46446,58474
" /> 
<polyline style="fill-rule:evenodd;"
points="41911,57533
42954,57533
42954,58104
41911,58104
41911,57533
" /> 
<polyline style="fill-rule:evenodd;"
points="41911,58517
42954,58517
42954,59088
41911,59088
41911,58517
" /> 
</g> 
</svg>
