  0
SECTION
  2
HEADER
  9
$ANGBASE
  50
0.0
  9
$ANGDIR
  70
  1
  9
$MEASUREMENT
  70
0
  0
ENDSEC
  0
SECTION
  2
TABLES
  0
TABLE
  2
LTYPE
  70
1
  0
LTYPE
  2
CONTINUOUS
  70
0
  3
Solid line
  72
65
  73
0
  40
0.0
  0
ENDTAB
  0
TABLE
  2
STYLE
  70
4
  0
STYLE
  2
KICAD
  70
0
  40
0
  41
1
  42
1
  50
0
  71
0
  3
isocp.shx
  0
STYLE
  2
KICADB
  70
0
  40
0
  41
1
  42
1
  50
0
  71
0
  3
isocp.shx
  0
STYLE
  2
KICADI
  70
0
  40
0
  41
1
  42
1
  50
15
  71
0
  3
isocp.shx
  0
STYLE
  2
KICADBI
  70
0
  40
0
  41
1
  42
1
  50
15
  71
0
  3
isocp.shx
  0
ENDTAB
  0
TABLE
  2
LAYER
  70
24
  0
LAYER
  2
BLACK
  70
0
  62
250
  6
CONTINUOUS
  0
LAYER
  2
BLUE
  70
0
  62
5
  6
CONTINUOUS
  0
LAYER
  2
GREEN
  70
0
  62
3
  6
CONTINUOUS
  0
LAYER
  2
CYAN
  70
0
  62
4
  6
CONTINUOUS
  0
LAYER
  2
RED
  70
0
  62
1
  6
CONTINUOUS
  0
LAYER
  2
MAGENTA
  70
0
  62
6
  6
CONTINUOUS
  0
LAYER
  2
BROWN
  70
0
  62
54
  6
CONTINUOUS
  0
LAYER
  2
LIGHTGRAY
  70
0
  62
9
  6
CONTINUOUS
  0
LAYER
  2
DARKGRAY
  70
0
  62
8
  6
CONTINUOUS
  0
LAYER
  2
LIGHTBLUE
  70
0
  62
171
  6
CONTINUOUS
  0
LAYER
  2
LIGHTGREEN
  70
0
  62
91
  6
CONTINUOUS
  0
LAYER
  2
LIGHTCYAN
  70
0
  62
131
  6
CONTINUOUS
  0
LAYER
  2
LIGHTRED
  70
0
  62
11
  6
CONTINUOUS
  0
LAYER
  2
LIGHTMAGENTA
  70
0
  62
221
  6
CONTINUOUS
  0
LAYER
  2
YELLOW
  70
0
  62
2
  6
CONTINUOUS
  0
LAYER
  2
WHITE
  70
0
  62
7
  6
CONTINUOUS
  0
LAYER
  2
DARKDARKGRAY
  70
0
  62
251
  6
CONTINUOUS
  0
LAYER
  2
DARKBLUE
  70
0
  62
178
  6
CONTINUOUS
  0
LAYER
  2
DARKGREEN
  70
0
  62
98
  6
CONTINUOUS
  0
LAYER
  2
DARKCYAN
  70
0
  62
138
  6
CONTINUOUS
  0
LAYER
  2
DARKRED
  70
0
  62
18
  6
CONTINUOUS
  0
LAYER
  2
DARKMAGENTA
  70
0
  62
228
  6
CONTINUOUS
  0
LAYER
  2
DARKBROWN
  70
0
  62
58
  6
CONTINUOUS
  0
LAYER
  2
LIGHTYELLOW
  70
0
  62
51
  6
CONTINUOUS
  0
ENDTAB
  0
ENDSEC
  0
SECTION
  2
ENTITIES
0
LINE
8
BLACK
10
118.588
20
-156.537
11
119.687
21
-156.653
0
LINE
8
BLACK
10
118.589
20
-156.527
11
119.688
21
-156.643
0
ARC
8
BLACK
10
119.688
20
-156.648
40
0.005
50
264
51
444
0
ARC
8
BLACK
10
118.588
20
-156.532
40
0.005
50
84
51
264
0
LINE
8
BLACK
10
119.686
20
-156.654
11
120.621
21
-156.934
0
LINE
8
BLACK
10
119.689
20
-156.644
11
120.624
21
-156.925
0
ARC
8
BLACK
10
120.623
20
-156.929
40
0.005
50
253.3
51
433.3
0
ARC
8
BLACK
10
119.687
20
-156.649
40
0.005
50
73.3
51
253.3
0
LINE
8
BLACK
10
120.62
20
-156.935
11
121.387
21
-157.279
0
LINE
8
BLACK
10
120.624
20
-156.926
11
121.391
21
-157.27
0
ARC
8
BLACK
10
121.389
20
-157.275
40
0.005
50
245.8
51
425.8
0
ARC
8
BLACK
10
120.622
20
-156.93
40
0.005
50
65.8
51
245.8
0
LINE
8
BLACK
10
121.386
20
-157.28
11
122
21
-157.608
0
LINE
8
BLACK
10
121.391
20
-157.271
11
122.005
21
-157.599
0
ARC
8
BLACK
10
122.003
20
-157.604
40
0.005
50
241.9
51
421.9
0
ARC
8
BLACK
10
121.388
20
-157.276
40
0.005
50
61.9
51
241.9
0
LINE
8
BLACK
10
122
20
-157.609
11
122.488
21
-157.87
0
LINE
8
BLACK
10
122.005
20
-157.6
11
122.493
21
-157.861
0
ARC
8
BLACK
10
122.491
20
-157.865
40
0.005
50
241.9
51
421.9
0
ARC
8
BLACK
10
122.002
20
-157.604
40
0.005
50
61.9
51
241.9
0
LINE
8
BLACK
10
122.489
20
-157.87
11
122.802
21
-158.007
0
LINE
8
BLACK
10
122.493
20
-157.861
11
122.806
21
-157.998
0
ARC
8
BLACK
10
122.804
20
-158.002
40
0.005
50
246.4
51
426.4
0
ARC
8
BLACK
10
122.491
20
-157.865
40
0.005
50
66.4
51
246.4
0
LINE
8
BLACK
10
122.802
20
-158.007
11
122.914
21
-158.037
0
LINE
8
BLACK
10
122.805
20
-157.998
11
122.916
21
-158.027
0
ARC
8
BLACK
10
122.915
20
-158.032
40
0.005
50
255.1
51
435.1
0
ARC
8
BLACK
10
122.804
20
-158.002
40
0.005
50
75.1
51
255.1
0
LINE
8
BLACK
10
86.2625
20
-158.037
11
86.3201
21
-158.024
0
LINE
8
BLACK
10
86.2604
20
-158.027
11
86.3179
21
-158.014
0
ARC
8
BLACK
10
86.319
20
-158.019
40
0.005
50
282.5
51
462.5
0
ARC
8
BLACK
10
86.2615
20
-158.032
40
0.005
50
102.5
51
282.5
0
LINE
8
BLACK
10
86.3207
20
-158.024
11
86.4844
21
-157.965
0
LINE
8
BLACK
10
86.3173
20
-158.014
11
86.481
21
-157.955
0
ARC
8
BLACK
10
86.4827
20
-157.96
40
0.005
50
289.9
51
469.9
0
ARC
8
BLACK
10
86.319
20
-158.019
40
0.005
50
109.9
51
289.9
0
LINE
8
BLACK
10
86.4847
20
-157.964
11
86.7458
21
-157.841
0
LINE
8
BLACK
10
86.4804
20
-157.955
11
86.7415
21
-157.832
0
ARC
8
BLACK
10
86.7437
20
-157.836
40
0.005
50
295.3
51
475.3
0
ARC
8
BLACK
10
86.4825
20
-157.96
40
0.005
50
115.3
51
295.3
0
LINE
8
BLACK
10
86.7458
20
-157.84
11
87.1643
21
-157.616
0
LINE
8
BLACK
10
86.7411
20
-157.831
11
87.1596
21
-157.607
0
ARC
8
BLACK
10
87.1619
20
-157.611
40
0.005
50
298.2
51
478.2
0
ARC
8
BLACK
10
86.7434
20
-157.836
40
0.005
50
118.2
51
298.2
0
LINE
8
BLACK
10
87.164
20
-157.615
11
87.6938
21
-157.33
0
LINE
8
BLACK
10
87.1592
20
-157.606
11
87.6891
21
-157.321
0
ARC
8
BLACK
10
87.6914
20
-157.325
40
0.005
50
298.3
51
478.3
0
ARC
8
BLACK
10
87.1616
20
-157.611
40
0.005
50
118.3
51
298.3
0
LINE
8
BLACK
10
87.6932
20
-157.329
11
88.2646
21
-157.055
0
LINE
8
BLACK
10
87.6889
20
-157.32
11
88.2603
21
-157.046
0
ARC
8
BLACK
10
88.2624
20
-157.051
40
0.005
50
295.6
51
475.6
0
ARC
8
BLACK
10
87.691
20
-157.325
40
0.005
50
115.6
51
295.6
0
LINE
8
BLACK
10
88.2638
20
-157.055
11
88.9343
21
-156.801
0
LINE
8
BLACK
10
88.2603
20
-157.045
11
88.9308
21
-156.792
0
ARC
8
BLACK
10
88.9325
20
-156.797
40
0.005
50
290.7
51
470.7
0
ARC
8
BLACK
10
88.2621
20
-157.05
40
0.005
50
110.7
51
290.7
0
LINE
8
BLACK
10
88.9334
20
-156.801
11
89.7162
21
-156.611
0
LINE
8
BLACK
10
88.9311
20
-156.791
11
89.7138
21
-156.601
0
ARC
8
BLACK
10
89.715
20
-156.606
40
0.005
50
283.6
51
463.6
0
ARC
8
BLACK
10
88.9322
20
-156.796
40
0.005
50
103.6
51
283.6
0
LINE
8
BLACK
10
89.7153
20
-156.611
11
90.5887
21
-156.537
0
LINE
8
BLACK
10
89.7144
20
-156.601
11
90.5879
21
-156.527
0
ARC
8
BLACK
10
90.5883
20
-156.532
40
0.005
50
274.8
51
454.8
0
ARC
8
BLACK
10
89.7149
20
-156.606
40
0.005
50
94.8
51
274.8
0
LINE
8
BLACK
10
81.5831
20
-145.031
11
81.4851
21
-145.892
0
LINE
8
BLACK
10
81.593
20
-145.033
11
81.495
21
-145.893
0
ARC
8
BLACK
10
81.4901
20
-145.892
40
0.005
50
173.5
51
353.5
0
ARC
8
BLACK
10
81.5881
20
-145.032
40
0.005
50
-6.5
51
173.5
0
LINE
8
BLACK
10
81.4852
20
-145.89
11
81.2133
21
-146.563
0
LINE
8
BLACK
10
81.4945
20
-145.894
11
81.2226
21
-146.567
0
ARC
8
BLACK
10
81.2179
20
-146.565
40
0.005
50
158
51
338
0
ARC
8
BLACK
10
81.4898
20
-145.892
40
0.005
50
-22
51
158
0
LINE
8
BLACK
10
81.2137
20
-146.562
11
80.8033
21
-147.089
0
LINE
8
BLACK
10
81.2216
20
-146.568
11
80.8112
21
-147.095
0
ARC
8
BLACK
10
80.8073
20
-147.092
40
0.005
50
142.1
51
322.1
0
ARC
8
BLACK
10
81.2176
20
-146.565
40
0.005
50
-37.9
51
142.1
0
LINE
8
BLACK
10
80.8035
20
-147.088
11
80.2891
21
-147.51
0
LINE
8
BLACK
10
80.8098
20
-147.095
11
80.2955
21
-147.518
0
ARC
8
BLACK
10
80.2923
20
-147.514
40
0.005
50
129.4
51
309.4
0
ARC
8
BLACK
10
80.8067
20
-147.092
40
0.005
50
-50.6
51
129.4
0
LINE
8
BLACK
10
80.2892
20
-147.509
11
79.705
21
-147.867
0
LINE
8
BLACK
10
80.2944
20
-147.518
11
79.7102
21
-147.876
0
ARC
8
BLACK
10
79.7076
20
-147.871
40
0.005
50
121.5
51
301.5
0
ARC
8
BLACK
10
80.2918
20
-147.513
40
0.005
50
-58.5
51
121.5
0
LINE
8
BLACK
10
79.705
20
-147.867
11
79.0859
21
-148.202
0
LINE
8
BLACK
10
79.7098
20
-147.876
11
79.0907
21
-148.21
0
ARC
8
BLACK
10
79.0883
20
-148.206
40
0.005
50
118.4
51
298.4
0
ARC
8
BLACK
10
79.7074
20
-147.871
40
0.005
50
-61.6
51
118.4
0
LINE
8
BLACK
10
79.0857
20
-148.201
11
78.4667
21
-148.554
0
LINE
8
BLACK
10
79.0906
20
-148.21
11
78.4716
21
-148.563
0
ARC
8
BLACK
10
78.4691
20
-148.559
40
0.005
50
119.7
51
299.7
0
ARC
8
BLACK
10
79.0882
20
-148.206
40
0.005
50
-60.3
51
119.7
0
LINE
8
BLACK
10
78.4661
20
-148.554
11
77.8818
21
-148.967
0
LINE
8
BLACK
10
78.4718
20
-148.563
11
77.8875
21
-148.975
0
ARC
8
BLACK
10
77.8846
20
-148.971
40
0.005
50
125.2
51
305.2
0
ARC
8
BLACK
10
78.469
20
-148.559
40
0.005
50
-54.8
51
125.2
0
LINE
8
BLACK
10
77.8808
20
-148.967
11
77.3662
21
-149.48
0
LINE
8
BLACK
10
77.8878
20
-148.974
11
77.3733
21
-149.487
0
ARC
8
BLACK
10
77.3698
20
-149.483
40
0.005
50
134.9
51
314.9
0
ARC
8
BLACK
10
77.8843
20
-148.97
40
0.005
50
-45.1
51
134.9
0
LINE
8
BLACK
10
77.3651
20
-149.48
11
77.0458
21
-149.955
0
LINE
8
BLACK
10
77.3734
20
-149.485
11
77.0541
21
-149.96
0
ARC
8
BLACK
10
77.05
20
-149.958
40
0.005
50
146.1
51
326.1
0
ARC
8
BLACK
10
77.3692
20
-149.483
40
0.005
50
-33.9
51
146.1
0
LINE
8
BLACK
10
77.0449
20
-149.955
11
76.7987
21
-150.527
0
LINE
8
BLACK
10
77.0541
20
-149.959
11
76.8079
21
-150.531
0
ARC
8
BLACK
10
76.8033
20
-150.529
40
0.005
50
156.7
51
336.7
0
ARC
8
BLACK
10
77.0495
20
-149.957
40
0.005
50
-23.3
51
156.7
0
LINE
8
BLACK
10
76.798
20
-150.528
11
76.6397
21
-151.214
0
LINE
8
BLACK
10
76.8078
20
-150.53
11
76.6495
21
-151.216
0
ARC
8
BLACK
10
76.6446
20
-151.215
40
0.005
50
167
51
347
0
ARC
8
BLACK
10
76.8029
20
-150.529
40
0.005
50
-13
51
167
0
LINE
8
BLACK
10
76.6392
20
-151.214
11
76.5835
21
-152.032
0
LINE
8
BLACK
10
76.6492
20
-151.215
11
76.5935
21
-152.032
0
ARC
8
BLACK
10
76.5885
20
-152.032
40
0.005
50
176.1
51
356.1
0
ARC
8
BLACK
10
76.6442
20
-151.215
40
0.005
50
-3.9
51
176.1
0
LINE
8
BLACK
10
76.2448
20
-101.086
11
77.5294
21
-101.151
0
LINE
8
BLACK
10
76.2454
20
-101.076
11
77.5299
21
-101.141
0
ARC
8
BLACK
10
77.5297
20
-101.146
40
0.005
50
267.1
51
447.1
0
ARC
8
BLACK
10
76.2451
20
-101.081
40
0.005
50
87.1
51
267.1
0
LINE
8
BLACK
10
77.5287
20
-101.152
11
78.59
21
-101.336
0
LINE
8
BLACK
10
77.5304
20
-101.142
11
78.5917
21
-101.326
0
ARC
8
BLACK
10
78.5909
20
-101.331
40
0.005
50
260.2
51
440.2
0
ARC
8
BLACK
10
77.5295
20
-101.147
40
0.005
50
80.2
51
260.2
0
LINE
8
BLACK
10
78.5891
20
-101.336
11
79.4481
21
-101.62
0
LINE
8
BLACK
10
78.5923
20
-101.327
11
79.4513
21
-101.611
0
ARC
8
BLACK
10
79.4497
20
-101.616
40
0.005
50
251.7
51
431.7
0
ARC
8
BLACK
10
78.5907
20
-101.332
40
0.005
50
71.7
51
251.7
0
LINE
8
BLACK
10
79.4471
20
-101.621
11
80.1254
21
-101.984
0
LINE
8
BLACK
10
79.4518
20
-101.612
11
80.1301
21
-101.976
0
ARC
8
BLACK
10
80.1278
20
-101.98
40
0.005
50
241.8
51
421.8
0
ARC
8
BLACK
10
79.4495
20
-101.616
40
0.005
50
61.8
51
241.8
0
LINE
8
BLACK
10
80.1242
20
-101.984
11
80.6428
21
-102.409
0
LINE
8
BLACK
10
80.1306
20
-101.977
11
80.6491
21
-102.401
0
ARC
8
BLACK
10
80.6459
20
-102.405
40
0.005
50
230.7
51
410.7
0
ARC
8
BLACK
10
80.1274
20
-101.981
40
0.005
50
50.7
51
230.7
0
LINE
8
BLACK
10
80.6418
20
-102.408
11
81.0216
21
-102.874
0
LINE
8
BLACK
10
80.6495
20
-102.402
11
81.0293
21
-102.868
0
ARC
8
BLACK
10
81.0254
20
-102.871
40
0.005
50
219.2
51
399.2
0
ARC
8
BLACK
10
80.6456
20
-102.405
40
0.005
50
39.2
51
219.2
0
LINE
8
BLACK
10
81.0207
20
-102.873
11
81.3886
21
-103.641
0
LINE
8
BLACK
10
81.0297
20
-102.869
11
81.3976
21
-103.637
0
ARC
8
BLACK
10
81.3931
20
-103.639
40
0.005
50
205.6
51
385.6
0
ARC
8
BLACK
10
81.0252
20
-102.871
40
0.005
50
25.6
51
205.6
0
LINE
8
BLACK
10
81.3876
20
-103.64
11
81.5487
21
-104.386
0
LINE
8
BLACK
10
81.3974
20
-103.638
11
81.5585
21
-104.384
0
ARC
8
BLACK
10
81.5536
20
-104.385
40
0.005
50
192.2
51
372.2
0
ARC
8
BLACK
10
81.3925
20
-103.639
40
0.005
50
12.2
51
192.2
0
LINE
8
BLACK
10
81.5476
20
-104.385
11
81.5838
21
-105.032
0
LINE
8
BLACK
10
81.5576
20
-104.384
11
81.5938
21
-105.032
0
ARC
8
BLACK
10
81.5888
20
-105.032
40
0.005
50
183.2
51
363.2
0
ARC
8
BLACK
10
81.5526
20
-104.385
40
0.005
50
3.2
51
183.2
0
LINE
8
BLACK
10
104.588
20
-61.0251
11
101.577
21
-61.1091
0
LINE
8
BLACK
10
104.588
20
-61.035
11
101.578
21
-61.1191
0
ARC
8
BLACK
10
101.577
20
-61.1141
40
0.005
50
91.6
51
271.6
0
ARC
8
BLACK
10
104.588
20
-61.03
40
0.005
50
-88.4
51
91.6
0
LINE
8
BLACK
10
101.577
20
-61.1054
11
98.7378
21
-61.3438
0
LINE
8
BLACK
10
101.578
20
-61.1153
11
98.7386
21
-61.3537
0
ARC
8
BLACK
10
98.7382
20
-61.3487
40
0.005
50
94.8
51
274.8
0
ARC
8
BLACK
10
101.577
20
-61.1103
40
0.005
50
-85.2
51
94.8
0
LINE
8
BLACK
10
98.737
20
-61.3398
11
96.065
21
-61.7249
0
LINE
8
BLACK
10
98.7384
20
-61.3497
11
96.0664
21
-61.7348
0
ARC
8
BLACK
10
96.0657
20
-61.7298
40
0.005
50
98.2
51
278.2
0
ARC
8
BLACK
10
98.7377
20
-61.3448
40
0.005
50
-81.8
51
98.2
0
LINE
8
BLACK
10
96.0642
20
-61.722
11
93.5539
21
-62.2419
0
LINE
8
BLACK
10
96.0662
20
-61.7318
11
93.5559
21
-62.2517
0
ARC
8
BLACK
10
93.5549
20
-62.2468
40
0.005
50
101.7
51
281.7
0
ARC
8
BLACK
10
96.0652
20
-61.7269
40
0.005
50
-78.3
51
101.7
0
LINE
8
BLACK
10
93.5533
20
-62.2407
11
91.2002
21
-62.8889
0
LINE
8
BLACK
10
93.5559
20
-62.2504
11
91.2028
21
-62.8985
0
ARC
8
BLACK
10
91.2015
20
-62.8937
40
0.005
50
105.4
51
285.4
0
ARC
8
BLACK
10
93.5546
20
-62.2455
40
0.005
50
-74.6
51
105.4
0
LINE
8
BLACK
10
91.1997
20
-62.8884
11
89.0369
21
-63.6415
0
LINE
8
BLACK
10
91.203
20
-62.8978
11
89.0402
21
-63.651
0
ARC
8
BLACK
10
89.0386
20
-63.6463
40
0.005
50
109.2
51
289.2
0
ARC
8
BLACK
10
91.2013
20
-62.8931
40
0.005
50
-70.8
51
109.2
0
LINE
8
BLACK
10
89.0364
20
-63.6413
11
87.0165
21
-64.5028
0
LINE
8
BLACK
10
89.0404
20
-63.6505
11
87.0204
21
-64.512
0
ARC
8
BLACK
10
87.0185
20
-64.5074
40
0.005
50
113.1
51
293.1
0
ARC
8
BLACK
10
89.0384
20
-63.6459
40
0.005
50
-66.9
51
113.1
0
LINE
8
BLACK
10
87.0156
20
-64.5018
11
85.1345
21
-65.4644
0
LINE
8
BLACK
10
87.0202
20
-64.5107
11
85.1391
21
-65.4733
0
ARC
8
BLACK
10
85.1368
20
-65.4689
40
0.005
50
117.1
51
297.1
0
ARC
8
BLACK
10
87.0179
20
-64.5063
40
0.005
50
-62.9
51
117.1
0
LINE
8
BLACK
10
85.1333
20
-65.4631
11
83.3858
21
-66.5172
0
LINE
8
BLACK
10
85.1385
20
-65.4716
11
83.391
21
-66.5258
0
ARC
8
BLACK
10
83.3884
20
-66.5215
40
0.005
50
121.1
51
301.1
0
ARC
8
BLACK
10
85.1359
20
-65.4673
40
0.005
50
-58.9
51
121.1
0
LINE
8
BLACK
10
83.3838
20
-66.515
11
81.1117
21
-68.1657
0
LINE
8
BLACK
10
83.3897
20
-66.5231
11
81.1176
21
-68.1738
0
ARC
8
BLACK
10
81.1147
20
-68.1698
40
0.005
50
126
51
306
0
ARC
8
BLACK
10
83.3867
20
-66.519
40
0.005
50
-54
51
126
0
LINE
8
BLACK
10
81.1095
20
-68.1636
11
79.0867
21
-69.9595
0
LINE
8
BLACK
10
81.1161
20
-68.1711
11
79.0933
21
-69.967
0
ARC
8
BLACK
10
79.09
20
-69.9632
40
0.005
50
131.6
51
311.6
0
ARC
8
BLACK
10
81.1128
20
-68.1673
40
0.005
50
-48.4
51
131.6
0
LINE
8
BLACK
10
79.0846
20
-69.9581
11
77.3003
21
-71.8783
0
LINE
8
BLACK
10
79.092
20
-69.965
11
77.3076
21
-71.8852
0
ARC
8
BLACK
10
77.3039
20
-71.8817
40
0.005
50
137.1
51
317.1
0
ARC
8
BLACK
10
79.0883
20
-69.9615
40
0.005
50
-42.9
51
137.1
0
LINE
8
BLACK
10
77.2983
20
-71.8772
11
75.7375
21
-73.8965
0
LINE
8
BLACK
10
77.3062
20
-71.8833
11
75.7455
21
-73.9026
0
ARC
8
BLACK
10
75.7415
20
-73.8996
40
0.005
50
142.3
51
322.3
0
ARC
8
BLACK
10
77.3022
20
-71.8802
40
0.005
50
-37.7
51
142.3
0
LINE
8
BLACK
10
75.7364
20
-73.8962
11
74.3862
21
-75.9913
0
LINE
8
BLACK
10
75.7448
20
-73.9016
11
74.3946
21
-75.9967
0
ARC
8
BLACK
10
74.3904
20
-75.994
40
0.005
50
147.2
51
327.2
0
ARC
8
BLACK
10
75.7406
20
-73.8989
40
0.005
50
-32.8
51
147.2
0
LINE
8
BLACK
10
74.3844
20
-75.9908
11
73.1132
21
-78.3915
0
LINE
8
BLACK
10
74.3932
20
-75.9954
11
73.1221
21
-78.3962
0
ARC
8
BLACK
10
73.1177
20
-78.3938
40
0.005
50
152.1
51
332.1
0
ARC
8
BLACK
10
74.3888
20
-75.9931
40
0.005
50
-27.9
51
152.1
0
LINE
8
BLACK
10
73.1106
20
-78.3907
11
72.0677
21
-80.8239
0
LINE
8
BLACK
10
73.1198
20
-78.3946
11
72.0769
21
-80.8279
0
ARC
8
BLACK
10
72.0723
20
-80.8259
40
0.005
50
156.8
51
336.8
0
ARC
8
BLACK
10
73.1152
20
-78.3926
40
0.005
50
-23.2
51
156.8
0
LINE
8
BLACK
10
72.0658
20
-80.8236
11
71.2328
21
-83.2565
0
LINE
8
BLACK
10
72.0752
20
-80.8268
11
71.2422
21
-83.2598
0
ARC
8
BLACK
10
71.2375
20
-83.2582
40
0.005
50
161.1
51
341.1
0
ARC
8
BLACK
10
72.0705
20
-80.8252
40
0.005
50
-18.9
51
161.1
0
LINE
8
BLACK
10
71.2304
20
-83.2562
11
70.5916
21
-85.657
0
LINE
8
BLACK
10
71.24
20
-83.2588
11
70.6013
21
-85.6595
0
ARC
8
BLACK
10
70.5964
20
-85.6582
40
0.005
50
165.1
51
345.1
0
ARC
8
BLACK
10
71.2352
20
-83.2575
40
0.005
50
-14.9
51
165.1
0
LINE
8
BLACK
10
70.5894
20
-85.6567
11
70.1229
21
-87.9914
0
LINE
8
BLACK
10
70.5992
20
-85.6587
11
70.1327
21
-87.9934
0
ARC
8
BLACK
10
70.1278
20
-87.9924
40
0.005
50
168.7
51
348.7
0
ARC
8
BLACK
10
70.5943
20
-85.6577
40
0.005
50
-11.3
51
168.7
0
LINE
8
BLACK
10
70.1216
20
-87.9915
11
69.8113
21
-90.2279
0
LINE
8
BLACK
10
70.1315
20
-87.9929
11
69.8212
21
-90.2292
0
ARC
8
BLACK
10
69.8163
20
-90.2286
40
0.005
50
172.1
51
352.1
0
ARC
8
BLACK
10
70.1266
20
-87.9922
40
0.005
50
-7.9
51
172.1
0
LINE
8
BLACK
10
69.8104
20
-90.228
11
69.6373
21
-92.3332
0
LINE
8
BLACK
10
69.8204
20
-90.2289
11
69.6473
21
-92.334
0
ARC
8
BLACK
10
69.6423
20
-92.3336
40
0.005
50
175.3
51
355.3
0
ARC
8
BLACK
10
69.8154
20
-90.2285
40
0.005
50
-4.7
51
175.3
0
LINE
8
BLACK
10
69.6356
20
-92.3334
11
69.5847
21
-94.2747
0
LINE
8
BLACK
10
69.6456
20
-92.3337
11
69.5947
21
-94.275
0
ARC
8
BLACK
10
69.5897
20
-94.2748
40
0.005
50
178.5
51
358.5
0
ARC
8
BLACK
10
69.6406
20
-92.3336
40
0.005
50
-1.5
51
178.5
0
LINE
8
BLACK
10
139.593
20
-94.2747
11
139.523
21
-92.0471
0
LINE
8
BLACK
10
139.583
20
-94.275
11
139.513
21
-92.0474
0
ARC
8
BLACK
10
139.518
20
-92.0472
40
0.005
50
361.8
51
541.8
0
ARC
8
BLACK
10
139.588
20
-94.2748
40
0.005
50
181.8
51
361.8
0
LINE
8
BLACK
10
139.521
20
-92.047
11
139.295
21
-89.6119
0
LINE
8
BLACK
10
139.511
20
-92.0479
11
139.285
21
-89.6128
0
ARC
8
BLACK
10
139.29
20
-89.6124
40
0.005
50
365.3
51
545.3
0
ARC
8
BLACK
10
139.516
20
-92.0474
40
0.005
50
185.3
51
365.3
0
LINE
8
BLACK
10
139.293
20
-89.6118
11
138.878
21
-87.0185
0
LINE
8
BLACK
10
139.283
20
-89.6133
11
138.868
21
-87.0201
0
ARC
8
BLACK
10
138.873
20
-87.0193
40
0.005
50
369.1
51
549.1
0
ARC
8
BLACK
10
139.288
20
-89.6126
40
0.005
50
189.1
51
369.1
0
LINE
8
BLACK
10
138.875
20
-87.0187
11
138.251
21
-84.3147
0
LINE
8
BLACK
10
138.865
20
-87.021
11
138.241
21
-84.317
0
ARC
8
BLACK
10
138.246
20
-84.3158
40
0.005
50
373
51
553
0
ARC
8
BLACK
10
138.87
20
-87.0198
40
0.005
50
193
51
373
0
LINE
8
BLACK
10
138.248
20
-84.3152
11
137.381
21
-81.5504
0
LINE
8
BLACK
10
138.238
20
-84.3182
11
137.372
21
-81.5534
0
ARC
8
BLACK
10
137.376
20
-81.5519
40
0.005
50
377.4
51
557.4
0
ARC
8
BLACK
10
138.243
20
-84.3167
40
0.005
50
197.4
51
377.4
0
LINE
8
BLACK
10
137.378
20
-81.5511
11
136.513
21
-79.3667
0
LINE
8
BLACK
10
137.369
20
-81.5547
11
136.504
21
-79.3704
0
ARC
8
BLACK
10
136.509
20
-79.3685
40
0.005
50
381.6
51
561.6
0
ARC
8
BLACK
10
137.374
20
-81.5529
40
0.005
50
201.6
51
381.6
0
LINE
8
BLACK
10
136.51
20
-79.3677
11
135.467
21
-77.1993
0
LINE
8
BLACK
10
136.501
20
-79.372
11
135.458
21
-77.2037
0
ARC
8
BLACK
10
135.462
20
-77.2015
40
0.005
50
385.7
51
565.7
0
ARC
8
BLACK
10
136.506
20
-79.3698
40
0.005
50
205.7
51
385.7
0
LINE
8
BLACK
10
135.464
20
-77.2004
11
134.23
21
-75.0713
0
LINE
8
BLACK
10
135.455
20
-77.2055
11
134.221
21
-75.0763
0
ARC
8
BLACK
10
134.225
20
-75.0738
40
0.005
50
390.1
51
570.1
0
ARC
8
BLACK
10
135.459
20
-77.203
40
0.005
50
210.1
51
390.1
0
LINE
8
BLACK
10
134.228
20
-75.0719
11
132.787
21
-73.0071
0
LINE
8
BLACK
10
134.219
20
-75.0777
11
132.779
21
-73.0128
0
ARC
8
BLACK
10
132.783
20
-73.01
40
0.005
50
394.9
51
574.9
0
ARC
8
BLACK
10
134.224
20
-75.0748
40
0.005
50
214.9
51
394.9
0
LINE
8
BLACK
10
132.785
20
-73.0081
11
131.13
21
-71.0282
0
LINE
8
BLACK
10
132.778
20
-73.0145
11
131.122
21
-71.0346
0
ARC
8
BLACK
10
131.126
20
-71.0314
40
0.005
50
399.9
51
579.9
0
ARC
8
BLACK
10
132.781
20
-73.0113
40
0.005
50
219.9
51
399.9
0
LINE
8
BLACK
10
131.127
20
-71.0298
11
129.572
21
-69.4635
0
LINE
8
BLACK
10
131.12
20
-71.0368
11
129.565
21
-69.4705
0
ARC
8
BLACK
10
129.569
20
-69.467
40
0.005
50
404.8
51
584.8
0
ARC
8
BLACK
10
131.124
20
-71.0333
40
0.005
50
224.8
51
404.8
0
LINE
8
BLACK
10
129.57
20
-69.465
11
127.848
21
-67.9885
0
LINE
8
BLACK
10
129.564
20
-69.4726
11
127.841
21
-67.9961
0
ARC
8
BLACK
10
127.844
20
-67.9923
40
0.005
50
409.4
51
589.4
0
ARC
8
BLACK
10
129.567
20
-69.4688
40
0.005
50
229.4
51
409.4
0
LINE
8
BLACK
10
127.845
20
-67.9907
11
125.948
21
-66.6173
0
LINE
8
BLACK
10
127.839
20
-67.9988
11
125.942
21
-66.6254
0
ARC
8
BLACK
10
125.945
20
-66.6214
40
0.005
50
414.1
51
594.1
0
ARC
8
BLACK
10
127.842
20
-67.9948
40
0.005
50
234.1
51
414.1
0
LINE
8
BLACK
10
125.946
20
-66.6196
11
123.865
21
-65.3646
0
LINE
8
BLACK
10
125.941
20
-66.6282
11
123.86
21
-65.3732
0
ARC
8
BLACK
10
123.863
20
-65.3689
40
0.005
50
418.9
51
598.9
0
ARC
8
BLACK
10
125.943
20
-66.6239
40
0.005
50
238.9
51
418.9
0
LINE
8
BLACK
10
123.864
20
-65.366
11
121.593
21
-64.2434
0
LINE
8
BLACK
10
123.86
20
-65.375
11
121.588
21
-64.2524
0
ARC
8
BLACK
10
121.591
20
-64.2479
40
0.005
50
423.7
51
603.7
0
ARC
8
BLACK
10
123.862
20
-65.3705
40
0.005
50
243.7
51
423.7
0
LINE
8
BLACK
10
121.592
20
-64.2442
11
119.123
21
-63.2666
0
LINE
8
BLACK
10
121.588
20
-64.2535
11
119.119
21
-63.2759
0
ARC
8
BLACK
10
119.121
20
-63.2713
40
0.005
50
428.4
51
608.4
0
ARC
8
BLACK
10
121.59
20
-64.2489
40
0.005
50
248.4
51
428.4
0
LINE
8
BLACK
10
119.122
20
-63.2684
11
116.606
21
-62.4898
0
LINE
8
BLACK
10
119.119
20
-63.278
11
116.603
21
-62.4993
0
ARC
8
BLACK
10
116.605
20
-62.4946
40
0.005
50
432.8
51
612.8
0
ARC
8
BLACK
10
119.12
20
-63.2732
40
0.005
50
252.8
51
432.8
0
LINE
8
BLACK
10
116.605
20
-62.4917
11
113.901
21
-61.8673
0
LINE
8
BLACK
10
116.603
20
-62.5014
11
113.898
21
-61.877
0
ARC
8
BLACK
10
113.9
20
-61.8721
40
0.005
50
437
51
617
0
ARC
8
BLACK
10
116.604
20
-62.4966
40
0.005
50
257
51
437
0
LINE
8
BLACK
10
113.9
20
-61.8703
11
111
21
-61.4059
0
LINE
8
BLACK
10
113.898
20
-61.8801
11
110.999
21
-61.4157
0
ARC
8
BLACK
10
111
20
-61.4108
40
0.005
50
440.9
51
620.9
0
ARC
8
BLACK
10
113.899
20
-61.8752
40
0.005
50
260.9
51
440.9
0
LINE
8
BLACK
10
111
20
-61.4101
11
107.898
21
-61.1224
0
LINE
8
BLACK
10
110.999
20
-61.4201
11
107.897
21
-61.1324
0
ARC
8
BLACK
10
107.898
20
-61.1274
40
0.005
50
444.7
51
624.7
0
ARC
8
BLACK
10
110.999
20
-61.4151
40
0.005
50
264.7
51
444.7
0
LINE
8
BLACK
10
107.898
20
-61.1247
11
104.588
21
-61.0265
0
LINE
8
BLACK
10
107.898
20
-61.1347
11
104.588
21
-61.0365
0
ARC
8
BLACK
10
104.588
20
-61.0315
40
0.005
50
448.3
51
628.3
0
ARC
8
BLACK
10
107.898
20
-61.1297
40
0.005
50
268.3
51
448.3
0
LINE
8
BLACK
10
127.593
20
-105.032
11
127.612
21
-104.55
0
LINE
8
BLACK
10
127.583
20
-105.032
11
127.602
21
-104.549
0
ARC
8
BLACK
10
127.607
20
-104.549
40
0.005
50
357.7
51
537.7
0
ARC
8
BLACK
10
127.588
20
-105.032
40
0.005
50
177.7
51
357.7
0
LINE
8
BLACK
10
127.612
20
-104.55
11
127.692
21
-104
0
LINE
8
BLACK
10
127.602
20
-104.549
11
127.682
21
-103.998
0
ARC
8
BLACK
10
127.687
20
-103.999
40
0.005
50
351.7
51
531.7
0
ARC
8
BLACK
10
127.607
20
-104.549
40
0.005
50
171.7
51
351.7
0
LINE
8
BLACK
10
127.692
20
-104
11
127.87
21
-103.416
0
LINE
8
BLACK
10
127.682
20
-103.998
11
127.861
21
-103.413
0
ARC
8
BLACK
10
127.866
20
-103.415
40
0.005
50
343
51
523
0
ARC
8
BLACK
10
127.687
20
-103.999
40
0.005
50
163
51
343
0
LINE
8
BLACK
10
127.87
20
-103.417
11
128.183
21
-102.832
0
LINE
8
BLACK
10
127.861
20
-103.412
11
128.174
21
-102.828
0
ARC
8
BLACK
10
128.179
20
-102.83
40
0.005
50
331.8
51
511.8
0
ARC
8
BLACK
10
127.865
20
-103.415
40
0.005
50
151.8
51
331.8
0
LINE
8
BLACK
10
128.182
20
-102.833
11
128.668
21
-102.282
0
LINE
8
BLACK
10
128.175
20
-102.826
11
128.66
21
-102.276
0
ARC
8
BLACK
10
128.664
20
-102.279
40
0.005
50
318.6
51
498.6
0
ARC
8
BLACK
10
128.179
20
-102.83
40
0.005
50
138.6
51
318.6
0
LINE
8
BLACK
10
128.667
20
-102.283
11
129.192
21
-101.895
0
LINE
8
BLACK
10
128.661
20
-102.275
11
129.186
21
-101.887
0
ARC
8
BLACK
10
129.189
20
-101.891
40
0.005
50
306.4
51
486.4
0
ARC
8
BLACK
10
128.664
20
-102.279
40
0.005
50
126.4
51
306.4
0
LINE
8
BLACK
10
129.191
20
-101.895
11
129.863
21
-101.566
0
LINE
8
BLACK
10
129.187
20
-101.886
11
129.859
21
-101.557
0
ARC
8
BLACK
10
129.861
20
-101.561
40
0.005
50
296.1
51
476.1
0
ARC
8
BLACK
10
129.189
20
-101.891
40
0.005
50
116.1
51
296.1
0
LINE
8
BLACK
10
129.862
20
-101.566
11
130.698
21
-101.31
0
LINE
8
BLACK
10
129.859
20
-101.556
11
130.695
21
-101.3
0
ARC
8
BLACK
10
130.696
20
-101.305
40
0.005
50
287
51
467
0
ARC
8
BLACK
10
129.861
20
-101.561
40
0.005
50
107
51
287
0
LINE
8
BLACK
10
130.697
20
-101.31
11
131.715
21
-101.145
0
LINE
8
BLACK
10
130.696
20
-101.3
11
131.713
21
-101.135
0
ARC
8
BLACK
10
131.714
20
-101.14
40
0.005
50
279.2
51
459.2
0
ARC
8
BLACK
10
130.696
20
-101.305
40
0.005
50
99.2
51
279.2
0
LINE
8
BLACK
10
131.714
20
-101.144
11
132.932
21
-101.086
0
LINE
8
BLACK
10
131.714
20
-101.134
11
132.931
21
-101.076
0
ARC
8
BLACK
10
132.931
20
-101.081
40
0.005
50
272.7
51
452.7
0
ARC
8
BLACK
10
131.714
20
-101.139
40
0.005
50
92.7
51
272.7
0
LINE
8
BLACK
10
132.593
20
-152.032
11
132.537
21
-151.214
0
LINE
8
BLACK
10
132.583
20
-152.032
11
132.527
21
-151.215
0
ARC
8
BLACK
10
132.532
20
-151.215
40
0.005
50
363.9
51
543.9
0
ARC
8
BLACK
10
132.588
20
-152.032
40
0.005
50
183.9
51
363.9
0
LINE
8
BLACK
10
132.537
20
-151.214
11
132.378
21
-150.528
0
LINE
8
BLACK
10
132.527
20
-151.216
11
132.369
21
-150.53
0
ARC
8
BLACK
10
132.374
20
-150.529
40
0.005
50
373
51
553
0
ARC
8
BLACK
10
132.532
20
-151.215
40
0.005
50
193
51
373
0
LINE
8
BLACK
10
132.378
20
-150.527
11
132.132
21
-149.955
0
LINE
8
BLACK
10
132.369
20
-150.531
11
132.122
21
-149.959
0
ARC
8
BLACK
10
132.127
20
-149.957
40
0.005
50
383.3
51
563.3
0
ARC
8
BLACK
10
132.373
20
-150.529
40
0.005
50
203.3
51
383.3
0
LINE
8
BLACK
10
132.131
20
-149.955
11
131.811
21
-149.48
0
LINE
8
BLACK
10
132.122
20
-149.96
11
131.803
21
-149.485
0
ARC
8
BLACK
10
131.807
20
-149.483
40
0.005
50
393.9
51
573.9
0
ARC
8
BLACK
10
132.127
20
-149.958
40
0.005
50
213.9
51
393.9
0
LINE
8
BLACK
10
131.81
20
-149.48
11
131.296
21
-148.967
0
LINE
8
BLACK
10
131.803
20
-149.487
11
131.289
21
-148.974
0
ARC
8
BLACK
10
131.292
20
-148.97
40
0.005
50
405.1
51
585.1
0
ARC
8
BLACK
10
131.807
20
-149.483
40
0.005
50
225.1
51
405.1
0
LINE
8
BLACK
10
131.295
20
-148.967
11
130.71
21
-148.554
0
LINE
8
BLACK
10
131.289
20
-148.975
11
130.705
21
-148.563
0
ARC
8
BLACK
10
130.708
20
-148.559
40
0.005
50
414.8
51
594.8
0
ARC
8
BLACK
10
131.292
20
-148.971
40
0.005
50
234.8
51
414.8
0
LINE
8
BLACK
10
130.71
20
-148.554
11
130.091
21
-148.201
0
LINE
8
BLACK
10
130.705
20
-148.563
11
130.086
21
-148.21
0
ARC
8
BLACK
10
130.088
20
-148.206
40
0.005
50
420.3
51
600.3
0
ARC
8
BLACK
10
130.707
20
-148.559
40
0.005
50
240.3
51
420.3
0
LINE
8
BLACK
10
130.091
20
-148.202
11
129.471
21
-147.867
0
LINE
8
BLACK
10
130.086
20
-148.21
11
129.467
21
-147.876
0
ARC
8
BLACK
10
129.469
20
-147.871
40
0.005
50
421.6
51
601.6
0
ARC
8
BLACK
10
130.088
20
-148.206
40
0.005
50
241.6
51
421.6
0
LINE
8
BLACK
10
129.472
20
-147.867
11
128.887
21
-147.509
0
LINE
8
BLACK
10
129.466
20
-147.876
11
128.882
21
-147.518
0
ARC
8
BLACK
10
128.885
20
-147.513
40
0.005
50
418.5
51
598.5
0
ARC
8
BLACK
10
129.469
20
-147.871
40
0.005
50
238.5
51
418.5
0
LINE
8
BLACK
10
128.887
20
-147.51
11
128.373
21
-147.088
0
LINE
8
BLACK
10
128.881
20
-147.518
11
128.367
21
-147.095
0
ARC
8
BLACK
10
128.37
20
-147.092
40
0.005
50
410.6
51
590.6
0
ARC
8
BLACK
10
128.884
20
-147.514
40
0.005
50
230.6
51
410.6
0
LINE
8
BLACK
10
128.373
20
-147.089
11
127.963
21
-146.562
0
LINE
8
BLACK
10
128.365
20
-147.095
11
127.955
21
-146.568
0
ARC
8
BLACK
10
127.959
20
-146.565
40
0.005
50
397.9
51
577.9
0
ARC
8
BLACK
10
128.369
20
-147.092
40
0.005
50
217.9
51
397.9
0
LINE
8
BLACK
10
127.963
20
-146.563
11
127.691
21
-145.89
0
LINE
8
BLACK
10
127.954
20
-146.567
11
127.682
21
-145.894
0
ARC
8
BLACK
10
127.687
20
-145.892
40
0.005
50
382
51
562
0
ARC
8
BLACK
10
127.959
20
-146.565
40
0.005
50
202
51
382
0
LINE
8
BLACK
10
127.691
20
-145.892
11
127.593
21
-145.031
0
LINE
8
BLACK
10
127.681
20
-145.893
11
127.583
21
-145.033
0
ARC
8
BLACK
10
127.588
20
-145.032
40
0.005
50
366.5
51
546.5
0
ARC
8
BLACK
10
127.686
20
-145.892
40
0.005
50
186.5
51
366.5
0
LINE
8
BLACK
10
95.8886
20
-69.527
11
93.5881
21
-69.8299
0
LINE
8
BLACK
10
95.8899
20
-69.5369
11
93.5894
21
-69.8398
0
ARC
8
BLACK
10
93.5888
20
-69.8348
40
0.005
50
97.5
51
277.5
0
ARC
8
BLACK
10
95.8893
20
-69.532
40
0.005
50
-82.5
51
97.5
0
LINE
8
BLACK
10
93.5876
20
-69.8281
11
91.5204
21
-70.2112
0
LINE
8
BLACK
10
93.5894
20
-69.8379
11
91.5222
21
-70.221
0
ARC
8
BLACK
10
91.5213
20
-70.2161
40
0.005
50
100.5
51
280.5
0
ARC
8
BLACK
10
93.5885
20
-69.833
40
0.005
50
-79.5
51
100.5
0
LINE
8
BLACK
10
91.5197
20
-70.2101
11
89.6747
21
-70.6839
0
LINE
8
BLACK
10
91.5222
20
-70.2198
11
89.6772
21
-70.6935
0
ARC
8
BLACK
10
89.676
20
-70.6887
40
0.005
50
104.4
51
284.4
0
ARC
8
BLACK
10
91.521
20
-70.215
40
0.005
50
-75.6
51
104.4
0
LINE
8
BLACK
10
89.6738
20
-70.6824
11
88.039
21
-71.2517
0
LINE
8
BLACK
10
89.6771
20
-70.6918
11
88.0423
21
-71.2611
0
ARC
8
BLACK
10
88.0406
20
-71.2564
40
0.005
50
109.2
51
289.2
0
ARC
8
BLACK
10
89.6755
20
-70.6871
40
0.005
50
-70.8
51
109.2
0
LINE
8
BLACK
10
88.0377
20
-71.2499
11
86.6019
21
-71.9225
0
LINE
8
BLACK
10
88.0419
20
-71.259
11
86.6061
21
-71.9316
0
ARC
8
BLACK
10
86.604
20
-71.927
40
0.005
50
115.1
51
295.1
0
ARC
8
BLACK
10
88.0398
20
-71.2545
40
0.005
50
-64.9
51
115.1
0
LINE
8
BLACK
10
86.6006
20
-71.9212
11
85.3716
21
-72.6861
0
LINE
8
BLACK
10
86.6058
20
-71.9296
11
85.3769
21
-72.6946
0
ARC
8
BLACK
10
85.3743
20
-72.6903
40
0.005
50
121.9
51
301.9
0
ARC
8
BLACK
10
86.6032
20
-71.9254
40
0.005
50
-58.1
51
121.9
0
LINE
8
BLACK
10
85.3703
20
-72.6854
11
84.3109
21
-73.5619
0
LINE
8
BLACK
10
85.3767
20
-72.6931
11
84.3172
21
-73.5696
0
ARC
8
BLACK
10
84.314
20
-73.5657
40
0.005
50
129.6
51
309.6
0
ARC
8
BLACK
10
85.3735
20
-72.6893
40
0.005
50
-50.4
51
129.6
0
LINE
8
BLACK
10
84.3091
20
-73.5611
11
83.408
21
-74.5549
0
LINE
8
BLACK
10
84.3165
20
-73.5678
11
83.4154
21
-74.5616
0
ARC
8
BLACK
10
83.4117
20
-74.5582
40
0.005
50
137.8
51
317.8
0
ARC
8
BLACK
10
84.3128
20
-73.5644
40
0.005
50
-42.2
51
137.8
0
LINE
8
BLACK
10
83.4067
20
-74.5547
11
82.6511
21
-75.6707
0
LINE
8
BLACK
10
83.415
20
-74.5603
11
82.6594
21
-75.6763
0
ARC
8
BLACK
10
82.6553
20
-75.6735
40
0.005
50
145.9
51
325.9
0
ARC
8
BLACK
10
83.4109
20
-74.5575
40
0.005
50
-34.1
51
145.9
0
LINE
8
BLACK
10
82.6495
20
-75.6707
11
81.9281
21
-77.1695
0
LINE
8
BLACK
10
82.6585
20
-75.675
11
81.9371
21
-77.1739
0
ARC
8
BLACK
10
81.9326
20
-77.1717
40
0.005
50
154.3
51
334.3
0
ARC
8
BLACK
10
82.654
20
-75.6728
40
0.005
50
-25.7
51
154.3
0
LINE
8
BLACK
10
81.9265
20
-77.1695
11
81.3768
21
-78.8614
0
LINE
8
BLACK
10
81.936
20
-77.1726
11
81.3863
21
-78.8645
0
ARC
8
BLACK
10
81.3815
20
-78.8629
40
0.005
50
162
51
342
0
ARC
8
BLACK
10
81.9312
20
-77.1711
40
0.005
50
-18
51
162
0
LINE
8
BLACK
10
81.3751
20
-78.8616
11
80.9824
21
-80.7581
0
LINE
8
BLACK
10
81.3849
20
-78.8636
11
80.9922
21
-80.7601
0
ARC
8
BLACK
10
80.9873
20
-80.7591
40
0.005
50
168.3
51
348.3
0
ARC
8
BLACK
10
81.38
20
-78.8626
40
0.005
50
-11.7
51
168.3
0
LINE
8
BLACK
10
80.9811
20
-80.7582
11
80.7219
21
-82.8688
0
LINE
8
BLACK
10
80.991
20
-80.7594
11
80.7318
21
-82.87
0
ARC
8
BLACK
10
80.7269
20
-82.8694
40
0.005
50
173
51
353
0
ARC
8
BLACK
10
80.986
20
-80.7588
40
0.005
50
-7
51
173
0
LINE
8
BLACK
10
80.7204
20
-82.8691
11
80.5816
21
-85.2049
0
LINE
8
BLACK
10
80.7304
20
-82.8696
11
80.5916
21
-85.2055
0
ARC
8
BLACK
10
80.5866
20
-85.2052
40
0.005
50
176.6
51
356.6
0
ARC
8
BLACK
10
80.7254
20
-82.8694
40
0.005
50
-3.4
51
176.6
0
LINE
8
BLACK
10
80.5788
20
-85.205
11
80.5384
21
-87.776
0
LINE
8
BLACK
10
80.5887
20
-85.2051
11
80.5484
21
-87.7762
0
ARC
8
BLACK
10
80.5434
20
-87.7761
40
0.005
50
179.1
51
359.1
0
ARC
8
BLACK
10
80.5837
20
-85.205
40
0.005
50
-0.9
51
179.1
0
LINE
8
BLACK
10
128.639
20
-87.776
11
128.601
21
-85.3167
0
LINE
8
BLACK
10
128.629
20
-87.7761
11
128.591
21
-85.3168
0
ARC
8
BLACK
10
128.596
20
-85.3167
40
0.005
50
360.9
51
540.9
0
ARC
8
BLACK
10
128.634
20
-87.7761
40
0.005
50
180.9
51
360.9
0
LINE
8
BLACK
10
128.599
20
-85.3165
11
128.473
21
-83.072
0
LINE
8
BLACK
10
128.589
20
-85.3171
11
128.463
21
-83.0725
0
ARC
8
BLACK
10
128.468
20
-83.0722
40
0.005
50
363.2
51
543.2
0
ARC
8
BLACK
10
128.594
20
-85.3168
40
0.005
50
183.2
51
363.2
0
LINE
8
BLACK
10
128.471
20
-83.0718
11
128.239
21
-81.0331
0
LINE
8
BLACK
10
128.461
20
-83.073
11
128.229
21
-81.0342
0
ARC
8
BLACK
10
128.234
20
-81.0337
40
0.005
50
366.5
51
546.5
0
ARC
8
BLACK
10
128.466
20
-83.0724
40
0.005
50
186.5
51
366.5
0
LINE
8
BLACK
10
128.238
20
-81.0329
11
127.883
21
-79.1911
0
LINE
8
BLACK
10
128.228
20
-81.0348
11
127.873
21
-79.1929
0
ARC
8
BLACK
10
127.878
20
-79.192
40
0.005
50
370.9
51
550.9
0
ARC
8
BLACK
10
128.233
20
-81.0338
40
0.005
50
190.9
51
370.9
0
LINE
8
BLACK
10
127.883
20
-79.1907
11
127.39
21
-77.5367
0
LINE
8
BLACK
10
127.873
20
-79.1935
11
127.38
21
-77.5396
0
ARC
8
BLACK
10
127.385
20
-77.5382
40
0.005
50
376.6
51
556.6
0
ARC
8
BLACK
10
127.878
20
-79.1921
40
0.005
50
196.6
51
376.6
0
LINE
8
BLACK
10
127.389
20
-77.5362
11
126.742
21
-76.0612
0
LINE
8
BLACK
10
127.38
20
-77.5403
11
126.732
21
-76.0652
0
ARC
8
BLACK
10
126.737
20
-76.0632
40
0.005
50
383.7
51
563.7
0
ARC
8
BLACK
10
127.385
20
-77.5383
40
0.005
50
203.7
51
383.7
0
LINE
8
BLACK
10
126.74
20
-76.0612
11
125.924
21
-74.7548
0
LINE
8
BLACK
10
126.732
20
-76.0665
11
125.915
21
-74.7601
0
ARC
8
BLACK
10
125.92
20
-74.7575
40
0.005
50
392
51
572
0
ARC
8
BLACK
10
126.736
20
-76.0638
40
0.005
50
212
51
392
0
LINE
8
BLACK
10
125.922
20
-74.7556
11
124.918
21
-73.6096
0
LINE
8
BLACK
10
125.914
20
-74.7622
11
124.911
21
-73.6162
0
ARC
8
BLACK
10
124.915
20
-73.6129
40
0.005
50
401.2
51
581.2
0
ARC
8
BLACK
10
125.918
20
-74.7589
40
0.005
50
221.2
51
401.2
0
LINE
8
BLACK
10
124.917
20
-73.6102
11
123.842
21
-72.7116
0
LINE
8
BLACK
10
124.91
20
-73.6179
11
123.836
21
-72.7193
0
ARC
8
BLACK
10
123.839
20
-72.7155
40
0.005
50
410.1
51
590.1
0
ARC
8
BLACK
10
124.913
20
-73.614
40
0.005
50
230.1
51
410.1
0
LINE
8
BLACK
10
123.841
20
-72.7125
11
122.591
21
-71.9286
0
LINE
8
BLACK
10
123.835
20
-72.7209
11
122.586
21
-71.9371
0
ARC
8
BLACK
10
122.588
20
-71.9328
40
0.005
50
417.9
51
597.9
0
ARC
8
BLACK
10
123.838
20
-72.7167
40
0.005
50
237.9
51
417.9
0
LINE
8
BLACK
10
122.59
20
-71.9296
11
121.152
21
-71.2561
0
LINE
8
BLACK
10
122.585
20
-71.9387
11
121.148
21
-71.2652
0
ARC
8
BLACK
10
121.15
20
-71.2606
40
0.005
50
424.9
51
604.9
0
ARC
8
BLACK
10
122.588
20
-71.9342
40
0.005
50
244.9
51
424.9
0
LINE
8
BLACK
10
121.151
20
-71.2565
11
119.514
21
-70.6863
0
LINE
8
BLACK
10
121.148
20
-71.2659
11
119.511
21
-70.6958
0
ARC
8
BLACK
10
119.512
20
-70.6911
40
0.005
50
430.8
51
610.8
0
ARC
8
BLACK
10
121.149
20
-71.2612
40
0.005
50
250.8
51
430.8
0
LINE
8
BLACK
10
119.513
20
-70.6869
11
117.665
21
-70.2124
0
LINE
8
BLACK
10
119.511
20
-70.6966
11
117.663
21
-70.2221
0
ARC
8
BLACK
10
117.664
20
-70.2172
40
0.005
50
435.6
51
615.6
0
ARC
8
BLACK
10
119.512
20
-70.6917
40
0.005
50
255.6
51
435.6
0
LINE
8
BLACK
10
117.665
20
-70.2129
11
115.594
21
-69.829
0
LINE
8
BLACK
10
117.663
20
-70.2227
11
115.592
21
-69.8388
0
ARC
8
BLACK
10
115.593
20
-69.8339
40
0.005
50
439.5
51
619.5
0
ARC
8
BLACK
10
117.664
20
-70.2178
40
0.005
50
259.5
51
439.5
0
LINE
8
BLACK
10
115.593
20
-69.8306
11
113.288
21
-69.5271
0
LINE
8
BLACK
10
115.592
20
-69.8405
11
113.287
21
-69.537
0
ARC
8
BLACK
10
113.287
20
-69.532
40
0.005
50
442.5
51
622.5
0
ARC
8
BLACK
10
115.593
20
-69.8355
40
0.005
50
262.5
51
442.5
0
LINE
8
BLACK
10
113.288
20
-69.5287
11
112.629
21
-69.4315
0
LINE
8
BLACK
10
113.286
20
-69.5386
11
112.628
21
-69.4414
0
ARC
8
BLACK
10
112.629
20
-69.4364
40
0.005
50
441.6
51
621.6
0
ARC
8
BLACK
10
113.287
20
-69.5336
40
0.005
50
261.6
51
441.6
0
LINE
8
BLACK
10
112.629
20
-69.4318
11
112.153
21
-69.3885
0
LINE
8
BLACK
10
112.628
20
-69.4418
11
112.152
21
-69.3985
0
ARC
8
BLACK
10
112.153
20
-69.3935
40
0.005
50
444.8
51
624.8
0
ARC
8
BLACK
10
112.629
20
-69.4368
40
0.005
50
264.8
51
444.8
0
LINE
8
BLACK
10
112.153
20
-69.3888
11
111.801
21
-69.3918
0
LINE
8
BLACK
10
112.153
20
-69.3988
11
111.801
21
-69.4018
0
ARC
8
BLACK
10
111.801
20
-69.3968
40
0.005
50
90.5
51
270.5
0
ARC
8
BLACK
10
112.153
20
-69.3938
40
0.005
50
-89.5
51
90.5
0
LINE
8
BLACK
10
111.8
20
-69.3916
11
111.377
21
-69.4631
0
LINE
8
BLACK
10
111.802
20
-69.4014
11
111.379
21
-69.4729
0
ARC
8
BLACK
10
111.378
20
-69.468
40
0.005
50
99.6
51
279.6
0
ARC
8
BLACK
10
111.801
20
-69.3965
40
0.005
50
-80.4
51
99.6
0
LINE
8
BLACK
10
111.377
20
-69.4627
11
110.905
21
-69.5873
0
LINE
8
BLACK
10
111.379
20
-69.4724
11
110.908
21
-69.597
0
ARC
8
BLACK
10
110.906
20
-69.5922
40
0.005
50
104.8
51
284.8
0
ARC
8
BLACK
10
111.378
20
-69.4675
40
0.005
50
-75.2
51
104.8
0
LINE
8
BLACK
10
110.905
20
-69.5869
11
110.589
21
-69.6603
0
LINE
8
BLACK
10
110.907
20
-69.5966
11
110.592
21
-69.6701
0
ARC
8
BLACK
10
110.59
20
-69.6652
40
0.005
50
103.1
51
283.1
0
ARC
8
BLACK
10
110.906
20
-69.5917
40
0.005
50
-76.9
51
103.1
0
LINE
8
BLACK
10
110.589
20
-69.66
11
110.187
21
-69.7353
0
LINE
8
BLACK
10
110.591
20
-69.6698
11
110.189
21
-69.7451
0
ARC
8
BLACK
10
110.188
20
-69.7402
40
0.005
50
100.6
51
280.6
0
ARC
8
BLACK
10
110.59
20
-69.6649
40
0.005
50
-79.4
51
100.6
0
LINE
8
BLACK
10
110.188
20
-69.7351
11
109.675
21
-69.809
0
LINE
8
BLACK
10
110.189
20
-69.745
11
109.676
21
-69.8189
0
ARC
8
BLACK
10
109.676
20
-69.814
40
0.005
50
98.2
51
278.2
0
ARC
8
BLACK
10
110.188
20
-69.7401
40
0.005
50
-81.8
51
98.2
0
LINE
8
BLACK
10
109.675
20
-69.8087
11
109.027
21
-69.8779
0
LINE
8
BLACK
10
109.676
20
-69.8186
11
109.028
21
-69.8879
0
ARC
8
BLACK
10
109.027
20
-69.8829
40
0.005
50
96.1
51
276.1
0
ARC
8
BLACK
10
109.676
20
-69.8136
40
0.005
50
-83.9
51
96.1
0
LINE
8
BLACK
10
109.027
20
-69.8771
11
108.219
21
-69.9379
0
LINE
8
BLACK
10
109.028
20
-69.8871
11
108.22
21
-69.9479
0
ARC
8
BLACK
10
108.219
20
-69.9429
40
0.005
50
94.3
51
274.3
0
ARC
8
BLACK
10
109.027
20
-69.8821
40
0.005
50
-85.7
51
94.3
0
LINE
8
BLACK
10
108.219
20
-69.9368
11
107.226
21
-69.9854
0
LINE
8
BLACK
10
108.219
20
-69.9468
11
107.227
21
-69.9954
0
ARC
8
BLACK
10
107.226
20
-69.9904
40
0.005
50
92.8
51
272.8
0
ARC
8
BLACK
10
108.219
20
-69.9418
40
0.005
50
-87.2
51
92.8
0
LINE
8
BLACK
10
107.226
20
-69.9846
11
106.024
21
-70.016
0
LINE
8
BLACK
10
107.226
20
-69.9945
11
106.024
21
-70.026
0
ARC
8
BLACK
10
106.024
20
-70.021
40
0.005
50
91.5
51
271.5
0
ARC
8
BLACK
10
107.226
20
-69.9895
40
0.005
50
-88.5
51
91.5
0
LINE
8
BLACK
10
106.024
20
-70.0152
11
104.588
21
-70.0277
0
LINE
8
BLACK
10
106.024
20
-70.0252
11
104.588
21
-70.0377
0
ARC
8
BLACK
10
104.588
20
-70.0327
40
0.005
50
90.5
51
270.5
0
ARC
8
BLACK
10
106.024
20
-70.0202
40
0.005
50
-89.5
51
90.5
0
LINE
8
BLACK
10
104.588
20
-70.0277
11
103.152
21
-70.0152
0
LINE
8
BLACK
10
104.588
20
-70.0377
11
103.152
21
-70.0252
0
ARC
8
BLACK
10
103.152
20
-70.0202
40
0.005
50
449.5
51
629.5
0
ARC
8
BLACK
10
104.588
20
-70.0327
40
0.005
50
269.5
51
449.5
0
LINE
8
BLACK
10
103.152
20
-70.016
11
101.95
21
-69.9846
0
LINE
8
BLACK
10
103.152
20
-70.026
11
101.95
21
-69.9945
0
ARC
8
BLACK
10
101.95
20
-69.9895
40
0.005
50
448.5
51
628.5
0
ARC
8
BLACK
10
103.152
20
-70.021
40
0.005
50
268.5
51
448.5
0
LINE
8
BLACK
10
101.95
20
-69.9854
11
100.958
21
-69.9368
0
LINE
8
BLACK
10
101.95
20
-69.9954
11
100.957
21
-69.9468
0
ARC
8
BLACK
10
100.957
20
-69.9418
40
0.005
50
447.2
51
627.2
0
ARC
8
BLACK
10
101.95
20
-69.9904
40
0.005
50
267.2
51
447.2
0
LINE
8
BLACK
10
100.958
20
-69.9379
11
100.15
21
-69.8771
0
LINE
8
BLACK
10
100.957
20
-69.9479
11
100.149
21
-69.8871
0
ARC
8
BLACK
10
100.149
20
-69.8821
40
0.005
50
445.7
51
625.7
0
ARC
8
BLACK
10
100.957
20
-69.9429
40
0.005
50
265.7
51
445.7
0
LINE
8
BLACK
10
100.15
20
-69.8779
11
99.5015
21
-69.8087
0
LINE
8
BLACK
10
100.149
20
-69.8879
11
99.5004
21
-69.8186
0
ARC
8
BLACK
10
99.501
20
-69.8136
40
0.005
50
443.9
51
623.9
0
ARC
8
BLACK
10
100.149
20
-69.8829
40
0.005
50
263.9
51
443.9
0
LINE
8
BLACK
10
99.5016
20
-69.809
11
98.9889
21
-69.7351
0
LINE
8
BLACK
10
99.5002
20
-69.8189
11
98.9874
21
-69.745
0
ARC
8
BLACK
10
98.9882
20
-69.7401
40
0.005
50
441.8
51
621.8
0
ARC
8
BLACK
10
99.5009
20
-69.814
40
0.005
50
261.8
51
441.8
0
LINE
8
BLACK
10
98.9891
20
-69.7353
11
98.587
21
-69.66
0
LINE
8
BLACK
10
98.9872
20
-69.7451
11
98.5852
21
-69.6698
0
ARC
8
BLACK
10
98.5861
20
-69.6649
40
0.005
50
439.4
51
619.4
0
ARC
8
BLACK
10
98.9881
20
-69.7402
40
0.005
50
259.4
51
439.4
0
LINE
8
BLACK
10
98.5872
20
-69.6603
11
98.2714
21
-69.5869
0
LINE
8
BLACK
10
98.5849
20
-69.6701
11
98.2692
21
-69.5966
0
ARC
8
BLACK
10
98.2703
20
-69.5917
40
0.005
50
436.9
51
616.9
0
ARC
8
BLACK
10
98.5861
20
-69.6652
40
0.005
50
256.9
51
436.9
0
LINE
8
BLACK
10
98.2715
20
-69.5873
11
97.7997
21
-69.4627
0
LINE
8
BLACK
10
98.2689
20
-69.597
11
97.7972
21
-69.4724
0
ARC
8
BLACK
10
97.7984
20
-69.4675
40
0.005
50
435.2
51
615.2
0
ARC
8
BLACK
10
98.2702
20
-69.5922
40
0.005
50
255.2
51
435.2
0
LINE
8
BLACK
10
97.7992
20
-69.4631
11
97.3765
21
-69.3916
0
LINE
8
BLACK
10
97.7975
20
-69.4729
11
97.3749
21
-69.4014
0
ARC
8
BLACK
10
97.3757
20
-69.3965
40
0.005
50
440.4
51
620.4
0
ARC
8
BLACK
10
97.7984
20
-69.468
40
0.005
50
260.4
51
440.4
0
LINE
8
BLACK
10
97.3757
20
-69.3918
11
97.0239
21
-69.3888
0
LINE
8
BLACK
10
97.3756
20
-69.4018
11
97.0238
21
-69.3988
0
ARC
8
BLACK
10
97.0238
20
-69.3938
40
0.005
50
449.5
51
629.5
0
ARC
8
BLACK
10
97.3757
20
-69.3968
40
0.005
50
269.5
51
449.5
0
LINE
8
BLACK
10
97.0233
20
-69.3885
11
96.5475
21
-69.4318
0
LINE
8
BLACK
10
97.0242
20
-69.3985
11
96.5484
21
-69.4418
0
ARC
8
BLACK
10
96.5479
20
-69.4368
40
0.005
50
95.2
51
275.2
0
ARC
8
BLACK
10
97.0238
20
-69.3935
40
0.005
50
-84.8
51
95.2
0
LINE
8
BLACK
10
96.5471
20
-69.4315
11
95.8888
21
-69.5287
0
LINE
8
BLACK
10
96.5486
20
-69.4414
11
95.8902
21
-69.5386
0
ARC
8
BLACK
10
95.8895
20
-69.5336
40
0.005
50
98.4
51
278.4
0
ARC
8
BLACK
10
96.5479
20
-69.4364
40
0.005
50
-81.6
51
98.4
0
LINE
8
BLACK
10
83.0933
20
-115.032
11
83.0933
21
-111.032
0
LINE
8
BLACK
10
83.0833
20
-115.032
11
83.0833
21
-111.032
0
ARC
8
BLACK
10
83.0883
20
-111.032
40
0.005
50
360
51
540
0
ARC
8
BLACK
10
83.0883
20
-115.032
40
0.005
50
180
51
360
0
LINE
8
BLACK
10
84.5933
20
-115.032
11
84.5933
21
-111.032
0
LINE
8
BLACK
10
84.5833
20
-115.032
11
84.5833
21
-111.032
0
ARC
8
BLACK
10
84.5883
20
-111.032
40
0.005
50
360
51
540
0
ARC
8
BLACK
10
84.5883
20
-115.032
40
0.005
50
180
51
360
0
LINE
8
BLACK
10
84.5933
20
-129.558
11
84.5933
21
-120.506
0
LINE
8
BLACK
10
84.5833
20
-129.558
11
84.5833
21
-120.506
0
ARC
8
BLACK
10
84.5883
20
-120.506
40
0.005
50
360
51
540
0
ARC
8
BLACK
10
84.5883
20
-129.558
40
0.005
50
180
51
360
0
LINE
8
BLACK
10
84.5883
20
-129.561
11
86.8416
21
-129.561
0
LINE
8
BLACK
10
84.5883
20
-129.551
11
86.8416
21
-129.551
0
ARC
8
BLACK
10
86.8416
20
-129.556
40
0.005
50
270
51
450
0
ARC
8
BLACK
10
84.5883
20
-129.556
40
0.005
50
90
51
270
0
LINE
8
BLACK
10
87.3373
20
-130.054
11
87.3377
21
-130.254
0
LINE
8
BLACK
10
87.3473
20
-130.054
11
87.3477
21
-130.254
0
ARC
8
BLACK
10
87.3427
20
-130.254
40
0.005
50
180.1
51
360.1
0
ARC
8
BLACK
10
87.3423
20
-130.054
40
0.005
50
0.1
51
180.1
0
LINE
8
BLACK
10
87.8434
20
-130.751
11
96.8434
21
-130.751
0
LINE
8
BLACK
10
87.8434
20
-130.741
11
96.8434
21
-130.741
0
ARC
8
BLACK
10
96.8434
20
-130.746
40
0.005
50
270
51
450
0
ARC
8
BLACK
10
87.8434
20
-130.746
40
0.005
50
90
51
270
0
LINE
8
BLACK
10
97.3321
20
-130.277
11
97.3325
21
-130.077
0
LINE
8
BLACK
10
97.3221
20
-130.277
11
97.3225
21
-130.077
0
ARC
8
BLACK
10
97.3275
20
-130.077
40
0.005
50
359.9
51
539.9
0
ARC
8
BLACK
10
97.3271
20
-130.277
40
0.005
50
179.9
51
359.9
0
LINE
8
BLACK
10
97.8282
20
-129.584
11
100.082
21
-129.584
0
LINE
8
BLACK
10
97.8282
20
-129.574
11
100.082
21
-129.574
0
ARC
8
BLACK
10
100.082
20
-129.579
40
0.005
50
270
51
450
0
ARC
8
BLACK
10
97.8282
20
-129.579
40
0.005
50
90
51
270
0
LINE
8
BLACK
10
102.089
20
-127.584
11
102.098
21
-122.532
0
LINE
8
BLACK
10
102.079
20
-127.584
11
102.088
21
-122.532
0
ARC
8
BLACK
10
102.093
20
-122.532
40
0.005
50
359.9
51
539.9
0
ARC
8
BLACK
10
102.084
20
-127.584
40
0.005
50
179.9
51
359.9
0
LINE
8
BLACK
10
100.095
20
-120.524
11
97.8416
21
-120.52
0
LINE
8
BLACK
10
100.095
20
-120.534
11
97.8416
21
-120.53
0
ARC
8
BLACK
10
97.8416
20
-120.525
40
0.005
50
449.9
51
629.9
0
ARC
8
BLACK
10
100.095
20
-120.529
40
0.005
50
269.9
51
449.9
0
LINE
8
BLACK
10
97.3473
20
-120.025
11
97.3477
21
-119.825
0
LINE
8
BLACK
10
97.3373
20
-120.025
11
97.3377
21
-119.825
0
ARC
8
BLACK
10
97.3427
20
-119.825
40
0.005
50
359.9
51
539.9
0
ARC
8
BLACK
10
97.3423
20
-120.025
40
0.005
50
179.9
51
359.9
0
LINE
8
BLACK
10
96.8434
20
-119.32
11
87.8434
21
-119.305
0
LINE
8
BLACK
10
96.8434
20
-119.33
11
87.8434
21
-119.315
0
ARC
8
BLACK
10
87.8434
20
-119.31
40
0.005
50
449.9
51
629.9
0
ARC
8
BLACK
10
96.8434
20
-119.325
40
0.005
50
269.9
51
449.9
0
LINE
8
BLACK
10
87.3375
20
-119.81
11
87.3375
21
-120.01
0
LINE
8
BLACK
10
87.3475
20
-119.81
11
87.3475
21
-120.01
0
ARC
8
BLACK
10
87.3425
20
-120.01
40
0.005
50
180
51
360
0
ARC
8
BLACK
10
87.3425
20
-119.81
40
0.005
50
0
51
180
0
LINE
8
BLACK
10
86.8416
20
-120.505
11
84.5883
21
-120.501
0
LINE
8
BLACK
10
86.8416
20
-120.515
11
84.5882
21
-120.511
0
ARC
8
BLACK
10
84.5883
20
-120.506
40
0.005
50
449.9
51
629.9
0
ARC
8
BLACK
10
86.8416
20
-120.51
40
0.005
50
269.9
51
449.9
0
LINE
8
BLACK
10
122.342
20
-120.511
11
124.595
21
-120.511
0
LINE
8
BLACK
10
122.342
20
-120.501
11
124.595
21
-120.501
0
ARC
8
BLACK
10
124.595
20
-120.506
40
0.005
50
270
51
450
0
ARC
8
BLACK
10
122.342
20
-120.506
40
0.005
50
90
51
270
0
LINE
8
BLACK
10
121.847
20
-120.006
11
121.847
21
-119.806
0
LINE
8
BLACK
10
121.837
20
-120.006
11
121.837
21
-119.806
0
ARC
8
BLACK
10
121.842
20
-119.806
40
0.005
50
360
51
540
0
ARC
8
BLACK
10
121.842
20
-120.006
40
0.005
50
180
51
360
0
LINE
8
BLACK
10
112.342
20
-119.311
11
121.342
21
-119.311
0
LINE
8
BLACK
10
112.342
20
-119.301
11
121.342
21
-119.301
0
ARC
8
BLACK
10
121.342
20
-119.306
40
0.005
50
270
51
450
0
ARC
8
BLACK
10
112.342
20
-119.306
40
0.005
50
90
51
270
0
LINE
8
BLACK
10
111.847
20
-120.006
11
111.847
21
-119.806
0
LINE
8
BLACK
10
111.837
20
-120.006
11
111.837
21
-119.806
0
ARC
8
BLACK
10
111.842
20
-119.806
40
0.005
50
360
51
540
0
ARC
8
BLACK
10
111.842
20
-120.006
40
0.005
50
180
51
360
0
LINE
8
BLACK
10
109.088
20
-120.511
11
111.342
21
-120.511
0
LINE
8
BLACK
10
109.088
20
-120.501
11
111.342
21
-120.501
0
ARC
8
BLACK
10
111.342
20
-120.506
40
0.005
50
270
51
450
0
ARC
8
BLACK
10
109.088
20
-120.506
40
0.005
50
90
51
270
0
LINE
8
BLACK
10
107.093
20
-127.558
11
107.093
21
-122.506
0
LINE
8
BLACK
10
107.083
20
-127.558
11
107.083
21
-122.506
0
ARC
8
BLACK
10
107.088
20
-122.506
40
0.005
50
360
51
540
0
ARC
8
BLACK
10
107.088
20
-127.558
40
0.005
50
180
51
360
0
LINE
8
BLACK
10
109.088
20
-129.563
11
111.342
21
-129.563
0
LINE
8
BLACK
10
109.088
20
-129.553
11
111.342
21
-129.553
0
ARC
8
BLACK
10
111.342
20
-129.558
40
0.005
50
270
51
450
0
ARC
8
BLACK
10
109.088
20
-129.558
40
0.005
50
90
51
270
0
LINE
8
BLACK
10
111.847
20
-130.258
11
111.847
21
-130.058
0
LINE
8
BLACK
10
111.837
20
-130.258
11
111.837
21
-130.058
0
ARC
8
BLACK
10
111.842
20
-130.058
40
0.005
50
360
51
540
0
ARC
8
BLACK
10
111.842
20
-130.258
40
0.005
50
180
51
360
0
LINE
8
BLACK
10
112.342
20
-130.763
11
121.342
21
-130.763
0
LINE
8
BLACK
10
112.342
20
-130.753
11
121.342
21
-130.753
0
ARC
8
BLACK
10
121.342
20
-130.758
40
0.005
50
270
51
450
0
ARC
8
BLACK
10
112.342
20
-130.758
40
0.005
50
90
51
270
0
LINE
8
BLACK
10
121.839
20
-130.254
11
121.839
21
-130.054
0
LINE
8
BLACK
10
121.829
20
-130.254
11
121.829
21
-130.054
0
ARC
8
BLACK
10
121.834
20
-130.054
40
0.005
50
359.9
51
539.9
0
ARC
8
BLACK
10
121.834
20
-130.254
40
0.005
50
179.9
51
359.9
0
LINE
8
BLACK
10
122.335
20
-129.561
11
124.588
21
-129.561
0
LINE
8
BLACK
10
122.335
20
-129.551
11
124.588
21
-129.551
0
ARC
8
BLACK
10
124.588
20
-129.556
40
0.005
50
270
51
450
0
ARC
8
BLACK
10
122.335
20
-129.556
40
0.005
50
90
51
270
0
LINE
8
BLACK
10
124.593
20
-129.558
11
124.593
21
-125.032
0
LINE
8
BLACK
10
124.583
20
-129.558
11
124.583
21
-125.032
0
ARC
8
BLACK
10
124.588
20
-125.032
40
0.005
50
360
51
540
0
ARC
8
BLACK
10
124.588
20
-129.558
40
0.005
50
180
51
360
0
LINE
8
BLACK
10
124.593
20
-125.032
11
124.601
21
-120.506
0
LINE
8
BLACK
10
124.583
20
-125.032
11
124.591
21
-120.506
0
ARC
8
BLACK
10
124.596
20
-120.506
40
0.005
50
359.9
51
539.9
0
ARC
8
BLACK
10
124.588
20
-125.032
40
0.005
50
179.9
51
359.9
0
LINE
8
BLACK
10
132.593
20
-154.032
11
132.593
21
-152.032
0
LINE
8
BLACK
10
132.583
20
-154.032
11
132.583
21
-152.032
0
ARC
8
BLACK
10
132.588
20
-152.032
40
0.005
50
360
51
540
0
ARC
8
BLACK
10
132.588
20
-154.032
40
0.005
50
180
51
360
0
LINE
8
BLACK
10
122.915
20
-158.037
11
128.588
21
-158.037
0
LINE
8
BLACK
10
122.915
20
-158.027
11
128.588
21
-158.027
0
ARC
8
BLACK
10
128.588
20
-158.032
40
0.005
50
270
51
450
0
ARC
8
BLACK
10
122.915
20
-158.032
40
0.005
50
90
51
270
0
LINE
8
BLACK
10
90.5883
20
-156.537
11
118.588
21
-156.537
0
LINE
8
BLACK
10
90.5883
20
-156.527
11
118.588
21
-156.527
0
ARC
8
BLACK
10
118.588
20
-156.532
40
0.005
50
270
51
450
0
ARC
8
BLACK
10
90.5883
20
-156.532
40
0.005
50
90
51
270
0
LINE
8
BLACK
10
80.5883
20
-158.037
11
86.2615
21
-158.037
0
LINE
8
BLACK
10
80.5883
20
-158.027
11
86.2615
21
-158.027
0
ARC
8
BLACK
10
86.2615
20
-158.032
40
0.005
50
270
51
450
0
ARC
8
BLACK
10
80.5883
20
-158.032
40
0.005
50
90
51
270
0
LINE
8
BLACK
10
76.5933
20
-154.032
11
76.5933
21
-152.032
0
LINE
8
BLACK
10
76.5833
20
-154.032
11
76.5833
21
-152.032
0
ARC
8
BLACK
10
76.5883
20
-152.032
40
0.005
50
360
51
540
0
ARC
8
BLACK
10
76.5883
20
-154.032
40
0.005
50
180
51
360
0
LINE
8
BLACK
10
81.5933
20
-145.032
11
81.5933
21
-105.032
0
LINE
8
BLACK
10
81.5833
20
-145.032
11
81.5833
21
-105.032
0
ARC
8
BLACK
10
81.5883
20
-105.032
40
0.005
50
360
51
540
0
ARC
8
BLACK
10
81.5883
20
-145.032
40
0.005
50
180
51
360
0
LINE
8
BLACK
10
70.752
20
-97.293
11
73.3717
21
-99.9127
0
LINE
8
BLACK
10
70.759
20
-97.2859
11
73.3788
21
-99.9057
0
ARC
8
BLACK
10
73.3752
20
-99.9092
40
0.005
50
225
51
405
0
ARC
8
BLACK
10
70.7555
20
-97.2895
40
0.005
50
45
51
225
0
LINE
8
BLACK
10
135.805
20
-99.9127
11
138.425
21
-97.293
0
LINE
8
BLACK
10
135.798
20
-99.9057
11
138.417
21
-97.2859
0
ARC
8
BLACK
10
138.421
20
-97.2895
40
0.005
50
315
51
495
0
ARC
8
BLACK
10
135.801
20
-99.9092
40
0.005
50
135
51
315
0
LINE
8
BLACK
10
127.593
20
-145.032
11
127.593
21
-105.032
0
LINE
8
BLACK
10
127.583
20
-145.032
11
127.583
21
-105.032
0
ARC
8
BLACK
10
127.588
20
-105.032
40
0.005
50
360
51
540
0
ARC
8
BLACK
10
127.588
20
-145.032
40
0.005
50
180
51
360
0
LINE
8
BLACK
10
124.593
20
-115.032
11
124.593
21
-111.032
0
LINE
8
BLACK
10
124.583
20
-115.032
11
124.583
21
-111.032
0
ARC
8
BLACK
10
124.588
20
-111.032
40
0.005
50
360
51
540
0
ARC
8
BLACK
10
124.588
20
-115.032
40
0.005
50
180
51
360
0
LINE
8
BLACK
10
126.093
20
-115.032
11
126.093
21
-111.032
0
LINE
8
BLACK
10
126.083
20
-115.032
11
126.083
21
-111.032
0
ARC
8
BLACK
10
126.088
20
-111.032
40
0.005
50
360
51
540
0
ARC
8
BLACK
10
126.088
20
-115.032
40
0.005
50
180
51
360
0
LINE
8
BLACK
10
126.093
20
-139.032
11
126.093
21
-135.032
0
LINE
8
BLACK
10
126.083
20
-139.032
11
126.083
21
-135.032
0
ARC
8
BLACK
10
126.088
20
-135.032
40
0.005
50
360
51
540
0
ARC
8
BLACK
10
126.088
20
-139.032
40
0.005
50
180
51
360
0
LINE
8
BLACK
10
124.593
20
-139.032
11
124.593
21
-135.032
0
LINE
8
BLACK
10
124.583
20
-139.032
11
124.583
21
-135.032
0
ARC
8
BLACK
10
124.588
20
-135.032
40
0.005
50
360
51
540
0
ARC
8
BLACK
10
124.588
20
-139.032
40
0.005
50
180
51
360
0
LINE
8
BLACK
10
83.0933
20
-139.032
11
83.0933
21
-135.032
0
LINE
8
BLACK
10
83.0833
20
-139.032
11
83.0833
21
-135.032
0
ARC
8
BLACK
10
83.0883
20
-135.032
40
0.005
50
360
51
540
0
ARC
8
BLACK
10
83.0883
20
-139.032
40
0.005
50
180
51
360
0
LINE
8
BLACK
10
84.5933
20
-139.032
11
84.5933
21
-135.032
0
LINE
8
BLACK
10
84.5833
20
-139.032
11
84.5833
21
-135.032
0
ARC
8
BLACK
10
84.5883
20
-135.032
40
0.005
50
360
51
540
0
ARC
8
BLACK
10
84.5883
20
-139.032
40
0.005
50
180
51
360
0
LINE
8
BLACK
10
80.547
20
-88.5614
11
80.547
21
-87.7761
0
LINE
8
BLACK
10
80.537
20
-88.5614
11
80.537
21
-87.7761
0
ARC
8
BLACK
10
80.542
20
-87.7761
40
0.005
50
360
51
540
0
ARC
8
BLACK
10
80.542
20
-88.5614
40
0.005
50
180
51
360
0
LINE
8
BLACK
10
81.4062
20
-91.385
11
83.6931
21
-94.7248
0
LINE
8
BLACK
10
81.4145
20
-91.3794
11
83.7013
21
-94.7192
0
ARC
8
BLACK
10
83.6972
20
-94.722
40
0.005
50
214.4
51
394.4
0
ARC
8
BLACK
10
81.4104
20
-91.3822
40
0.005
50
34.4
51
214.4
0
LINE
8
BLACK
10
86.1726
20
-96.037
11
96.0105
21
-96.037
0
LINE
8
BLACK
10
86.1726
20
-96.027
11
96.0105
21
-96.027
0
ARC
8
BLACK
10
96.0105
20
-96.032
40
0.005
50
270
51
450
0
ARC
8
BLACK
10
86.1726
20
-96.032
40
0.005
50
90
51
270
0
LINE
8
BLACK
10
97.1265
20
-95.822
11
101.054
21
-94.2513
0
LINE
8
BLACK
10
97.1228
20
-95.8128
11
101.05
21
-94.242
0
ARC
8
BLACK
10
101.052
20
-94.2466
40
0.005
50
291.8
51
471.8
0
ARC
8
BLACK
10
97.1247
20
-95.8174
40
0.005
50
111.8
51
291.8
0
LINE
8
BLACK
10
102.166
20
-94.037
11
107.011
21
-94.037
0
LINE
8
BLACK
10
102.166
20
-94.027
11
107.011
21
-94.027
0
ARC
8
BLACK
10
107.011
20
-94.032
40
0.005
50
270
51
450
0
ARC
8
BLACK
10
102.166
20
-94.032
40
0.005
50
90
51
270
0
LINE
8
BLACK
10
108.123
20
-94.2513
11
112.05
21
-95.822
0
LINE
8
BLACK
10
108.127
20
-94.242
11
112.054
21
-95.8128
0
ARC
8
BLACK
10
112.052
20
-95.8174
40
0.005
50
248.2
51
428.2
0
ARC
8
BLACK
10
108.125
20
-94.2466
40
0.005
50
68.2
51
248.2
0
LINE
8
BLACK
10
113.166
20
-96.037
11
123.004
21
-96.037
0
LINE
8
BLACK
10
113.166
20
-96.027
11
123.004
21
-96.027
0
ARC
8
BLACK
10
123.004
20
-96.032
40
0.005
50
270
51
450
0
ARC
8
BLACK
10
113.166
20
-96.032
40
0.005
50
90
51
270
0
LINE
8
BLACK
10
125.483
20
-94.7249
11
127.77
21
-91.385
0
LINE
8
BLACK
10
125.475
20
-94.7192
11
127.762
21
-91.3794
0
ARC
8
BLACK
10
127.766
20
-91.3822
40
0.005
50
325.6
51
505.6
0
ARC
8
BLACK
10
125.479
20
-94.722
40
0.005
50
145.6
51
325.6
0
LINE
8
BLACK
10
128.639
20
-88.5614
11
128.639
21
-87.7761
0
LINE
8
BLACK
10
128.629
20
-88.5614
11
128.629
21
-87.7761
0
ARC
8
BLACK
10
128.634
20
-87.7761
40
0.005
50
360
51
540
0
ARC
8
BLACK
10
128.634
20
-88.5614
40
0.005
50
180
51
360
0
ARC
8
BLACK
10
83.8383
20
-115.031
40
0.75
50
-0.1
51
-180
0
ARC
8
BLACK
10
83.8383
20
-111.033
40
0.75
50
179.9
51
0
0
ARC
8
BLACK
10
86.8424
20
-130.055
40
0.5
50
90
51
0.1
0
ARC
8
BLACK
10
87.8427
20
-130.253
40
0.500072
50
-90
51
-179.9
0
ARC
8
BLACK
10
96.8284
20
-130.24
40
0.500078
50
-4.3
51
-88.3
0
ARC
8
BLACK
10
97.8274
20
-130.078
40
0.5
50
179.9
51
89.9
0
ARC
8
BLACK
10
100.084
20
-127.581
40
2
50
-0.1
51
-90.1
0
ARC
8
BLACK
10
100.092
20
-122.529
40
2
50
89.8
51
-0.1
0
ARC
8
BLACK
10
97.8424
20
-120.026
40
0.500072
50
269.8
51
179.9
0
ARC
8
BLACK
10
96.8426
20
-119.824
40
0.5
50
89.9
51
-0.1
0
ARC
8
BLACK
10
87.8427
20
-119.811
40
0.500072
50
179.8
51
89.9
0
ARC
8
BLACK
10
86.8424
20
-120.009
40
0.499999
50
-0.1
51
-90.1
0
ARC
8
BLACK
10
122.342
20
-120.006
40
0.500072
50
-90.1
51
-180
0
ARC
8
BLACK
10
121.342
20
-119.806
40
0.5
50
89.9
51
0
0
ARC
8
BLACK
10
112.342
20
-119.806
40
0.500072
50
179.9
51
90
0
ARC
8
BLACK
10
111.342
20
-120.006
40
0.500072
50
-0.1
51
-90
0
ARC
8
BLACK
10
109.088
20
-122.506
40
2
50
179.9
51
90
0
ARC
8
BLACK
10
109.088
20
-127.558
40
2
50
269.9
51
180
0
ARC
8
BLACK
10
111.342
20
-130.058
40
0.5
50
89.9
51
0
0
ARC
8
BLACK
10
112.342
20
-130.258
40
0.500072
50
-90.1
51
-180
0
ARC
8
BLACK
10
121.334
20
-130.258
40
0.500075
50
0.4
51
-89.1
0
ARC
8
BLACK
10
122.334
20
-130.055
40
0.499999
50
179.9
51
89.9
0
ARC
8
BLACK
10
128.588
20
-154.032
40
4
50
-0.1
51
-90
0
ARC
8
BLACK
10
80.5883
20
-154.032
40
4
50
269.9
51
180
0
ARC
8
BLACK
10
76.2037
20
-97.0807
40
4.00007
50
-89.5
51
-135
0
ARC
8
BLACK
10
73.5839
20
-94.461
40
4.00002
50
224.9
51
177.3
0
ARC
8
BLACK
10
135.593
20
-94.461
40
4.00002
50
2.6
51
-45
0
ARC
8
BLACK
10
132.973
20
-97.0807
40
4.00008
50
-45.1
51
-90.6
0
ARC
8
BLACK
10
125.338
20
-115.032
40
0.75
50
359.9
51
180
0
ARC
8
BLACK
10
125.338
20
-111.032
40
0.75
50
179.9
51
0
0
ARC
8
BLACK
10
125.338
20
-135.032
40
0.75
50
179.9
51
0
0
ARC
8
BLACK
10
125.338
20
-139.032
40
0.75
50
359.9
51
180
0
ARC
8
BLACK
10
83.8383
20
-139.031
40
0.75
50
-0.1
51
-180
0
ARC
8
BLACK
10
83.8383
20
-135.033
40
0.75
50
179.9
51
0
0
ARC
8
BLACK
10
85.5421
20
-88.5614
40
5.0001
50
-145.7
51
-180
0
ARC
8
BLACK
10
86.1726
20
-93.032
40
3.00005
50
-90.1
51
-145.7
0
ARC
8
BLACK
10
96.0105
20
-93.0319
40
3.00009
50
-68.3
51
-90
0
ARC
8
BLACK
10
102.166
20
-97.0321
40
3.00009
50
111.7
51
90
0
ARC
8
BLACK
10
107.01
20
-97.0321
40
3.00009
50
89.9
51
68.2
0
ARC
8
BLACK
10
113.166
20
-93.0319
40
3.00009
50
-90.1
51
-111.8
0
ARC
8
BLACK
10
123.004
20
-93.032
40
3.00004
50
-34.4
51
-90
0
ARC
8
BLACK
10
123.634
20
-88.5614
40
5.0001
50
0
51
-34.3
0
LINE
8
BLACK
10
87.55
20
-105.15
11
87.55
21
-105.75
0
LINE
8
BLACK
10
87.85
20
-105.15
11
87.85
21
-105.75
0
ARC
8
BLACK
10
87.7
20
-105.75
40
0.15
50
180
51
360
0
ARC
8
BLACK
10
87.7
20
-105.15
40
0.15
50
0
51
180
0
LINE
8
BLACK
10
88.05
20
-105.15
11
88.05
21
-105.75
0
LINE
8
BLACK
10
88.35
20
-105.15
11
88.35
21
-105.75
0
ARC
8
BLACK
10
88.2
20
-105.75
40
0.15
50
180
51
360
0
ARC
8
BLACK
10
88.2
20
-105.15
40
0.15
50
0
51
180
0
LINE
8
BLACK
10
88.55
20
-105.15
11
88.55
21
-105.75
0
LINE
8
BLACK
10
88.85
20
-105.15
11
88.85
21
-105.75
0
ARC
8
BLACK
10
88.7
20
-105.75
40
0.15
50
180
51
360
0
ARC
8
BLACK
10
88.7
20
-105.15
40
0.15
50
0
51
180
0
LINE
8
BLACK
10
89.05
20
-105.15
11
89.05
21
-105.75
0
LINE
8
BLACK
10
89.35
20
-105.15
11
89.35
21
-105.75
0
ARC
8
BLACK
10
89.2
20
-105.75
40
0.15
50
180
51
360
0
ARC
8
BLACK
10
89.2
20
-105.15
40
0.15
50
0
51
180
0
LINE
8
BLACK
10
90.3
20
-106.1
11
89.7
21
-106.1
0
LINE
8
BLACK
10
90.3
20
-106.4
11
89.7
21
-106.4
0
ARC
8
BLACK
10
89.7
20
-106.25
40
0.15
50
450
51
630
0
ARC
8
BLACK
10
90.3
20
-106.25
40
0.15
50
270
51
450
0
LINE
8
BLACK
10
90.3
20
-106.6
11
89.7
21
-106.6
0
LINE
8
BLACK
10
90.3
20
-106.9
11
89.7
21
-106.9
0
ARC
8
BLACK
10
89.7
20
-106.75
40
0.15
50
450
51
630
0
ARC
8
BLACK
10
90.3
20
-106.75
40
0.15
50
270
51
450
0
LINE
8
BLACK
10
90.3
20
-107.1
11
89.7
21
-107.1
0
LINE
8
BLACK
10
90.3
20
-107.4
11
89.7
21
-107.4
0
ARC
8
BLACK
10
89.7
20
-107.25
40
0.15
50
450
51
630
0
ARC
8
BLACK
10
90.3
20
-107.25
40
0.15
50
270
51
450
0
LINE
8
BLACK
10
90.3
20
-107.6
11
89.7
21
-107.6
0
LINE
8
BLACK
10
90.3
20
-107.9
11
89.7
21
-107.9
0
ARC
8
BLACK
10
89.7
20
-107.75
40
0.15
50
450
51
630
0
ARC
8
BLACK
10
90.3
20
-107.75
40
0.15
50
270
51
450
0
LINE
8
BLACK
10
89.35
20
-108.85
11
89.35
21
-108.25
0
LINE
8
BLACK
10
89.05
20
-108.85
11
89.05
21
-108.25
0
ARC
8
BLACK
10
89.2
20
-108.25
40
0.15
50
360
51
540
0
ARC
8
BLACK
10
89.2
20
-108.85
40
0.15
50
180
51
360
0
LINE
8
BLACK
10
88.85
20
-108.85
11
88.85
21
-108.25
0
LINE
8
BLACK
10
88.55
20
-108.85
11
88.55
21
-108.25
0
ARC
8
BLACK
10
88.7
20
-108.25
40
0.15
50
360
51
540
0
ARC
8
BLACK
10
88.7
20
-108.85
40
0.15
50
180
51
360
0
LINE
8
BLACK
10
88.35
20
-108.85
11
88.35
21
-108.25
0
LINE
8
BLACK
10
88.05
20
-108.85
11
88.05
21
-108.25
0
ARC
8
BLACK
10
88.2
20
-108.25
40
0.15
50
360
51
540
0
ARC
8
BLACK
10
88.2
20
-108.85
40
0.15
50
180
51
360
0
LINE
8
BLACK
10
87.85
20
-108.85
11
87.85
21
-108.25
0
LINE
8
BLACK
10
87.55
20
-108.85
11
87.55
21
-108.25
0
ARC
8
BLACK
10
87.7
20
-108.25
40
0.15
50
360
51
540
0
ARC
8
BLACK
10
87.7
20
-108.85
40
0.15
50
180
51
360
0
LINE
8
BLACK
10
86.6
20
-107.9
11
87.2
21
-107.9
0
LINE
8
BLACK
10
86.6
20
-107.6
11
87.2
21
-107.6
0
ARC
8
BLACK
10
87.2
20
-107.75
40
0.15
50
270
51
450
0
ARC
8
BLACK
10
86.6
20
-107.75
40
0.15
50
90
51
270
0
LINE
8
BLACK
10
86.6
20
-107.4
11
87.2
21
-107.4
0
LINE
8
BLACK
10
86.6
20
-107.1
11
87.2
21
-107.1
0
ARC
8
BLACK
10
87.2
20
-107.25
40
0.15
50
270
51
450
0
ARC
8
BLACK
10
86.6
20
-107.25
40
0.15
50
90
51
270
0
LINE
8
BLACK
10
86.6
20
-106.9
11
87.2
21
-106.9
0
LINE
8
BLACK
10
86.6
20
-106.6
11
87.2
21
-106.6
0
ARC
8
BLACK
10
87.2
20
-106.75
40
0.15
50
270
51
450
0
ARC
8
BLACK
10
86.6
20
-106.75
40
0.15
50
90
51
270
0
LINE
8
BLACK
10
86.6
20
-106.4
11
87.2
21
-106.4
0
LINE
8
BLACK
10
86.6
20
-106.1
11
87.2
21
-106.1
0
ARC
8
BLACK
10
87.2
20
-106.25
40
0.15
50
270
51
450
0
ARC
8
BLACK
10
86.6
20
-106.25
40
0.15
50
90
51
270
0
LINE
8
BLACK
10
87.605
20
-106.995
11
87.605
21
-107.845
0
LINE
8
BLACK
10
87.605
20
-107.845
11
88.455
21
-107.845
0
LINE
8
BLACK
10
88.455
20
-107.845
11
88.455
21
-106.995
0
LINE
8
BLACK
10
88.455
20
-106.995
11
87.605
21
-106.995
0
LINE
8
BLACK
10
88.445
20
-106.155
11
88.445
21
-107.005
0
LINE
8
BLACK
10
88.445
20
-107.005
11
89.295
21
-107.005
0
LINE
8
BLACK
10
89.295
20
-107.005
11
89.295
21
-106.155
0
LINE
8
BLACK
10
89.295
20
-106.155
11
88.445
21
-106.155
0
LINE
8
BLACK
10
87.605
20
-106.155
11
87.605
21
-107.005
0
LINE
8
BLACK
10
87.605
20
-107.005
11
88.455
21
-107.005
0
LINE
8
BLACK
10
88.455
20
-107.005
11
88.455
21
-106.155
0
LINE
8
BLACK
10
88.455
20
-106.155
11
87.605
21
-106.155
0
LINE
8
BLACK
10
88.445
20
-106.995
11
88.445
21
-107.845
0
LINE
8
BLACK
10
88.445
20
-107.845
11
89.295
21
-107.845
0
LINE
8
BLACK
10
89.295
20
-107.845
11
89.295
21
-106.995
0
LINE
8
BLACK
10
89.295
20
-106.995
11
88.445
21
-106.995
0
LINE
8
BLACK
10
122.52
20
-106.1
11
121.92
21
-106.1
0
LINE
8
BLACK
10
122.52
20
-106.4
11
121.92
21
-106.4
0
ARC
8
BLACK
10
121.92
20
-106.25
40
0.15
50
450
51
630
0
ARC
8
BLACK
10
122.52
20
-106.25
40
0.15
50
270
51
450
0
LINE
8
BLACK
10
122.52
20
-106.6
11
121.92
21
-106.6
0
LINE
8
BLACK
10
122.52
20
-106.9
11
121.92
21
-106.9
0
ARC
8
BLACK
10
121.92
20
-106.75
40
0.15
50
450
51
630
0
ARC
8
BLACK
10
122.52
20
-106.75
40
0.15
50
270
51
450
0
LINE
8
BLACK
10
122.52
20
-107.1
11
121.92
21
-107.1
0
LINE
8
BLACK
10
122.52
20
-107.4
11
121.92
21
-107.4
0
ARC
8
BLACK
10
121.92
20
-107.25
40
0.15
50
450
51
630
0
ARC
8
BLACK
10
122.52
20
-107.25
40
0.15
50
270
51
450
0
LINE
8
BLACK
10
122.52
20
-107.6
11
121.92
21
-107.6
0
LINE
8
BLACK
10
122.52
20
-107.9
11
121.92
21
-107.9
0
ARC
8
BLACK
10
121.92
20
-107.75
40
0.15
50
450
51
630
0
ARC
8
BLACK
10
122.52
20
-107.75
40
0.15
50
270
51
450
0
LINE
8
BLACK
10
121.57
20
-108.85
11
121.57
21
-108.25
0
LINE
8
BLACK
10
121.27
20
-108.85
11
121.27
21
-108.25
0
ARC
8
BLACK
10
121.42
20
-108.25
40
0.15
50
360
51
540
0
ARC
8
BLACK
10
121.42
20
-108.85
40
0.15
50
180
51
360
0
LINE
8
BLACK
10
121.07
20
-108.85
11
121.07
21
-108.25
0
LINE
8
BLACK
10
120.77
20
-108.85
11
120.77
21
-108.25
0
ARC
8
BLACK
10
120.92
20
-108.25
40
0.15
50
360
51
540
0
ARC
8
BLACK
10
120.92
20
-108.85
40
0.15
50
180
51
360
0
LINE
8
BLACK
10
120.57
20
-108.85
11
120.57
21
-108.25
0
LINE
8
BLACK
10
120.27
20
-108.85
11
120.27
21
-108.25
0
ARC
8
BLACK
10
120.42
20
-108.25
40
0.15
50
360
51
540
0
ARC
8
BLACK
10
120.42
20
-108.85
40
0.15
50
180
51
360
0
LINE
8
BLACK
10
120.07
20
-108.85
11
120.07
21
-108.25
0
LINE
8
BLACK
10
119.77
20
-108.85
11
119.77
21
-108.25
0
ARC
8
BLACK
10
119.92
20
-108.25
40
0.15
50
360
51
540
0
ARC
8
BLACK
10
119.92
20
-108.85
40
0.15
50
180
51
360
0
LINE
8
BLACK
10
118.82
20
-107.9
11
119.42
21
-107.9
0
LINE
8
BLACK
10
118.82
20
-107.6
11
119.42
21
-107.6
0
ARC
8
BLACK
10
119.42
20
-107.75
40
0.15
50
270
51
450
0
ARC
8
BLACK
10
118.82
20
-107.75
40
0.15
50
90
51
270
0
LINE
8
BLACK
10
118.82
20
-107.4
11
119.42
21
-107.4
0
LINE
8
BLACK
10
118.82
20
-107.1
11
119.42
21
-107.1
0
ARC
8
BLACK
10
119.42
20
-107.25
40
0.15
50
270
51
450
0
ARC
8
BLACK
10
118.82
20
-107.25
40
0.15
50
90
51
270
0
LINE
8
BLACK
10
118.82
20
-106.9
11
119.42
21
-106.9
0
LINE
8
BLACK
10
118.82
20
-106.6
11
119.42
21
-106.6
0
ARC
8
BLACK
10
119.42
20
-106.75
40
0.15
50
270
51
450
0
ARC
8
BLACK
10
118.82
20
-106.75
40
0.15
50
90
51
270
0
LINE
8
BLACK
10
118.82
20
-106.4
11
119.42
21
-106.4
0
LINE
8
BLACK
10
118.82
20
-106.1
11
119.42
21
-106.1
0
ARC
8
BLACK
10
119.42
20
-106.25
40
0.15
50
270
51
450
0
ARC
8
BLACK
10
118.82
20
-106.25
40
0.15
50
90
51
270
0
LINE
8
BLACK
10
119.77
20
-105.15
11
119.77
21
-105.75
0
LINE
8
BLACK
10
120.07
20
-105.15
11
120.07
21
-105.75
0
ARC
8
BLACK
10
119.92
20
-105.75
40
0.15
50
180
51
360
0
ARC
8
BLACK
10
119.92
20
-105.15
40
0.15
50
0
51
180
0
LINE
8
BLACK
10
120.27
20
-105.15
11
120.27
21
-105.75
0
LINE
8
BLACK
10
120.57
20
-105.15
11
120.57
21
-105.75
0
ARC
8
BLACK
10
120.42
20
-105.75
40
0.15
50
180
51
360
0
ARC
8
BLACK
10
120.42
20
-105.15
40
0.15
50
0
51
180
0
LINE
8
BLACK
10
120.77
20
-105.15
11
120.77
21
-105.75
0
LINE
8
BLACK
10
121.07
20
-105.15
11
121.07
21
-105.75
0
ARC
8
BLACK
10
120.92
20
-105.75
40
0.15
50
180
51
360
0
ARC
8
BLACK
10
120.92
20
-105.15
40
0.15
50
0
51
180
0
LINE
8
BLACK
10
121.27
20
-105.15
11
121.27
21
-105.75
0
LINE
8
BLACK
10
121.57
20
-105.15
11
121.57
21
-105.75
0
ARC
8
BLACK
10
121.42
20
-105.75
40
0.15
50
180
51
360
0
ARC
8
BLACK
10
121.42
20
-105.15
40
0.15
50
0
51
180
0
LINE
8
BLACK
10
120.675
20
-106.155
11
119.825
21
-106.155
0
LINE
8
BLACK
10
119.825
20
-106.155
11
119.825
21
-107.005
0
LINE
8
BLACK
10
119.825
20
-107.005
11
120.675
21
-107.005
0
LINE
8
BLACK
10
120.675
20
-107.005
11
120.675
21
-106.155
0
LINE
8
BLACK
10
121.515
20
-106.995
11
120.665
21
-106.995
0
LINE
8
BLACK
10
120.665
20
-106.995
11
120.665
21
-107.845
0
LINE
8
BLACK
10
120.665
20
-107.845
11
121.515
21
-107.845
0
LINE
8
BLACK
10
121.515
20
-107.845
11
121.515
21
-106.995
0
LINE
8
BLACK
10
121.515
20
-106.155
11
120.665
21
-106.155
0
LINE
8
BLACK
10
120.665
20
-106.155
11
120.665
21
-107.005
0
LINE
8
BLACK
10
120.665
20
-107.005
11
121.515
21
-107.005
0
LINE
8
BLACK
10
121.515
20
-107.005
11
121.515
21
-106.155
0
LINE
8
BLACK
10
120.675
20
-106.995
11
119.825
21
-106.995
0
LINE
8
BLACK
10
119.825
20
-106.995
11
119.825
21
-107.845
0
LINE
8
BLACK
10
119.825
20
-107.845
11
120.675
21
-107.845
0
LINE
8
BLACK
10
120.675
20
-107.845
11
120.675
21
-106.995
0
CIRCLE
8
BLACK
10
120.035
20
-111.78
40
0.8
0
CIRCLE
8
BLACK
10
118.765
20
-114.32
40
0.8
0
CIRCLE
8
BLACK
10
117.495
20
-111.78
40
0.8
0
CIRCLE
8
BLACK
10
116.225
20
-114.32
40
0.8
0
CIRCLE
8
BLACK
10
114.955
20
-111.78
40
0.8
0
CIRCLE
8
BLACK
10
113.685
20
-114.32
40
0.8
0
CIRCLE
8
BLACK
10
112.288
20
-112.517
40
0.75
0
CIRCLE
8
BLACK
10
95.51
20
-111.78
40
0.8
0
CIRCLE
8
BLACK
10
94.24
20
-114.32
40
0.8
0
CIRCLE
8
BLACK
10
92.97
20
-111.78
40
0.8
0
CIRCLE
8
BLACK
10
91.7
20
-114.32
40
0.8
0
CIRCLE
8
BLACK
10
90.43
20
-111.78
40
0.8
0
CIRCLE
8
BLACK
10
89.16
20
-114.32
40
0.8
0
CIRCLE
8
BLACK
10
87.763
20
-112.517
40
0.75
0
CIRCLE
8
BLACK
10
82.575
20
-150.275
40
0.6
0
CIRCLE
8
BLACK
10
82.575
20
-152.275
40
0.6
0
CIRCLE
8
BLACK
10
84.575
20
-152.275
40
0.6
0
CIRCLE
8
BLACK
10
84.575
20
-150.275
40
0.6
0
CIRCLE
8
BLACK
10
124.575
20
-150.275
40
0.6
0
CIRCLE
8
BLACK
10
124.575
20
-152.275
40
0.6
0
CIRCLE
8
BLACK
10
126.575
20
-152.275
40
0.6
0
CIRCLE
8
BLACK
10
126.575
20
-150.275
40
0.6
0
LINE
8
BLACK
10
109.185
20
-114.375
11
109.185
21
-113.875
0
LINE
8
BLACK
10
107.685
20
-114.375
11
107.685
21
-113.875
0
ARC
8
BLACK
10
108.435
20
-113.875
40
0.75
50
360
51
540
0
ARC
8
BLACK
10
108.435
20
-114.375
40
0.75
50
180
51
360
0
LINE
8
BLACK
10
106.645
20
-114.375
11
106.645
21
-113.875
0
LINE
8
BLACK
10
105.145
20
-114.375
11
105.145
21
-113.875
0
ARC
8
BLACK
10
105.895
20
-113.875
40
0.75
50
360
51
540
0
ARC
8
BLACK
10
105.895
20
-114.375
40
0.75
50
180
51
360
0
LINE
8
BLACK
10
101.565
20
-114.375
11
101.565
21
-113.875
0
LINE
8
BLACK
10
100.065
20
-114.375
11
100.065
21
-113.875
0
ARC
8
BLACK
10
100.815
20
-113.875
40
0.75
50
360
51
540
0
ARC
8
BLACK
10
100.815
20
-114.375
40
0.75
50
180
51
360
0
LINE
8
BLACK
10
104.105
20
-114.375
11
104.105
21
-113.875
0
LINE
8
BLACK
10
102.605
20
-114.375
11
102.605
21
-113.875
0
ARC
8
BLACK
10
103.355
20
-113.875
40
0.75
50
360
51
540
0
ARC
8
BLACK
10
103.355
20
-114.375
40
0.75
50
180
51
360
0
LINE
8
BLACK
10
106.72
20
-134.07
11
105.02
21
-134.07
0
LINE
8
BLACK
10
105.02
20
-134.07
11
105.02
21
-135.77
0
LINE
8
BLACK
10
105.02
20
-135.77
11
106.72
21
-135.77
0
LINE
8
BLACK
10
106.72
20
-135.77
11
106.72
21
-134.07
0
LINE
8
BLACK
10
104.18
20
-134.07
11
102.48
21
-134.07
0
LINE
8
BLACK
10
102.48
20
-134.07
11
102.48
21
-135.77
0
LINE
8
BLACK
10
102.48
20
-135.77
11
104.18
21
-135.77
0
LINE
8
BLACK
10
104.18
20
-135.77
11
104.18
21
-134.07
0
LINE
8
BLACK
10
106.72
20
-136.61
11
105.02
21
-136.61
0
LINE
8
BLACK
10
105.02
20
-136.61
11
105.02
21
-138.31
0
LINE
8
BLACK
10
105.02
20
-138.31
11
106.72
21
-138.31
0
LINE
8
BLACK
10
106.72
20
-138.31
11
106.72
21
-136.61
0
LINE
8
BLACK
10
104.18
20
-136.61
11
102.48
21
-136.61
0
LINE
8
BLACK
10
102.48
20
-136.61
11
102.48
21
-138.31
0
LINE
8
BLACK
10
102.48
20
-138.31
11
104.18
21
-138.31
0
LINE
8
BLACK
10
104.18
20
-138.31
11
104.18
21
-136.61
0
LINE
8
BLACK
10
106.72
20
-139.15
11
105.02
21
-139.15
0
LINE
8
BLACK
10
105.02
20
-139.15
11
105.02
21
-140.85
0
LINE
8
BLACK
10
105.02
20
-140.85
11
106.72
21
-140.85
0
LINE
8
BLACK
10
106.72
20
-140.85
11
106.72
21
-139.15
0
LINE
8
BLACK
10
104.18
20
-139.15
11
102.48
21
-139.15
0
LINE
8
BLACK
10
102.48
20
-139.15
11
102.48
21
-140.85
0
LINE
8
BLACK
10
102.48
20
-140.85
11
104.18
21
-140.85
0
LINE
8
BLACK
10
104.18
20
-140.85
11
104.18
21
-139.15
0
CIRCLE
8
BLACK
10
98.1
20
-137.5
40
3.5
0
CIRCLE
8
BLACK
10
111.1
20
-137.5
40
3.5
0
LINE
8
BLACK
10
107.526
20
-65.1237
11
107.526
21
-64.2246
0
LINE
8
BLACK
10
107.526
20
-64.2246
11
106.226
21
-64.2246
0
LINE
8
BLACK
10
106.226
20
-64.2246
11
106.226
21
-65.1237
0
LINE
8
BLACK
10
106.226
20
-65.1237
11
107.526
21
-65.1237
0
LINE
8
BLACK
10
102.924
20
-65.1237
11
102.924
21
-64.2246
0
LINE
8
BLACK
10
102.924
20
-64.2246
11
101.624
21
-64.2246
0
LINE
8
BLACK
10
101.624
20
-64.2246
11
101.624
21
-65.1237
0
LINE
8
BLACK
10
101.624
20
-65.1237
11
102.924
21
-65.1237
0
LINE
8
BLACK
10
102.924
20
-63.3254
11
102.924
21
-62.4263
0
LINE
8
BLACK
10
102.924
20
-62.4263
11
101.624
21
-62.4263
0
LINE
8
BLACK
10
101.624
20
-62.4263
11
101.624
21
-63.3254
0
LINE
8
BLACK
10
101.624
20
-63.3254
11
102.924
21
-63.3254
0
LINE
8
BLACK
10
107.526
20
-63.3254
11
107.526
21
-62.4263
0
LINE
8
BLACK
10
107.526
20
-62.4263
11
106.226
21
-62.4263
0
LINE
8
BLACK
10
106.226
20
-62.4263
11
106.226
21
-63.3254
0
LINE
8
BLACK
10
106.226
20
-63.3254
11
107.526
21
-63.3254
0
LINE
8
BLACK
10
85.82
20
-71
11
85.44
21
-70.1851
0
LINE
8
BLACK
10
85.44
20
-70.1851
11
84.2613
21
-70.7347
0
LINE
8
BLACK
10
84.2613
20
-70.7347
11
84.6413
21
-71.5496
0
LINE
8
BLACK
10
84.6413
20
-71.5496
11
85.82
21
-71
0
LINE
8
BLACK
10
81.6487
20
-72.9451
11
81.2687
21
-72.1302
0
LINE
8
BLACK
10
81.2687
20
-72.1302
11
80.0901
21
-72.6798
0
LINE
8
BLACK
10
80.0901
20
-72.6798
11
80.4701
21
-73.4947
0
LINE
8
BLACK
10
80.4701
20
-73.4947
11
81.6487
21
-72.9451
0
LINE
8
BLACK
10
80.8887
20
-71.3153
11
80.5087
21
-70.5004
0
LINE
8
BLACK
10
80.5087
20
-70.5004
11
79.33
21
-71.05
0
LINE
8
BLACK
10
79.33
20
-71.05
11
79.7101
21
-71.8649
0
LINE
8
BLACK
10
79.7101
20
-71.8649
11
80.8887
21
-71.3153
0
LINE
8
BLACK
10
85.0599
20
-69.3702
11
84.6799
21
-68.5553
0
LINE
8
BLACK
10
84.6799
20
-68.5553
11
83.5013
21
-69.1049
0
LINE
8
BLACK
10
83.5013
20
-69.1049
11
83.8813
21
-69.9198
0
LINE
8
BLACK
10
83.8813
20
-69.9198
11
85.0599
21
-69.3702
0
LINE
8
BLACK
10
127.68
20
-72.4947
11
128.06
21
-71.6798
0
LINE
8
BLACK
10
128.06
20
-71.6798
11
126.881
21
-71.1302
0
LINE
8
BLACK
10
126.881
20
-71.1302
11
126.501
21
-71.9451
0
LINE
8
BLACK
10
126.501
20
-71.9451
11
127.68
21
-72.4947
0
LINE
8
BLACK
10
123.509
20
-70.5496
11
123.889
21
-69.7347
0
LINE
8
BLACK
10
123.889
20
-69.7347
11
122.71
21
-69.1851
0
LINE
8
BLACK
10
122.71
20
-69.1851
11
122.33
21
-70
0
LINE
8
BLACK
10
122.33
20
-70
11
123.509
21
-70.5496
0
LINE
8
BLACK
10
124.269
20
-68.9198
11
124.649
21
-68.1049
0
LINE
8
BLACK
10
124.649
20
-68.1049
11
123.47
21
-67.5553
0
LINE
8
BLACK
10
123.47
20
-67.5553
11
123.09
21
-68.3702
0
LINE
8
BLACK
10
123.09
20
-68.3702
11
124.269
21
-68.9198
0
LINE
8
BLACK
10
128.44
20
-70.8649
11
128.82
21
-70.05
0
LINE
8
BLACK
10
128.82
20
-70.05
11
127.641
21
-69.5004
0
LINE
8
BLACK
10
127.641
20
-69.5004
11
127.261
21
-70.3153
0
LINE
8
BLACK
10
127.261
20
-70.3153
11
128.44
21
-70.8649
0
LINE
8
BLACK
10
116.779
20
-66.3188
11
116.92
21
-65.4308
0
LINE
8
BLACK
10
116.92
20
-65.4308
11
115.635
21
-65.2273
0
LINE
8
BLACK
10
115.635
20
-65.2273
11
115.495
21
-66.1154
0
LINE
8
BLACK
10
115.495
20
-66.1154
11
116.779
21
-66.3188
0
LINE
8
BLACK
10
112.233
20
-65.5989
11
112.374
21
-64.7108
0
LINE
8
BLACK
10
112.374
20
-64.7108
11
111.09
21
-64.5073
0
LINE
8
BLACK
10
111.09
20
-64.5073
11
110.949
21
-65.3954
0
LINE
8
BLACK
10
110.949
20
-65.3954
11
112.233
21
-65.5989
0
LINE
8
BLACK
10
112.515
20
-63.8227
11
112.655
21
-62.9346
0
LINE
8
BLACK
10
112.655
20
-62.9346
11
111.371
21
-62.7312
0
LINE
8
BLACK
10
111.371
20
-62.7312
11
111.23
21
-63.6192
0
LINE
8
BLACK
10
111.23
20
-63.6192
11
112.515
21
-63.8227
0
LINE
8
BLACK
10
117.06
20
-64.5427
11
117.201
21
-63.6546
0
LINE
8
BLACK
10
117.201
20
-63.6546
11
115.917
21
-63.4511
0
LINE
8
BLACK
10
115.917
20
-63.4511
11
115.776
21
-64.3392
0
LINE
8
BLACK
10
115.776
20
-64.3392
11
117.06
21
-64.5427
0
LINE
8
BLACK
10
98.53
20
-152.5
11
99.75
21
-152.5
0
LINE
8
BLACK
10
99.75
20
-152.5
11
99.75
21
-152.1
0
LINE
8
BLACK
10
99.75
20
-152.1
11
98.53
21
-152.1
0
LINE
8
BLACK
10
98.53
20
-152.1
11
98.53
21
-152.5
0
LINE
8
BLACK
10
98.53
20
-151.85
11
99.75
21
-151.85
0
LINE
8
BLACK
10
99.75
20
-151.85
11
99.75
21
-151.45
0
LINE
8
BLACK
10
99.75
20
-151.45
11
98.53
21
-151.45
0
LINE
8
BLACK
10
98.53
20
-151.45
11
98.53
21
-151.85
0
LINE
8
BLACK
10
98.53
20
-151.2
11
99.75
21
-151.2
0
LINE
8
BLACK
10
99.75
20
-151.2
11
99.75
21
-150.8
0
LINE
8
BLACK
10
99.75
20
-150.8
11
98.53
21
-150.8
0
LINE
8
BLACK
10
98.53
20
-150.8
11
98.53
21
-151.2
0
LINE
8
BLACK
10
98.53
20
-150.55
11
99.75
21
-150.55
0
LINE
8
BLACK
10
99.75
20
-150.55
11
99.75
21
-150.15
0
LINE
8
BLACK
10
99.75
20
-150.15
11
98.53
21
-150.15
0
LINE
8
BLACK
10
98.53
20
-150.15
11
98.53
21
-150.55
0
LINE
8
BLACK
10
101.15
20
-150.55
11
102.37
21
-150.55
0
LINE
8
BLACK
10
102.37
20
-150.55
11
102.37
21
-150.15
0
LINE
8
BLACK
10
102.37
20
-150.15
11
101.15
21
-150.15
0
LINE
8
BLACK
10
101.15
20
-150.15
11
101.15
21
-150.55
0
LINE
8
BLACK
10
101.15
20
-151.2
11
102.37
21
-151.2
0
LINE
8
BLACK
10
102.37
20
-151.2
11
102.37
21
-150.8
0
LINE
8
BLACK
10
102.37
20
-150.8
11
101.15
21
-150.8
0
LINE
8
BLACK
10
101.15
20
-150.8
11
101.15
21
-151.2
0
LINE
8
BLACK
10
101.15
20
-151.85
11
102.37
21
-151.85
0
LINE
8
BLACK
10
102.37
20
-151.85
11
102.37
21
-151.45
0
LINE
8
BLACK
10
102.37
20
-151.45
11
101.15
21
-151.45
0
LINE
8
BLACK
10
101.15
20
-151.45
11
101.15
21
-151.85
0
LINE
8
BLACK
10
101.15
20
-152.5
11
102.37
21
-152.5
0
LINE
8
BLACK
10
102.37
20
-152.5
11
102.37
21
-152.1
0
LINE
8
BLACK
10
102.37
20
-152.1
11
101.15
21
-152.1
0
LINE
8
BLACK
10
101.15
20
-152.1
11
101.15
21
-152.5
0
LINE
8
BLACK
10
98.7975
20
-146.375
11
98.7975
21
-146.825
0
LINE
8
BLACK
10
98.7975
20
-146.825
11
99.3975
21
-146.825
0
LINE
8
BLACK
10
99.3975
20
-146.825
11
99.3975
21
-146.375
0
LINE
8
BLACK
10
99.3975
20
-146.375
11
98.7975
21
-146.375
0
LINE
8
BLACK
10
100.703
20
-146.375
11
100.703
21
-146.825
0
LINE
8
BLACK
10
100.703
20
-146.825
11
101.303
21
-146.825
0
LINE
8
BLACK
10
101.303
20
-146.825
11
101.303
21
-146.375
0
LINE
8
BLACK
10
101.303
20
-146.375
11
100.703
21
-146.375
0
LINE
8
BLACK
10
111.796
20
-152.411
11
111.796
21
-154.443
0
LINE
8
BLACK
10
111.796
20
-154.443
11
115.454
21
-154.443
0
LINE
8
BLACK
10
115.454
20
-154.443
11
115.454
21
-152.411
0
LINE
8
BLACK
10
115.454
20
-152.411
11
111.796
21
-152.411
0
LINE
8
BLACK
10
113.117
20
-145.807
11
113.117
21
-147.839
0
LINE
8
BLACK
10
113.117
20
-147.839
11
114.133
21
-147.839
0
LINE
8
BLACK
10
114.133
20
-147.839
11
114.133
21
-145.807
0
LINE
8
BLACK
10
114.133
20
-145.807
11
113.117
21
-145.807
0
LINE
8
BLACK
10
115.403
20
-145.807
11
115.403
21
-147.839
0
LINE
8
BLACK
10
115.403
20
-147.839
11
116.419
21
-147.839
0
LINE
8
BLACK
10
116.419
20
-147.839
11
116.419
21
-145.807
0
LINE
8
BLACK
10
116.419
20
-145.807
11
115.403
21
-145.807
0
LINE
8
BLACK
10
110.831
20
-145.807
11
110.831
21
-147.839
0
LINE
8
BLACK
10
110.831
20
-147.839
11
111.847
21
-147.839
0
LINE
8
BLACK
10
111.847
20
-147.839
11
111.847
21
-145.807
0
LINE
8
BLACK
10
111.847
20
-145.807
11
110.831
21
-145.807
0
LINE
8
BLACK
10
100.079
20
-105.005
11
101.222
21
-105.005
0
LINE
8
BLACK
10
101.222
20
-105.005
11
101.222
21
-104.37
0
LINE
8
BLACK
10
101.222
20
-104.37
11
100.079
21
-104.37
0
LINE
8
BLACK
10
100.079
20
-104.37
11
100.079
21
-105.005
0
LINE
8
BLACK
10
100.079
20
-103.481
11
101.222
21
-103.481
0
LINE
8
BLACK
10
101.222
20
-103.481
11
101.222
21
-102.846
0
LINE
8
BLACK
10
101.222
20
-102.846
11
100.079
21
-102.846
0
LINE
8
BLACK
10
100.079
20
-102.846
11
100.079
21
-103.481
0
LINE
8
BLACK
10
97.4006
20
-103.35
11
96.3998
21
-103.35
0
LINE
8
BLACK
10
96.3998
20
-103.35
11
96.3998
21
-104.15
0
LINE
8
BLACK
10
96.3998
20
-104.15
11
97.4006
21
-104.15
0
LINE
8
BLACK
10
97.4006
20
-104.15
11
97.4006
21
-103.35
0
LINE
8
BLACK
10
99.6002
20
-104.302
11
98.5994
21
-104.302
0
LINE
8
BLACK
10
98.5994
20
-104.302
11
98.5994
21
-105.103
0
LINE
8
BLACK
10
98.5994
20
-105.103
11
99.6002
21
-105.103
0
LINE
8
BLACK
10
99.6002
20
-105.103
11
99.6002
21
-104.302
0
LINE
8
BLACK
10
99.6002
20
-102.397
11
98.5994
21
-102.397
0
LINE
8
BLACK
10
98.5994
20
-102.397
11
98.5994
21
-103.198
0
LINE
8
BLACK
10
98.5994
20
-103.198
11
99.6002
21
-103.198
0
LINE
8
BLACK
10
99.6002
20
-103.198
11
99.6002
21
-102.397
0
LINE
8
BLACK
10
98.2011
20
-65.3954
11
98.0605
21
-64.5073
0
LINE
8
BLACK
10
98.0605
20
-64.5073
11
96.776
21
-64.7108
0
LINE
8
BLACK
10
96.776
20
-64.7108
11
96.9167
21
-65.5989
0
LINE
8
BLACK
10
96.9167
20
-65.5989
11
98.2011
21
-65.3954
0
LINE
8
BLACK
10
93.6553
20
-66.1154
11
93.5147
21
-65.2273
0
LINE
8
BLACK
10
93.5147
20
-65.2273
11
92.2302
21
-65.4308
0
LINE
8
BLACK
10
92.2302
20
-65.4308
11
92.3708
21
-66.3188
0
LINE
8
BLACK
10
92.3708
20
-66.3188
11
93.6553
21
-66.1154
0
LINE
8
BLACK
10
93.374
20
-64.3392
11
93.2333
21
-63.4511
0
LINE
8
BLACK
10
93.2333
20
-63.4511
11
91.9489
21
-63.6546
0
LINE
8
BLACK
10
91.9489
20
-63.6546
11
92.0895
21
-64.5427
0
LINE
8
BLACK
10
92.0895
20
-64.5427
11
93.374
21
-64.3392
0
LINE
8
BLACK
10
97.9198
20
-63.6192
11
97.7792
21
-62.7312
0
LINE
8
BLACK
10
97.7792
20
-62.7312
11
96.4947
21
-62.9346
0
LINE
8
BLACK
10
96.4947
20
-62.9346
11
96.6353
21
-63.8227
0
LINE
8
BLACK
10
96.6353
20
-63.8227
11
97.9198
21
-63.6192
0
LINE
8
BLACK
10
91.975
20
-146.4
11
91.575
21
-146.4
0
LINE
8
BLACK
10
91.975
20
-146.65
11
91.575
21
-146.65
0
ARC
8
BLACK
10
91.575
20
-146.525
40
0.125
50
450
51
630
0
ARC
8
BLACK
10
91.975
20
-146.525
40
0.125
50
270
51
450
0
LINE
8
BLACK
10
91.975
20
-146.9
11
91.575
21
-146.9
0
LINE
8
BLACK
10
91.975
20
-147.15
11
91.575
21
-147.15
0
ARC
8
BLACK
10
91.575
20
-147.025
40
0.125
50
450
51
630
0
ARC
8
BLACK
10
91.975
20
-147.025
40
0.125
50
270
51
450
0
LINE
8
BLACK
10
91.975
20
-147.4
11
91.575
21
-147.4
0
LINE
8
BLACK
10
91.975
20
-147.65
11
91.575
21
-147.65
0
ARC
8
BLACK
10
91.575
20
-147.525
40
0.125
50
450
51
630
0
ARC
8
BLACK
10
91.975
20
-147.525
40
0.125
50
270
51
450
0
LINE
8
BLACK
10
91.975
20
-147.9
11
91.575
21
-147.9
0
LINE
8
BLACK
10
91.975
20
-148.15
11
91.575
21
-148.15
0
ARC
8
BLACK
10
91.575
20
-148.025
40
0.125
50
450
51
630
0
ARC
8
BLACK
10
91.975
20
-148.025
40
0.125
50
270
51
450
0
LINE
8
BLACK
10
91.975
20
-148.4
11
91.575
21
-148.4
0
LINE
8
BLACK
10
91.975
20
-148.65
11
91.575
21
-148.65
0
ARC
8
BLACK
10
91.575
20
-148.525
40
0.125
50
450
51
630
0
ARC
8
BLACK
10
91.975
20
-148.525
40
0.125
50
270
51
450
0
LINE
8
BLACK
10
95.075
20
-148.4
11
94.675
21
-148.4
0
LINE
8
BLACK
10
95.075
20
-148.65
11
94.675
21
-148.65
0
ARC
8
BLACK
10
94.675
20
-148.525
40
0.125
50
450
51
630
0
ARC
8
BLACK
10
95.075
20
-148.525
40
0.125
50
270
51
450
0
LINE
8
BLACK
10
95.075
20
-147.9
11
94.675
21
-147.9
0
LINE
8
BLACK
10
95.075
20
-148.15
11
94.675
21
-148.15
0
ARC
8
BLACK
10
94.675
20
-148.025
40
0.125
50
450
51
630
0
ARC
8
BLACK
10
95.075
20
-148.025
40
0.125
50
270
51
450
0
LINE
8
BLACK
10
95.075
20
-147.4
11
94.675
21
-147.4
0
LINE
8
BLACK
10
95.075
20
-147.65
11
94.675
21
-147.65
0
ARC
8
BLACK
10
94.675
20
-147.525
40
0.125
50
450
51
630
0
ARC
8
BLACK
10
95.075
20
-147.525
40
0.125
50
270
51
450
0
LINE
8
BLACK
10
95.075
20
-146.9
11
94.675
21
-146.9
0
LINE
8
BLACK
10
95.075
20
-147.15
11
94.675
21
-147.15
0
ARC
8
BLACK
10
94.675
20
-147.025
40
0.125
50
450
51
630
0
ARC
8
BLACK
10
95.075
20
-147.025
40
0.125
50
270
51
450
0
LINE
8
BLACK
10
95.075
20
-146.4
11
94.675
21
-146.4
0
LINE
8
BLACK
10
95.075
20
-146.65
11
94.675
21
-146.65
0
ARC
8
BLACK
10
94.675
20
-146.525
40
0.125
50
450
51
630
0
ARC
8
BLACK
10
95.075
20
-146.525
40
0.125
50
270
51
450
0
LINE
8
BLACK
10
94.1
20
-146.285
11
92.55
21
-146.285
0
LINE
8
BLACK
10
92.55
20
-146.285
11
92.55
21
-148.765
0
LINE
8
BLACK
10
92.55
20
-148.765
11
94.1
21
-148.765
0
LINE
8
BLACK
10
94.1
20
-148.765
11
94.1
21
-146.285
0
LINE
8
BLACK
10
95.2694
20
-101.06
11
96.2702
21
-101.06
0
LINE
8
BLACK
10
96.2702
20
-101.06
11
96.2702
21
-100.26
0
LINE
8
BLACK
10
96.2702
20
-100.26
11
95.2694
21
-100.26
0
LINE
8
BLACK
10
95.2694
20
-100.26
11
95.2694
21
-101.06
0
LINE
8
BLACK
10
93.0698
20
-100.108
11
94.0706
21
-100.108
0
LINE
8
BLACK
10
94.0706
20
-100.108
11
94.0706
21
-99.3075
0
LINE
8
BLACK
10
94.0706
20
-99.3075
11
93.0698
21
-99.3075
0
LINE
8
BLACK
10
93.0698
20
-99.3075
11
93.0698
21
-100.108
0
LINE
8
BLACK
10
93.0698
20
-102.013
11
94.0706
21
-102.013
0
LINE
8
BLACK
10
94.0706
20
-102.013
11
94.0706
21
-101.212
0
LINE
8
BLACK
10
94.0706
20
-101.212
11
93.0698
21
-101.212
0
LINE
8
BLACK
10
93.0698
20
-101.212
11
93.0698
21
-102.013
0
LINE
8
BLACK
10
104.2
20
-145.125
11
103.95
21
-145.125
0
LINE
8
BLACK
10
103.95
20
-145.125
11
103.95
21
-145.375
0
LINE
8
BLACK
10
103.95
20
-145.375
11
104.2
21
-145.375
0
LINE
8
BLACK
10
104.2
20
-145.375
11
104.2
21
-145.125
0
LINE
8
BLACK
10
104.2
20
-145.625
11
103.95
21
-145.625
0
LINE
8
BLACK
10
103.95
20
-145.625
11
103.95
21
-145.875
0
LINE
8
BLACK
10
103.95
20
-145.875
11
104.2
21
-145.875
0
LINE
8
BLACK
10
104.2
20
-145.875
11
104.2
21
-145.625
0
LINE
8
BLACK
10
104.2
20
-146.125
11
103.95
21
-146.125
0
LINE
8
BLACK
10
103.95
20
-146.125
11
103.95
21
-146.375
0
LINE
8
BLACK
10
103.95
20
-146.375
11
104.2
21
-146.375
0
LINE
8
BLACK
10
104.2
20
-146.375
11
104.2
21
-146.125
0
LINE
8
BLACK
10
102.85
20
-146.125
11
102.6
21
-146.125
0
LINE
8
BLACK
10
102.6
20
-146.125
11
102.6
21
-146.375
0
LINE
8
BLACK
10
102.6
20
-146.375
11
102.85
21
-146.375
0
LINE
8
BLACK
10
102.85
20
-146.375
11
102.85
21
-146.125
0
LINE
8
BLACK
10
102.85
20
-145.625
11
102.6
21
-145.625
0
LINE
8
BLACK
10
102.6
20
-145.625
11
102.6
21
-145.875
0
LINE
8
BLACK
10
102.6
20
-145.875
11
102.85
21
-145.875
0
LINE
8
BLACK
10
102.85
20
-145.875
11
102.85
21
-145.625
0
LINE
8
BLACK
10
102.85
20
-145.125
11
102.6
21
-145.125
0
LINE
8
BLACK
10
102.6
20
-145.125
11
102.6
21
-145.375
0
LINE
8
BLACK
10
102.6
20
-145.375
11
102.85
21
-145.375
0
LINE
8
BLACK
10
102.85
20
-145.375
11
102.85
21
-145.125
0
LINE
8
BLACK
10
103.705
20
-145.155
11
103.095
21
-145.155
0
LINE
8
BLACK
10
103.095
20
-145.155
11
103.095
21
-145.595
0
LINE
8
BLACK
10
103.095
20
-145.595
11
103.705
21
-145.595
0
LINE
8
BLACK
10
103.705
20
-145.595
11
103.705
21
-145.155
0
LINE
8
BLACK
10
103.705
20
-145.905
11
103.095
21
-145.905
0
LINE
8
BLACK
10
103.095
20
-145.905
11
103.095
21
-146.345
0
LINE
8
BLACK
10
103.095
20
-146.345
11
103.705
21
-146.345
0
LINE
8
BLACK
10
103.705
20
-146.345
11
103.705
21
-145.905
0
LINE
8
BLACK
10
71.2288
20
-94.7838
11
71.2288
21
-95.6982
0
LINE
8
BLACK
10
71.2288
20
-95.6982
11
72.1432
21
-95.6982
0
LINE
8
BLACK
10
72.1432
20
-95.6982
11
72.1432
21
-94.7838
0
LINE
8
BLACK
10
72.1432
20
-94.7838
11
71.2288
21
-94.7838
0
LINE
8
BLACK
10
73.0068
20
-94.7838
11
73.0068
21
-95.6982
0
LINE
8
BLACK
10
73.0068
20
-95.6982
11
73.9212
21
-95.6982
0
LINE
8
BLACK
10
73.9212
20
-95.6982
11
73.9212
21
-94.7838
0
LINE
8
BLACK
10
73.9212
20
-94.7838
11
73.0068
21
-94.7838
0
LINE
8
BLACK
10
72.1178
20
-92.7518
11
72.1178
21
-93.6662
0
LINE
8
BLACK
10
72.1178
20
-93.6662
11
73.0322
21
-93.6662
0
LINE
8
BLACK
10
73.0322
20
-93.6662
11
73.0322
21
-92.7518
0
LINE
8
BLACK
10
73.0322
20
-92.7518
11
72.1178
21
-92.7518
0
LINE
8
BLACK
10
98.803
20
-109.324
11
98.803
21
-108.676
0
LINE
8
BLACK
10
98.803
20
-108.676
11
98.397
21
-108.676
0
LINE
8
BLACK
10
98.397
20
-108.676
11
98.397
21
-109.324
0
LINE
8
BLACK
10
98.397
20
-109.324
11
98.803
21
-109.324
0
LINE
8
BLACK
10
98.153
20
-109.324
11
98.153
21
-108.676
0
LINE
8
BLACK
10
98.153
20
-108.676
11
97.747
21
-108.676
0
LINE
8
BLACK
10
97.747
20
-108.676
11
97.747
21
-109.324
0
LINE
8
BLACK
10
97.747
20
-109.324
11
98.153
21
-109.324
0
LINE
8
BLACK
10
97.503
20
-109.324
11
97.503
21
-108.676
0
LINE
8
BLACK
10
97.503
20
-108.676
11
97.097
21
-108.676
0
LINE
8
BLACK
10
97.097
20
-108.676
11
97.097
21
-109.324
0
LINE
8
BLACK
10
97.097
20
-109.324
11
97.503
21
-109.324
0
LINE
8
BLACK
10
97.503
20
-107.524
11
97.503
21
-106.876
0
LINE
8
BLACK
10
97.503
20
-106.876
11
97.097
21
-106.876
0
LINE
8
BLACK
10
97.097
20
-106.876
11
97.097
21
-107.524
0
LINE
8
BLACK
10
97.097
20
-107.524
11
97.503
21
-107.524
0
LINE
8
BLACK
10
98.153
20
-107.524
11
98.153
21
-106.876
0
LINE
8
BLACK
10
98.153
20
-106.876
11
97.747
21
-106.876
0
LINE
8
BLACK
10
97.747
20
-106.876
11
97.747
21
-107.524
0
LINE
8
BLACK
10
97.747
20
-107.524
11
98.153
21
-107.524
0
LINE
8
BLACK
10
98.803
20
-107.524
11
98.803
21
-106.876
0
LINE
8
BLACK
10
98.803
20
-106.876
11
98.397
21
-106.876
0
LINE
8
BLACK
10
98.397
20
-106.876
11
98.397
21
-107.524
0
LINE
8
BLACK
10
98.397
20
-107.524
11
98.803
21
-107.524
0
LINE
8
BLACK
10
118.38
20
-110.119
11
118.98
21
-110.119
0
LINE
8
BLACK
10
118.98
20
-110.119
11
118.98
21
-109.72
0
LINE
8
BLACK
10
118.98
20
-109.72
11
118.38
21
-109.72
0
LINE
8
BLACK
10
118.38
20
-109.72
11
118.38
21
-110.119
0
LINE
8
BLACK
10
118.38
20
-109.22
11
118.98
21
-109.22
0
LINE
8
BLACK
10
118.98
20
-109.22
11
118.98
21
-108.821
0
LINE
8
BLACK
10
118.98
20
-108.821
11
118.38
21
-108.821
0
LINE
8
BLACK
10
118.38
20
-108.821
11
118.38
21
-109.22
0
LINE
8
BLACK
10
118.601
20
-103.3
11
118.601
21
-103.9
0
LINE
8
BLACK
10
118.601
20
-103.9
11
119
21
-103.9
0
LINE
8
BLACK
10
119
20
-103.9
11
119
21
-103.3
0
LINE
8
BLACK
10
119
20
-103.3
11
118.601
21
-103.3
0
LINE
8
BLACK
10
119.5
20
-103.3
11
119.5
21
-103.9
0
LINE
8
BLACK
10
119.5
20
-103.9
11
119.899
21
-103.9
0
LINE
8
BLACK
10
119.899
20
-103.9
11
119.899
21
-103.3
0
LINE
8
BLACK
10
119.899
20
-103.3
11
119.5
21
-103.3
0
LINE
8
BLACK
10
98.2997
20
-147.801
11
97.7003
21
-147.801
0
LINE
8
BLACK
10
97.7003
20
-147.801
11
97.7003
21
-148.2
0
LINE
8
BLACK
10
97.7003
20
-148.2
11
98.2997
21
-148.2
0
LINE
8
BLACK
10
98.2997
20
-148.2
11
98.2997
21
-147.801
0
LINE
8
BLACK
10
98.2997
20
-148.7
11
97.7003
21
-148.7
0
LINE
8
BLACK
10
97.7003
20
-148.7
11
97.7003
21
-149.099
0
LINE
8
BLACK
10
97.7003
20
-149.099
11
98.2997
21
-149.099
0
LINE
8
BLACK
10
98.2997
20
-149.099
11
98.2997
21
-148.7
0
LINE
8
BLACK
10
121.849
20
-103.9
11
121.849
21
-103.3
0
LINE
8
BLACK
10
121.849
20
-103.3
11
121.45
21
-103.3
0
LINE
8
BLACK
10
121.45
20
-103.3
11
121.45
21
-103.9
0
LINE
8
BLACK
10
121.45
20
-103.9
11
121.849
21
-103.9
0
LINE
8
BLACK
10
120.95
20
-103.9
11
120.95
21
-103.3
0
LINE
8
BLACK
10
120.95
20
-103.3
11
120.551
21
-103.3
0
LINE
8
BLACK
10
120.551
20
-103.3
11
120.551
21
-103.9
0
LINE
8
BLACK
10
120.551
20
-103.9
11
120.95
21
-103.9
0
LINE
8
BLACK
10
92.5497
20
-100.001
11
91.9503
21
-100.001
0
LINE
8
BLACK
10
91.9503
20
-100.001
11
91.9503
21
-100.4
0
LINE
8
BLACK
10
91.9503
20
-100.4
11
92.5497
21
-100.4
0
LINE
8
BLACK
10
92.5497
20
-100.4
11
92.5497
21
-100.001
0
LINE
8
BLACK
10
92.5497
20
-100.9
11
91.9503
21
-100.9
0
LINE
8
BLACK
10
91.9503
20
-100.9
11
91.9503
21
-101.299
0
LINE
8
BLACK
10
91.9503
20
-101.299
11
92.5497
21
-101.299
0
LINE
8
BLACK
10
92.5497
20
-101.299
11
92.5497
21
-100.9
0
LINE
8
BLACK
10
124.1
20
-104.751
11
123.5
21
-104.751
0
LINE
8
BLACK
10
123.5
20
-104.751
11
123.5
21
-105.15
0
LINE
8
BLACK
10
123.5
20
-105.15
11
124.1
21
-105.15
0
LINE
8
BLACK
10
124.1
20
-105.15
11
124.1
21
-104.751
0
LINE
8
BLACK
10
124.1
20
-105.65
11
123.5
21
-105.65
0
LINE
8
BLACK
10
123.5
20
-105.65
11
123.5
21
-106.049
0
LINE
8
BLACK
10
123.5
20
-106.049
11
124.1
21
-106.049
0
LINE
8
BLACK
10
124.1
20
-106.049
11
124.1
21
-105.65
0
LINE
8
BLACK
10
85.726
20
-104
11
85.726
21
-104.6
0
LINE
8
BLACK
10
85.726
20
-104.6
11
86.1248
21
-104.6
0
LINE
8
BLACK
10
86.1248
20
-104.6
11
86.1248
21
-104
0
LINE
8
BLACK
10
86.1248
20
-104
11
85.726
21
-104
0
LINE
8
BLACK
10
86.6252
20
-104
11
86.6252
21
-104.6
0
LINE
8
BLACK
10
86.6252
20
-104.6
11
87.024
21
-104.6
0
LINE
8
BLACK
10
87.024
20
-104.6
11
87.024
21
-104
0
LINE
8
BLACK
10
87.024
20
-104
11
86.6252
21
-104
0
LINE
8
BLACK
10
111.141
20
-144.68
11
111.141
21
-145.28
0
LINE
8
BLACK
10
111.141
20
-145.28
11
111.54
21
-145.28
0
LINE
8
BLACK
10
111.54
20
-145.28
11
111.54
21
-144.68
0
LINE
8
BLACK
10
111.54
20
-144.68
11
111.141
21
-144.68
0
LINE
8
BLACK
10
112.04
20
-144.68
11
112.04
21
-145.28
0
LINE
8
BLACK
10
112.04
20
-145.28
11
112.439
21
-145.28
0
LINE
8
BLACK
10
112.439
20
-145.28
11
112.439
21
-144.68
0
LINE
8
BLACK
10
112.439
20
-144.68
11
112.04
21
-144.68
0
LINE
8
BLACK
10
85.3997
20
-105.921
11
84.8003
21
-105.921
0
LINE
8
BLACK
10
84.8003
20
-105.921
11
84.8003
21
-106.32
0
LINE
8
BLACK
10
84.8003
20
-106.32
11
85.3997
21
-106.32
0
LINE
8
BLACK
10
85.3997
20
-106.32
11
85.3997
21
-105.921
0
LINE
8
BLACK
10
85.3997
20
-106.82
11
84.8003
21
-106.82
0
LINE
8
BLACK
10
84.8003
20
-106.82
11
84.8003
21
-107.219
0
LINE
8
BLACK
10
84.8003
20
-107.219
11
85.3997
21
-107.219
0
LINE
8
BLACK
10
85.3997
20
-107.219
11
85.3997
21
-106.82
0
LINE
8
BLACK
10
91.4897
20
-107.581
11
90.8903
21
-107.581
0
LINE
8
BLACK
10
90.8903
20
-107.581
11
90.8903
21
-107.98
0
LINE
8
BLACK
10
90.8903
20
-107.98
11
91.4897
21
-107.98
0
LINE
8
BLACK
10
91.4897
20
-107.98
11
91.4897
21
-107.581
0
LINE
8
BLACK
10
91.4897
20
-108.48
11
90.8903
21
-108.48
0
LINE
8
BLACK
10
90.8903
20
-108.48
11
90.8903
21
-108.879
0
LINE
8
BLACK
10
90.8903
20
-108.879
11
91.4897
21
-108.879
0
LINE
8
BLACK
10
91.4897
20
-108.879
11
91.4897
21
-108.48
0
LINE
8
BLACK
10
101.675
20
-104.874
11
102.275
21
-104.874
0
LINE
8
BLACK
10
102.275
20
-104.874
11
102.275
21
-104.475
0
LINE
8
BLACK
10
102.275
20
-104.475
11
101.675
21
-104.475
0
LINE
8
BLACK
10
101.675
20
-104.475
11
101.675
21
-104.874
0
LINE
8
BLACK
10
101.675
20
-103.975
11
102.275
21
-103.975
0
LINE
8
BLACK
10
102.275
20
-103.975
11
102.275
21
-103.576
0
LINE
8
BLACK
10
102.275
20
-103.576
11
101.675
21
-103.576
0
LINE
8
BLACK
10
101.675
20
-103.576
11
101.675
21
-103.975
0
LINE
8
BLACK
10
91.5597
20
-100.001
11
90.9603
21
-100.001
0
LINE
8
BLACK
10
90.9603
20
-100.001
11
90.9603
21
-100.4
0
LINE
8
BLACK
10
90.9603
20
-100.4
11
91.5597
21
-100.4
0
LINE
8
BLACK
10
91.5597
20
-100.4
11
91.5597
21
-100.001
0
LINE
8
BLACK
10
91.5597
20
-100.9
11
90.9603
21
-100.9
0
LINE
8
BLACK
10
90.9603
20
-100.9
11
90.9603
21
-101.299
0
LINE
8
BLACK
10
90.9603
20
-101.299
11
91.5597
21
-101.299
0
LINE
8
BLACK
10
91.5597
20
-101.299
11
91.5597
21
-100.9
0
LINE
8
BLACK
10
95.826
20
-147.725
11
95.826
21
-148.325
0
LINE
8
BLACK
10
95.826
20
-148.325
11
96.2248
21
-148.325
0
LINE
8
BLACK
10
96.2248
20
-148.325
11
96.2248
21
-147.725
0
LINE
8
BLACK
10
96.2248
20
-147.725
11
95.826
21
-147.725
0
LINE
8
BLACK
10
96.7252
20
-147.725
11
96.7252
21
-148.325
0
LINE
8
BLACK
10
96.7252
20
-148.325
11
97.124
21
-148.325
0
LINE
8
BLACK
10
97.124
20
-148.325
11
97.124
21
-147.725
0
LINE
8
BLACK
10
97.124
20
-147.725
11
96.7252
21
-147.725
0
LINE
8
BLACK
10
85.4103
20
-108.849
11
86.0097
21
-108.849
0
LINE
8
BLACK
10
86.0097
20
-108.849
11
86.0097
21
-108.45
0
LINE
8
BLACK
10
86.0097
20
-108.45
11
85.4103
21
-108.45
0
LINE
8
BLACK
10
85.4103
20
-108.45
11
85.4103
21
-108.849
0
LINE
8
BLACK
10
85.4103
20
-107.95
11
86.0097
21
-107.95
0
LINE
8
BLACK
10
86.0097
20
-107.95
11
86.0097
21
-107.551
0
LINE
8
BLACK
10
86.0097
20
-107.551
11
85.4103
21
-107.551
0
LINE
8
BLACK
10
85.4103
20
-107.551
11
85.4103
21
-107.95
0
LINE
8
BLACK
10
96.0747
20
-101.676
11
95.4753
21
-101.676
0
LINE
8
BLACK
10
95.4753
20
-101.676
11
95.4753
21
-102.075
0
LINE
8
BLACK
10
95.4753
20
-102.075
11
96.0747
21
-102.075
0
LINE
8
BLACK
10
96.0747
20
-102.075
11
96.0747
21
-101.676
0
LINE
8
BLACK
10
96.0747
20
-102.575
11
95.4753
21
-102.575
0
LINE
8
BLACK
10
95.4753
20
-102.575
11
95.4753
21
-102.974
0
LINE
8
BLACK
10
95.4753
20
-102.974
11
96.0747
21
-102.974
0
LINE
8
BLACK
10
96.0747
20
-102.974
11
96.0747
21
-102.575
0
LINE
8
BLACK
10
77.5297
20
-97.681
11
76.9303
21
-97.681
0
LINE
8
BLACK
10
76.9303
20
-97.681
11
76.9303
21
-98.0798
0
LINE
8
BLACK
10
76.9303
20
-98.0798
11
77.5297
21
-98.0798
0
LINE
8
BLACK
10
77.5297
20
-98.0798
11
77.5297
21
-97.681
0
LINE
8
BLACK
10
77.5297
20
-98.5802
11
76.9303
21
-98.5802
0
LINE
8
BLACK
10
76.9303
20
-98.5802
11
76.9303
21
-98.979
0
LINE
8
BLACK
10
76.9303
20
-98.979
11
77.5297
21
-98.979
0
LINE
8
BLACK
10
77.5297
20
-98.979
11
77.5297
21
-98.5802
0
LINE
8
BLACK
10
96.5997
20
-106.551
11
96.0003
21
-106.551
0
LINE
8
BLACK
10
96.0003
20
-106.551
11
96.0003
21
-106.95
0
LINE
8
BLACK
10
96.0003
20
-106.95
11
96.5997
21
-106.95
0
LINE
8
BLACK
10
96.5997
20
-106.95
11
96.5997
21
-106.551
0
LINE
8
BLACK
10
96.5997
20
-107.45
11
96.0003
21
-107.45
0
LINE
8
BLACK
10
96.0003
20
-107.45
11
96.0003
21
-107.849
0
LINE
8
BLACK
10
96.0003
20
-107.849
11
96.5997
21
-107.849
0
LINE
8
BLACK
10
96.5997
20
-107.849
11
96.5997
21
-107.45
0
LINE
8
BLACK
10
96.5997
20
-108.351
11
96.0003
21
-108.351
0
LINE
8
BLACK
10
96.0003
20
-108.351
11
96.0003
21
-108.75
0
LINE
8
BLACK
10
96.0003
20
-108.75
11
96.5997
21
-108.75
0
LINE
8
BLACK
10
96.5997
20
-108.75
11
96.5997
21
-108.351
0
LINE
8
BLACK
10
96.5997
20
-109.25
11
96.0003
21
-109.25
0
LINE
8
BLACK
10
96.0003
20
-109.25
11
96.0003
21
-109.649
0
LINE
8
BLACK
10
96.0003
20
-109.649
11
96.5997
21
-109.649
0
LINE
8
BLACK
10
96.5997
20
-109.649
11
96.5997
21
-109.25
0
LINE
8
BLACK
10
108.85
20
-104.574
11
109.45
21
-104.574
0
LINE
8
BLACK
10
109.45
20
-104.574
11
109.45
21
-104.175
0
LINE
8
BLACK
10
109.45
20
-104.175
11
108.85
21
-104.175
0
LINE
8
BLACK
10
108.85
20
-104.175
11
108.85
21
-104.574
0
LINE
8
BLACK
10
108.85
20
-103.675
11
109.45
21
-103.675
0
LINE
8
BLACK
10
109.45
20
-103.675
11
109.45
21
-103.276
0
LINE
8
BLACK
10
109.45
20
-103.276
11
108.85
21
-103.276
0
LINE
8
BLACK
10
108.85
20
-103.276
11
108.85
21
-103.675
0
LINE
8
BLACK
10
103.276
20
-150.725
11
103.276
21
-151.325
0
LINE
8
BLACK
10
103.276
20
-151.325
11
103.675
21
-151.325
0
LINE
8
BLACK
10
103.675
20
-151.325
11
103.675
21
-150.725
0
LINE
8
BLACK
10
103.675
20
-150.725
11
103.276
21
-150.725
0
LINE
8
BLACK
10
104.175
20
-150.725
11
104.175
21
-151.325
0
LINE
8
BLACK
10
104.175
20
-151.325
11
104.574
21
-151.325
0
LINE
8
BLACK
10
104.574
20
-151.325
11
104.574
21
-150.725
0
LINE
8
BLACK
10
104.574
20
-150.725
11
104.175
21
-150.725
0
LINE
8
BLACK
10
99.3997
20
-147.801
11
98.8003
21
-147.801
0
LINE
8
BLACK
10
98.8003
20
-147.801
11
98.8003
21
-148.2
0
LINE
8
BLACK
10
98.8003
20
-148.2
11
99.3997
21
-148.2
0
LINE
8
BLACK
10
99.3997
20
-148.2
11
99.3997
21
-147.801
0
LINE
8
BLACK
10
99.3997
20
-148.7
11
98.8003
21
-148.7
0
LINE
8
BLACK
10
98.8003
20
-148.7
11
98.8003
21
-149.099
0
LINE
8
BLACK
10
98.8003
20
-149.099
11
99.3997
21
-149.099
0
LINE
8
BLACK
10
99.3997
20
-149.099
11
99.3997
21
-148.7
0
LINE
8
BLACK
10
99.049
20
-110.4
11
99.049
21
-109.8
0
LINE
8
BLACK
10
99.049
20
-109.8
11
98.6502
21
-109.8
0
LINE
8
BLACK
10
98.6502
20
-109.8
11
98.6502
21
-110.4
0
LINE
8
BLACK
10
98.6502
20
-110.4
11
99.049
21
-110.4
0
LINE
8
BLACK
10
98.1498
20
-110.4
11
98.1498
21
-109.8
0
LINE
8
BLACK
10
98.1498
20
-109.8
11
97.751
21
-109.8
0
LINE
8
BLACK
10
97.751
20
-109.8
11
97.751
21
-110.4
0
LINE
8
BLACK
10
97.751
20
-110.4
11
98.1498
21
-110.4
0
LINE
8
BLACK
10
75.7803
20
-98.979
11
76.3797
21
-98.979
0
LINE
8
BLACK
10
76.3797
20
-98.979
11
76.3797
21
-98.5802
0
LINE
8
BLACK
10
76.3797
20
-98.5802
11
75.7803
21
-98.5802
0
LINE
8
BLACK
10
75.7803
20
-98.5802
11
75.7803
21
-98.979
0
LINE
8
BLACK
10
75.7803
20
-98.0798
11
76.3797
21
-98.0798
0
LINE
8
BLACK
10
76.3797
20
-98.0798
11
76.3797
21
-97.681
0
LINE
8
BLACK
10
76.3797
20
-97.681
11
75.7803
21
-97.681
0
LINE
8
BLACK
10
75.7803
20
-97.681
11
75.7803
21
-98.0798
0
LINE
8
BLACK
10
97.051
20
-105.8
11
97.051
21
-106.4
0
LINE
8
BLACK
10
97.051
20
-106.4
11
97.4498
21
-106.4
0
LINE
8
BLACK
10
97.4498
20
-106.4
11
97.4498
21
-105.8
0
LINE
8
BLACK
10
97.4498
20
-105.8
11
97.051
21
-105.8
0
LINE
8
BLACK
10
97.9502
20
-105.8
11
97.9502
21
-106.4
0
LINE
8
BLACK
10
97.9502
20
-106.4
11
98.349
21
-106.4
0
LINE
8
BLACK
10
98.349
20
-106.4
11
98.349
21
-105.8
0
LINE
8
BLACK
10
98.349
20
-105.8
11
97.9502
21
-105.8
0
LINE
8
BLACK
10
109.101
20
-98.6003
11
109.101
21
-99.1997
0
LINE
8
BLACK
10
109.101
20
-99.1997
11
109.5
21
-99.1997
0
LINE
8
BLACK
10
109.5
20
-99.1997
11
109.5
21
-98.6003
0
LINE
8
BLACK
10
109.5
20
-98.6003
11
109.101
21
-98.6003
0
LINE
8
BLACK
10
110
20
-98.6003
11
110
21
-99.1997
0
LINE
8
BLACK
10
110
20
-99.1997
11
110.399
21
-99.1997
0
LINE
8
BLACK
10
110.399
20
-99.1997
11
110.399
21
-98.6003
0
LINE
8
BLACK
10
110.399
20
-98.6003
11
110
21
-98.6003
0
LINE
8
BLACK
10
110.8
20
-100.574
11
111.4
21
-100.574
0
LINE
8
BLACK
10
111.4
20
-100.574
11
111.4
21
-100.175
0
LINE
8
BLACK
10
111.4
20
-100.175
11
110.8
21
-100.175
0
LINE
8
BLACK
10
110.8
20
-100.175
11
110.8
21
-100.574
0
LINE
8
BLACK
10
110.8
20
-99.6748
11
111.4
21
-99.6748
0
LINE
8
BLACK
10
111.4
20
-99.6748
11
111.4
21
-99.276
0
LINE
8
BLACK
10
111.4
20
-99.276
11
110.8
21
-99.276
0
LINE
8
BLACK
10
110.8
20
-99.276
11
110.8
21
-99.6748
0
LINE
8
BLACK
10
90.1003
20
-147.649
11
90.6997
21
-147.649
0
LINE
8
BLACK
10
90.6997
20
-147.649
11
90.6997
21
-147.25
0
LINE
8
BLACK
10
90.6997
20
-147.25
11
90.1003
21
-147.25
0
LINE
8
BLACK
10
90.1003
20
-147.25
11
90.1003
21
-147.649
0
LINE
8
BLACK
10
90.1003
20
-146.75
11
90.6997
21
-146.75
0
LINE
8
BLACK
10
90.6997
20
-146.75
11
90.6997
21
-146.351
0
LINE
8
BLACK
10
90.6997
20
-146.351
11
90.1003
21
-146.351
0
LINE
8
BLACK
10
90.1003
20
-146.351
11
90.1003
21
-146.75
0
LINE
8
BLACK
10
104.574
20
-152.325
11
104.574
21
-151.725
0
LINE
8
BLACK
10
104.574
20
-151.725
11
104.175
21
-151.725
0
LINE
8
BLACK
10
104.175
20
-151.725
11
104.175
21
-152.325
0
LINE
8
BLACK
10
104.175
20
-152.325
11
104.574
21
-152.325
0
LINE
8
BLACK
10
103.675
20
-152.325
11
103.675
21
-151.725
0
LINE
8
BLACK
10
103.675
20
-151.725
11
103.276
21
-151.725
0
LINE
8
BLACK
10
103.276
20
-151.725
11
103.276
21
-152.325
0
LINE
8
BLACK
10
103.276
20
-152.325
11
103.675
21
-152.325
0
LINE
8
BLACK
10
73.724
20
-97.1247
11
73.724
21
-96.5253
0
LINE
8
BLACK
10
73.724
20
-96.5253
11
73.3252
21
-96.5253
0
LINE
8
BLACK
10
73.3252
20
-96.5253
11
73.3252
21
-97.1247
0
LINE
8
BLACK
10
73.3252
20
-97.1247
11
73.724
21
-97.1247
0
LINE
8
BLACK
10
72.8248
20
-97.1247
11
72.8248
21
-96.5253
0
LINE
8
BLACK
10
72.8248
20
-96.5253
11
72.426
21
-96.5253
0
LINE
8
BLACK
10
72.426
20
-96.5253
11
72.426
21
-97.1247
0
LINE
8
BLACK
10
72.426
20
-97.1247
11
72.8248
21
-97.1247
0
LINE
8
BLACK
10
108.275
20
-101.576
11
107.675
21
-101.576
0
LINE
8
BLACK
10
107.675
20
-101.576
11
107.675
21
-101.975
0
LINE
8
BLACK
10
107.675
20
-101.975
11
108.275
21
-101.975
0
LINE
8
BLACK
10
108.275
20
-101.975
11
108.275
21
-101.576
0
LINE
8
BLACK
10
108.275
20
-102.475
11
107.675
21
-102.475
0
LINE
8
BLACK
10
107.675
20
-102.475
11
107.675
21
-102.874
0
LINE
8
BLACK
10
107.675
20
-102.874
11
108.275
21
-102.874
0
LINE
8
BLACK
10
108.275
20
-102.874
11
108.275
21
-102.475
0
LINE
8
BLACK
10
105.259
20
-66.6197
11
105.259
21
-66.0203
0
LINE
8
BLACK
10
105.259
20
-66.0203
11
104.86
21
-66.0203
0
LINE
8
BLACK
10
104.86
20
-66.0203
11
104.86
21
-66.6197
0
LINE
8
BLACK
10
104.86
20
-66.6197
11
105.259
21
-66.6197
0
LINE
8
BLACK
10
104.36
20
-66.6197
11
104.36
21
-66.0203
0
LINE
8
BLACK
10
104.36
20
-66.0203
11
103.961
21
-66.0203
0
LINE
8
BLACK
10
103.961
20
-66.0203
11
103.961
21
-66.6197
0
LINE
8
BLACK
10
103.961
20
-66.6197
11
104.36
21
-66.6197
0
LINE
8
BLACK
10
90.4503
20
-65.449
11
91.0497
21
-65.449
0
LINE
8
BLACK
10
91.0497
20
-65.449
11
91.0497
21
-65.0502
0
LINE
8
BLACK
10
91.0497
20
-65.0502
11
90.4503
21
-65.0502
0
LINE
8
BLACK
10
90.4503
20
-65.0502
11
90.4503
21
-65.449
0
LINE
8
BLACK
10
90.4503
20
-64.5498
11
91.0497
21
-64.5498
0
LINE
8
BLACK
10
91.0497
20
-64.5498
11
91.0497
21
-64.151
0
LINE
8
BLACK
10
91.0497
20
-64.151
11
90.4503
21
-64.151
0
LINE
8
BLACK
10
90.4503
20
-64.151
11
90.4503
21
-64.5498
0
LINE
8
BLACK
10
87.801
20
-103.625
11
87.801
21
-104.225
0
LINE
8
BLACK
10
87.801
20
-104.225
11
88.1998
21
-104.225
0
LINE
8
BLACK
10
88.1998
20
-104.225
11
88.1998
21
-103.625
0
LINE
8
BLACK
10
88.1998
20
-103.625
11
87.801
21
-103.625
0
LINE
8
BLACK
10
88.7002
20
-103.625
11
88.7002
21
-104.225
0
LINE
8
BLACK
10
88.7002
20
-104.225
11
89.099
21
-104.225
0
LINE
8
BLACK
10
89.099
20
-104.225
11
89.099
21
-103.625
0
LINE
8
BLACK
10
89.099
20
-103.625
11
88.7002
21
-103.625
0
LINE
8
BLACK
10
104.574
20
-150.325
11
104.574
21
-149.725
0
LINE
8
BLACK
10
104.574
20
-149.725
11
104.175
21
-149.725
0
LINE
8
BLACK
10
104.175
20
-149.725
11
104.175
21
-150.325
0
LINE
8
BLACK
10
104.175
20
-150.325
11
104.574
21
-150.325
0
LINE
8
BLACK
10
103.675
20
-150.325
11
103.675
21
-149.725
0
LINE
8
BLACK
10
103.675
20
-149.725
11
103.276
21
-149.725
0
LINE
8
BLACK
10
103.276
20
-149.725
11
103.276
21
-150.325
0
LINE
8
BLACK
10
103.276
20
-150.325
11
103.675
21
-150.325
0
LINE
8
BLACK
10
94.4503
20
-103.874
11
95.0497
21
-103.874
0
LINE
8
BLACK
10
95.0497
20
-103.874
11
95.0497
21
-103.475
0
LINE
8
BLACK
10
95.0497
20
-103.475
11
94.4503
21
-103.475
0
LINE
8
BLACK
10
94.4503
20
-103.475
11
94.4503
21
-103.874
0
LINE
8
BLACK
10
94.4503
20
-102.975
11
95.0497
21
-102.975
0
LINE
8
BLACK
10
95.0497
20
-102.975
11
95.0497
21
-102.576
0
LINE
8
BLACK
10
95.0497
20
-102.576
11
94.4503
21
-102.576
0
LINE
8
BLACK
10
94.4503
20
-102.576
11
94.4503
21
-102.975
0
LINE
8
BLACK
10
97.3753
20
-151.224
11
97.9747
21
-151.224
0
LINE
8
BLACK
10
97.9747
20
-151.224
11
97.9747
21
-150.825
0
LINE
8
BLACK
10
97.9747
20
-150.825
11
97.3753
21
-150.825
0
LINE
8
BLACK
10
97.3753
20
-150.825
11
97.3753
21
-151.224
0
LINE
8
BLACK
10
97.3753
20
-150.325
11
97.9747
21
-150.325
0
LINE
8
BLACK
10
97.9747
20
-150.325
11
97.9747
21
-149.926
0
LINE
8
BLACK
10
97.9747
20
-149.926
11
97.3753
21
-149.926
0
LINE
8
BLACK
10
97.3753
20
-149.926
11
97.3753
21
-150.325
0
LINE
8
BLACK
10
86.601
20
-69.8003
11
86.601
21
-70.3997
0
LINE
8
BLACK
10
86.601
20
-70.3997
11
86.9998
21
-70.3997
0
LINE
8
BLACK
10
86.9998
20
-70.3997
11
86.9998
21
-69.8003
0
LINE
8
BLACK
10
86.9998
20
-69.8003
11
86.601
21
-69.8003
0
LINE
8
BLACK
10
87.5002
20
-69.8003
11
87.5002
21
-70.3997
0
LINE
8
BLACK
10
87.5002
20
-70.3997
11
87.899
21
-70.3997
0
LINE
8
BLACK
10
87.899
20
-70.3997
11
87.899
21
-69.8003
0
LINE
8
BLACK
10
87.899
20
-69.8003
11
87.5002
21
-69.8003
0
LINE
8
BLACK
10
117.526
20
-65.8253
11
117.526
21
-66.4247
0
LINE
8
BLACK
10
117.526
20
-66.4247
11
117.925
21
-66.4247
0
LINE
8
BLACK
10
117.925
20
-66.4247
11
117.925
21
-65.8253
0
LINE
8
BLACK
10
117.925
20
-65.8253
11
117.526
21
-65.8253
0
LINE
8
BLACK
10
118.425
20
-65.8253
11
118.425
21
-66.4247
0
LINE
8
BLACK
10
118.425
20
-66.4247
11
118.824
21
-66.4247
0
LINE
8
BLACK
10
118.824
20
-66.4247
11
118.824
21
-65.8253
0
LINE
8
BLACK
10
118.824
20
-65.8253
11
118.425
21
-65.8253
0
LINE
8
BLACK
10
129.075
20
-72.176
11
128.475
21
-72.176
0
LINE
8
BLACK
10
128.475
20
-72.176
11
128.475
21
-72.5748
0
LINE
8
BLACK
10
128.475
20
-72.5748
11
129.075
21
-72.5748
0
LINE
8
BLACK
10
129.075
20
-72.5748
11
129.075
21
-72.176
0
LINE
8
BLACK
10
129.075
20
-73.0752
11
128.475
21
-73.0752
0
LINE
8
BLACK
10
128.475
20
-73.0752
11
128.475
21
-73.474
0
LINE
8
BLACK
10
128.475
20
-73.474
11
129.075
21
-73.474
0
LINE
8
BLACK
10
129.075
20
-73.474
11
129.075
21
-73.0752
0
LINE
8
BLACK
10
119.875
20
-65.976
11
119.275
21
-65.976
0
LINE
8
BLACK
10
119.275
20
-65.976
11
119.275
21
-66.3748
0
LINE
8
BLACK
10
119.275
20
-66.3748
11
119.875
21
-66.3748
0
LINE
8
BLACK
10
119.875
20
-66.3748
11
119.875
21
-65.976
0
LINE
8
BLACK
10
119.875
20
-66.8752
11
119.275
21
-66.8752
0
LINE
8
BLACK
10
119.275
20
-66.8752
11
119.275
21
-67.274
0
LINE
8
BLACK
10
119.275
20
-67.274
11
119.875
21
-67.274
0
LINE
8
BLACK
10
119.875
20
-67.274
11
119.875
21
-66.8752
0
LINE
8
BLACK
10
120.875
20
-65.976
11
120.275
21
-65.976
0
LINE
8
BLACK
10
120.275
20
-65.976
11
120.275
21
-66.3748
0
LINE
8
BLACK
10
120.275
20
-66.3748
11
120.875
21
-66.3748
0
LINE
8
BLACK
10
120.875
20
-66.3748
11
120.875
21
-65.976
0
LINE
8
BLACK
10
120.875
20
-66.8752
11
120.275
21
-66.8752
0
LINE
8
BLACK
10
120.275
20
-66.8752
11
120.275
21
-67.274
0
LINE
8
BLACK
10
120.275
20
-67.274
11
120.875
21
-67.274
0
LINE
8
BLACK
10
120.875
20
-67.274
11
120.875
21
-66.8752
0
LINE
8
BLACK
10
108.85
20
-102.874
11
109.45
21
-102.874
0
LINE
8
BLACK
10
109.45
20
-102.874
11
109.45
21
-102.475
0
LINE
8
BLACK
10
109.45
20
-102.475
11
108.85
21
-102.475
0
LINE
8
BLACK
10
108.85
20
-102.475
11
108.85
21
-102.874
0
LINE
8
BLACK
10
108.85
20
-101.975
11
109.45
21
-101.975
0
LINE
8
BLACK
10
109.45
20
-101.975
11
109.45
21
-101.576
0
LINE
8
BLACK
10
109.45
20
-101.576
11
108.85
21
-101.576
0
LINE
8
BLACK
10
108.85
20
-101.576
11
108.85
21
-101.975
0
LINE
8
BLACK
10
110.025
20
-102.874
11
110.625
21
-102.874
0
LINE
8
BLACK
10
110.625
20
-102.874
11
110.625
21
-102.475
0
LINE
8
BLACK
10
110.625
20
-102.475
11
110.025
21
-102.475
0
LINE
8
BLACK
10
110.025
20
-102.475
11
110.025
21
-102.874
0
LINE
8
BLACK
10
110.025
20
-101.975
11
110.625
21
-101.975
0
LINE
8
BLACK
10
110.625
20
-101.975
11
110.625
21
-101.576
0
LINE
8
BLACK
10
110.625
20
-101.576
11
110.025
21
-101.576
0
LINE
8
BLACK
10
110.025
20
-101.576
11
110.025
21
-101.975
0
LINE
8
BLACK
10
120.041
20
-141.054
11
119.127
21
-141.054
0
LINE
8
BLACK
10
119.127
20
-141.054
11
119.127
21
-141.968
0
LINE
8
BLACK
10
119.127
20
-141.968
11
120.041
21
-141.968
0
LINE
8
BLACK
10
120.041
20
-141.968
11
120.041
21
-141.054
0
LINE
8
BLACK
10
120.041
20
-142.832
11
119.127
21
-142.832
0
LINE
8
BLACK
10
119.127
20
-142.832
11
119.127
21
-143.746
0
LINE
8
BLACK
10
119.127
20
-143.746
11
120.041
21
-143.746
0
LINE
8
BLACK
10
120.041
20
-143.746
11
120.041
21
-142.832
0
LINE
8
BLACK
10
122.073
20
-141.943
11
121.159
21
-141.943
0
LINE
8
BLACK
10
121.159
20
-141.943
11
121.159
21
-142.857
0
LINE
8
BLACK
10
121.159
20
-142.857
11
122.073
21
-142.857
0
LINE
8
BLACK
10
122.073
20
-142.857
11
122.073
21
-141.943
0
LINE
8
BLACK
10
88.5045
20
-110.747
11
88.5045
21
-109.604
0
LINE
8
BLACK
10
88.5045
20
-109.604
11
87.8695
21
-109.604
0
LINE
8
BLACK
10
87.8695
20
-109.604
11
87.8695
21
-110.747
0
LINE
8
BLACK
10
87.8695
20
-110.747
11
88.5045
21
-110.747
0
LINE
8
BLACK
10
86.9805
20
-110.747
11
86.9805
21
-109.604
0
LINE
8
BLACK
10
86.9805
20
-109.604
11
86.3455
21
-109.604
0
LINE
8
BLACK
10
86.3455
20
-109.604
11
86.3455
21
-110.747
0
LINE
8
BLACK
10
86.3455
20
-110.747
11
86.9805
21
-110.747
0
LINE
8
BLACK
10
117.079
20
-107.06
11
118.222
21
-107.06
0
LINE
8
BLACK
10
118.222
20
-107.06
11
118.222
21
-106.425
0
LINE
8
BLACK
10
118.222
20
-106.425
11
117.079
21
-106.425
0
LINE
8
BLACK
10
117.079
20
-106.425
11
117.079
21
-107.06
0
LINE
8
BLACK
10
117.079
20
-105.536
11
118.222
21
-105.536
0
LINE
8
BLACK
10
118.222
20
-105.536
11
118.222
21
-104.901
0
LINE
8
BLACK
10
118.222
20
-104.901
11
117.079
21
-104.901
0
LINE
8
BLACK
10
117.079
20
-104.901
11
117.079
21
-105.536
0
LINE
8
BLACK
10
106.65
20
-108.021
11
106.05
21
-108.021
0
LINE
8
BLACK
10
106.05
20
-108.021
11
106.05
21
-108.42
0
LINE
8
BLACK
10
106.05
20
-108.42
11
106.65
21
-108.42
0
LINE
8
BLACK
10
106.65
20
-108.42
11
106.65
21
-108.021
0
LINE
8
BLACK
10
106.65
20
-108.92
11
106.05
21
-108.92
0
LINE
8
BLACK
10
106.05
20
-108.92
11
106.05
21
-109.319
0
LINE
8
BLACK
10
106.05
20
-109.319
11
106.65
21
-109.319
0
LINE
8
BLACK
10
106.65
20
-109.319
11
106.65
21
-108.92
0
LINE
8
BLACK
10
107.675
20
-104.574
11
108.275
21
-104.574
0
LINE
8
BLACK
10
108.275
20
-104.574
11
108.275
21
-104.175
0
LINE
8
BLACK
10
108.275
20
-104.175
11
107.675
21
-104.175
0
LINE
8
BLACK
10
107.675
20
-104.175
11
107.675
21
-104.574
0
LINE
8
BLACK
10
107.675
20
-103.675
11
108.275
21
-103.675
0
LINE
8
BLACK
10
108.275
20
-103.675
11
108.275
21
-103.276
0
LINE
8
BLACK
10
108.275
20
-103.276
11
107.675
21
-103.276
0
LINE
8
BLACK
10
107.675
20
-103.276
11
107.675
21
-103.675
0
LINE
8
BLACK
10
119.5
20
-146.05
11
117.9
21
-146.05
0
LINE
8
BLACK
10
117.9
20
-146.05
11
117.9
21
-147.55
0
LINE
8
BLACK
10
117.9
20
-147.55
11
119.5
21
-147.55
0
LINE
8
BLACK
10
119.5
20
-147.55
11
119.5
21
-146.05
0
LINE
8
BLACK
10
119.5
20
-148.45
11
117.9
21
-148.45
0
LINE
8
BLACK
10
117.9
20
-148.45
11
117.9
21
-149.95
0
LINE
8
BLACK
10
117.9
20
-149.95
11
119.5
21
-149.95
0
LINE
8
BLACK
10
119.5
20
-149.95
11
119.5
21
-148.45
0
LINE
8
BLACK
10
109.18
20
-146.06
11
106.38
21
-146.06
0
LINE
8
BLACK
10
106.38
20
-146.06
11
106.38
21
-147.66
0
LINE
8
BLACK
10
106.38
20
-147.66
11
109.18
21
-147.66
0
LINE
8
BLACK
10
109.18
20
-147.66
11
109.18
21
-146.06
0
LINE
8
BLACK
10
109.18
20
-148.56
11
106.38
21
-148.56
0
LINE
8
BLACK
10
106.38
20
-148.56
11
106.38
21
-150.16
0
LINE
8
BLACK
10
106.38
20
-150.16
11
109.18
21
-150.16
0
LINE
8
BLACK
10
109.18
20
-150.16
11
109.18
21
-148.56
  0
ENDSEC
  0
EOF
