  0
SECTION
  2
HEADER
  9
$ANGBASE
  50
0.0
  9
$ANGDIR
  70
  1
  9
$MEASUREMENT
  70
0
  0
ENDSEC
  0
SECTION
  2
TABLES
  0
TABLE
  2
LTYPE
  70
1
  0
LTYPE
  2
CONTINUOUS
  70
0
  3
Solid line
  72
65
  73
0
  40
0.0
  0
ENDTAB
  0
TABLE
  2
STYLE
  70
4
  0
STYLE
  2
KICAD
  70
0
  40
0
  41
1
  42
1
  50
0
  71
0
  3
isocp.shx
  0
STYLE
  2
KICADB
  70
0
  40
0
  41
1
  42
1
  50
0
  71
0
  3
isocp.shx
  0
STYLE
  2
KICADI
  70
0
  40
0
  41
1
  42
1
  50
15
  71
0
  3
isocp.shx
  0
STYLE
  2
KICADBI
  70
0
  40
0
  41
1
  42
1
  50
15
  71
0
  3
isocp.shx
  0
ENDTAB
  0
TABLE
  2
LAYER
  70
24
  0
LAYER
  2
BLACK
  70
0
  62
250
  6
CONTINUOUS
  0
LAYER
  2
BLUE
  70
0
  62
5
  6
CONTINUOUS
  0
LAYER
  2
GREEN
  70
0
  62
3
  6
CONTINUOUS
  0
LAYER
  2
CYAN
  70
0
  62
4
  6
CONTINUOUS
  0
LAYER
  2
RED
  70
0
  62
1
  6
CONTINUOUS
  0
LAYER
  2
MAGENTA
  70
0
  62
6
  6
CONTINUOUS
  0
LAYER
  2
BROWN
  70
0
  62
54
  6
CONTINUOUS
  0
LAYER
  2
LIGHTGRAY
  70
0
  62
9
  6
CONTINUOUS
  0
LAYER
  2
DARKGRAY
  70
0
  62
8
  6
CONTINUOUS
  0
LAYER
  2
LIGHTBLUE
  70
0
  62
171
  6
CONTINUOUS
  0
LAYER
  2
LIGHTGREEN
  70
0
  62
91
  6
CONTINUOUS
  0
LAYER
  2
LIGHTCYAN
  70
0
  62
131
  6
CONTINUOUS
  0
LAYER
  2
LIGHTRED
  70
0
  62
11
  6
CONTINUOUS
  0
LAYER
  2
LIGHTMAGENTA
  70
0
  62
221
  6
CONTINUOUS
  0
LAYER
  2
YELLOW
  70
0
  62
2
  6
CONTINUOUS
  0
LAYER
  2
WHITE
  70
0
  62
7
  6
CONTINUOUS
  0
LAYER
  2
DARKDARKGRAY
  70
0
  62
251
  6
CONTINUOUS
  0
LAYER
  2
DARKBLUE
  70
0
  62
178
  6
CONTINUOUS
  0
LAYER
  2
DARKGREEN
  70
0
  62
98
  6
CONTINUOUS
  0
LAYER
  2
DARKCYAN
  70
0
  62
138
  6
CONTINUOUS
  0
LAYER
  2
DARKRED
  70
0
  62
18
  6
CONTINUOUS
  0
LAYER
  2
DARKMAGENTA
  70
0
  62
228
  6
CONTINUOUS
  0
LAYER
  2
DARKBROWN
  70
0
  62
58
  6
CONTINUOUS
  0
LAYER
  2
LIGHTYELLOW
  70
0
  62
51
  6
CONTINUOUS
  0
ENDTAB
  0
ENDSEC
  0
SECTION
  2
ENTITIES
0
LINE
8
BLACK
10
118.588
20
-156.532
11
119.688
21
-156.648
0
LINE
8
BLACK
10
119.688
20
-156.648
11
120.622
21
-156.93
0
LINE
8
BLACK
10
120.622
20
-156.93
11
121.389
21
-157.275
0
LINE
8
BLACK
10
121.389
20
-157.275
11
122.002
21
-157.604
0
LINE
8
BLACK
10
122.002
20
-157.604
11
122.491
21
-157.865
0
LINE
8
BLACK
10
122.491
20
-157.865
11
122.804
21
-158.002
0
LINE
8
BLACK
10
122.804
20
-158.002
11
122.915
21
-158.032
0
LINE
8
BLACK
10
86.2615
20
-158.032
11
86.319
21
-158.019
0
LINE
8
BLACK
10
86.319
20
-158.019
11
86.4826
21
-157.96
0
LINE
8
BLACK
10
86.4826
20
-157.96
11
86.7436
21
-157.836
0
LINE
8
BLACK
10
86.7436
20
-157.836
11
87.1618
21
-157.611
0
LINE
8
BLACK
10
87.1618
20
-157.611
11
87.6912
21
-157.325
0
LINE
8
BLACK
10
87.6912
20
-157.325
11
88.2622
21
-157.05
0
LINE
8
BLACK
10
88.2622
20
-157.05
11
88.9324
21
-156.796
0
LINE
8
BLACK
10
88.9324
20
-156.796
11
89.7149
21
-156.606
0
LINE
8
BLACK
10
89.7149
20
-156.606
11
90.5883
21
-156.532
0
LINE
8
BLACK
10
81.5883
20
-145.032
11
81.4899
21
-145.892
0
LINE
8
BLACK
10
81.4899
20
-145.892
11
81.2179
21
-146.565
0
LINE
8
BLACK
10
81.2179
20
-146.565
11
80.807
21
-147.092
0
LINE
8
BLACK
10
80.807
20
-147.092
11
80.292
21
-147.514
0
LINE
8
BLACK
10
80.292
20
-147.514
11
79.7075
21
-147.871
0
LINE
8
BLACK
10
79.7075
20
-147.871
11
79.0883
21
-148.206
0
LINE
8
BLACK
10
79.0883
20
-148.206
11
78.469
21
-148.559
0
LINE
8
BLACK
10
78.469
20
-148.559
11
77.8845
21
-148.971
0
LINE
8
BLACK
10
77.8845
20
-148.971
11
77.3695
21
-149.483
0
LINE
8
BLACK
10
77.3695
20
-149.483
11
77.0497
21
-149.958
0
LINE
8
BLACK
10
77.0497
20
-149.958
11
76.8031
21
-150.529
0
LINE
8
BLACK
10
76.8031
20
-150.529
11
76.6444
21
-151.215
0
LINE
8
BLACK
10
76.6444
20
-151.215
11
76.5883
21
-152.032
0
LINE
8
BLACK
10
76.2451
20
-101.081
11
77.5296
21
-101.147
0
LINE
8
BLACK
10
77.5296
20
-101.147
11
78.5908
21
-101.331
0
LINE
8
BLACK
10
78.5908
20
-101.331
11
79.4497
21
-101.616
0
LINE
8
BLACK
10
79.4497
20
-101.616
11
80.1276
21
-101.98
0
LINE
8
BLACK
10
80.1276
20
-101.98
11
80.6457
21
-102.405
0
LINE
8
BLACK
10
80.6457
20
-102.405
11
81.0253
21
-102.871
0
LINE
8
BLACK
10
81.0253
20
-102.871
11
81.393
21
-103.639
0
LINE
8
BLACK
10
81.393
20
-103.639
11
81.5531
21
-104.385
0
LINE
8
BLACK
10
81.5531
20
-104.385
11
81.5883
21
-105.032
0
LINE
8
BLACK
10
104.588
20
-61.032
11
101.577
21
-61.1122
0
LINE
8
BLACK
10
101.577
20
-61.1122
11
98.738
21
-61.3469
0
LINE
8
BLACK
10
98.738
20
-61.3469
11
96.0654
21
-61.7277
0
LINE
8
BLACK
10
96.0654
20
-61.7277
11
93.5547
21
-62.246
0
LINE
8
BLACK
10
93.5547
20
-62.246
11
91.2014
21
-62.8932
0
LINE
8
BLACK
10
91.2014
20
-62.8932
11
89.0385
21
-63.6462
0
LINE
8
BLACK
10
89.0385
20
-63.6462
11
87.0184
21
-64.5071
0
LINE
8
BLACK
10
87.0184
20
-64.5071
11
85.1363
21
-65.468
0
LINE
8
BLACK
10
85.1363
20
-65.468
11
83.388
21
-66.5208
0
LINE
8
BLACK
10
83.388
20
-66.5208
11
81.1134
21
-68.168
0
LINE
8
BLACK
10
81.1134
20
-68.168
11
79.0894
21
-69.9625
0
LINE
8
BLACK
10
79.0894
20
-69.9625
11
77.3029
21
-71.8808
0
LINE
8
BLACK
10
77.3029
20
-71.8808
11
75.7408
21
-73.8991
0
LINE
8
BLACK
10
75.7408
20
-73.8991
11
74.3902
21
-75.9938
0
LINE
8
BLACK
10
74.3902
20
-75.9938
11
73.1163
21
-78.3931
0
LINE
8
BLACK
10
73.1163
20
-78.3931
11
72.0712
21
-80.8254
0
LINE
8
BLACK
10
72.0712
20
-80.8254
11
71.2368
21
-83.2579
0
LINE
8
BLACK
10
71.2368
20
-83.2579
11
70.5948
21
-85.6578
0
LINE
8
BLACK
10
70.5948
20
-85.6578
11
70.1272
21
-87.9923
0
LINE
8
BLACK
10
70.1272
20
-87.9923
11
69.8157
21
-90.2285
0
LINE
8
BLACK
10
69.8157
20
-90.2285
11
69.6421
21
-92.3336
0
LINE
8
BLACK
10
69.6421
20
-92.3336
11
69.5883
21
-94.2748
0
LINE
8
BLACK
10
139.588
20
-94.2748
11
139.518
21
-92.0472
0
LINE
8
BLACK
10
139.518
20
-92.0472
11
139.288
21
-89.6125
0
LINE
8
BLACK
10
139.288
20
-89.6125
11
138.872
21
-87.0193
0
LINE
8
BLACK
10
138.872
20
-87.0193
11
138.244
21
-84.3163
0
LINE
8
BLACK
10
138.244
20
-84.3163
11
137.375
21
-81.5522
0
LINE
8
BLACK
10
137.375
20
-81.5522
11
136.507
21
-79.3692
0
LINE
8
BLACK
10
136.507
20
-79.3692
11
135.461
21
-77.2021
0
LINE
8
BLACK
10
135.461
20
-77.2021
11
134.224
21
-75.0746
0
LINE
8
BLACK
10
134.224
20
-75.0746
11
132.783
21
-73.0102
0
LINE
8
BLACK
10
132.783
20
-73.0102
11
131.125
21
-71.0325
0
LINE
8
BLACK
10
131.125
20
-71.0325
11
129.568
21
-69.4678
0
LINE
8
BLACK
10
129.568
20
-69.4678
11
127.843
21
-67.9933
0
LINE
8
BLACK
10
127.843
20
-67.9933
11
125.944
21
-66.6228
0
LINE
8
BLACK
10
125.944
20
-66.6228
11
123.862
21
-65.37
0
LINE
8
BLACK
10
123.862
20
-65.37
11
121.59
21
-64.2484
0
LINE
8
BLACK
10
121.59
20
-64.2484
11
119.121
21
-63.2718
0
LINE
8
BLACK
10
119.121
20
-63.2718
11
116.604
21
-62.496
0
LINE
8
BLACK
10
116.604
20
-62.496
11
113.899
21
-61.8727
0
LINE
8
BLACK
10
113.899
20
-61.8727
11
110.999
21
-61.4133
0
LINE
8
BLACK
10
110.999
20
-61.4133
11
107.898
21
-61.1292
0
LINE
8
BLACK
10
107.898
20
-61.1292
11
104.588
21
-61.032
0
LINE
8
BLACK
10
127.588
20
-105.032
11
127.607
21
-104.549
0
LINE
8
BLACK
10
127.607
20
-104.549
11
127.687
21
-103.999
0
LINE
8
BLACK
10
127.687
20
-103.999
11
127.865
21
-103.415
0
LINE
8
BLACK
10
127.865
20
-103.415
11
128.179
21
-102.83
0
LINE
8
BLACK
10
128.179
20
-102.83
11
128.664
21
-102.279
0
LINE
8
BLACK
10
128.664
20
-102.279
11
129.189
21
-101.891
0
LINE
8
BLACK
10
129.189
20
-101.891
11
129.861
21
-101.561
0
LINE
8
BLACK
10
129.861
20
-101.561
11
130.696
21
-101.305
0
LINE
8
BLACK
10
130.696
20
-101.305
11
131.714
21
-101.139
0
LINE
8
BLACK
10
131.714
20
-101.139
11
132.931
21
-101.081
0
LINE
8
BLACK
10
132.588
20
-152.032
11
132.532
21
-151.215
0
LINE
8
BLACK
10
132.532
20
-151.215
11
132.373
21
-150.529
0
LINE
8
BLACK
10
132.373
20
-150.529
11
132.127
21
-149.958
0
LINE
8
BLACK
10
132.127
20
-149.958
11
131.807
21
-149.483
0
LINE
8
BLACK
10
131.807
20
-149.483
11
131.292
21
-148.971
0
LINE
8
BLACK
10
131.292
20
-148.971
11
130.707
21
-148.559
0
LINE
8
BLACK
10
130.707
20
-148.559
11
130.088
21
-148.206
0
LINE
8
BLACK
10
130.088
20
-148.206
11
129.469
21
-147.871
0
LINE
8
BLACK
10
129.469
20
-147.871
11
128.885
21
-147.514
0
LINE
8
BLACK
10
128.885
20
-147.514
11
128.37
21
-147.092
0
LINE
8
BLACK
10
128.37
20
-147.092
11
127.959
21
-146.565
0
LINE
8
BLACK
10
127.959
20
-146.565
11
127.687
21
-145.892
0
LINE
8
BLACK
10
127.687
20
-145.892
11
127.588
21
-145.032
0
LINE
8
BLACK
10
95.8895
20
-69.5336
11
93.5886
21
-69.8333
0
LINE
8
BLACK
10
93.5886
20
-69.8333
11
91.5212
21
-70.2159
0
LINE
8
BLACK
10
91.5212
20
-70.2159
11
89.6757
21
-70.6878
0
LINE
8
BLACK
10
89.6757
20
-70.6878
11
88.0404
21
-71.2557
0
LINE
8
BLACK
10
88.0404
20
-71.2557
11
86.6035
21
-71.9258
0
LINE
8
BLACK
10
86.6035
20
-71.9258
11
85.374
21
-72.6899
0
LINE
8
BLACK
10
85.374
20
-72.6899
11
84.3135
21
-73.5651
0
LINE
8
BLACK
10
84.3135
20
-73.5651
11
83.411
21
-74.5576
0
LINE
8
BLACK
10
83.411
20
-74.5576
11
82.6552
21
-75.6734
0
LINE
8
BLACK
10
82.6552
20
-75.6734
11
81.9315
21
-77.1711
0
LINE
8
BLACK
10
81.9315
20
-77.1711
11
81.3813
21
-78.8628
0
LINE
8
BLACK
10
81.3813
20
-78.8628
11
80.986
21
-80.7588
0
LINE
8
BLACK
10
80.986
20
-80.7588
11
80.7269
21
-82.8694
0
LINE
8
BLACK
10
80.7269
20
-82.8694
11
80.5851
21
-85.2051
0
LINE
8
BLACK
10
80.5851
20
-85.2051
11
80.542
21
-87.7761
0
LINE
8
BLACK
10
128.634
20
-87.7761
11
128.595
21
-85.3167
0
LINE
8
BLACK
10
128.595
20
-85.3167
11
128.467
21
-83.0723
0
LINE
8
BLACK
10
128.467
20
-83.0723
11
128.233
21
-81.0338
0
LINE
8
BLACK
10
128.233
20
-81.0338
11
127.878
21
-79.1921
0
LINE
8
BLACK
10
127.878
20
-79.1921
11
127.385
21
-77.5382
0
LINE
8
BLACK
10
127.385
20
-77.5382
11
126.737
21
-76.0632
0
LINE
8
BLACK
10
126.737
20
-76.0632
11
125.919
21
-74.7581
0
LINE
8
BLACK
10
125.919
20
-74.7581
11
124.914
21
-73.6137
0
LINE
8
BLACK
10
124.914
20
-73.6137
11
123.838
21
-72.7158
0
LINE
8
BLACK
10
123.838
20
-72.7158
11
122.588
21
-71.9337
0
LINE
8
BLACK
10
122.588
20
-71.9337
11
121.15
21
-71.2611
0
LINE
8
BLACK
10
121.15
20
-71.2611
11
119.512
21
-70.6912
0
LINE
8
BLACK
10
119.512
20
-70.6912
11
117.664
21
-70.2177
0
LINE
8
BLACK
10
117.664
20
-70.2177
11
115.593
21
-69.834
0
LINE
8
BLACK
10
115.593
20
-69.834
11
113.287
21
-69.5336
0
LINE
8
BLACK
10
113.287
20
-69.5336
11
112.629
21
-69.4365
0
LINE
8
BLACK
10
112.629
20
-69.4365
11
112.153
21
-69.3938
0
LINE
8
BLACK
10
112.153
20
-69.3938
11
111.801
21
-69.3968
0
LINE
8
BLACK
10
111.801
20
-69.3968
11
111.378
21
-69.4677
0
LINE
8
BLACK
10
111.378
20
-69.4677
11
110.906
21
-69.592
0
LINE
8
BLACK
10
110.906
20
-69.592
11
110.59
21
-69.6649
0
LINE
8
BLACK
10
110.59
20
-69.6649
11
110.188
21
-69.7402
0
LINE
8
BLACK
10
110.188
20
-69.7402
11
109.676
21
-69.8139
0
LINE
8
BLACK
10
109.676
20
-69.8139
11
109.027
21
-69.8826
0
LINE
8
BLACK
10
109.027
20
-69.8826
11
108.219
21
-69.9424
0
LINE
8
BLACK
10
108.219
20
-69.9424
11
107.226
21
-69.9897
0
LINE
8
BLACK
10
107.226
20
-69.9897
11
106.024
21
-70.0208
0
LINE
8
BLACK
10
106.024
20
-70.0208
11
104.588
21
-70.032
0
LINE
8
BLACK
10
104.588
20
-70.032
11
103.152
21
-70.0208
0
LINE
8
BLACK
10
103.152
20
-70.0208
11
101.95
21
-69.9897
0
LINE
8
BLACK
10
101.95
20
-69.9897
11
100.957
21
-69.9424
0
LINE
8
BLACK
10
100.957
20
-69.9424
11
100.149
21
-69.8826
0
LINE
8
BLACK
10
100.149
20
-69.8826
11
99.5009
21
-69.8139
0
LINE
8
BLACK
10
99.5009
20
-69.8139
11
98.9881
21
-69.7402
0
LINE
8
BLACK
10
98.9881
20
-69.7402
11
98.5861
21
-69.6649
0
LINE
8
BLACK
10
98.5861
20
-69.6649
11
98.2702
21
-69.592
0
LINE
8
BLACK
10
98.2702
20
-69.592
11
97.7984
21
-69.4677
0
LINE
8
BLACK
10
97.7984
20
-69.4677
11
97.3757
21
-69.3968
0
LINE
8
BLACK
10
97.3757
20
-69.3968
11
97.0238
21
-69.3938
0
LINE
8
BLACK
10
97.0238
20
-69.3938
11
96.5479
21
-69.4365
0
LINE
8
BLACK
10
96.5479
20
-69.4365
11
95.8895
21
-69.5336
0
LINE
8
BLACK
10
83.0883
20
-111.032
11
83.0883
21
-115.032
0
LINE
8
BLACK
10
84.5883
20
-115.032
11
84.5883
21
-111.032
0
LINE
8
BLACK
10
84.5883
20
-120.506
11
84.5883
21
-129.558
0
LINE
8
BLACK
10
84.5883
20
-129.558
11
86.8416
21
-129.555
0
LINE
8
BLACK
10
87.3424
20
-130.054
11
87.3427
21
-130.254
0
LINE
8
BLACK
10
87.8434
20
-130.753
11
96.8434
21
-130.74
0
LINE
8
BLACK
10
97.3271
20
-130.277
11
97.3274
21
-130.077
0
LINE
8
BLACK
10
97.8282
20
-129.578
11
100.082
21
-129.581
0
LINE
8
BLACK
10
102.084
20
-127.584
11
102.092
21
-122.532
0
LINE
8
BLACK
10
100.095
20
-120.529
11
97.8416
21
-120.526
0
LINE
8
BLACK
10
97.3423
20
-120.025
11
97.3426
21
-119.825
0
LINE
8
BLACK
10
96.8434
20
-119.324
11
87.8434
21
-119.311
0
LINE
8
BLACK
10
87.3427
20
-119.81
11
87.3424
21
-120.01
0
LINE
8
BLACK
10
86.8416
20
-120.509
11
84.5883
21
-120.506
0
LINE
8
BLACK
10
124.595
20
-120.506
11
122.342
21
-120.506
0
LINE
8
BLACK
10
121.842
20
-120.006
11
121.842
21
-119.806
0
LINE
8
BLACK
10
121.342
20
-119.306
11
112.342
21
-119.306
0
LINE
8
BLACK
10
111.842
20
-119.806
11
111.842
21
-120.006
0
LINE
8
BLACK
10
111.342
20
-120.506
11
109.088
21
-120.506
0
LINE
8
BLACK
10
107.088
20
-122.506
11
107.088
21
-127.558
0
LINE
8
BLACK
10
109.088
20
-129.558
11
111.342
21
-129.558
0
LINE
8
BLACK
10
111.842
20
-130.058
11
111.842
21
-130.258
0
LINE
8
BLACK
10
112.342
20
-130.758
11
121.342
21
-130.758
0
LINE
8
BLACK
10
121.834
20
-130.254
11
121.834
21
-130.054
0
LINE
8
BLACK
10
122.335
20
-129.555
11
124.588
21
-129.558
0
LINE
8
BLACK
10
124.588
20
-129.558
11
124.588
21
-125.032
0
LINE
8
BLACK
10
124.588
20
-125.032
11
124.595
21
-120.506
0
LINE
8
BLACK
10
132.588
20
-154.032
11
132.588
21
-152.032
0
LINE
8
BLACK
10
122.915
20
-158.032
11
128.588
21
-158.032
0
LINE
8
BLACK
10
90.5883
20
-156.532
11
118.588
21
-156.532
0
LINE
8
BLACK
10
80.5883
20
-158.032
11
86.2615
21
-158.032
0
LINE
8
BLACK
10
76.5883
20
-152.032
11
76.5883
21
-154.032
0
LINE
8
BLACK
10
81.5883
20
-105.032
11
81.5883
21
-145.032
0
LINE
8
BLACK
10
70.7555
20
-97.2895
11
73.3752
21
-99.9092
0
LINE
8
BLACK
10
135.801
20
-99.9092
11
138.421
21
-97.2895
0
LINE
8
BLACK
10
127.588
20
-145.032
11
127.588
21
-105.032
0
LINE
8
BLACK
10
124.588
20
-111.032
11
124.588
21
-115.032
0
LINE
8
BLACK
10
126.088
20
-115.032
11
126.088
21
-111.032
0
LINE
8
BLACK
10
126.088
20
-139.032
11
126.088
21
-135.032
0
LINE
8
BLACK
10
124.588
20
-135.032
11
124.588
21
-139.032
0
LINE
8
BLACK
10
83.0883
20
-135.032
11
83.0883
21
-139.032
0
LINE
8
BLACK
10
84.5883
20
-139.032
11
84.5883
21
-135.032
0
LINE
8
BLACK
10
80.542
20
-87.7761
11
80.542
21
-88.5614
0
LINE
8
BLACK
10
81.4126
20
-91.3806
11
83.6949
21
-94.7236
0
LINE
8
BLACK
10
86.1726
20
-96.032
11
96.0105
21
-96.032
0
LINE
8
BLACK
10
97.1247
20
-95.8175
11
101.052
21
-94.2466
0
LINE
8
BLACK
10
102.166
20
-94.032
11
107.011
21
-94.032
0
LINE
8
BLACK
10
108.125
20
-94.2466
11
112.052
21
-95.8175
0
LINE
8
BLACK
10
113.166
20
-96.032
11
123.004
21
-96.032
0
LINE
8
BLACK
10
125.482
20
-94.7236
11
127.764
21
-91.3806
0
LINE
8
BLACK
10
128.634
20
-88.5614
11
128.634
21
-87.7761
0
ARC
8
BLACK
10
83.8383
20
-115.031
40
0.75
50
-0.1
51
-180
0
ARC
8
BLACK
10
83.8383
20
-111.033
40
0.75
50
179.9
51
0
0
ARC
8
BLACK
10
86.8424
20
-130.055
40
0.5
50
90
51
0.1
0
ARC
8
BLACK
10
87.8427
20
-130.253
40
0.500072
50
-90
51
-179.9
0
ARC
8
BLACK
10
96.8284
20
-130.24
40
0.500078
50
-4.3
51
-88.3
0
ARC
8
BLACK
10
97.8274
20
-130.078
40
0.5
50
179.9
51
89.9
0
ARC
8
BLACK
10
100.084
20
-127.581
40
2
50
-0.1
51
-90.1
0
ARC
8
BLACK
10
100.092
20
-122.529
40
2
50
89.8
51
-0.1
0
ARC
8
BLACK
10
97.8424
20
-120.026
40
0.500072
50
269.8
51
179.9
0
ARC
8
BLACK
10
96.8426
20
-119.824
40
0.5
50
89.9
51
-0.1
0
ARC
8
BLACK
10
87.8427
20
-119.811
40
0.500072
50
179.8
51
89.9
0
ARC
8
BLACK
10
86.8424
20
-120.009
40
0.499999
50
-0.1
51
-90.1
0
ARC
8
BLACK
10
122.342
20
-120.006
40
0.500072
50
-90.1
51
-180
0
ARC
8
BLACK
10
121.342
20
-119.806
40
0.5
50
89.9
51
0
0
ARC
8
BLACK
10
112.342
20
-119.806
40
0.500072
50
179.9
51
90
0
ARC
8
BLACK
10
111.342
20
-120.006
40
0.500072
50
-0.1
51
-90
0
ARC
8
BLACK
10
109.088
20
-122.506
40
2
50
179.9
51
90
0
ARC
8
BLACK
10
109.088
20
-127.558
40
2
50
269.9
51
180
0
ARC
8
BLACK
10
111.342
20
-130.058
40
0.5
50
89.9
51
0
0
ARC
8
BLACK
10
112.342
20
-130.258
40
0.500072
50
-90.1
51
-180
0
ARC
8
BLACK
10
121.334
20
-130.258
40
0.500075
50
0.4
51
-89.1
0
ARC
8
BLACK
10
122.334
20
-130.055
40
0.499999
50
179.9
51
89.9
0
ARC
8
BLACK
10
128.588
20
-154.032
40
4
50
-0.1
51
-90
0
ARC
8
BLACK
10
80.5883
20
-154.032
40
4
50
269.9
51
180
0
ARC
8
BLACK
10
76.2037
20
-97.0807
40
4.00007
50
-89.5
51
-135
0
ARC
8
BLACK
10
73.5839
20
-94.461
40
4.00002
50
224.9
51
177.3
0
ARC
8
BLACK
10
135.593
20
-94.461
40
4.00002
50
2.6
51
-45
0
ARC
8
BLACK
10
132.973
20
-97.0807
40
4.00008
50
-45.1
51
-90.6
0
ARC
8
BLACK
10
125.338
20
-115.032
40
0.75
50
359.9
51
180
0
ARC
8
BLACK
10
125.338
20
-111.032
40
0.75
50
179.9
51
0
0
ARC
8
BLACK
10
125.338
20
-135.032
40
0.75
50
179.9
51
0
0
ARC
8
BLACK
10
125.338
20
-139.032
40
0.75
50
359.9
51
180
0
ARC
8
BLACK
10
83.8383
20
-139.031
40
0.75
50
-0.1
51
-180
0
ARC
8
BLACK
10
83.8383
20
-135.033
40
0.75
50
179.9
51
0
0
ARC
8
BLACK
10
85.5421
20
-88.5614
40
5.0001
50
-145.7
51
-180
0
ARC
8
BLACK
10
86.1726
20
-93.032
40
3.00005
50
-90.1
51
-145.7
0
ARC
8
BLACK
10
96.0105
20
-93.0319
40
3.00009
50
-68.3
51
-90
0
ARC
8
BLACK
10
102.166
20
-97.0321
40
3.00009
50
111.7
51
90
0
ARC
8
BLACK
10
107.01
20
-97.0321
40
3.00009
50
89.9
51
68.2
0
ARC
8
BLACK
10
113.166
20
-93.0319
40
3.00009
50
-90.1
51
-111.8
0
ARC
8
BLACK
10
123.004
20
-93.032
40
3.00004
50
-34.4
51
-90
0
ARC
8
BLACK
10
123.634
20
-88.5614
40
5.0001
50
0
51
-34.3
  0
ENDSEC
  0
EOF
